<svg xmlns="http://www.w3.org/2000/svg" width="426" viewBox="0 0 319.5 273" height="364" version="1.0"><defs><clipPath id="j"><path d="M80.516 95.535H313v177.211H80.516zm0 0"/></clipPath><clipPath id="a"><path d="M91.95 167.172h6.796v6.797H91.95zm0 0"/></clipPath><clipPath id="c"><path d="M58.207 14.813h255.11v257.933H58.206zm0 0"/></clipPath><clipPath id="d"><path d="M64 260h69v12.785H64zm0 0"/></clipPath><clipPath id="e"><path d="M66 260.422h83.16v12.324H66zm0 0"/></clipPath><clipPath id="f"><path d="M284 14h29.316v184.59H284zm0 0"/></clipPath><clipPath id="g"><path d="M149 119h164.316v153.746H149zm0 0"/></clipPath><clipPath id="h"><path d="M149.16 95.535h164.156v177.211H149.16zm0 0"/></clipPath><clipPath id="i"><path d="M80.516 264H150v8.746H80.516zm0 0"/></clipPath><clipPath id="b"><path d="M95.348 167.172a3.398 3.398 0 1 0 0 6.797 3.398 3.398 0 0 0 0-6.797zm0 0"/></clipPath><clipPath id="k"><path d="M252 .215h41V31h-41zm0 0"/></clipPath><clipPath id="l"><path d="M252 .215h32V29h-32zm0 0"/></clipPath><clipPath id="m"><path d="M271 .215h13V29h-13zm0 0"/></clipPath><clipPath id="n"><path d="M277 .215h16V23h-16zm0 0"/></clipPath><clipPath id="o"><path d="M283 .215h1V1h-1zm0 0"/></clipPath><clipPath id="p"><path d="M283 .215h2V1h-2zm0 0"/></clipPath><clipPath id="q"><path d="M271 .215h16V29h-16zm0 0"/></clipPath><clipPath id="r"><path d="M258 .215h26V25h-26zm0 0"/></clipPath></defs><g clip-path="url(#a)"><g clip-path="url(#b)"><path fill="#62b433" d="M91.95 167.172h6.796v6.797H91.95zm0 0"/></g></g><path fill="#ffd623" d="M275.04 26.824c-.138.215-.704 1.11-1.548 2.36-.758 1.109-1.68 2.496-2.625 3.906-.976 1.465-1.984 2.926-2.82 4.203-.652.95-1.219 1.762-1.652 2.387-.438.625-.977 2.008-1.598 3.957-.625 1.925-1.3 4.449-2.035 7.265-.242.95-.489 1.926-.73 2.961-.489 2.004-1.005 4.117-1.493 6.317-.242 1.086-.488 2.172-.73 3.28-.247 1.087-.489 2.196-.73 3.286a561.752 561.752 0 0 0-2.981 14.992c1.707 7.895 2.004 15.649 1.027 23.082-4.55 35.903-38.313 65.489-90.586 78.535-1.246.325-2.52.625-3.738.895-60.508 14.32-87.227.188-107.223-9.598a101.018 101.018 0 0 1-6.91-3.691c-6.121-3.469-12.383-7.54-18.07-11.524a378.2 378.2 0 0 1-5.285-3.769c-3.66-2.656-6.91-5.18-9.622-7.297-4.148-3.226-6.882-5.559-7.613-6.21-.68-.622-1.164-1.056-1.707-1.462-.246-2.957-.355-5.86-.434-8.816.434-1.219.95-2.442 1.356-3.738.785-2.145 1.406-4.422 2.113-6.622 1.004-1.761 2.059-3.472 3.14-5.234.22 0 .411.055.65.055 2.495-1.14 5.042-1.625 7.94-1.711 6.087-.164 13.481 1.523 23.872 3.215 16.508 2.687 40.594 5.37 79.015.609 54.008-6.668 80.075-26.629 95.004-39.215 2.36-1.976 4.418-3.765 6.262-5.258 1.16-.949 2.195-1.789 3.195-2.496 1.274-.894 2.438-1.656 3.524-2.14.105-.082.273-.192.379-.325.46-.437 1.004-.949 1.52-1.574 6.202-6.972 15.359-25.219 18.8-41.168l7.371.215 2.059.031 12.902.297"/><path fill="#f8f6f1" d="M239.48 59.477c.004-.024.004-.051.004-.075 3.57-6.03 7.297-13.945 10.098-22.062-2.793 8.137-6.52 16.082-10.102 22.137"/><path fill="#f8d022" d="M40.777 155.477c-1.195-.903-2.355-1.782-3.492-2.637-.074-.063-.152-.117-.23-.176 1.59.39 3.062.762 4.383 1.086 1.949.477 3.894.992 5.835 1.531-2.12.07-4.28.133-6.496.196M239.48 59.512v-.035c3.583-6.055 7.31-14 10.102-22.137.168-.488.336-.973.492-1.457-.265.808-.539 1.62-.824 2.426-2.754 7.804-6.328 15.375-9.77 21.203"/><path fill="#eec715" d="M15.613 148.32c-4.054-3.195-6.812-5.496-7.55-6.168-.653-.609-1.172-1.062-1.688-1.449-.262-2.965-.36-5.883-.422-8.816.438-1.203.914-2.434 1.34-3.719.762-2.2 1.398-4.441 2.086-6.629a358.97 358.97 0 0 1 3.16-5.246c.211 0 .418.027.66.039 2.477-1.133 5.051-1.629 7.91-1.676-5.648 1.305-7.851 4.024-5.976 7.41.472.856 6.344 2.868 12.566 3.332-10.246-.648-13.11.309-14.082 1.184-3.187 2.867-3.23 9.426.328 11.582 3.582 2.168 6.832 3.328 10.926 6.41-9.168-3.746-11.371-3.238-11.969-1.308-.636 2.066 2.418 4.656 2.711 5.054"/><path fill="#ffde52" d="M100.754 141.11c-11.27-1.227-19.922-3.282-24.512-4.524-2.746-.742-5.453-1.535-8.18-2.34 11.57 3.309 22.454 5.535 32.692 6.863m14.668-2.89c-16.149 0-34.242-1.817-54.402-6.102.765.246 1.527.48 2.285.715-10.453-3.086-21.582-6.14-36.262-7.473.215.012.437.028.656.04-6.222-.465-12.094-2.477-12.566-3.333-1.875-3.386.328-6.105 5.976-7.41-.152 0-.308.004-.464.008.449-.02.906-.031 1.367-.031 1.93 0 3.988.172 6.238.453 11.52 1.508 27.934 6.02 56.102 6.02 11.222 0 24.312-.72 39.703-2.626 50.68-6.273 76.746-24.257 92.136-36.832 1-.82 1.957-1.62 2.868-2.386 2.05-.711 3.558-1.032 4.695-1.032 1.473 0 2.34.532 2.957 1.415-6.996 19.808-34.434 42.484-95.621 57.976-.004 0-.012.004-.02.004-5 .39-10.21.594-15.648.594m-84.777-21.106c-2.575 0 4.183 3.016 17 6.028 12.82 3.015 31.707 6.027 53.394 6.027 35.016 0 77.336-7.86 113.207-36.266 5.602-4.437 6.656-9.332 4.18-9.332-.906 0-2.278.653-4.07 2.211-15.008 13.055-44.47 29.45-87.36 34.758-15.394 1.906-28.48 2.621-39.703 2.621-28.168 0-44.582-4.512-56.102-6.015a6.315 6.315 0 0 0-.546-.032m-8.075-1.222c-2.687 0-4.71 3.183-4.07 5.68.2.784.797 1.136 1.422 1.136.676 0 1.379-.41 1.652-1.137.29-.78.45-1.554.871-2.289.383-.668.89-1.289 1.34-1.914.477-.66-.187-1.383-.836-1.453a3.084 3.084 0 0 0-.379-.023"/><path fill="#f3d448" d="M27.7 125.398c-.22-.011-.442-.027-.657-.039-4.86-.441-10.113-.691-15.855-.691-.626 0-1.25.004-1.887.012 1.87-3.84 3.988-6.93 3.988-8.043a.482.482 0 0 0-.078-.293c2.332-1.051 4.754-1.555 7.434-1.68.156-.004.312-.008.464-.008-5.648 1.305-7.851 4.024-5.976 7.41.472.856 6.344 2.868 12.566 3.332m-15.328-8.82c.05-.09.106-.176.164-.266.195 0 .38.028.598.036-.082.023-.25.07-.485.156-.085.023-.18.05-.277.074"/><path fill="#ffde52" d="M250.074 35.883c1.055-3.219 1.953-6.446 2.633-9.582v.004c-.652 3.027-1.512 6.14-2.523 9.242-.036.11-.075.223-.11.336"/><path fill="#fada51" d="M249.25 38.309c.285-.805.559-1.618.824-2.426.035-.113.074-.227.11-.336-.297.922-.61 1.84-.934 2.762"/><path fill="#ece3cf" d="M30.129 159.113c-.98-.691-1.95-1.379-2.895-2.058.946.68 1.918 1.367 2.895 2.058m-8.246-5.98c-7.406-5.535-12.758-9.988-13.82-10.98.316.288 1.007.882 2.019 1.718 1.094.906 2.57 2.113 4.367 3.527.375.297.762.606 1.164.922l-.015-.023c.03.027.062.05.093.074l2.098 1.633.2.168.011-.008a389.49 389.49 0 0 0 3.883 2.969m-14.14-11.281c-.27-.243-.52-.461-.763-.665.016.012.028.024.047.036.223.191.457.398.715.629"/><path fill="#ecc21c" d="M30.598 159.438c-.157-.11-.309-.22-.47-.325-.976-.691-1.948-1.379-2.894-2.058a334.649 334.649 0 0 1-5.351-3.922A389.49 389.49 0 0 1 18 150.164l.113-.055c2.211 1.696 4.703 3.57 7.387 5.528-.059.011-.121.02-.184.031a383.22 383.22 0 0 0 5.286 3.766s-.004 0-.004.004m-12.809-9.434c-.73-.566-1.43-1.113-2.098-1.633-.03-.023-.062-.047-.093-.074-.07-.082-.23-.242-.442-.457 1.227 1.004 2.215 1.812 2.633 2.164m-3.34-2.606a221.699 221.699 0 0 1-4.367-3.527c1.102.906 2.582 2.113 4.367 3.527"/><path fill="#deb611" d="M15.613 148.32c-.402-.316-.789-.625-1.164-.922a300.744 300.744 0 0 1-4.367-3.527 64.31 64.31 0 0 1-2.02-1.719c-.109-.105-.218-.203-.32-.3-.258-.23-.492-.438-.715-.63 1.54 1.243 5.422 4.403 8.13 6.618.21.215.37.375.44.457l.016.023"/><path fill="#ece3cf" d="M6.371 140.688s-.004 0-.004-.004c-.004-.051-.008-.106-.015-.157.003 0 .003 0 .003.004.004.051.012.106.016.156"/><path fill="#ecc21c" d="M6.371 140.688c-.004-.051-.012-.106-.016-.157h.004c.004.055.012.106.012.156M37.055 152.664c-.008 0-.008-.004-.016-.004-4.055-3.055-7.848-5.808-12.172-8.09-.023-.015-.047-.035-.066-.05 4.36 2.296 8.18 5.074 12.254 8.144"/><path fill="#e6bd1c" d="M40.777 155.477c-1.195-.903-2.355-1.782-3.492-2.637-.004-.004-.012-.004-.015-.004-.079-.059-.153-.117-.23-.176.007 0 .007.004.015.004.078.059.156.113.23.176 1.137.855 2.297 1.734 3.492 2.637"/><path fill="#deb611" d="M24.867 144.57c-4.941-2.601-10.574-4.582-18.082-5.675v-.016c7.469 1.078 13.086 3.047 18.016 5.64.02.016.043.036.066.051"/><path fill="#ece3cf" d="M6.98 141.188c-.335-.27-.55-.446-.605-.485.145.11.293.223.441.344.051.047.11.094.164.14"/><path fill="#ecc21c" d="M6.375 140.703c0-.004 0-.012-.004-.016.004.004.004.012.004.016"/><path fill="#deb611" d="M6.816 141.047a15.238 15.238 0 0 0-.441-.344c0-.004 0-.012-.004-.016.149.118.293.239.445.36"/><path fill="#ecc21c" d="m252.719 26.285-.004-.004s0 .004.004.004"/><path fill="#ddcda8" d="m17.988 150.172-.199-.168c.07.055.137.11.211.16l-.012.008m-10.96-8.95c-.02-.011-.032-.023-.048-.035-.054-.046-.113-.093-.164-.14l.211.176"/><path fill="#ddb217" d="M37.04 152.66c-5.74-1.402-13.005-3.05-20.02-3.492.058.047.12.094.18.14l-.13-.011c.34.258.668.543 1.043.812l-.113.055c-.074-.05-.14-.105-.21-.16-.419-.352-1.407-1.16-2.634-2.164-.91-.93-2.761-2.922-2.254-4.574.278-.895.903-1.485 2.403-1.485 1.742 0 4.652.785 9.566 2.793l-.004-.004c4.324 2.282 8.117 5.035 12.172 8.09M6.371 140.688c0-.051-.008-.102-.012-.157 0 0 0 .004.004.004.004.05.008.106.008.153M252.707 26.305c.004-.008.004-.016.008-.024l.004.004-.004-.004c-.004.008-.004.016-.008.024"/><path fill="#d8ae17" d="M37.27 152.836c-5.711-1.402-13.016-3.078-20.07-3.527-.06-.047-.122-.094-.18-.141 7.015.441 14.28 2.09 20.02 3.492.077.059.151.117.23.176"/><path fill="#d1a80e" d="M15.156 147.84c-2.707-2.215-6.59-5.375-8.129-6.617l-.21-.176c-.153-.121-.297-.242-.446-.36 0-.046-.004-.101-.008-.152.242.238.446.434.59.574.192.172.27.266.27.266s-.239-.977-.438-2.48c7.508 1.093 13.14 3.074 18.082 5.675l.004.004c-4.914-2.008-7.824-2.793-9.566-2.793-1.5 0-2.125.59-2.403 1.485-.507 1.652 1.344 3.644 2.254 4.574"/><path fill="#ffdb3d" d="M51.79 155.117c-7.208-3.36-13.196-6.898-17.84-10.172-7.766-5.46-12.497-8.922-11.63-11.539.66-1.992 2.2-2.808 4.778-2.808 2.136 0 4.996.566 8.66 1.488 12.972 3.273 36.058 11.07 73.289 14.351-18.348 5.922-35.586 7.813-57.258 8.68"/><path fill="#95623f" d="M7.223 141.375s-.078-.094-.27-.266c-.781-.757-3.258-3.144-4.758-4.957-.425-.53-.765-1-.972-1.355-.18-.309-.32-.957-.418-1.844-.336-3.168.156-9.266 3.441-12.336 2.09-1.902 5.586-3.23 7.535-3.867.324-.105.633-.18.867-.246.36-.129.551-.172.551-.172.813.984-4.113 7.063-6.011 13.652-.645 2.383-.727 4.989-.575 7.102a1.63 1.63 0 0 0 .035.543c.196 2.2.575 3.746.575 3.746"/><path fill="#805533" d="M2.195 136.152c-.425-.53-.765-1-.972-1.355-.18-.309-.32-.957-.418-1.844 1.78-.547 3.132-2.375 3.992-4.648 1.402-3.59 2.8-6.004 5.305-8.946.746-.855 1.308-1.699 1.68-2.609.323-.105.632-.18.866-.246.36-.129.551-.172.551-.172s-.191.043-.55.172a6.433 6.433 0 0 1-.79 1.945c-2.765 4.594-4.742 7.887-6.398 12.883-.836 2.535-1.688 4.031-3.266 4.82M7.223 141.375s-.078-.094-.27-.266a25.02 25.02 0 0 1-.305-3.48c.196 2.2.575 3.746.575 3.746"/><path fill="#704b2a" d="M6.953 141.11c-.781-.758-3.258-3.145-4.758-4.958 1.578-.789 2.43-2.285 3.266-4.82 1.656-4.996 3.633-8.289 6.398-12.883a6.433 6.433 0 0 0 .79-1.945c.359-.129.55-.172.55-.172.063.074.09.176.09.305 0 1.593-4.344 7.258-6.101 13.347-.47 1.73-.641 3.578-.641 5.27 0 .637.027 1.254.066 1.832-.008.055-.008.11-.008.172 0 .117.012.242.043.37a25.02 25.02 0 0 0 .305 3.481"/><path fill="#ffe886" d="M101.04 129.168c-21.688 0-40.575-3.012-53.395-6.027-12.817-3.012-19.575-6.028-17-6.028.148 0 .332.012.546.032 11.52 1.503 27.934 6.015 56.102 6.015 11.223 0 24.309-.715 39.703-2.62 42.89-5.31 72.352-21.704 87.36-34.759 1.792-1.558 3.164-2.21 4.07-2.21 2.476 0 1.422 4.894-4.18 9.331-35.871 28.407-78.191 36.266-113.207 36.266"/><path fill="#ddb217" d="M25.5 155.637a384.612 384.612 0 0 1-7.387-5.528.186.186 0 0 1 .094-.023 378.893 378.893 0 0 0 7.402 5.535c-.039.008-.074.008-.109.016"/><path fill="#d8ae17" d="M25.61 155.621a378.893 378.893 0 0 1-7.403-5.535c.012-.004.02-.004.031-.004.801 0 3.63 2.18 8.559 5.371-.395.05-.79.102-1.188.168M40.762 155.477c-1.196-.903-2.356-1.786-3.492-2.641.003 0 .011 0 .015.004 1.137.855 2.297 1.734 3.492 2.637h-.015"/><path fill="#d1a513" d="M18.113 150.11c-.375-.27-.703-.555-1.043-.813l.13.012c.327.254.667.511 1.007.777a.186.186 0 0 0-.094.023"/><path fill="#cda113" d="M40.133 155.488s-2.762-.445-6.801-.445c-1.937 0-4.172.105-6.535.41-4.93-3.191-7.758-5.371-8.559-5.371-.011 0-.02 0-.031.004-.34-.266-.68-.524-1.008-.777 7.055.449 14.36 2.125 20.07 3.527 1.137.855 2.297 1.738 3.493 2.64l-.63.012"/><path fill="#eec715" d="M257.684 96.168c-2.32-2.227-6.313 2.21-9.528 11.918-9.004 27.207-38.34 54.531-97.918 65.57 57.676-13.234 87.383-45.558 94.047-78.125 1.254-8.617-6.7-7.129-13.64.207-6.891 7.282-57.915 71.79-169.625 36.38 124.386 26.421 170.042-40.973 166.707-50.329-1.137-3.113-2.258-4.766-8.684-2.523 4.492-3.805 7.973-6.918 10.937-8.782.715-.437 1.383-.859 2.043-1.136.11-.11.247-.203.352-.309 6.117-5.371 16.598-25.434 20.34-42.758l3.062.094 2.676.07 3.7.09 12.906.297s-6.372 9.582-8.657 12.844c-2.289 3.261-7.93 28.77-10.304 42.062a70.195 70.195 0 0 1 1.586 14.43"/><path fill="#d1a80e" d="M246.098 66.059c4.195-10.586 8.547-25.54 11.601-36.817.598.164 1.242.313 1.938.438-1.653 9.886-7.024 30.101-13.54 36.379"/><path fill="#ffd623" d="M237.758 73.063c-1.547-1.97-7.778-2.579-7.778-2.579.715-.437 1.383-.859 2.043-1.136.11-.11.247-.203.352-.309 6.117-5.371 16.598-25.434 20.34-42.758 0 0-6.05 34.907-14.957 46.782"/><path fill="#cfaa17" d="M30.602 159.434a383.22 383.22 0 0 1-5.286-3.766c.063-.012.125-.02.184-.031a379.347 379.347 0 0 0 5.266 3.761l-.164.036"/><path fill="#deba1c" d="M55.656 157.754a402.494 402.494 0 0 0-8.383-2.473c1.528-.05 3.032-.105 4.516-.164a145.71 145.71 0 0 0 5.84 2.57c-.664.024-1.324.047-1.973.067m68.246-10.344a159.565 159.565 0 0 1-4.648-.21 368.41 368.41 0 0 1-10.207-.762 165.857 165.857 0 0 0 10.629-3.833c1.539.04 3.07.06 4.574.06 4.523 0 8.883-.18 13.094-.52-4.309 1.996-8.817 3.742-13.442 5.265"/><path fill="#d9b51c" d="M44.184 158c-1.176-.855-2.305-1.7-3.407-2.523 2.215-.063 4.375-.125 6.496-.196 2.801.785 5.594 1.625 8.383 2.473-4.07.137-7.918.207-11.472.246"/><path fill="#debe32" d="M57.629 157.688a145.71 145.71 0 0 1-5.84-2.57c21.672-.868 38.91-2.759 57.258-8.68 3.289.292 6.691.546 10.207.761 1.566.094 3.117.164 4.648.211-21.886 7.219-46.5 9.531-66.273 10.278"/><path fill="#dec143" d="M131.07 137.625c.008 0 .016-.004.02-.004 61.187-15.492 88.625-38.168 95.62-57.976.407.578.712 1.308 1.017 2.144.98 2.746-2.258 10.492-10.47 19.398-10.652 10.06-25.929 20.493-43.421 27.528-12.012 4.363-26.215 7.629-42.766 8.91"/><path fill="#c39d13" d="M30.766 159.398a379.347 379.347 0 0 1-5.266-3.761c.035-.008.07-.008.11-.016a348.32 348.32 0 0 0 5.257 3.754.538.538 0 0 0-.101.023"/><path fill="#bf9a13" d="M30.867 159.375a348.32 348.32 0 0 1-5.258-3.754c.399-.066.793-.117 1.188-.168a154 154 0 0 0 5.785 3.57c-.574.106-1.145.22-1.715.352M44.172 158c-1.176-.855-2.309-1.7-3.41-2.523h.015c1.102.824 2.23 1.668 3.407 2.523h-.012"/><path fill="#b68f0f" d="M32.582 159.023a154 154 0 0 1-5.785-3.57 51.437 51.437 0 0 1 6.535-.41c4.04 0 6.8.445 6.8.445l.63-.011c1.101.824 2.234 1.668 3.41 2.523-2.004.191-6.738.148-11.59 1.023"/><path fill="#d0ae11" d="M124.25 142.664c-1.504 0-3.035-.02-4.574-.059a196.52 196.52 0 0 0 11.394-4.98c16.551-1.281 30.754-4.547 42.766-8.91-7.93 3.191-16.316 5.683-24.938 7.129-3.644 2.336-7.511 4.43-11.554 6.3-4.211.34-8.57.52-13.094.52m93.008-41.476c8.21-8.907 11.449-16.653 10.469-19.399-.305-.836-.61-1.566-1.016-2.144.988-2.782 1.566-5.512 1.777-8.157 9.434 2.469 3.555 15.727-11.23 29.7"/><path fill="#dedccf" d="M228.71 71.332a24.487 24.487 0 0 1 1.935-1.262c-.438.254-.883.547-1.344.856-.098.066-.2.133-.297.203-.098.066-.195.133-.293.203m3.332-2.016c.035-.023.07-.05.105-.078-.011.012-.03.024-.043.04-.02.011-.039.027-.062.038"/><path fill="#deba1c" d="M228.5 71.484c.07-.05.14-.105.21-.152a19.644 19.644 0 0 0-.21.148v.004m.8-.558c.462-.309.907-.602 1.345-.856.468-.277.921-.52 1.359-.718.016-.012.027-.02.039-.036.023-.011.043-.027.062-.039l-.082.07c-.66.278-1.328.7-2.043 1.137-.226.137-.449.286-.68.442"/><path fill="#d0ae11" d="M240.867 76.7c0-.005-.004-.009-.008-.013h.024c-.004.004-.008.008-.016.012m-.008-.011c-3.98-4.653-10.234-5.227-11.937-5.227-.23 0-.375.012-.422.02.168-.122.336-.239.504-.352.098-.07.2-.137.297-.203.23-.156.453-.305.68-.442.714-.437 1.382-.859 2.042-1.136l.082-.07c.012-.016.032-.028.043-.04-.043.035-.082.075-.125.11-.66.277-1.328.699-2.043 1.136 0 0 6.23.61 7.778 2.579.828-1.102 1.629-2.403 2.41-3.856.992-.27 2.289-.832 4.16-1.82.598-.32 1.188-.77 1.77-1.328-1.813 4.578-3.598 8.336-5.239 10.629"/><path fill="#c3a00e" d="M240.86 76.688h.023-.024m6.52-5.946.105-.3c1.762-5.051 4.184-9.516 7.043-13.626-1.742 5.106-4.054 9.989-7.148 13.926"/><path fill="#b9950b" d="M240.86 76.688c1.64-2.293 3.425-6.051 5.238-10.63 6.515-6.277 11.886-26.492 13.539-36.378.043.011.09.015.136.023-.601 6.254-1.824 17.11-5.246 27.113-2.859 4.11-5.28 8.575-7.043 13.625l-.105.301c-1.867 2.38-4.016 4.414-6.496 5.945h-.024"/><path fill="#dedccf" d="M232.238 69.164c.043-.043.09-.082.133-.121-.008.008-.02.016-.023.023-.036.032-.07.067-.11.098m.578-.555c.352-.343.72-.73 1.09-1.164v.004c-.363.438-.738.82-1.09 1.16"/><path fill="#deba1c" d="M232.348 69.066c.004-.007.015-.015.023-.023l.012-.016c.14-.129.285-.27.433-.418.352-.34.727-.722 1.09-1.16v-.004c.012.004.024.008.031.012a18.245 18.245 0 0 1-1.562 1.582c-.008.008-.02.016-.027.027"/><path fill="#deba1c" d="M237.758 73.063c-1.547-1.97-7.778-2.579-7.778-2.579.715-.437 1.383-.859 2.043-1.136.043-.035.082-.075.125-.11.032-.023.059-.05.09-.074l.137-.125a18.245 18.245 0 0 0 1.563-1.582c2.53.918 3.363 1.941 4.93 1.941.378 0 .8-.062 1.3-.191-.781 1.453-1.582 2.754-2.41 3.856M33.676 161.566c-1.043-.71-2.07-1.421-3.078-2.129 1.011.704 2.039 1.415 3.082 2.13h-.004"/><path fill="#cfaa17" d="M33.68 161.566a576.084 576.084 0 0 1-3.082-2.129c0-.003.004-.003.004-.003 1.015.707 2.043 1.418 3.085 2.132h-.007"/><path fill="#deba1c" d="m228.488 71.492-.004-.004h.004c0-.004.004-.004.012-.004-.004 0-.008.004-.012.004v.004"/><path fill="#c3a417" d="M66.688 161.098c-3.688-1.075-7.36-2.22-11.032-3.344.649-.02 1.309-.043 1.973-.066a153.233 153.233 0 0 0 9.059 3.41m61.828-13.618c-1.52 0-3.055-.023-4.614-.07 4.625-1.523 9.133-3.27 13.442-5.265 19.531-1.575 35.777-6.567 48.949-12.739-.195.38-.395.758-.594 1.137-10.183 5.512-22.191 10.805-36.46 15.477-6.524.933-13.43 1.46-20.723 1.46"/><path fill="#bfa017" d="M56.258 161.742c-2.399 0-4.668-.027-6.813-.062a156.834 156.834 0 0 1-5.262-3.68c3.555-.04 7.403-.11 11.473-.246 3.672 1.125 7.344 2.27 11.032 3.344.394.136.792.27 1.19.402a263.81 263.81 0 0 1-11.62.242m129.441-31.199c.2-.379.399-.758.594-1.137a133.214 133.214 0 0 0 12.539-6.722 178.42 178.42 0 0 1-13.133 7.859"/><path fill="#c3a729" d="M68.05 161.496c-.452-.133-.91-.262-1.362-.398a153.233 153.233 0 0 1-9.06-3.41c19.774-.747 44.388-3.06 66.274-10.278 1.559.047 3.094.07 4.614.07 7.293 0 14.199-.527 20.722-1.46a278.996 278.996 0 0 1-10.914 3.32c-30.707 8.687-53.246 11.41-70.273 12.156"/><path fill="#bfa428" d="M67.879 161.5c-.399-.133-.797-.266-1.192-.402.454.136.91.265 1.364.398-.059 0-.114 0-.172.004"/><path fill="#b79713" d="M33.688 161.566a514.377 514.377 0 0 1-3.086-2.132l.164-.036c1.027.72 2.074 1.434 3.129 2.157l-.208.011"/><path fill="#c3a936" d="M173.836 128.715c17.492-7.035 32.77-17.469 43.422-27.528-8.66 9.383-22.836 20.063-43.422 27.528"/><path fill="#c3a417" d="M228.488 71.488c.004 0 .008-.004.012-.004v-.004l-.012.012"/><path fill="#ae8c0f" d="M33.895 161.555c-1.055-.723-2.102-1.438-3.13-2.157a.538.538 0 0 1 .102-.023c1.035.723 2.094 1.45 3.16 2.176-.043 0-.086.004-.132.004"/><path fill="#aa8a0f" d="M34.027 161.55a338.295 338.295 0 0 1-3.16-2.175c.57-.133 1.14-.246 1.715-.352 1.355.801 2.813 1.625 4.367 2.473a72.257 72.257 0 0 0-2.922.055M49.426 161.664A146.848 146.848 0 0 1 44.172 158h.012a156.834 156.834 0 0 0 5.242 3.664"/><path fill="#a3810c" d="M49.445 161.68c-1.05-.02-2.078-.043-3.07-.063-2.305-.043-4.457-.09-6.477-.11-.793-.01-1.562-.015-2.316-.015-.21 0-.422.004-.633.004a146.238 146.238 0 0 1-4.367-2.473c4.852-.875 9.586-.832 11.59-1.023 1.648 1.2 3.387 2.426 5.254 3.664.008.004.015.008.02.016"/><path fill="#b89a0e" d="M137.344 142.145c4.043-1.872 7.91-3.965 11.554-6.301 8.622-1.446 17.008-3.938 24.938-7.13 20.586-7.464 34.762-18.144 43.422-27.526 14.785-13.973 20.664-27.231 11.23-29.696v-.004c.004 0 .008-.004.012-.008.047-.007.191-.02.422-.02 1.703 0 7.957.575 11.937 5.228.004.003.008.007.008.011.008-.004.012-.008.016-.011h.012c.148-.004.292-.004.437-.004 1.602 0 2.98.132 4.266.324 0-.024.007-.047.011-.067.614.082 1.192.18 1.739.29-.309.453-.614.867-.907 1.226-.101.164-.238.293-.343.418-.004.004-.008.008-.02.012 0 0-.004 0-.004.004l-.015.011c-.02.012-.04.028-.063.04-.184.12-.375.25-.559.394-1.07.781-2.187 1.805-3.382 3.031-1.18 1.2-2.434 2.594-3.797 4.149-1.367 1.535-2.836 3.257-4.453 5.117-7.485 8.543-18.043 19.89-34.973 31.05-3.824 2.325-8 4.59-12.539 6.723-13.172 6.172-29.418 11.164-48.95 12.739"/><path fill="#ae8e0b" d="M247.348 77.23a27.324 27.324 0 0 0-1.739-.289c.504-2.097 1.078-4.18 1.77-6.199 3.094-3.937 5.406-8.82 7.148-13.926a76.46 76.46 0 0 1 2.434-3.277c-1.344 4.883-2.887 9.477-4.477 13.422l.012.094c-1.562 3.875-3.172 7.14-4.68 9.465a22.48 22.48 0 0 1-.468.71m-6.465-.543h.012-.012M245.598 77.008a28.356 28.356 0 0 0-4.266-.324c-.144 0-.289 0-.437.004.195-.004.386-.004.578-.004 1.515 0 2.894.093 4.136.257-.004.02-.011.043-.011.067"/><path fill="#a58609" d="M245.61 76.941a31.643 31.643 0 0 0-4.137-.257c-.192 0-.383 0-.578.004h-.012c2.48-1.532 4.629-3.567 6.496-5.946-.691 2.02-1.266 4.102-1.77 6.2m8.918-20.126c3.422-10.004 4.645-20.859 5.246-27.113.454.082.922.149 1.414.203-.222 3.29-.64 6.692-1.21 10.102a137.267 137.267 0 0 1-3.016 13.531 76.46 76.46 0 0 0-2.434 3.277"/><path fill="#ffd623" d="M278.133 41.36c-1.945 3.867-3.77 32.183-4.133 46.843 3.113 8.184 4.707 16.445 4.875 24.578 1.066 39.242-30.324 76.617-84.277 99.227-65.18 27.336-96.957 16.289-120.493 8.937a117.77 117.77 0 0 1-8.007-2.832c-14.391-5.445-29.653-13.48-39.137-18.804-4.95-2.793-8.285-4.829-9.188-5.43-.82-.531-1.433-.93-2.043-1.29-.773-3.136-1.351-6.214-1.937-9.37.285-1.367.605-2.778.844-4.219.476-2.46.758-4.977 1.16-7.465.828-2.035 1.656-4.07 2.52-6.148.226-.024.456-.008.722-.035 2.473-1.625 5.137-2.582 8.215-3.122 5.086-.925 11.219-.77 19.121-.613 18.25.371 45.934.735 91.95-12.277 56.827-16.043 81.51-41.762 95.48-57.707 2.191-2.52 4.11-4.778 5.867-6.676 2.406-2.73 4.488-4.816 6.426-6.082.105-.125.242-.254.343-.418.442-.543.91-1.203 1.375-1.937 5.528-8.516 12.364-29.606 13.418-47.278l7.934-.992 2.223-.297 13.898-1.781s-5.25 11.32-7.156 15.187"/><path fill="#f8d022" d="M76.684 211.121c-5.157-.96-9.032-2.059-11.262-3.078-.02-.016-.04-.02-.059-.031-5.508-2.57-10.129-5.137-14.484-7.473-.09-.047-.18-.098-.277-.148 1.773.156 3.414.312 4.882.437 9.442.828 18.868 2.48 28.309 3.73 4.57.82 9.39 1.485 14.437 1.958a344.576 344.576 0 0 1-21.546 4.605"/><path fill="#ac8c0b" d="m252.496 67.055-.012-.094c1.59-3.945 3.133-8.54 4.477-13.422.016-.023.031-.039.043-.059a117.262 117.262 0 0 1-1.195 4.137 119.367 119.367 0 0 1-3.313 9.438"/><path fill="#a38409" d="M256.96 53.54a137.267 137.267 0 0 0 3.017-13.532c-.106.625-.211 1.25-.329 1.875a137.747 137.747 0 0 1-2.644 11.597c-.012.02-.027.036-.043.06"/><path fill="#f8d022" d="M252.496 67.082v-.027a119.367 119.367 0 0 0 3.313-9.438 119.058 119.058 0 0 1-3.313 9.465"/><path fill="#eec715" d="M26.883 199.262c-4.88-2.762-8.215-4.774-9.117-5.375-.797-.543-1.434-.95-2.047-1.278-.774-3.136-1.36-6.25-1.906-9.39.269-1.367.582-2.762.824-4.207.46-2.489.773-5 1.152-7.465.832-2.047 1.66-4.102 2.527-6.149.227-.035.454-.03.715-.062 2.465-1.629 5.153-2.582 8.215-3.106-5.855 2.333-7.77 5.614-5.195 8.938.644.844 7.273 2.031 14.031 1.508-11.102.992-14.016 2.488-14.918 3.59-2.95 3.597-1.918 10.644 2.258 12.37 4.2 1.739 7.883 2.45 12.777 5.083-10.453-2.512-12.734-1.602-13.058.562-.344 2.324 3.359 4.598 3.742 4.98"/><path fill="#fffbeb" d="M26.773 162.313c2.102-.418 4.383-.641 6.903-.747.008 0 .011.004.02.012-2.337.094-4.466.293-6.442.652h-.016.008c-.16.024-.316.055-.473.083"/><path fill="#e8cb4d" d="M33.695 161.578c-.008-.008-.011-.012-.02-.012h.005c.008 0 .015.004.02.012h-.005"/><path fill="#ddc049" d="M33.7 161.578a.021.021 0 0 0-.02-.012h.008c.007 0 .011.004.015.008l-.004.004"/><path fill="#cdb246" d="M33.703 161.574c-.004-.004-.008-.008-.016-.008l.208-.011c.007.007.011.011.02.011-.071.004-.142.008-.212.008"/><path fill="#c6ab44" d="M33.914 161.566c-.008 0-.012-.004-.02-.011.047 0 .09-.004.133-.004.008.004.012.008.02.015h-.133"/><path fill="#c4a944" d="M34.047 161.566c-.008-.007-.012-.011-.02-.015a72.257 72.257 0 0 1 2.922-.055c.004 0 .008.004.016.004a98.416 98.416 0 0 0-2.918.066"/><path fill="#bfa341" d="M39.898 161.508c-.628-.008-1.246-.012-1.855-.012-.363 0-.723.004-1.078.004-.008 0-.012-.004-.016-.004.211 0 .422-.004.633-.004.754 0 1.523.004 2.316.016"/><path fill="#ffde52" d="M108.773 177.676c-8.328 0-14.855-.555-18.761-.996-3.035-.34-6.035-.739-9.055-1.149 10.98 1.39 21.29 2.024 31 2.024 1.703 0 3.402-.02 5.074-.059-2.91.125-5.672.18-8.258.18m-17.144-2.738c-6.008 0-12.242-.172-18.684-.543.825.132 1.657.257 2.477.378-9.024-1.222-18.48-2.359-29.652-2.359-3.305 0-6.762.102-10.399.324.234-.02.473-.043.711-.062-1.148.09-2.297.125-3.41.125-5.43 0-10.086-.934-10.621-1.633-2.574-3.32-.66-6.606 5.187-8.938h.016c1.976-.359 4.105-.558 6.441-.652h.004l.004-.004c.07 0 .14-.004.211-.008h.133c.941-.039 1.91-.054 2.918-.066.355 0 .715-.004 1.078-.004.61 0 1.227.004 1.855.012 1.977.023 4.082.074 6.332.125 3.145.07 6.583.137 10.348.137 18.008 0 43.57-1.59 81.758-12.391 53.355-15.082 78.367-38.68 92.812-54.703a309.907 309.907 0 0 0 2.692-3.04c2.578-1.366 4.367-1.945 5.695-1.945 2.024 0 2.973 1.332 4.016 3.235 2.594 4.808-5.86 27.683-32.762 48.054a187.86 187.86 0 0 1-13.16 8.715c-.024.043-.047.09-.07.13-23.848 14.046-58.188 25.113-105.93 25.113m-50.555-11.723c-.894 0-1.761.012-2.605.027-13.657.742-.782 7.785 18.898 7.785 1.5 0 3.035-.039 4.606-.125 28.011-1.57 87.96 1.446 129.117-25.14 24.023-15.559 36.8-28.102 41.87-37.157 1.438-2.57 1.071-7.343-1.46-7.343-1.063 0-2.496.832-4.332 3.004-13.957 16.484-40.184 34.074-85.336 46.832-38.2 10.804-63.758 12.394-81.77 12.394-3.761 0-7.195-.07-10.343-.137-3.153-.07-6.016-.14-8.645-.14"/><path fill="#c0a73f" d="M259.977 40.008c.57-3.41.988-6.813 1.21-10.102h.004a104.697 104.697 0 0 1-1.168 9.828l-.046.274"/><path fill="#bfa53f" d="M259.648 41.883c.118-.625.223-1.25.329-1.875l.046-.274c-.117.72-.242 1.43-.375 2.149"/><path fill="#f3d448" d="M16.219 174.934c1.312-4.215 2.972-7.739 2.972-9.094 0-.227-.043-.395-.148-.496 2.34-1.52 4.867-2.457 7.73-3.031.157-.028.313-.06.473-.083h-.008c-5.847 2.333-7.761 5.618-5.187 8.938.535.7 5.191 1.633 10.62 1.633 1.114 0 2.263-.035 3.411-.125-.238.02-.477.043-.71.062-5.864.367-12.2 1.059-19.153 2.196m1.96-9.2c.048-.105.09-.207.134-.312.207-.031.41-.031.648-.055a6.08 6.08 0 0 0-.496.242c-.086.043-.184.082-.285.125"/><path fill="#ece3cf" d="M77.668 222.059c-1.215-.38-2.406-.754-3.574-1.121a2.025 2.025 0 0 0-.145-.043c.055.015.106.03.156.05.043.012.086.024.13.04.035.011.078.023.113.035 1.09.34 2.191.687 3.32 1.039m-7.856-2.551c-22.738-8.031-49.261-23.715-52.046-25.621.53.351 1.898 1.191 3.922 2.383a315.59 315.59 0 0 0 5.273 3.039c.852.48 1.75.98 2.691 1.496.035.023.063.043.078.05l.004-.003c9.524 5.246 23.301 12.32 36.364 17.261 1.242.489 2.484.957 3.715 1.395m-53.258-26.41c-.035-.02-.067-.043-.102-.063l.027.016c.024.015.047.031.075.047"/><path fill="#ecc21c" d="M66.098 218.113c-13.063-4.941-26.84-12.015-36.364-17.261.012-.032.051-.063.125-.082 9.524 5.238 23.282 12.289 36.309 17.261l-.07.082m-36.446-17.308c-.941-.516-1.84-1.016-2.691-1.496a315.59 315.59 0 0 1-5.273-3.04c1.425.836 3.18 1.852 5.195 2.993-.078-.075-.285-.227-.567-.442a656.65 656.65 0 0 1 3.336 1.985m-12.351-7.23a31.357 31.357 0 0 0-.82-.524l.023.012c.25.152.512.324.797.511"/><path fill="#deb611" d="M26.883 199.262a392.028 392.028 0 0 1-5.195-2.992c-2.024-1.192-3.391-2.032-3.922-2.383-.16-.11-.317-.211-.465-.313-.285-.187-.547-.36-.797-.512 1.851 1.079 6.539 3.829 9.812 5.758.282.215.489.368.567.442"/><path fill="#ece3cf" d="M15.71 192.598a.008.008 0 0 0-.007-.008c-.012-.05-.027-.11-.039-.168 0 .004.004.004.008.008.012.054.027.11.039.168"/><path fill="#ecc21c" d="M50.602 200.39h-.016c-4.848-2.609-9.375-4.94-14.387-6.675-.027-.012-.058-.031-.086-.043 5.059 1.742 9.614 4.094 14.489 6.719"/><path fill="#e6bd1c" d="M65.363 208.012c-5.508-2.57-10.129-5.137-14.484-7.473h-.016l-.277-.148h.016c.097.05.187.101.277.148 4.355 2.336 8.976 4.902 14.484 7.473"/><path fill="#deb611" d="M36.2 193.715c-5.587-1.93-11.782-3.117-19.716-3.117-.207 0-.414 0-.625.004 0-.008-.004-.012-.004-.016.23-.004.461-.008.696-.008 7.851 0 14.008 1.176 19.562 3.094.028.012.059.031.086.043"/><path fill="#ece3cf" d="m16.453 193.035-.734-.426-.008-.011h.004c0 .004 0 .007.004.011.176.098.36.2.543.309.062.039.125.074.191.117"/><path fill="#deb611" d="M16.262 192.918c-.184-.11-.367-.211-.543-.309-.004-.004-.004-.007-.004-.011.176.101.36.207.547.32"/><path fill="#ddcda8" d="M29.73 200.855c-.015-.007-.043-.027-.078-.05a.56.56 0 0 0 .082.047l-.004.003m-13.25-7.804-.027-.016c-.066-.043-.129-.078-.191-.117.062.039.125.074.191.117.008.004.02.008.027.016m-.765-.453h-.004c-.012-.059-.027-.114-.04-.168.017.058.028.11.044.168"/><path fill="#ddb217" d="M29.734 200.852a656.65 656.65 0 0 0-3.418-2.031c-1.132-.848-3.453-2.676-3.175-4.54.187-1.246 1.023-2.074 3.699-2.074 1.965 0 4.93.45 9.36 1.512v-.004c5.01 1.734 9.538 4.066 14.386 6.676-4.305-.383-9.379-.766-14.555-.766-2.504 0-5.027.09-7.504.313.075.039.149.082.22.12a.866.866 0 0 1-.145.012c.41.22.812.473 1.257.7-.074.02-.113.05-.125.082m-13.23-7.79-.024-.011c-.007-.008-.02-.012-.027-.016.016.008.031.02.05.028"/><path fill="#d8ae17" d="M50.863 200.54c-4.34-.384-9.488-.782-14.75-.782-2.453 0-4.933.086-7.367.3-.07-.038-.144-.081-.219-.12 2.477-.223 5-.313 7.504-.313 5.176 0 10.25.383 14.555.766.09.047.184.097.277.148"/><path fill="#d1a80e" d="M26.316 198.82c-3.273-1.93-7.96-4.68-9.812-5.757-.02-.008-.035-.02-.05-.028-.067-.043-.13-.078-.192-.117-.188-.113-.371-.219-.547-.32-.016-.059-.027-.11-.043-.168.3.218.55.394.73.52.235.152.332.241.332.241s-.418-1.007-.875-2.59c.211-.003.418-.003.625-.003 7.934 0 14.13 1.187 19.715 3.117v.004c-4.43-1.063-7.394-1.512-9.36-1.512-2.675 0-3.51.828-3.698 2.074-.278 1.864 2.043 3.692 3.175 4.54"/><path fill="#ffdb3d" d="M99.98 206.078c-5.406-.219-10.796-.805-16.187-1.52-15.906-2.84-28.82-7.484-37.793-11.937-9.23-4.582-14.875-7.516-14.375-10.469.508-2.988 3.031-4.004 7.836-4.004 1.8 0 3.914.141 6.367.375 11.344 1.079 29.824 4.122 56.817 4.122 10.449 0 22.183-.458 35.265-1.66 14.723-1.352 27.82-4.505 39.418-8.665-21.012 16.254-51.082 27.125-77.348 33.758"/><path fill="#f9d63c" d="M98.23 206.516a173.198 173.198 0 0 1-14.437-1.957c5.39.714 10.781 1.3 16.187 1.52-.585.148-1.171.292-1.75.437"/><path fill="#95623f" d="M16.734 193.191s-.097-.09-.332-.242c-.965-.683-4.011-2.832-5.918-4.535-.546-.5-.992-.945-1.265-1.289-.25-.305-.504-.977-.754-1.914-.883-3.344-1.36-9.965 1.664-13.805 1.93-2.383 5.46-4.386 7.45-5.39.323-.164.648-.297.886-.407.367-.195.566-.273.566-.273 1.035.918-3.254 8.254-4.207 15.637-.3 2.664.043 5.472.555 7.714.004.188.047.383.125.579.57 2.328 1.23 3.925 1.23 3.925"/><path fill="#805533" d="M10.484 188.414c-.546-.5-.992-.945-1.265-1.289-.25-.305-.504-.977-.754-1.914 1.82-.879 2.969-3.063 3.52-5.645.91-4.082 2.019-6.91 4.218-10.472.66-1.043 1.125-2.043 1.375-3.078.324-.164.649-.297.887-.407.367-.195.566-.273.566-.273.11.098.16.27.16.504 0-.235-.05-.406-.16-.504 0 0-.199.078-.566.273-.043.7-.203 1.418-.524 2.215-2.21 5.387-3.793 9.246-4.746 14.883-.484 2.852-1.148 4.598-2.71 5.707M16.734 193.191s-.097-.09-.332-.242a27.119 27.119 0 0 1-.898-3.683c.57 2.328 1.23 3.925 1.23 3.925"/><path fill="#704b2a" d="M16.402 192.95c-.965-.684-4.011-2.833-5.918-4.536 1.563-1.11 2.227-2.855 2.711-5.707.953-5.637 2.535-9.496 4.746-14.883.32-.797.48-1.515.524-2.215.367-.195.566-.273.566-.273.11.098.16.27.16.504 0 1.972-3.515 8.539-4.367 15.133a19.385 19.385 0 0 0-.113 2.078c0 1.996.285 3.972.668 5.637.004.187.047.382.125.578.242 1.418.582 2.703.898 3.683"/><path fill="#ffe886" d="M57.367 171.027c-19.68 0-32.554-7.043-18.898-7.785.843-.015 1.71-.027 2.605-.027 2.63 0 5.492.07 8.645.14 3.148.067 6.582.137 10.343.137 18.012 0 43.57-1.59 81.77-12.394 45.152-12.758 71.379-30.348 85.336-46.832 1.836-2.172 3.27-3.004 4.332-3.004 2.531 0 2.898 4.773 1.46 7.343-5.07 9.055-17.847 21.598-41.87 37.157-41.156 26.586-101.106 23.57-129.117 25.14-1.57.086-3.106.125-4.606.125"/><path fill="#ddb217" d="M66.168 218.031c-13.027-4.972-26.785-12.023-36.309-17.261a.248.248 0 0 1 .098-.043c9.555 5.253 23.277 12.28 36.281 17.23-.023.023-.047.047-.07.074"/><path fill="#d8ae17" d="M66.238 217.957c-13.004-4.95-26.726-11.977-36.281-17.23a.591.591 0 0 1 .125-.012c1.598 0 9.258 4.71 22.566 9.422 4.891 1.73 10.54 3.457 16.934 4.953-1.215.86-2.39 1.824-3.344 2.867M76.684 211.125c-5.16-.965-9.032-2.063-11.262-3.082 2.23 1.02 6.105 2.117 11.262 3.078v.004m-11.32-3.113c-5.505-2.555-10.141-5.125-14.5-7.473h.015c4.355 2.336 8.976 4.902 14.484 7.473"/><path fill="#d1a513" d="M29.86 200.77c-.446-.227-.848-.48-1.258-.7.05 0 .097-.004.144-.011.395.222.797.441 1.211.668a.248.248 0 0 0-.098.043"/><path fill="#cda113" d="M69.582 215.09a159.905 159.905 0 0 1-16.934-4.953c-13.308-4.711-20.968-9.422-22.566-9.422a.591.591 0 0 0-.125.012c-.414-.227-.816-.446-1.21-.668 2.433-.215 4.913-.301 7.366-.301 5.262 0 10.41.398 14.75.781 4.36 2.348 8.996 4.918 14.5 7.473.02.011.04.015.059.031 2.23 1.02 6.101 2.117 11.262 3.082-.051.016-3.723 1.574-7.102 3.965"/><path fill="#eec715" d="M278.059 103.418c-2.852-2.004-6.407 3.414-8.258 14.363-5.192 30.672-32.176 64.828-94.293 86.489 59.715-23.704 86.281-63.282 88.07-99.329-.074-9.453-8.363-6.543-14.601 2.47-6.196 8.948-50.34 86.577-176.032 66.984 137.817 7.859 175.723-71.977 170.606-81.47-1.73-3.155-3.207-4.741-9.735-1.277 4.196-4.828 7.418-8.738 10.293-11.226.692-.59 1.348-1.149 2.008-1.555.098-.133.23-.262.328-.39 5.672-6.766 13.621-30.028 14.79-49.23l3.3-.407 2.883-.367 3.988-.516 13.895-1.805s-5.258 11.336-7.18 15.211c-1.918 3.875-3.77 32.176-4.137 46.832a76.13 76.13 0 0 1 4.075 15.223"/><path fill="#d1a80e" d="M260.68 73.004c2.882-12.578 5.156-30.297 6.574-43.05a33.22 33.22 0 0 0 1.96-.227c.165 9.808-2.167 34.945-8.534 43.277"/><path fill="#ffd623" d="M252.883 81.906c-1.988-1.86-8.774-1.484-8.774-1.484.692-.59 1.348-1.149 2.008-1.555.098-.133.23-.262.328-.39 5.672-6.766 13.621-30.028 14.79-49.23 0 0-.75 38.452-8.352 52.66"/><path fill="#cfaa17" d="M77.668 222.059c-1.129-.352-2.23-.7-3.32-1.04 1.09.34 2.191.688 3.32 1.04"/><path fill="#deba1c" d="M73.95 220.895c-1.36-.426-2.743-.891-4.138-1.387 1.395.492 2.778.957 4.137 1.387"/><path fill="#d9b51c" d="M88.008 212.754c-4.235-.453-8.043-1.02-11.324-1.633a344.576 344.576 0 0 0 21.546-4.605c3.707.347 7.532.586 11.473.703a326.19 326.19 0 0 1-21.676 5.531c-.007.004-.015.004-.02.004"/><path fill="#deba1c" d="M177.328 172.32c4.656-3.605 8.871-7.472 12.496-11.617a146.57 146.57 0 0 0 17.094-9.863 66.672 66.672 0 0 1-4.04 9.66 160.422 160.422 0 0 1-25.55 11.82"/><path fill="#d9b51c" d="M202.879 160.5a66.672 66.672 0 0 0 4.039-9.66c26.719-17.918 39.004-39.016 42.059-43.43a31.701 31.701 0 0 1 2.62-3.312c-5.542 14.836-20.949 35.093-45.605 54.574-1.02.613-2.054 1.226-3.113 1.828"/><path fill="#dec143" d="M197.559 149.824c.023-.039.046-.086.07-.129a187.86 187.86 0 0 0 13.16-8.715 137.028 137.028 0 0 1-13.23 8.844"/><path fill="#cfaa17" d="M74.105 220.945a131.952 131.952 0 0 1-4.293-1.438c-1.23-.437-2.472-.905-3.714-1.394l.07-.082c1.957.746 3.89 1.442 5.793 2.086l-.106.07c.75.254 1.512.524 2.25.758"/><path fill="#debe32" d="M105.414 206.18c-.73 0-1.46-.004-2.187-.012a112.531 112.531 0 0 1-3.247-.09c26.266-6.633 56.336-17.504 77.348-33.758 9.508-3.414 18-7.496 25.55-11.82-.167.328-.339.66-.51.98-22.505 17.086-52.145 33.329-88.52 44.497a175.27 175.27 0 0 1-8.434.203"/><path fill="#d9ba31" d="M109.703 207.219a180.22 180.22 0 0 1-11.473-.703c.579-.145 1.165-.29 1.75-.438 1.082.047 2.165.074 3.247.09a175.27 175.27 0 0 0 10.621-.191c-1.368.418-2.758.835-4.145 1.242m92.664-45.739c.172-.32.344-.652.512-.98a145.387 145.387 0 0 0 3.113-1.828 215.736 215.736 0 0 1-3.625 2.808"/><path fill="#c39d13" d="M71.96 220.117a164.046 164.046 0 0 1-5.792-2.086c.023-.027.047-.05.07-.074 1.961.75 3.91 1.45 5.828 2.086a1.02 1.02 0 0 0-.105.074"/><path fill="#bf9a13" d="M72.066 220.043a138.574 138.574 0 0 1-5.828-2.086c.953-1.043 2.13-2.008 3.344-2.867 2.594.61 5.313 1.18 8.152 1.695-1.91.961-3.84 2.055-5.668 3.258M88.008 212.754c-4.242-.453-8.04-1.016-11.324-1.629v-.004c3.28.613 7.09 1.18 11.324 1.633"/><path fill="#b68f0f" d="M77.734 216.785a162.845 162.845 0 0 1-8.152-1.695c3.379-2.39 7.05-3.95 7.102-3.965 3.285.613 7.082 1.176 11.324 1.629-2.703.7-6.445 2.098-10.274 4.031"/><path fill="#d0ae11" d="M189.824 160.703c3.008-3.437 5.61-7.055 7.735-10.879a137.028 137.028 0 0 0 13.23-8.844c31.93-23.164 47.8-50.714 31.883-59.23 11.012.316 13.84 9.2 8.926 22.348a31.701 31.701 0 0 0-2.621 3.312c-3.055 4.414-15.34 25.512-42.059 43.43a146.57 146.57 0 0 1-17.094 9.863"/><path fill="#deba1c" d="M242.672 81.746c.965-.953 1.879-1.762 2.762-2.41-.434.328-.871.7-1.325 1.086-.464.402-.941.844-1.425 1.316-.008.004-.012.008-.012.008"/><path fill="#d0ae11" d="M256.805 85.285c-3.668-3.172-8.29-3.797-11.23-3.797-1.634 0-2.747.192-2.891.25.484-.472.96-.914 1.425-1.316 0 0 .559-.031 1.399-.031 2.097 0 5.957.191 7.375 1.515.703-1.316 1.351-2.847 1.949-4.539 1.016-.449 2.313-1.265 4.156-2.637.59-.44 1.157-1.023 1.692-1.726-1.196 5.215-2.493 9.55-3.875 12.281"/><path fill="#c3a00e" d="M262.828 77.813a4.6 4.6 0 0 1 .059-.32c1.062-5.712 2.922-10.9 5.32-15.782-1.031 5.754-2.71 11.367-5.379 16.102"/><path fill="#b9950b" d="M256.805 85.285c1.382-2.73 2.68-7.066 3.875-12.281 6.367-8.332 8.699-33.469 8.535-43.277.015 0 .023-.004.039-.004.375 6.265 1.2 19.465-1.047 31.988-2.398 4.883-4.258 10.07-5.32 15.781a4.6 4.6 0 0 0-.059.32c-1.621 2.872-3.601 5.415-6.023 7.473"/><path fill="#a58a0b" d="m246.059 78.902.015-.011-.015.011m.02-.015c.01-.004.015-.008.019-.012-.004.004-.008.008-.02.012"/><path fill="#deba1c" d="M245.996 78.941c.024-.011.043-.027.063-.039l.015-.011c0-.004.004-.004.004-.004.012-.004.016-.008.02-.012.105-.125.242-.254.343-.418.442-.543.91-1.203 1.375-1.937l.04.011a20.953 20.953 0 0 1-1.41 1.946c-.098.128-.231.257-.329.39a1.252 1.252 0 0 0-.12.074"/><path fill="#deba1c" d="M252.883 81.906c-1.418-1.324-5.278-1.515-7.375-1.515-.84 0-1.399.03-1.399.03.453-.386.891-.757 1.325-1.085.187-.14.379-.27.562-.395.04-.027.078-.05.121-.074.098-.133.23-.262.328-.39.453-.547.926-1.2 1.41-1.946 2.547.489 3.672 1.297 5.063 1.297.559 0 1.16-.129 1.914-.46-.598 1.69-1.246 3.222-1.95 4.538M242.668 81.75c.004 0 .004-.004.004-.004s0 .004-.004.004"/><path fill="#bfa017" d="M107.586 213.902c-7.176-.097-13.79-.523-19.578-1.148.004 0 .012 0 .02-.004a326.19 326.19 0 0 0 21.675-5.531c1.77.05 3.57.078 5.383.078 3.863 0 7.828-.125 11.879-.383a266.964 266.964 0 0 1-19.38 6.988m98.407-55.23c24.656-19.48 40.063-39.738 45.606-54.574 1.445-1.582 2.925-2.836 4.324-3.688-6.7 13.235-17.078 30.867-37.18 49.828a180.114 180.114 0 0 1-12.75 8.434"/><path fill="#c3a417" d="M242.672 81.75h-.004c.004 0 .004-.004.004-.004s.004-.004.012-.008l-.012.012"/><path fill="#b79713" d="M77.668 222.059c-1.129-.352-2.23-.7-3.32-1.04l-.114-.035a1.618 1.618 0 0 0-.129-.039c-.738-.234-1.5-.504-2.25-.757l.106-.07c.758.25 1.512.495 2.258.73 1.203.375 2.422.761 3.668 1.148-.075.02-.149.043-.219.063"/><path fill="#c3a729" d="M113.848 205.977c36.375-11.168 66.015-27.41 88.52-44.497a63.75 63.75 0 0 1-2.911 4.915c-6.703 5.015-14.164 10.062-22.484 15.093-16.043 9.684-30.028 16.797-42.23 22.149-6.973 1.246-14.009 2.004-20.895 2.34"/><path fill="#bfa428" d="M115.086 207.297c-1.813 0-3.613-.027-5.383-.078 1.387-.406 2.777-.824 4.145-1.242 6.886-.336 13.922-1.094 20.894-2.34a276.116 276.116 0 0 1-7.777 3.277c-4.05.258-8.016.383-11.88.383m84.372-40.902a63.75 63.75 0 0 0 2.91-4.915c1.227-.93 2.442-1.87 3.625-2.808a180.114 180.114 0 0 0 12.75-8.434c-5.625 5.305-12.012 10.711-19.285 16.157"/><path fill="#ae8c0f" d="M77.887 221.996c-1.246-.387-2.465-.773-3.668-1.148-.746-.235-1.5-.48-2.258-.73a1.02 1.02 0 0 1 .105-.075c.688.238 1.38.457 2.063.672 1.285.402 2.594.816 3.937 1.234-.062.02-.12.031-.18.047"/><path fill="#aa8a0f" d="M78.066 221.95c-1.343-.419-2.652-.833-3.937-1.235a74.426 74.426 0 0 1-2.063-.672 56.837 56.837 0 0 1 5.668-3.258c4.145.75 8.543 1.387 13.2 1.86-2.832.734-5.465 1.386-7.914 2.015-1.743.438-3.391.863-4.954 1.29M107.586 213.902c-7.18-.097-13.785-.523-19.578-1.148 5.789.625 12.402 1.05 19.578 1.148"/><path fill="#a3810c" d="M90.934 218.645a171.112 171.112 0 0 1-13.2-1.86c3.829-1.933 7.57-3.332 10.274-4.031 5.793.625 12.398 1.05 19.578 1.148-6.203 1.965-11.727 3.47-16.652 4.743"/><path fill="#b89a0e" d="M251.598 104.098c4.914-13.149 2.086-22.032-8.926-22.348l.012-.012c.144-.058 1.257-.25 2.89-.25 2.942 0 7.563.625 11.23 3.797.009 0 .016 0 .024-.004a31.877 31.877 0 0 1 5.113-.433v-.075c.211 0 .422-.003.625-.003.356 0 .7.003 1.036.02-1.637 3.01-3.368 6.784-5.485 11.187a325.558 325.558 0 0 1-2.195 4.433c-1.399.852-2.879 2.106-4.324 3.688"/><path fill="#ae8e0b" d="M256.805 85.285c.007 0 .015 0 .023-.004-.008.004-.015.004-.023.004m6.797-.496c-.336-.016-.68-.02-1.036-.02-.203 0-.414.004-.625.004.196-2.343.473-4.675.887-6.96 2.668-4.735 4.348-10.348 5.379-16.102a79.44 79.44 0 0 1 2.719-5.05 121.282 121.282 0 0 1-.688 8.944c.016.036.035.075.047.118-.656 5.773-1.695 10.492-2.984 13.3-.059.165-.16.329-.223.489a11.09 11.09 0 0 0-.789.965c-.695.925-1.387 2.011-2.09 3.246-.199.34-.394.699-.597 1.066"/><path fill="#ae8e0b" d="M256.828 85.281a35.733 35.733 0 0 1 5.113-.508v.075c-1.539.015-3.187.109-5.113.433"/><path fill="#a58609" d="M256.805 85.285c2.422-2.058 4.402-4.601 6.023-7.472-.414 2.285-.691 4.617-.887 6.96a35.733 35.733 0 0 0-5.113.508c-.008.004-.015.004-.023.004m11.402-23.574c2.246-12.523 1.422-25.723 1.047-31.988.09-.012.176-.028.27-.04.316 2.028.585 4.094.8 6.18.719 7.024.875 14.235.602 20.797a79.44 79.44 0 0 0-2.719 5.05"/><g clip-path="url(#c)"><path fill="#ffd623" d="M251.777 229.57c-58.746 46.098-94.203 43.746-120.265 42.825-18.149-.665-40.797-5.547-54.075-8.844-5.824-1.477-9.785-2.598-10.87-2.953-.97-.332-1.727-.567-2.446-.727-1.66-2.984-3.125-5.988-4.562-9.035-.106-1.469-.18-2.977-.336-4.52-.227-2.664-.61-5.308-.91-7.925.273-2.32.542-4.645.855-6.97.223-.1.45-.163.71-.269 2.06-2.343 4.528-4.074 7.5-5.46 16.321-7.829 47.606-6.77 109.595-44.204 53.406-32.258 71.347-65.383 81.144-85.511 3.637-7.567 6.168-13.305 8.961-16.465.063-.16.164-.325.223-.489 3.894-8.484 5.492-34.402 1.316-54.296l10.004-4.157 13.652-5.73s-2.191 13.023-3.062 17.508c-.871 4.484 5.144 33.84 8.871 48.87 5.453 7.47 9.402 15.438 11.863 23.673 12.028 39.683-9.511 86.554-58.168 124.68"/></g><path fill="#ac8c0b" d="M270.285 65.723c-.012-.043-.031-.082-.047-.118.325-2.77.555-5.78.688-8.945a.726.726 0 0 1 .043-.074c-.125 3.23-.36 6.312-.684 9.137"/><path fill="#a38409" d="M270.926 56.66c.273-6.562.117-13.773-.602-20.797.004.051.012.102.016.149.508 4.937.742 9.965.742 14.797 0 1.964-.039 3.898-.113 5.777a.726.726 0 0 0-.043.074"/><path fill="#f8f6f1" d="M292.23 14.715c-.007-.027-.015-.059-.03-.09l.05-.02-.02.11"/><path fill="#f8d022" d="M124.207 262.008c-2.144-.004-3.902-.117-5.203-.34-6.328-1.074-11.746-2.398-16.844-3.559-.105-.027-.215-.05-.32-.074 1.847-.336 3.562-.637 5.094-.918 9.84-1.8 19.898-2.75 29.863-4.12 23.715-2.169 52.406-9.548 81.976-26.938 64.114-37.688 75.438-100.633 67.172-101.215-.039-.004-.078-.004-.117-.004-5.285 0-14.992 24.808-39.992 49.937a70.919 70.919 0 0 0 1.418-10.96c22.219-25.735 28.832-50.672 30.71-56.024 2.446-6.953 6.427-11.621 9.696-11.621 1.867 0 3.508 1.523 4.492 5.02 8.246 37.226-7.757 84.98-61.972 125.835 7.355-5.066 14.062-10.187 20.16-15.324-19.863 17.617-43.422 29.637-65.203 37.5l-.016.004c-.008.004-.012.004-.023.008a.31.31 0 0 0-.036.015h-.007c-25.664 9.25-48.86 12.727-60.606 12.774h-.097c-.047 0-.098.004-.145.004"/><path fill="#eec715" d="M77.36 263.52c-5.747-1.446-9.708-2.567-10.794-2.922-.968-.332-1.726-.567-2.445-.727-1.66-2.984-3.125-5.988-4.562-9.035-.106-1.469-.18-2.977-.336-4.52-.227-2.664-.61-5.308-.91-7.925.273-2.32.542-4.645.855-6.97.223-.1.45-.163.71-.269 2.06-2.343 4.528-4.074 7.5-5.46-5.308 4.015-6.343 7.894-2.796 10.562.898.676 7.98.031 14.719-2.395-11.031 4.118-13.582 6.461-14.196 7.832-2 4.496 1.02 11.383 5.758 11.977 4.762.594 8.711.285 14.438 1.598-11.352.367-13.422 1.93-13.149 4.23.297 2.465 4.707 3.746 5.207 4.024"/><path fill="#fffbeb" d="M66.902 225.918c2.371-1.191 5.07-2.172 8.157-3.117.84-.246 1.71-.496 2.609-.742.008.004.016.004.023.007-3.98 1.106-7.386 2.223-10.312 3.625-.16.079-.317.149-.477.227"/><path fill="#f2e8c9" d="M77.691 222.066c-.007-.004-.015-.004-.023-.007a.05.05 0 0 0 .023.004v.003"/><path fill="#ddc049" d="M77.691 222.063c-.007 0-.015 0-.023-.004.008.004.02.004.023.004"/><path fill="#cdb246" d="M77.691 222.063c-.004 0-.015 0-.023-.004.07-.02.144-.043.219-.063a.056.056 0 0 0 .023.008l-.219.059"/><path fill="#c6ab44" d="M77.91 222.004a.056.056 0 0 1-.023-.008c.058-.016.117-.027.18-.047.003.004.011.004.019.008l-.176.047"/><path fill="#c4a944" d="M78.086 221.957c-.008-.004-.016-.004-.02-.008a257.29 257.29 0 0 1 4.954-1.289 252.37 252.37 0 0 0-4.934 1.297"/><path fill="#c0a73f" d="M270.324 35.863a119.585 119.585 0 0 0 0-.02v.02"/><path fill="#ffde52" d="M66.262 236.504c-.867 0-1.461-.086-1.68-.25-3.547-2.668-2.512-6.547 2.797-10.563-.16.079-.317.149-.477.227.16-.078.317-.148.477-.227 2.926-1.402 6.332-2.52 10.312-3.625v-.004l.22-.058.175-.047c1.555-.43 3.2-.855 4.934-1.297 18.582-4.703 47.73-11.215 93.953-39.148 50.144-30.293 69.03-61.336 79.277-81.703.66-1.329 1.29-2.614 1.887-3.848 2.867-2.703 4.785-3.727 6.32-3.727 1.5 0 2.633.973 3.938 2.32 1.878 1.966 2.378 8.692.113 18.22-7.496 18.527-24.328 47.913-60.926 73.796-17.316 11.532-33.785 20.387-46.875 26.328-12.96 4.77-27.375 8.977-43.371 12.403.879-.102 1.754-.203 2.625-.313-12.356 1.66-25.402 3.672-41.348 9.133.227-.086.453-.176.688-.262-5.086 1.832-10.371 2.645-13.04 2.645m192.692-130.152c-1.191 0-2.61 1.175-4.082 4.34-9.617 20.699-31.422 45.956-73.86 71.597-53.445 32.297-84.058 35.957-101.913 41.293-8.754 2.922-5.762 5.441 2.765 5.441 5.84 0 14.282-1.183 23.32-4.218 28.102-9.43 90.02-23.137 124.524-61.743 20.129-22.57 29.645-38.925 32.277-49.57.696-2.812-.742-7.14-3.03-7.14M125.815 224.21c13.602-1.945 25.996-4.703 37.293-8.086-12.351 3.98-22.363 5.879-27.746 6.727-3.187.5-6.355.937-9.547 1.359"/><path fill="#bfa53f" d="M270.34 36.012c-.004-.047-.012-.098-.016-.149v-.02c.004.06.012.114.016.169"/><path fill="#f3d448" d="M59.695 241.719c.125-3.696.598-7.012.598-8.914 0-.895-.102-1.477-.398-1.645 1.949-2.195 4.257-3.86 7.007-5.242.16-.078.317-.148.477-.227-5.309 4.016-6.344 7.895-2.797 10.563.219.164.813.25 1.68.25 2.668 0 7.953-.813 13.039-2.645-.235.086-.461.176-.688.262-5.879 2.012-12.144 4.492-18.918 7.598m-.57-9.918c.012-.117.027-.238.047-.356.203-.093.41-.152.644-.242-.078.063-.23.192-.437.39-.078.067-.164.134-.254.208"/><path fill="#fe8" d="M160.707 212.898c13.09-5.941 29.559-14.796 46.875-26.328 36.598-25.882 53.43-55.27 60.926-73.797-6.16 25.918-32.778 72.532-107.801 100.125"/><g clip-path="url(#d)"><path fill="#ece3cf" d="M132.66 272.438c-.387-.016-.77-.028-1.148-.043.379.015.761.027 1.148.043m-5.7-.29c-25.444-1.78-57.015-10.386-60.394-11.55a.22.22 0 0 0 .047.015c.008 0 .02.004.028.008.004 0 .007.004.007.004l.082.023c0 .004 0 .004.004.004 1.278.407 5.145 1.489 10.704 2.899 1.019.254 2.093.515 3.222.785.02.008.035.008.047.016l.004-.004c12.305 2.945 30.469 6.691 46.25 7.8M66.133 260.45"/></g><g clip-path="url(#e)"><path fill="#ecc21c" d="M145.41 272.738c-4.504 0-8.742-.156-12.75-.3-.387-.016-.77-.028-1.148-.043a134.031 134.031 0 0 1-4.551-.247c-15.781-1.109-33.945-4.855-46.25-7.8l.098-.125c13.507 3.234 34.066 7.433 50.804 8.047 4.367.152 8.992.347 13.953.347 1.176 0 2.36-.008 3.575-.035-.063.04-.121.082-.176.121-1.207.024-2.387.035-3.555.035m-64.75-8.402c-1.129-.27-2.203-.531-3.222-.785-5.56-1.41-9.426-2.492-10.704-2.899 1.278.407 5.137 1.489 10.625 2.868-.101-.055-.355-.153-.707-.29 2.07.567 3.66 1 4.008 1.106m-13.93-3.688-.082-.023.082.023m-.09-.027"/></g><path fill="#deb611" d="M77.36 263.52c-5.489-1.38-9.348-2.461-10.626-2.868-.004 0-.004 0-.004-.004l-.082-.023s-.003-.004-.007-.004a.072.072 0 0 0-.028-.008c-.015-.004-.031-.008-.047-.015-.148-.051-.293-.102-.433-.149-.39-.129-.754-.242-1.094-.34 2.184.575 7.738 2.07 11.613 3.121.352.137.606.235.707.29"/><path fill="#ece3cf" d="M64.113 259.855s-.004-.003-.008-.003c-.03-.051-.062-.102-.09-.157 0 0 .005 0 .008.004.032.051.063.106.09.156"/><path fill="#e6bd1c" d="M185.055 249.23h.007-.007m.043-.015c.011-.004.015-.004.023-.008-.008.004-.012.004-.023.008m.039-.012c21.781-7.863 45.34-19.883 65.203-37.5a.124.124 0 0 1 .023-.02c-19.867 17.626-43.437 29.653-65.226 37.52"/><path fill="#ecc21c" d="M101.824 258.04c-5.676-1.302-10.937-2.415-16.531-2.778-.035-.008-.066-.016-.094-.02 5.637.36 10.934 1.48 16.64 2.793-.007 0-.01 0-.015.004"/><path fill="#e6bd1c" d="M119.004 261.668c-6.328-1.074-11.746-2.398-16.844-3.559-.004 0-.008.004-.015.004-.106-.027-.215-.05-.32-.074.003-.004.007-.004.015-.004.105.024.215.047.32.074 5.098 1.16 10.516 2.485 16.844 3.559"/><path fill="#deb611" d="m63.707 257.785-.012-.02c6.715-1.906 12.45-2.644 17.758-2.644 1.27 0 2.516.043 3.746.121.028.004.059.012.094.02a60.87 60.87 0 0 0-3.8-.121c-5.313 0-11.052.734-17.786 2.644"/><path fill="#ece3cf" d="M64.969 260.09c-.469-.121-.77-.203-.844-.219.2.043.398.094.605.149l.239.07m-.848-.219c-.004-.004-.004-.012-.008-.016.004.004.004.012.008.016"/><path fill="#deb611" d="M64.73 260.02a13.604 13.604 0 0 0-.605-.149h-.004c-.004-.004-.004-.012-.008-.016.203.051.407.11.617.165"/><path fill="#ddcda8" d="M80.707 264.352c-.012-.008-.027-.008-.047-.016.016.008.031.008.05.012l-.003.004m-15.668-4.243a.472.472 0 0 0-.07-.02l-.239-.07c.102.028.204.06.31.09m-.927-.254a3.198 3.198 0 0 0-.09-.156h.004c.032.055.059.106.086.156"/><path fill="#ddb217" d="M80.71 264.348c-.019-.004-.034-.004-.05-.012-.347-.106-1.937-.54-4.008-1.106-1.39-.546-4.261-1.761-4.5-3.734-.273-2.3 1.797-3.863 13.149-4.23-.004 0-.008 0-.008-.004 5.594.363 10.855 1.476 16.531 2.777-6.668 1.211-15.047 2.887-22.601 5.711.086.023.168.043.257.063-.05.019-.097.035-.144.054.477.106.957.254 1.473.356l-.098.125"/><path fill="#d8ae17" d="M79.48 263.813c-.09-.02-.171-.04-.257-.063 7.554-2.824 15.933-4.5 22.601-5.71.106.022.215.046.32.073-6.636 1.207-15.066 2.864-22.664 5.7"/><path fill="#d1a80e" d="M76.652 263.23c-3.875-1.05-9.43-2.546-11.613-3.12-.105-.032-.207-.063-.309-.09-.21-.055-.414-.114-.617-.165a6.875 6.875 0 0 0-.086-.156c.368.133.672.246.887.324.285.09.402.157.402.157s-.703-.914-1.609-2.395c6.734-1.91 12.473-2.644 17.785-2.644 1.285 0 2.551.043 3.801.12 0 .005.004.005.008.005-11.352.367-13.422 1.93-13.149 4.23.239 1.973 3.11 3.188 4.5 3.734"/><path fill="#ffde52" d="M121.047 253.727c-10.227 0-19.07-.954-26.07-2.32-10.68-2.087-17.25-3.497-17.567-6.641-.441-4.383 4.043-6.028 13.453-7.672 16.453-2.88 47.957-5.758 94.504-23.262 26.613-10.008 46.074-24.582 60.469-39.055-8.469 40.395-50.914 64.532-88.77 74.414-6.644 1.735-13.437 2.871-20.27 3.805-5.538.508-10.808.73-15.75.73"/><path fill="#fada51" d="M136.797 252.996c6.832-.934 13.625-2.07 20.27-3.805 37.855-9.882 80.3-34.02 88.769-74.414 25-25.129 34.707-49.937 39.992-49.937.04 0 .078 0 .117.004 8.266.582-3.058 63.527-67.172 101.215-29.57 17.39-58.261 24.77-81.976 26.937"/><path fill="#95623f" d="M65.316 260.18s-.117-.067-.402-.157c-1.168-.43-4.883-1.765-7.297-2.96-.695-.36-1.273-.692-1.648-.961-.336-.239-.785-.856-1.305-1.739-1.832-3.164-4.168-9.777-2.156-14.531 1.297-2.973 4.336-6 6.082-7.578.285-.262.574-.484.789-.66.316-.305.5-.442.5-.442 1.309.649-1.008 9.325.082 17.11.441 2.8 1.574 5.566 2.719 7.707.058.187.156.375.289.554 1.234 2.211 2.347 3.657 2.347 3.657"/><path fill="#805533" d="M57.617 257.063c-.695-.36-1.273-.692-1.648-.961-.336-.239-.785-.856-1.305-1.739 1.61-1.406 2.172-3.957 2.008-6.742-.211-4.414.133-7.601 1.375-11.848.383-1.242.578-2.394.543-3.52.285-.26.574-.483.789-.66.316-.304.5-.44.5-.44.305.152.414.742.414 1.652 0-.91-.11-1.5-.414-1.653 0 0-.184.137-.5.442.152.722.191 1.496.086 2.402-.75 6.106-1.281 10.48-.68 16.488.305 3.043.113 5.008-1.168 6.578M65.316 260.18s-.117-.067-.402-.157a29.3 29.3 0 0 1-1.945-3.5c1.234 2.211 2.347 3.657 2.347 3.657"/><path fill="#704b2a" d="M64.914 260.023c-1.168-.43-4.883-1.765-7.297-2.96 1.281-1.57 1.473-3.536 1.168-6.579-.601-6.007-.07-10.382.68-16.488.105-.906.066-1.68-.086-2.402.316-.305.5-.442.5-.442.305.153.414.743.414 1.653 0 2.203-.633 6.308-.633 10.703 0 1.57.082 3.183.3 4.754.442 2.8 1.575 5.566 2.72 7.707.058.187.156.375.289.554a29.3 29.3 0 0 0 1.945 3.5"/><path fill="#ffe886" d="M81.863 229.023c-8.527 0-11.52-2.52-2.765-5.441 17.855-5.336 48.468-8.996 101.914-41.293 42.437-25.64 64.242-50.898 73.86-71.598 1.472-3.164 2.89-4.34 4.081-4.34 2.29 0 3.727 4.329 3.031 7.141-2.632 10.645-12.148 27-32.277 49.57-34.504 38.606-96.422 52.313-124.523 61.743-9.04 3.035-17.48 4.218-23.32 4.218"/><g clip-path="url(#f)"><path fill="#ece3cf" d="M284.125 198.328c21.223-25.871 31.297-53.523 28.684-79.117a75.505 75.505 0 0 0-2.891-14.555c-2.07-6.941-5.203-13.691-9.398-20.113-.145-.219-.29-.438-.434-.648a78.065 78.065 0 0 0-2.031-2.91c-3.035-12.266-7.602-34.067-8.707-44.114.004-.004.004-.004.004-.008-.223-2.097-.293-3.672-.149-4.476v-.012c.004 0 .004-.008.004-.012s0-.004.004-.004v-.011c.871-4.485 3.062-17.508 3.062-17.508l-.023-.07.129-.055s-2.195 13.02-3.067 17.504c-.87 4.484 5.149 33.84 8.875 48.875 5.454 7.465 9.403 15.437 11.86 23.672 8.914 29.402-.602 62.75-25.922 93.562m8.082-183.457v-.004c.031-.015.059-.02.063-.023h.003v-.004l-.066.031"/></g><g clip-path="url(#g)"><path fill="#ecc21c" d="M149.14 272.582c.055-.039.114-.078.176-.117 24.184-.543 56.051-6.735 102.434-43.133 42.828-33.55 64.648-73.879 61.059-110.121 2.613 25.594-7.461 53.246-28.684 79.117-8.852 10.774-19.637 21.234-32.246 31.113-46.574 36.547-78.52 42.645-102.738 43.141"/></g><path fill="#e7dcc4" d="M312.809 119.21a75.867 75.867 0 0 0-2.864-14.32 75.208 75.208 0 0 0-3.472-9.304c.004 0 .007 0 .007.004a78.459 78.459 0 0 0-2.285-4.64c-1.035-1.99-2.328-4.329-3.675-6.407 4.195 6.422 7.328 13.172 9.398 20.113a75.505 75.505 0 0 1 2.89 14.555m-12.722-35.316c-.668-.997-1.344-1.91-2.004-2.676-3.062-12.36-7.676-34.403-8.734-44.344v-.004c1.105 10.047 5.672 31.848 8.707 44.113.703.965 1.382 1.93 2.03 2.91m-9.51-68.343c.39-.176.722-.317.991-.426.317-.133.536-.219.641-.258v.004l-1.633.68"/><g clip-path="url(#h)"><path fill="#e6bd1c" d="M149.316 272.465c9.215-5.89 54.848-11.469 104.59-52.45 55.934-46.09 51.906-105.21 58.102-105.21.066 0 .137.007.207.023a76.06 76.06 0 0 0-5.762-19.246c.004 0 .012 0 .02.004a75.208 75.208 0 0 1 3.472 9.305 75.867 75.867 0 0 1 2.864 14.32c3.59 36.242-18.23 76.57-61.059 110.121-46.383 36.398-78.25 42.59-102.434 43.133"/></g><g clip-path="url(#i)"><path fill="#ddb217" d="M145.566 272.617c-4.96 0-9.586-.195-13.953-.347-16.738-.614-37.297-4.813-50.804-8.047a.45.45 0 0 1 .09-.07c13.507 3.23 33.91 7.394 50.59 8.007 4.363.152 8.995.348 13.952.352 1.27 0 2.559-.016 3.875-.047-.062.039-.12.078-.175.117a157.97 157.97 0 0 1-3.575.035"/></g><g clip-path="url(#j)"><path fill="#d8ae17" d="M145.441 272.512c-4.957-.004-9.59-.2-13.953-.352-16.68-.613-37.082-4.777-50.59-8.008.122-.066.336-.093.625-.093 1.618 0 5.762.941 12.086 1.882 6.329.942 14.825 1.887 25.153 1.887 31.074 0 78.687-8.527 133.308-51.207 66.453-59.95 48.184-102.117 58.993-107.523a76.084 76.084 0 0 0-4.618-13.52c.004 0 .004 0 .008.004a76.06 76.06 0 0 1 5.762 19.246.962.962 0 0 0-.207-.023c-6.195 0-2.168 59.12-58.102 105.21-49.742 40.981-95.375 46.56-104.59 52.45-1.316.031-2.605.047-3.875.047"/></g><path fill="#d8ae17" d="M124.207 262.008c.047 0 .098-.004.145-.004-.047 0-.098.004-.145.004m0 0c-2.148 0-3.902-.117-5.203-.34 1.3.223 3.058.336 5.203.34m.242-.004c11.746-.047 34.942-3.524 60.606-12.774-25.664 9.254-48.852 12.727-60.606 12.774m-5.445-.336c-6.32-1.063-11.762-2.383-16.86-3.555.008 0 .012-.004.016-.004 5.098 1.16 10.516 2.485 16.844 3.559M185.122 249.207c.003 0 .01-.004.015-.004l-.016.004"/><path fill="#d1a513" d="M80.809 264.223c-.516-.102-.996-.25-1.473-.356.047-.02.094-.035.144-.055.461.114.934.227 1.418.34a.45.45 0 0 0-.09.07"/><path fill="#cda113" d="M118.762 267.828c-10.328 0-18.825-.945-25.153-1.887-6.324-.941-10.468-1.882-12.086-1.882-.289 0-.503.027-.625.093-.484-.113-.957-.226-1.418-.34 7.598-2.835 16.028-4.492 22.665-5.699 5.097 1.172 10.539 2.492 16.859 3.555 1.3.223 3.055.34 5.203.34.047 0 .098-.004.145-.004h.097c11.754-.047 34.942-3.52 60.606-12.774h.007a.31.31 0 0 1 .036-.015c.011-.004.015-.004.023-.008l.016-.004c21.789-7.867 45.36-19.894 65.226-37.52 41.313-34.843 54.575-70.66 51.715-99.152-1.078-10.726.613-17.094 3.586-17.094.25 0 .512.047.781.141a76.084 76.084 0 0 1 4.618 13.52c-10.81 5.406 7.46 47.574-58.993 107.523-54.62 42.68-102.234 51.207-133.308 51.207"/><path fill="#eec715" d="M306.48 95.59c-3.468-1.246-5.574 5.265-4.402 16.941 3.281 32.703-14.668 75.051-71.898 114.496 54.215-40.855 70.218-88.609 61.972-125.836-2.71-9.609-10.347-4.328-14.187 6.602-3.809 10.852-27.098 102.297-160.63 117.508 142.606-30.563 158.923-122.508 151.06-130.746-2.645-2.73-4.594-3.938-10.278 1.422 2.926-6.094 5.121-10.98 7.352-14.317.539-.797 1.05-1.547 1.61-2.148.062-.16.163-.325.222-.489 3.894-8.484 5.492-34.402 1.316-54.296l3.25-1.336 2.836-1.18 3.918-1.64 13.652-5.731s-2.191 13.023-3.062 17.508c-.871 4.484 5.144 33.84 8.871 48.87a80.271 80.271 0 0 1 8.398 14.372"/><path fill="#deb611" d="M298.082 81.219s-.246-.145-.738-.34c-1.727-.723-3.586-1-5.422-1-2.531 0-5.02.527-7.078 1.156-.477-2.531-.852-5.078-1.067-7.613-.757-9.04.586-17.406 2.957-25.57.641-3.715 1.473-7.399 2.614-10.977 1.058 9.941 5.672 31.984 8.734 44.344M289.203 32.375c.004 0 .004-.008.004-.012 0 .004 0 .012-.004.012"/><path fill="#ddcda8" d="M289.348 36.871c-.016-.164-.036-.328-.051-.484-.11-1.133-.172-2.086-.172-2.828 0-.485.023-.88.078-1.172-.144.804-.074 2.379.149 4.476 0 .004 0 .004-.004.008"/><path fill="#d8c69f" d="M289.348 36.875c-.016-.168-.036-.332-.051-.488.015.156.035.32.05.484v.004"/><path fill="#ddcda8" d="M289.203 32.383v-.008.008m.004-.02c0-.004 0-.004.004-.004-.004 0-.004 0-.004.004m.004-.011v-.004c.871-4.485 3.062-17.508 3.062-17.508s-2.191 13.023-3.062 17.508v.004"/><path fill="#d0ba88" d="m292.207 14.871.066-.031-.066.031"/><path fill="#cdb580" d="M290.45 15.605c.042-.02.085-.035.124-.054l1.633-.68-1.758.734"/><path fill="#d1a80e" d="M279.762 83.063c.441-2.172.633-5.102.633-8.543 0-12.407-2.493-31.516-4.747-46.254.004 0 .008-.004.012-.004l.024-.059a.706.706 0 0 1 .105-.187c.055.152.102.222.102.222.52-1.414 1.359-2.703 2.367-3.933l-.024-.22c3.625-4.25 9.32-7.175 12.215-8.48l1.824-.765s-2.191 13.023-3.062 17.508v.011c-.004 0-.004 0-.004.004s0 .012-.004.012v.012c-.055.293-.078.687-.078 1.172 0 .847.078 1.972.223 3.316-1.141 3.578-1.973 7.262-2.614 10.977-2.37 8.164-3.714 16.53-2.957 25.57.215 2.535.59 5.082 1.067 7.613-2.996.914-5.082 2.028-5.082 2.028m6.914-62.61c-2.008 0-4.59 2.637-5.758 4.016-.691.82-1.32 1.652-1.863 2.57-.82 1.383-1.258 1.977-1.22 3.629.04 1.664.423 3.07.884 4.625.344 1.156.46 2.355.652 3.543.172 1.117.567 2.031.856 3.09.656 2.398 1.183 4.879 1.289 7.367.004.11.086.16.168.16.082 0 .164-.05.16-.16-.16-4.3-.656-8.578-.844-12.86-.07-1.562-.14-3.136.113-4.68.325-2 1.395-4.03 2.672-5.589 1.195-1.46 3.324-3.016 3.598-5 .05-.375-.145-.676-.54-.707-.058-.004-.109-.004-.167-.004"/><path fill="#ffd623" d="M274.82 80.715c-2.543-1.336-9.351.945-9.351.945.539-.797 1.05-1.547 1.61-2.148.062-.16.163-.325.222-.489 3.894-8.484 5.492-34.402 1.316-54.296 0 0 9.98 39.386 6.203 55.988"/><path fill="#ddcda8" d="M300.52 84.543c-.145-.219-.286-.434-.434-.648.144.21.289.43.434.648"/><path fill="#d8c69f" d="M304.195 90.95a80.925 80.925 0 0 0-6.113-9.731c.66.765 1.336 1.68 2.004 2.676.148.214.289.43.434.648 1.347 2.078 2.64 4.418 3.675 6.406"/><path fill="#deb611" d="M306.48 95.59s-9.02-9.278-22.558-9.278c-1.235 0-2.504.079-3.813.243-3.636-1.758-7.382-5.11-12.421-5.11-.715 0-1.45.063-2.22.215 0 0 3.505-1.176 6.423-1.344.953.004 1.828.102 2.613.262.113.04.215.086.316.137.004-.02.012-.043.016-.067 3.187.73 4.926 2.415 4.926 2.415 1.875-.88 3.539-1.438 5.11-1.883-.005-.024-.013-.051-.017-.075 2.81-.84 5.188-1.12 7.118-1.12 2.64 0 4.445.53 5.37.894.25.105.493.219.739.34a80.925 80.925 0 0 1 6.113 9.73 108.796 108.796 0 0 1 2.285 4.64m-20.046-11.53c2.02 0 4.109.05 6.054.402 1.973.352 3.84 1.309 5.848 1.309.133 0 .262-.004.394-.016.786-.05 1.247-.984.653-1.582-1.852-1.871-4.137-2.457-6.528-2.457-2.675 0-5.48.73-7.96 1.2-.657.124-.497 1.147.148 1.147h.004c.457 0 .918-.003 1.387-.003"/><path fill="#d1a80e" d="m284.855 81.105-.011-.07c2.058-.629 4.547-1.156 7.078-1.156 1.836 0 3.695.277 5.422 1-.926-.363-2.73-.895-5.371-.895-1.93 0-4.309.282-7.118 1.121M279.762 83.063c1.828-.856 3.527-1.497 5.093-1.958.004.024.012.051.016.075-1.57.445-3.234 1.004-5.11 1.882"/><path fill="#c79d0b" d="M279.762 83.063s2.086-1.114 5.082-2.028l.011.07c-1.566.461-3.265 1.102-5.093 1.957"/><path fill="#ecc21c" d="M265.469 81.66c2.398-.984 4.535-1.344 6.375-1.344h.047c-2.918.168-6.422 1.344-6.422 1.344m9.351-.945a2.573 2.573 0 0 0-.316-.137l.332.07c-.004.024-.012.047-.016.067"/><g clip-path="url(#k)"><path fill="#6d501d" d="M292.273 14.84s-9.03 3.36-14.039 9.234c-1.046 1.196-1.886 2.524-2.445 3.942a.88.88 0 0 0-.129.246c-14.215 4.386-22.777-.317-22.941-1.973-.418-3.77 1.933-14.434 5.332-18.516.906-1.062 8.062-5.28 10.75-5.632.77-.114 2.64-.418 4.855-.797 0 0 .309-.035.848-.125l.226-.024c1.688-.246 5.141-.71 9-.98.696.355 1.59 1.472 2.543 2.855 1.504 2.223 4.84 8.739 5.094 9.332.574 1.461.906 2.438.906 2.438"/></g><g clip-path="url(#l)"><path fill="#564114" d="M263.797 28.648c-6.559 0-11.078-2.359-11.078-2.359a8.498 8.498 0 0 1-.047-.992c0-4.387 2.242-13.758 5.379-17.524.039.352.3.672.797.934 1.464.746 4.453 1.059 8.047 1.059 1.418 0 2.933-.051 4.484-.141 1.293-3.008 5.77-6.027 10.016-8.281l.148-.055c.543-.285 1.094-.547 1.625-.805-.531.258-1.082.52-1.625.805l-.148.055c-4.247 2.254-8.723 5.273-10.016 8.281-.125 4.957 1.469 10.75 2.746 14.55.063.266.164.49.219.677.191.527.375 1.003.535 1.425-4 1.778-7.797 2.371-11.082 2.371m-4.34-18.207c-.164 0-.336.036-.516.13-3.894 1.94-3.617 9.148-4.449 12.777-.137.597.41 1.105.922 1.105.258 0 .508-.129.656-.441.926-1.957 1.555-3.914 2.145-5.996.594-2.086 1.933-4.211 2.219-6.301.093-.692-.36-1.274-.977-1.274"/></g><g clip-path="url(#m)"><path fill="#46370e" d="M275.684 28.203c.027-.078.058-.148.093-.226l.012.039a.706.706 0 0 0-.105.187m-.805-1.926c-.16-.422-.344-.898-.535-1.425-.055-.188-.156-.41-.219-.676-1.277-3.801-2.871-9.594-2.746-14.551 1.293-3.008 5.77-6.027 10.016-8.281l.148-.055c.543-.285 1.094-.547 1.625-.805-.703.364-1.418.797-2.203 1.215-4.055 2.2-8.125 5.055-9.356 7.903-.101 3.628.739 7.746 1.704 11.156.046.07.054.144.066.265a73.79 73.79 0 0 0 1.676 5.075c-.059.058-.121.12-.176.18"/></g><g clip-path="url(#n)"><path fill="#46370e" d="M278.09 22.906c-.156-1.453-.2-2.886-.086-4.218.476-6.856 4.324-11.133 8.27-15.618 1.503 2.223 4.84 8.739 5.093 9.332.266.676.48 1.246.633 1.664a42.772 42.772 0 0 0-.367-.953c-5.75 1.836-9.64 5.676-13.543 9.793M292.27 14.844h.003-.003m-6.004-11.781c-.766-1.114-1.547-2.094-2.141-2.586.625.503 1.36 1.457 2.14 2.586"/></g><path fill="#9b7e0a" d="M275.89 28.238s-.046-.07-.1-.222c.214-.547.472-1.078.769-1.598a15.969 15.969 0 0 1 1.675-2.332l.024.219c-1.008 1.23-1.848 2.52-2.367 3.933"/><path fill="#bbbab0" d="M286.273 3.07c-.003-.004-.007-.004-.007-.007 0 .003.004.003.007.007"/><g clip-path="url(#o)"><path fill="#564114" d="M283.168.484c.187-.093.375-.183.562-.27-.183.09-.37.18-.562.27"/></g><g clip-path="url(#p)"><path fill="#bbbab0" d="M284.125.477a1.903 1.903 0 0 1 0 0"/></g><g clip-path="url(#q)"><path fill="#3b300a" d="M275.79 28.016c-.005-.012-.009-.028-.013-.04.22-.535.48-1.054.782-1.558-.297.52-.555 1.05-.77 1.598m-.734-1.918a73.79 73.79 0 0 1-1.676-5.075c-.012-.12-.02-.195-.067-.265-.964-3.41-1.804-7.528-1.703-11.156 1.23-2.848 5.301-5.704 9.356-7.903.785-.418 1.5-.851 2.203-1.215.191-.09.379-.18.562-.27.125.063.258.153.395.263.594.492 1.375 1.472 2.14 2.586 0 .003.005.003.008.007-3.945 4.485-7.793 8.762-8.27 15.617-.112 1.333-.07 2.766.087 4.22-1 1.058-2.004 2.128-3.035 3.19"/></g><path fill="#9b7e0a" d="M275.648 28.266c.004 0 .008-.004.012-.004l.024-.059-.024.059c-.004 0-.008.004-.012.004"/><path fill="#aaa287" d="M290.566 15.555a33.536 33.536 0 0 1 .008-.004l-.008.004"/><path fill="#988659" d="M290.445 15.61c.04-.02.082-.036.121-.055l.008-.004c-.039.02-.082.035-.125.054l-.004.004"/><path fill="#9b7e0a" d="M278.234 24.086v-.012c3.61-4.234 9.305-7.16 12.211-8.465l.004-.004c-2.894 1.305-8.59 4.23-12.215 8.48"/><path fill="#bbbab0" d="M292.25 14.77c-.008-.016-.012-.036-.02-.051v-.004c.008.02.012.039.02.055m-.05-.145-.2-.559c.086.235.152.426.2.559"/><path fill="#b6b4a7" d="M292.23 14.719c-.007-.028-.015-.059-.03-.094.015.031.023.063.03.09v.004"/><path fill="#aea78f" d="m292.273 14.84-.023-.07.023.07"/><path fill="#46370e" d="M264.398 30.082c-1.136 0-2.199-.059-3.18-.176h-.027c-5.367-.61-8.375-2.64-8.472-3.617 0 0 4.52 2.36 11.078 2.36 3.285 0 7.082-.594 11.082-2.372.469 1.235.781 1.985.781 1.985-.004 0-.008.004-.012.004-2.078.64-4.039 1.09-5.867 1.379a5.87 5.87 0 0 0-.258.039c-.093.011-.18.027-.27.039-.015 0-.023.004-.038.004a33.22 33.22 0 0 1-1.961.226c-.996.09-1.953.129-2.856.129"/><path fill="#3b300a" d="M275.66 28.262s-.312-.75-.781-1.985c.055-.058.117-.12.176-.18.324.887.582 1.536.722 1.88a2.777 2.777 0 0 0-.093.226l-.024.059M278.234 24.074c-.054-.39-.105-.777-.144-1.168 3.902-4.117 7.793-7.957 13.543-9.793a32.269 32.269 0 0 1 .64 1.727v.004h-.003c-.032.008-.282.101-.704.281-2.226.922-9.171 4.066-13.332 8.95"/><path fill="#766107" d="M276.559 26.418a14.208 14.208 0 0 1 1.675-2.344v.012c-.632.738-1.199 1.516-1.675 2.332"/><path fill="#342b07" d="M275.777 27.977c-.14-.344-.398-.993-.722-1.88 1.03-1.062 2.035-2.132 3.035-3.19.039.39.09.777.144 1.167a14.208 14.208 0 0 0-1.675 2.344c-.301.504-.563 1.023-.782 1.559"/><g clip-path="url(#r)"><path fill="#6c5229" d="M258.855 8.71c5.282 1.267 11.641.02 11.641.02s8.606-7.214 13.234-8.515c-6.03 4.285-11.644 9.02-11.69 10.18-.048 1.16 1.019 11.03 2.32 14.453-3.532-6.79-4.06-14.227-4.06-14.227s-9.245.031-11.445-1.91"/></g><path fill="#c9a97d" d="M54.07 247.027c-.27 0-.543-.132-.68-.363-2.062-3.512.188-8.023 2.985-10.277a.355.355 0 0 1 .227-.078c.234 0 .449.222.293.48-.993 1.598-1.403 3.399-1.606 5.246-.172 1.543.031 3.2-.625 4.63-.113.25-.352.362-.594.362"/><path fill="#ffe46e" d="M74.453 250.836a.927.927 0 0 1-.203-.024c-7.113-1.753-7.172-8.796-1.117-12.218 12.406-7.012 29.719-8.29 43.57-10.281.027-.004.055-.004.082-.004.528 0 .735.738.168.914-6.965 2.117-14.195 2.984-21.3 4.507-3.016.653-6.063 1.262-9.016 2.18-1.672.512-21.285 7.008-11.82 13.555.62.43.328 1.37-.364 1.37M17.113 136.934a.672.672 0 0 1-.492-.211c-4.39-4.715 1.168-9.016 5.93-9.692a30.308 30.308 0 0 1 4.183-.277c11.184 0 23.387 5.48 34.059 7.18.203.03.148.343-.047.347-.148 0-.293.004-.437.004-5.496-.004-10.239-1.097-15.563-2.387-2.527-.609-11.129-2.593-18.004-2.593-5.976 0-10.644 1.5-8.89 6.703.171.5-.286.926-.739.926"/><path fill="#ffe886" d="M19.922 122.707c-.625 0-1.223-.352-1.422-1.137-.64-2.496 1.383-5.68 4.07-5.68.125 0 .254.008.38.024.648.07 1.312.793.835 1.453-.45.625-.957 1.246-1.34 1.914-.422.735-.582 1.508-.87 2.29a1.776 1.776 0 0 1-1.653 1.136"/><path fill="#c9a97d" d="M3.285 127.29c-.277 0-.574-.228-.578-.54 0-1.676.563-3.098 1.531-4.469.578-.824 1.63-2.254 2.782-2.254.148 0 .296.024.445.078.21.07.379.254.375.489-.012 1.14-1.317 1.867-1.988 2.668-.922 1.09-1.555 2.476-2.149 3.758a.449.449 0 0 1-.418.27M9.672 181.168c-.254 0-.5-.137-.555-.426-.62-3.304 1.168-9.55 4.852-10.578a.403.403 0 0 1 .117-.016c.285 0 .535.282.445.582-.488 1.57-1.82 2.856-2.554 4.344-.899 1.832-1.215 3.715-1.707 5.668-.07.278-.336.426-.598.426"/><path fill="#eed365" d="M298.336 85.77c-2.008 0-3.875-.957-5.848-1.31-1.945-.35-4.035-.401-6.054-.401-.47 0-.93.004-1.387.004h-.004c-.645 0-.805-1.024-.148-1.149 2.48-.469 5.285-1.2 7.96-1.2 2.391 0 4.676.587 6.528 2.458.594.598.133 1.531-.653 1.582a4.44 4.44 0 0 1-.394.016"/><path fill="#f6dc67" d="M272.727 110.781c-.282 0-.551-.226-.473-.605 1.3-6.469 5.172-20.266-4.602-22.32-.964-.204-.71-1.676.223-1.676h.012c12.691 0 8.191 17.218 5.32 24.257a.51.51 0 0 1-.48.344"/><path fill="#e8cc64" d="M281.684 49.453c-.082 0-.164-.05-.168-.16-.106-2.488-.633-4.969-1.29-7.367-.288-1.059-.683-1.973-.855-3.09-.191-1.188-.308-2.387-.652-3.543-.461-1.555-.844-2.961-.883-4.625-.04-1.652.398-2.246 1.219-3.629.543-.918 1.172-1.75 1.863-2.57 1.168-1.38 3.75-4.016 5.758-4.016.058 0 .11 0 .168.004.394.031.59.332.539.707-.274 1.984-2.403 3.54-3.598 5-1.277 1.559-2.348 3.59-2.672 5.59-.254 1.543-.183 3.117-.113 4.68.188 4.28.684 8.558.844 12.859.004.11-.078.16-.16.16"/><path fill="#a99867" d="M255.414 24.453c-.512 0-1.059-.508-.922-1.105.832-3.63.555-10.836 4.45-12.778.18-.093.351-.129.515-.129.617 0 1.07.582.977 1.274-.286 2.09-1.625 4.215-2.22 6.3-.589 2.083-1.218 4.04-2.144 5.997-.148.312-.398.441-.656.441"/></svg>