<svg xmlns="http://www.w3.org/2000/svg" width="494" viewBox="0 0 370.5 315" height="420" version="1.0"><defs><clipPath id="a"><path d="M81.797 151.16h6.797v6.8h-6.797zm0 0"/></clipPath><clipPath id="b"><path d="M85.195 151.16a3.398 3.398 0 0 0-3.398 3.399 3.4 3.4 0 1 0 3.398-3.399zm0 0"/></clipPath><clipPath id="c"><path d="M166 .21h83V116h-83zm0 0"/></clipPath><clipPath id="d"><path d="M166 .21h80V116h-80zm0 0"/></clipPath><clipPath id="e"><path d="M173 .21h58V59h-58zm0 0"/></clipPath></defs><g clip-path="url(#a)"><g clip-path="url(#b)"><path fill="#62b433" d="M81.797 151.16h6.797v6.8h-6.797zm0 0"/></g></g><path fill="#74d45d" d="m369.543 201.586-.023.043-.102.242c-.098.246-.266.629-.527 1.16-3.914 8.367-26.704 49.461-91.102 41.278a60.417 60.417 0 0 1-2.754-.368l-.246-.043c-8.684-1.28-18.11-3.441-28.309-6.687-15.054-11.629-21.054-23.055-21.46-33.445v-.118c-.961-27.996 38.613-48.359 50.015-44.707 1.067.368 7.606.86 17.016 3 13.933 3.16 34.164 9.895 52.34 25.016 21.742 12.918 25.152 14.629 25.152 14.629"/><path fill="#2c611f" d="m369.543 203.477-.023.039-.102.257c-.098.254-.266.665-.527 1.215-.188.387-.387.84-.653 1.352-5.43 11-28.968 49.312-90.465 41.906-.902-.105-1.82-.21-2.738-.34l-.246-.047c-8.684-1.214-18.11-3.355-28.309-6.566-16.199-12.438-21.886-24.617-21.46-35.527v-.13c.164-3.706 1.042-7.277 2.468-10.64 8.75-20.848 38.024-34.52 47.547-31.484 1.102.367 7.672.472 17.36 2.504 13.44 2.828 32.906 9.336 51.996 25.324 21.742 12.84 25.152 12.137 25.152 12.137"/><path fill="#418f2f" d="m369.543 201.586-.023.043-.102.242c-.098.246-.266.629-.527 1.16-.188.367-.387.797-.653 1.29-5.43 10.488-28.968 47.007-90.465 39.945-.902-.098-1.82-.203-2.738-.325l-.246-.043c-8.684-1.16-18.11-3.199-28.309-6.261-16.199-11.852-21.886-23.465-21.46-33.871v-.118c.164-3.53 1.042-6.937 2.468-10.144 8.75-19.871 38.024-32.906 47.547-30.012 1.102.344 7.672.45 17.36 2.39 13.44 2.692 32.906 8.891 51.996 24.134 21.742 12.242 25.152 11.57 25.152 11.57"/><path fill="#2e6f28" d="M328.008 208.344c-5.504 0-11.008-.215-16.492-.63.164-.32.332-.64.504-.952 6.746.703 13.293 1.25 19.257 1.554-1.09.016-2.18.028-3.27.028M345.098 207.645c-9.606-.086-20.79-1.11-32.137-2.586 4.254-7.454 9.543-13.657 15.851-19.715l-.042-.055c-7.43 4.762-13.77 11.828-18.418 19.422-7.766-1.055-15.547-2.309-22.91-3.602 1.492-3.101 2.703-6.386 4.574-9.312 2.93-4.578 6.214-8.973 10.246-12.625l-.047-.04c-3.98 3.473-7.86 6.97-10.965 11.266-2.164 3.004-4.773 6.575-6.238 10.282a794.994 794.994 0 0 1-8.852-1.645c4.402-7.754 10.688-14.469 14.176-22.687 1.348-3.207 2.082-6.875 2.059-10.465 13.44 2.691 32.906 8.89 51.996 24.133 19.59 11.03 24.293 11.578 25.035 11.578a.614.614 0 0 0 .117-.008l-.023.043-.102.242c-.098.246-.266.629-.527 1.16-.188.367-.387.797-.653 1.29a192.356 192.356 0 0 1-23.14 3.324m-36.227-.145a548.45 548.45 0 0 1-2.402-.219c-6.992-.683-13.79-1.902-20.57-3.277.093-.152.18-.3.269-.453 7.543 1.058 15.441 2.078 23.14 2.918-.085.156-.171.316-.261.469-.11.19-.164.382-.176.562m-24.742-3.863c-1.957-.403-3.91-.817-5.875-1.227 1.945.285 3.933.574 5.95.86-.028.125-.052.246-.075.367"/><path fill="#4e9e4b" d="M292.395 165.883a143.856 143.856 0 0 0-3.91-.723 108.643 108.643 0 0 0 1.55-3.664c.656.145 1.328.29 2.016.445.226 1.286.344 2.614.344 3.942"/><path fill="#1e4819" d="M277.79 244.309a60.417 60.417 0 0 1-2.755-.368l-.246-.043c-6.52-.875-13.457-2.238-20.824-4.16 7.367 1.922 14.305 3.285 20.824 4.16l.246.043c.918.121 1.836.227 2.738.325l.016.043"/><path fill="#2c6b26" d="M277.773 244.266c-.902-.098-1.82-.203-2.738-.325l-.246-.043c-6.52-.875-13.457-2.238-20.824-4.16a86.358 86.358 0 0 0 1.082-8.285c.695-8.547.058-17.422-2.29-26.293a90.37 90.37 0 0 0-1.902-6.316l.278-.106c3.07.309 6.058.555 8.758.782 4.382.722 9.386 1.527 14.757 2.34v.011l-.082.14c-6.445 13.344-4.671 29.81 3.207 42.255"/><path fill="#1f5320" d="M259.89 199.52c-2.699-.227-5.687-.473-8.757-.782a61.8 61.8 0 0 0 1.23-.488c2.219.383 4.746.809 7.528 1.27m16.27-.485a808.9 808.9 0 0 1-17.763-3.59 79.532 79.532 0 0 0 8.946-5.449 75.29 75.29 0 0 0 3.922-2.934 66.31 66.31 0 0 0 7.828-7.332c2.308-2.527 4.304-5.136 5.894-7.812.203-.309.367-.613.555-.922a72.25 72.25 0 0 0 1.973-3.77c.332-.675.656-1.367.968-2.066 1.235.211 2.54.45 3.91.723.024 3.59-.71 7.258-2.058 10.465-3.488 8.218-9.774 14.933-14.176 22.687"/><path fill="#4d9846" d="M302.254 239.3c-7.961-10.48-15.32-21.655-18.996-34.46-.067-.242.152-.434.355-.434.106 0 .207.055.258.168 5.348 12.04 10.54 24.055 18.414 34.715l-.031.012M325.41 232.355c-2.683-4.035-5.488-7.863-8.055-12-2.437-3.93-5.69-7.496-7.695-11.656-.457-.219-.812-.668-.789-1.199.883.078 1.762.152 2.645.215l-.157.305c2.54 3.355 4.211 7.375 6.454 10.949 2.75 4.375 5.167 8.847 7.773 13.289l-.176.097"/><path fill="#3b7b40" d="M311.516 207.715c-.883-.063-1.762-.137-2.645-.215.012-.18.067-.371.176-.563.09-.152.176-.312.262-.468.91.105 1.808.199 2.71.293a36.7 36.7 0 0 0-.503.953m1.445-2.656c-.867-.118-1.742-.23-2.61-.348 4.649-7.594 10.989-14.66 18.419-19.422l.043.055c-6.31 6.058-11.598 12.261-15.852 19.715"/><path fill="#4d9846" d="M284.715 205.281c-.406 0-.793-.386-.715-.898.035-.25.074-.496.129-.746.586.125 1.18.246 1.77.367-.188.316-.383.625-.59.926-.16.246-.383.351-.594.351"/><path fill="#3b7b40" d="M285.898 204.004c-.59-.121-1.183-.242-1.77-.367.024-.121.048-.242.075-.367.652.093 1.305.187 1.965.28-.09.153-.176.302-.27.454m1.543-2.895c-.808-.144-1.625-.285-2.43-.43 1.466-3.706 4.075-7.277 6.239-10.28 3.105-4.297 6.984-7.794 10.965-11.266l.047.039c-4.032 3.652-7.317 8.047-10.246 12.625-1.871 2.926-3.082 6.21-4.575 9.312"/><path fill="#78b06b" d="M244.773 192.402s74.114 17.684 109.809 14.965c-22.437 5.781-112.191-10.883-112.191-10.883l2.382-4.082"/><g clip-path="url(#c)"><path fill="#74d45d" d="M242.402 100.941c-7.09 9.993-67.683 27.989-75.449-1.183a24.952 24.952 0 0 1-.781-5.578 33.076 33.076 0 0 1 .058-3.442s1.293-27.508 16.825-52.66C192.805 22.2 208.23 7.266 232.547.816c12.906 2.864 22.805 81.957 9.855 100.125"/></g><g clip-path="url(#d)"><path fill="#418f2f" d="M239.664 100.941c-6.832 9.993-65.254 27.989-72.738-1.183a26.178 26.178 0 0 1-.758-5.578 34.227 34.227 0 0 1 .062-3.442s1.247-27.508 16.22-52.66C191.851 22.2 206.722 7.266 230.155.816c.676-.199 1.352-.382 2.047-.546 16.992 29.93 14.953 89.773 7.461 100.671"/></g><g clip-path="url(#e)"><path fill="#2e6f28" d="M180.55 58.7c.262-6.907.895-13.794 1.9-20.622-3.887 6.524-6.845 13.215-9.098 19.535 2.253-6.32 5.21-13.011 9.097-19.535C191.852 22.2 206.723 7.266 230.156.816c-.035.375-.097.782-.156 1.207-.84 5.344-2.012 10.72-3.438 16.098L214.48 48.723c-1.02-2.528-2.542-4.922-3.796-7.29-2.102-3.992-4.34-7.808-7.102-11.386a.14.14 0 0 0-.117-.055c-.074 0-.145.055-.113.156 1.12 4.141 2.718 8.004 4.507 11.899 1.391 3.027 2.61 6.437 4.567 9.21-11.297.723-23.012 3.356-31.875 7.442m29.883-31.812c-2.297 0-2.297 3.57 0 3.57 2.3 0 2.3-3.57 0-3.57m5.125-10.985-.059.024c.582 3.406 1.543 7.812 3.73 10.574.09.117.22.164.348.164.293 0 .606-.234.578-.543-.32-3.496-2.668-7.371-4.597-10.219"/></g><path fill="#225b24" d="M176.25 60.871c-.371-.426-.75-.863-1.148-1.3-.559-.641-1.141-1.286-1.75-1.958 2.253-6.32 5.21-13.011 9.097-19.535a191.697 191.697 0 0 0-1.898 20.621 59.006 59.006 0 0 0-4.3 2.172"/><path fill="#3b7b40" d="M212.426 51.258c-1.957-2.774-3.176-6.184-4.567-9.211-1.789-3.895-3.386-7.758-4.507-11.899-.032-.101.039-.156.113-.156a.14.14 0 0 1 .117.055c2.762 3.578 5 7.394 7.102 11.387 1.254 2.367 2.777 4.761 3.796 7.289l-.972 2.468c-.36.02-.723.043-1.082.067M219.578 26.664a.424.424 0 0 1-.348-.164c-2.187-2.762-3.148-7.168-3.73-10.574l.059-.024c1.93 2.848 4.277 6.723 4.597 10.22.028.308-.285.542-.578.542"/><path fill="#4d9846" d="m217.457 51.059.7-2.465c4.359-5.621 12.202-9.719 18.718-11.543a.223.223 0 0 1 .086-.016c.281 0 .394.403.144.57-3.285 2.157-6.699 4.145-9.867 6.473-3.086 2.274-5.812 5.016-9.11 6.977-.222 0-.448 0-.671.004"/><path fill="#78b06b" d="m227.43 15.918-15.633 55.086-5.442-1.695 21.075-53.391"/><path fill="#74d45d" d="M195.648 132.887s-1.078-.04-2.968-.121c-3.758-.172-10.79-.461-19.203-.84-16.98-.73-39.618-1.774-52.473-2.485-5.797-.336-9.594-.586-10.02-.734-.652-.227-6.359-8.418-13.386-20.844-5.325-9.398-11.422-21.222-16.66-33.86-9.063-21.784-15.61-43.698-11.504-62.167 1.027-5.27 46.793-3.367 87.164 29.937a163.988 163.988 0 0 1 15.988 15.02c.89.96 1.73 1.875 2.516 2.777 7.335 8.25 11.058 14.14 11.058 14.14h1.356l2.62 18.99 3.094 22.538 2.028 14.852.39 2.797"/><path fill="#418f2f" d="M196.156 132.887s-1.078-.04-2.976-.121c-3.778-.164-10.828-.45-19.278-.817-17.054-.71-39.777-1.73-52.687-2.426-5.813-.324-9.63-.57-10.059-.714-.652-.227-6.386-8.223-13.441-20.364-5.348-9.183-11.461-20.73-16.73-33.074C71.886 54.09 65.28 30.387 69.397 12.348c.082-.407.188-.797.286-1.184 38.394 1.02 67.644 16.973 87.27 32.727a163.6 163.6 0 0 1 16.054 14.668c.894.937 1.73 1.84 2.527 2.714 7.363 8.059 11.098 13.813 11.098 13.813H188l2.629 18.547 3.101 22.012 2.04 14.507.386 2.735"/><path fill="#2e6f28" d="M125.281 84.977c-6.566 0-13.16-1.22-19.16-3.403-8.691-3.16-16.687-5.125-25.137-6.203-7.191-16.832-12.832-35.183-12.836-51.043 0-4.195.391-8.21 1.25-11.98 15 13.132 27.747 27.945 40.801 43.074-6.27-3.688-14.539-5.871-21.11-7.945l-.023.058c3.961 2.242 7.934 4.41 12.075 6.305 3.601 1.64 7.328 3.762 11.23 4.472a.95.95 0 0 0 .149.012.5.5 0 0 0 .168-.023c.183.222.37.437.562.66 6.566 8.219 13.82 17.094 20.598 25.285-2.813.496-5.684.73-8.567.73m-35.133-15.37c-.253 0-.453.37-.168.5 12.497 5.37 27.383 10.32 40.805 12.48.035.008.07.012.098.012.61 0 1.078-.875.398-1.176-12.472-5.52-27.672-9.516-41.086-11.813-.015-.004-.035-.004-.047-.004"/><path fill="#2c6b26" d="M243.012 58.172a90.554 90.554 0 0 0-2.614-.938c-5.382-1.836-10.933-3.039-16.539-3.464a56.77 56.77 0 0 0-7.137-.125l.684-2.407a.59.59 0 0 0 .188.032.675.675 0 0 0 .32-.09c.07-.04.145-.086.215-.125h.547c4.707 0 9.226.36 13.297 1.117 4.218.785 8.84 2.586 11.039 6"/><path fill="#1f5320" d="M180.402 65.2c.012-2.169.059-4.337.149-6.5 8.863-4.087 20.578-6.72 31.875-7.442.222.312.449.62.691.914l-.722 1.84a54.257 54.257 0 0 0-9.079 1.918c-1.445.449-2.921.914-4.406 1.468a97.631 97.631 0 0 0-13.687 6.059c-1.54.27-3.16.879-4.82 1.742"/><path fill="#17441d" d="M180.04 65.398a155.127 155.127 0 0 0-3.79-4.527 59.006 59.006 0 0 1 4.3-2.172c-.09 2.164-.136 4.332-.148 6.5-.12.067-.242.13-.363.2"/><path fill="#285c34" d="M213.117 52.172a16.009 16.009 0 0 1-.691-.914c.36-.024.722-.047 1.082-.067l-.39.98"/><path fill="#347139" d="M217.594 51.27a.59.59 0 0 1-.188-.032l.051-.18c.223-.003.45-.003.672-.003-.07.039-.145.086-.215.125a.675.675 0 0 1-.32.09"/><path fill="#508357" d="m212.395 54.012.722-1.84.39-.98a96.626 96.626 0 0 1 3.95-.133l-.05.18-.684 2.406a55.739 55.739 0 0 0-4.328.367"/><path fill="#4e9e4b" d="M179.441 65.723a135.972 135.972 0 0 0-3.906-4.45c.238-.132.477-.27.715-.402 1.41 1.625 2.676 3.14 3.79 4.527-.2.106-.4.215-.599.325"/><path fill="#2c6b26" d="M153.207 99.32c-.156-.175-.32-.355-.484-.535 1.152-3.765 1.316-7.86 1.859-11.754.617-4.437 1.45-8.84 2.004-13.277 4.922-3.32 9.726-6.84 14.75-9.969a86.336 86.336 0 0 1 4.2-2.512c1.444 1.579 2.75 3.07 3.905 4.45-6.347 3.625-13.015 10.554-16.91 15.285-.039.047-.074.094-.113.14-.41.489-.777.961-1.16 1.45l-.149.18a36.345 36.345 0 0 0-1.414 1.956c-.004.008-.004.02-.011.024-.07.105-.141.219-.215.328-.285.43-.567.852-.828 1.281-.243.39-.465.778-.692 1.164l-.164.29-.058.077-.024.043c-.262.45-.508.899-.734 1.368-.301.574-.57 1.12-.832 1.691a37.789 37.789 0 0 0-1.235 2.938c-.168.44-.328.882-.484 1.328a27.778 27.778 0 0 0-.691 2.16 45.245 45.245 0 0 0-.52 1.894m-2.89-3.234c-3.528-3.957-7.47-8.371-11.575-12.977a39.934 39.934 0 0 0 7.293-2.921c3.328-1.743 6.512-3.739 9.64-5.825-1.054 4.086-1.874 8.223-2.917 12.32-.797 3.106-1.883 6.227-2.442 9.403"/><path fill="#1f5320" d="M151.492 110.957c-5.34-5.672-11.082-10.703-17.183-14.934-14.805-10.382-31.618-16.285-49.52-16.285-.621 0-1.25.004-1.879.016a250.864 250.864 0 0 1-1.926-4.383c8.45 1.078 16.446 3.043 25.137 6.203 6 2.184 12.594 3.403 19.16 3.403 2.883 0 5.754-.235 8.567-.73a2299.788 2299.788 0 0 0 18.129 21.632 79.526 79.526 0 0 0-.29 2.648c-.058.676-.124 1.368-.164 2.04l-.02.265c-.003.043-.003.082-.01.125"/><path fill="#4d9846" d="M118.582 60.54c-1.516-1.692-3-3.352-4.445-4.97-3.867-9.582-5.446-20.406-3.809-30.472h.027c2.25 11.82 4.684 22.949 8.383 34.398.133.402.047.762-.156 1.043M138.55 82.902l-2.515-2.828c-1.465-10.933-.547-22.664-.504-33.531 0-.07.047-.098.094-.098.055 0 .105.028.113.098 1.27 11.777 3.7 24.46 2.813 36.36M112.688 58.3c-.833-.952-1.66-1.917-2.489-2.878.153.094.309.187.461.273.676.86 1.363 1.727 2.063 2.602-.012 0-.024.004-.035.004"/><path fill="#3b7b40" d="M112.52 58.324a.95.95 0 0 1-.149-.011c-3.902-.711-7.629-2.833-11.23-4.473-4.141-1.895-8.114-4.063-12.075-6.305l.024-.058c6.57 2.074 14.84 4.257 21.11 7.945.827.96 1.655 1.926 2.487 2.879a.5.5 0 0 1-.167.023M130.883 82.598a.472.472 0 0 1-.098-.012c-13.422-2.16-28.308-7.11-40.805-12.48-.285-.13-.085-.5.168-.5.012 0 .032 0 .047.003 13.414 2.297 28.614 6.293 41.086 11.813.68.3.211 1.176-.398 1.176"/><path fill="#4d9846" d="M155.676 74.363a82.765 82.765 0 0 1 1.27-4.468l.034.007a84.58 84.58 0 0 1-.394 3.852c-.305.203-.606.406-.91.61"/><path fill="#39773e" d="M152.723 98.785c-.774-.875-1.578-1.773-2.407-2.7.559-3.175 1.645-6.296 2.442-9.401 1.043-4.098 1.863-8.235 2.918-12.32.304-.204.605-.407.91-.61-.555 4.437-1.387 8.84-2.004 13.277-.543 3.895-.707 7.989-1.86 11.754"/><path fill="#78b06b" d="M93.145 32.238c-.653-1.031 72.418 80.93 72.418 80.93s-4.766 2.383-5.782 1.703c-1.023-.683-55.418-64.95-66.636-82.633"/><path fill="#3a5d9e" d="M298.27 126.988a55.647 55.647 0 0 1-2.118 16.043c-.289.977-.574 1.996-.859 3.016-.488 1.617-.977 3.266-1.512 4.937-.426 1.368-.894 2.73-1.363 4.102-1.453 4.184-3.059 8.348-4.902 12.14a72.25 72.25 0 0 1-1.973 3.77c-.188.309-.352.613-.555.922-1.59 2.676-3.586 5.285-5.894 7.812a66.31 66.31 0 0 1-7.828 7.333 75.29 75.29 0 0 1-3.922 2.933c-6.18 4.348-13.094 7.899-20.067 10.098-.84.285-1.695.531-2.55.777-3.59.977-7.184 1.59-10.649 1.777-1.492.059-2.96.059-4.445-.043a79.175 79.175 0 0 1-3.653-.347c-.617-.082-1.246-.164-1.875-.262-3.144-.45-6.41-1.11-9.628-1.879-.66-.168-1.29-.308-1.922-.469a141.879 141.879 0 0 1-7.993-2.226c-.859-.246-1.695-.492-2.53-.754a112.82 112.82 0 0 1-2.329-.715c-11.008-3.508-21.234-9.812-28.883-18.547a81.903 81.903 0 0 1-1.734-2.062c-.164-.2-.328-.383-.465-.57-.164-.204-.328-.383-.473-.59a25.016 25.016 0 0 1-1.16-1.493 63.438 63.438 0 0 1-1.41-1.957 45.18 45.18 0 0 1-1.117-1.613 84.371 84.371 0 0 1-2.754-4.422c-.41-.691-.824-1.41-1.184-2.125l-.12-.222a39.592 39.592 0 0 1-1.126-2.227 45.842 45.842 0 0 1-.937-1.918 30.159 30.159 0 0 1-.8-1.855c-.138-.329-.263-.633-.407-.957-.203-.512-.406-1.043-.613-1.555-.137-.32-.262-.672-.383-.996a51.962 51.962 0 0 1-.797-2.348c-.262-.816-.531-1.633-.778-2.465a99.969 99.969 0 0 1-.69-2.531c-.165-.676-.345-1.352-.49-2.043-.1-.41-.183-.836-.269-1.25-.14-.61-.261-1.2-.367-1.809-.016-.164-.059-.304-.082-.472-.059-.281-.098-.59-.14-.875a58.76 58.76 0 0 1-.325-2.121l-.043-.39c-.12-.876-.203-1.755-.285-2.63a53.43 53.43 0 0 1-.242-3.676c-.106-2.957-.227-5.87-.285-8.793-.067-2.527-.067-5.054.015-7.55.043-1.02.082-2.04.145-3.059l.02-.266c.038-.671.105-1.363.163-2.039.063-.71.145-1.43.227-2.14.188-1.532.43-3.063.734-4.575.141-.69.286-1.367.45-2.039.183-.796.406-1.57.629-2.347.203-.735.43-1.446.691-2.16.246-.72.512-1.43.797-2.145.285-.71.594-1.43.922-2.121.261-.57.531-1.117.832-1.691.226-.47.472-.918.734-1.368l.024-.043.058-.078.164-.289c.227-.386.45-.773.692-1.164.351-.547.695-1.078 1.043-1.61a41.526 41.526 0 0 1 2.226-2.98c.164-.203.324-.41.508-.613v-.016c.363-.449.73-.882 1.121-1.304.305-.328.613-.676.922-1.004.367-.383.734-.774 1.101-1.14 2.567-2.614 5.465-5.06 8.543-7.325a63.92 63.92 0 0 1 1.977-1.387c.25-.187.496-.351.758-.515a82.668 82.668 0 0 1 1.98-1.305c.586-.367 1.184-.75 1.793-1.102.203-.12.41-.261.63-.367.245-.16.495-.308.741-.43l.137-.097.125-.082c.977-.57 1.98-1.125 2.977-1.633a97.631 97.631 0 0 1 13.687-6.059c1.485-.554 2.961-1.02 4.406-1.468 6.832-2.063 13.727-2.7 20.543-2.16 5.606.425 11.157 1.628 16.54 3.464 18.996 6.446 36.167 20.707 47.648 36.114 3.797 5.12 5.226 11.058 7.265 16.89a51.951 51.951 0 0 1 2.958 16.75"/><path fill="#939598" d="M294.105 149.953c.286-.926.56-1.844.84-2.75a414.78 414.78 0 0 1-.84 2.75"/><path fill="#426cb1" d="M273.824 145.652c-7.62-6.363-13.168-15.289-13.574-24.75.023.004.04.016.063.024 1.394.496 2.773.984 4.214.984.72 0 1.45-.125 2.207-.426 2.91-1.164 6.118-6.082 5.97-9.257a6.056 6.056 0 0 0-.255-1.493c.215-.058.39-.234.367-.496-.152-1.41-3.152-10.976-4.101-15.828-.16-.824-.094-2.32-1.008-2.32-.035 0-.078 0-.113.004-.668.082-1.489 1.02-2.02 1.418-.82.61-1.793 1.433-1.906 2.527.305-3.012-.5-5.559-1.363-8.379-.453-1.492-.493-4.129-1.63-5.289-.57-.578-1.269-.82-2.034-.851-.04-.098-.086-.204-.121-.301-.07-.176-.211-.281-.372-.281a.4.4 0 0 0-.195.046c-.687.356-1.367.723-2.043 1.102-1.344.508-2.668 1.23-3.676 1.64-2.132.876-4.011 2.07-5.75 3.504a54.493 54.493 0 0 0-2.476-.683c-1.414-2.348-3.809-3.574-5.34-6.168-.828 1.531-1.887 2.867-3.106 4.043-6.289-1.86-12.406-4.762-15.011-10.988-2.774-6.567-.711-13.973 3.308-19.664 5.239.406 10.422 1.468 15.461 3.117.368.105.711.226 1.078.347 18.997 6.446 36.168 20.707 47.649 36.114 3.797 5.12 5.226 11.058 7.265 16.89-2.039-5.832-3.468-11.77-7.265-16.89-11.48-15.407-28.652-29.668-47.649-36.114-.367-.12-.71-.242-1.078-.347-1.41 1.613-2.656 3.347-3.449 5.324-1.32 3.246-1.16 7.363 1.328 9.836 2.024 2.004 4.738 2.398 7.649 2.398.957 0 1.933-.047 2.914-.086.976-.039 1.957-.086 2.922-.086.824 0 1.636.028 2.425.122 7.102.793 12.547 6.425 17.317 11.726 4.43 4.879 9.058 10.246 9.672 16.793.488 5.406-1.88 10.715-1.899 16.164-.02 4.817 1.91 9.531 5.043 13.219-2.86 2.96-5.125 6.766-7.437 10.379-.743.312-1.34 1.02-1.47 2.12a.834.834 0 0 0-.01.134c-.169.246-.333.484-.5.722m-3.22-14.527c-1.687 0-3.148 1.371-3.148 3.129 0 1.754 1.441 3.086 3.148 3.16h.118c1.922 0 3.566-2.144 2.93-3.996-.442-1.277-1.274-2.082-2.626-2.262a3.066 3.066 0 0 0-.422-.031m6.125 2.094c-2.644 0-2.652 4.113 0 4.113 2.645 0 2.649-4.113 0-4.113m-1.02-12.371c-.718 0-1.429.355-1.91 1.066-.105.152-.21.305-.308.457-1.625 2.375.297 3.563 2.219 3.563s3.844-1.188 2.219-3.563c-.106-.152-.203-.305-.309-.457-.484-.71-1.2-1.066-1.91-1.066m2.875-17.922c-.184 0-.387.031-.61.101l-.624.196c-1.422.457-1.422 2.441 0 2.89.203.07.414.133.625.203.222.07.418.102.605.102.965 0 1.45-.875 1.457-1.75 0-.875-.484-1.742-1.453-1.742m-10.473 2.086a84.287 84.287 0 0 0-.074-3.723c.164.578.336 1.16.524 1.738-.153.657-.297 1.32-.45 1.985"/><path fill="#939598" d="M295.5 145.309c.215-.77.434-1.54.652-2.278-.21.746-.433 1.508-.652 2.278m.652-2.278c.133-.48.266-.96.387-1.445-.121.484-.25.965-.387 1.445"/><path fill="#1a4820" d="M180.586 66.086c-.059-.082-.125-.156-.188-.234 0-.215.004-.438.004-.653 1.66-.863 3.282-1.472 4.82-1.742-.995.508-2 1.063-2.976 1.633l-.125.082-.137.098c-.246.12-.496.27-.742.43-.219.105-.426.245-.629.366l-.027.02"/><path fill="#133b1d" d="M180.398 65.852c-.117-.153-.238-.301-.359-.454.121-.07.242-.132.363-.199 0 .215-.004.438-.004.653"/><path fill="#418a4b" d="M180.027 66.418c-.187-.234-.386-.461-.586-.695.2-.11.399-.22.598-.325.121.153.242.301.36.454.062.078.128.152.187.234-.188.105-.375.215-.559.332"/><path fill="#255d26" d="M162.531 81.008c3.895-4.73 10.563-11.66 16.91-15.285.2.234.399.46.586.695-.41.246-.812.508-1.207.75-.675.434-1.328.86-1.98 1.305-.262.164-.508.328-.758.515a63.92 63.92 0 0 0-1.977 1.387c-3.078 2.266-5.976 4.71-8.542 7.324-.368.367-.735.758-1.102 1.14-.309.329-.617.677-.922 1.005-.348.383-.68.765-1.008 1.164"/><path fill="#30519e" d="M277.281 181.656c-11.894-.789-23.746-2.328-34.344-7.441-.996-1.395-2.007-2.735-3.058-3.934-9.004-10.289-19.676-19.52-32.695-24.238-6.125-2.219-14.594-2.965-22.16-4.844-6.712-5.242-11.684-11.75-16.06-21.836-5.53-12.73-7.609-28.199-3.401-41.664-.368.367-.735.758-1.102 1.14-.309.329-.617.677-.922 1.005.305-.328.613-.676.922-1.004.367-.383.734-.774 1.101-1.14 2.567-2.614 5.465-5.06 8.543-7.325a63.92 63.92 0 0 1 1.977-1.387c.25-.187.496-.351.758-.515a82.668 82.668 0 0 1 1.98-1.305c.395-.242.797-.504 1.207-.75.184-.117.371-.227.559-.332l.027-.02c.203-.12.41-.261.63-.367.245-.16.495-.308.741-.43l.137-.097.125-.082c.977-.57 1.98-1.125 2.977-1.633a9.397 9.397 0 0 1 1.695-.164c2.418 0 4.535 1.074 6.098 3.656 1.875 3.098 1.14 7.176-.676 10.317-.914 1.59-2.063 3.007-3.281 4.375-8.829 4.093-14.102 17.41-13.2 26.238-.011 3.719 1.254 7.027 3.368 9.898 4.476 8.035 12.687 15.664 21.03 20.79.22.245.49.41.915.554 4.152 2.457 8.305 4.281 12.016 5.207 3.457.863 7.632 2.238 11.32 2.238 4.187 0 7.734-1.777 8.863-8.109.422-2.32.102-4.137-.656-5.68 5.254 2.707 8.898 7.918 12.785 12.457 3.973 4.637 9.262 9.086 15.234 9.086.438 0 .868-.02 1.309-.066 5.227-.586 8.7-4.191 11.781-8.602.149.13.309.258.457.38.223 1.077 1.399 1.917 2.45 1.917h.085a44.124 44.124 0 0 0 5.157 3.117 51.864 51.864 0 0 0 10.445 4.02c-1.453 4.184-3.059 8.348-4.902 12.14a72.25 72.25 0 0 1-1.973 3.77c-.188.309-.352.613-.555.922-1.59 2.676-3.586 5.285-5.894 7.812-.586.653-1.2 1.29-1.813 1.926m16.5-30.672c.11-.343.219-.687.324-1.03-.105.343-.214.687-.324 1.03M294.945 147.203c.188-.637.371-1.266.555-1.894-.07.246-.137.496-.207.738-.117.387-.23.77-.348 1.156M296.54 141.586c.105-.43.206-.863.304-1.293.465-2.016.82-4.055 1.066-6.102a56.219 56.219 0 0 1-1.37 7.395"/><path fill="#375eb1" d="M292.418 155.086a51.864 51.864 0 0 1-10.445-4.02 44.124 44.124 0 0 1-5.157-3.117c1.196-.054 2.528-1.168 2.383-2.472-.023-.227-.05-.454-.074-.68-.176-1.54-1.29-2.309-2.395-2.309-.316 0-.636.063-.925.188 2.312-3.613 4.578-7.418 7.437-10.38.617.731 1.285 1.419 1.992 2.06 3.262 2.96 7.329 4.94 11.61 5.937-.098.43-.2.863-.305 1.293-.121.484-.254.965-.387 1.445-.218.739-.437 1.508-.652 2.278-.184.629-.367 1.257-.555 1.894-.28.906-.554 1.824-.84 2.75-.105.344-.214.688-.324 1.031-.426 1.368-.894 2.73-1.363 4.102m-18.137-9.055c-.148-.12-.308-.25-.457-.379.168-.238.332-.476.5-.722-.023.187-.043.367-.066.547-.024.191-.012.378.023.554"/><path fill="#24408a" d="M264.934 191.406c.425-.277.84-.558 1.246-.844-4.528-1.507-9.532-1.035-13.38-4.148-3.8-3.062-6.78-7.906-9.863-12.2 10.598 5.114 22.45 6.653 34.344 7.442-1.855 1.89-3.879 3.688-6.015 5.406a75.29 75.29 0 0 1-3.922 2.934c-.285.164-.586.344-.871.508-.516.305-1.028.601-1.54.902"/><path fill="#2b498a" d="M162.418 81.148c.039-.046.074-.093.113-.14-.039.047-.074.094-.113.14"/><path fill="#1b4921" d="M158.641 86.368c.261-.43.543-.852.828-1.282-.274.418-.547.844-.828 1.281m1.054-1.633c.45-.664.91-1.308 1.414-1.957l.149-.18c.383-.488.75-.96 1.16-1.449v.016c-.184.203-.344.41-.508.613a41.003 41.003 0 0 0-2.215 2.957"/><path fill="#24408a" d="M185.023 141.2c-5.132-1.274-9.851-3.071-13.152-6.2-7.945-7.54-12.77-23.664-15.066-34.02-.383-1.8-.75-3.652-1.63-5.265a8.351 8.351 0 0 0-.57-.942c-.066.165-.125.329-.187.493a27.778 27.778 0 0 0-.691 2.16c-.223.777-.446 1.55-.63 2.347a53.644 53.644 0 0 0-.449 2.04 60.242 60.242 0 0 0-.734 4.574c-.082.71-.164 1.43-.226 2.14-.06.676-.125 1.368-.165 2.04l-.02.265c-.003.043-.003.082-.01.125.007-.043.007-.082.01-.125l.02-.266c.04-.671.106-1.363.165-2.039.062-.71.144-1.43.226-2.14.188-1.532.43-3.063.734-4.575.141-.69.286-1.367.45-2.039.183-.796.406-1.57.629-2.347.203-.735.43-1.446.691-2.16.062-.164.121-.329.187-.493.094-.277.192-.558.297-.835A37.789 37.789 0 0 1 156.136 91c.262-.57.532-1.117.833-1.691.226-.47.472-.918.734-1.368l.024-.043.058-.078.164-.289c.227-.386.45-.773.692-1.164.28-.437.554-.863.828-1.281.05-.074.105-.152.152-.227l.063-.101c.007-.004.007-.016.011-.024a41.003 41.003 0 0 1 2.215-2.957c.164-.203.324-.41.508-.613v-.016c.039-.046.074-.093.113-.14.328-.399.66-.781 1.008-1.164.305-.328.613-.676.922-1.004.367-.383.734-.774 1.101-1.14-4.207 13.464-2.128 28.933 3.403 41.663 4.375 10.086 9.347 16.594 16.058 21.836"/><path fill="#264179" d="M250.832 198.777v-.004c4.945-2.039 9.527-4.683 14.102-7.367-4.352 2.887-9.2 5.41-14.102 7.371"/><path fill="#1f3879" d="M242.938 174.215a51.167 51.167 0 0 1-9.63-6.016 89.411 89.411 0 0 0-5.913-6.164c-1.34-1.582-2.754-3.086-4.618-4.195a21.869 21.869 0 0 0-.578-.332c-.094-.074-.187-.145-.277-.219-11.164-8.887-23.887-14.348-36.293-15.621-.203-.16-.406-.309-.606-.469 7.567 1.88 16.036 2.625 22.16 4.844 13.02 4.719 23.692 13.95 32.696 24.238 1.05 1.2 2.062 2.54 3.059 3.934"/><path fill="#182c6a" d="M250.832 198.773c-4.02-11.77-10.133-22.078-17.523-30.574a51.167 51.167 0 0 0 9.629 6.016c3.082 4.293 6.062 9.137 9.863 12.2 3.847 3.112 8.851 2.64 13.379 4.148-.407.285-.82.566-1.246.843-4.575 2.684-9.157 5.328-14.102 7.367m-23.437-36.738a85.12 85.12 0 0 0-5.196-4.527c.192.105.387.219.578.332 1.864 1.11 3.278 2.613 4.618 4.195m-63.301-19.488a55.363 55.363 0 0 0-.512-6.332c-1.246-9.04-4.754-17.363-11.285-24.403a20.822 20.822 0 0 0-.805-.855c.008-.043.008-.082.012-.125l.02-.266c.038-.671.105-1.363.163-2.039.063-.71.145-1.43.227-2.14.188-1.532.43-3.063.734-4.575.141-.69.286-1.367.45-2.039.183-.796.406-1.57.629-2.347.203-.735.43-1.446.691-2.16.062-.164.121-.329.187-.493.204.29.391.598.57.942.88 1.613 1.247 3.465 1.63 5.265 2.297 10.356 7.12 26.48 15.066 34.02 3.3 3.129 8.02 4.926 13.152 6.2.2.16.403.308.606.468a55.01 55.01 0 0 0-5.586-.293c-2.477 0-4.934.176-7.344.531-.398.059-3.687.188-8.605.64"/><path fill="#3a5d9e" d="M164.047 146.516c-.035 1.937-.203 3.879-.45 5.836l-.015.207-.246 1.914c-.106.695-.227 1.386-.348 2.082a42.917 42.917 0 0 1-.425 2.304c-.125.633-.27 1.29-.41 1.918-.774 3.508-1.75 6.957-2.852 10.368l-.106.285c-.449 1.367-.922 2.73-1.425 4.082l-.125.32a146.121 146.121 0 0 1-3.407 8.27 181.97 181.97 0 0 1-5.082 10.285c-2.281 4.258-4.77 8.422-7.379 12.484a90.02 90.02 0 0 1-1.964 2.953c-.692 1.043-1.403 2.063-2.102 3.082-9.906 14.184-20.656 25.364-28.367 30.383-2.063 1.367-3.914 2.266-5.489 2.672-1.835.465-3.757.898-5.73 1.223-8.668 1.55-18.625 1.754-29.5-.832-13.398-3.165-28.23-10.551-43.816-24.872-.508-.472-1.04-.964-1.551-1.453-10.95-10.609-17.645-23.113-20.66-36.234a74.937 74.937 0 0 1-1.754-11.832c-.082-1.086-.121-2.164-.164-3.266a86.557 86.557 0 0 1 2.18-21.75c7.019-30.687 30.253-56.984 61.687-64.718 25.433-6.243 49.484-.426 69.762 13.796 6.41 4.446 12.425 9.77 17.988 15.79 6.531 7.039 10.039 15.363 11.285 24.402.465 3.344.629 6.793.465 10.3"/><path fill="#30519e" d="M56.48 242.406c-10.02-4.148-20.656-10.808-31.671-20.926 11.02 10.106 21.652 16.766 31.671 20.926m-33.222-22.379a76.494 76.494 0 0 1-10.38-12.402c2.907 4.344 6.349 8.492 10.38 12.402m44.312-19.46a75.01 75.01 0 0 1-7.882-.43c4.277-1.992 7.136-5.973 7.039-13.301-.157-12.883 3.425-23.68 12.394-30.563 2.504 2.407 5.477 4.067 8.453 4.168h.274c.273 0 .554-.011.832-.035 7.242-.648 16.574-9.375 22.68-12.64 12.035-6.442 35.585-9.04 32.917-28.055-.8-5.645-4.183-10.695-8.492-14.43a47.81 47.81 0 0 0-.984-.824 182.677 182.677 0 0 0-.492-8.434c6.41 4.446 12.425 9.77 17.988 15.79 6.531 7.039 10.039 15.363 11.285 24.402.29 2.074.461 4.187.512 6.332-2.88.27-6.317.64-10.055 1.176a45.482 45.482 0 0 0-7.059-.547c-1.003 0-2.003.031-3 .097-12.98.875-25.195 6.774-35.535 14.61C93.957 168.887 83.543 183.535 77 199.879a62.807 62.807 0 0 1-9.43.687"/><path fill="#d5deff" d="M10.258 203.387c-.008-.004-.008-.004-.012-.004-6.2-10.856-9.238-22.715-9.566-34.688.043 1.102.082 2.18.164 3.266a74.937 74.937 0 0 0 1.754 11.832 71.596 71.596 0 0 0 7.66 19.594"/><path fill="#30519e" d="M50.07 201.883c-3.93 0-8.078-.574-11.86-1.215-13.706-2.305-25.273-8.45-35.612-16.875a74.937 74.937 0 0 1-1.754-11.832 51.123 51.123 0 0 0 6.11 4.59c9.507 9.449 23.76 16.277 34.194 19.59 5.993 1.898 12.243 3.32 18.54 3.996-2.754 1.285-6.098 1.746-9.618 1.746"/><path fill="#28479e" d="M70.852 220.984c-13.489-.672-26.82-2.797-39.536-7.277-7.359-2.594-14.496-6.062-21.058-10.32a71.596 71.596 0 0 1-7.66-19.594c10.34 8.426 21.906 14.57 35.613 16.875 3.781.64 7.93 1.215 11.86 1.215 3.519 0 6.863-.461 9.617-1.746a75.01 75.01 0 0 0 7.882.43c3.164 0 6.317-.215 9.43-.688-2.715 6.789-4.758 13.875-6.148 21.105"/><path fill="#9db5e3" d="M75.992 247.715c-6.172-.809-12.695-2.48-19.512-5.309a79.512 79.512 0 0 0 12.145 3.946 75.183 75.183 0 0 0 7.367 1.363m-63.113-40.09a72.407 72.407 0 0 1-2.633-4.242c.004 0 .004 0 .012.004a70.077 70.077 0 0 0 2.62 4.238"/><path fill="#1d3a8d" d="M68.625 246.352a79.512 79.512 0 0 1-12.145-3.946c-10.02-4.16-20.652-10.82-31.671-20.926-.508-.472-1.04-.964-1.551-1.453-4.031-3.91-7.473-8.058-10.38-12.402a70.077 70.077 0 0 1-2.62-4.238c6.562 4.258 13.699 7.726 21.058 10.32 12.715 4.48 26.047 6.606 39.536 7.277-1.602 8.325-2.336 16.848-2.227 25.368"/><path fill="#1d3572" d="M85.336 248.332c-3.012 0-6.125-.195-9.344-.617 3.211.422 6.328.613 9.34.613.793 0 1.574-.02 2.352-.043v.008c-.774.023-1.555.039-2.348.039M77 199.879c6.543-16.344 16.957-30.992 31.445-41.996 10.34-7.836 22.555-13.735 35.535-14.61a45.088 45.088 0 0 1 3-.097c2.36 0 4.723.18 7.06.547-10.556 1.504-23.513 4.277-33.11 9.422-3.262 1.738-6.14 3.757-8.407 6.101a89.938 89.938 0 0 0-2.824 3.074 92.313 92.313 0 0 0-2.336 2.762c-4.597 5.672-8.847 12.273-12.39 19.445a105.572 105.572 0 0 0-4.942 11.723c-.136.059-.273.117-.418.176-4.093 1.687-8.32 2.808-12.613 3.453"/><path fill="#182e72" d="M80.996 221.234c-3.39 0-6.773-.082-10.144-.25 1.39-7.23 3.433-14.316 6.148-21.105 4.293-.645 8.52-1.766 12.613-3.453.145-.059.282-.117.418-.176-1.996 5.703-3.492 11.637-4.332 17.637-.34 2.43-.57 4.87-.687 7.304-1.336.024-2.676.043-4.016.043"/><path fill="#122666" d="M85.332 248.328c-3.012 0-6.129-.191-9.34-.613a75.183 75.183 0 0 1-7.367-1.363c-.11-8.52.625-17.043 2.227-25.368 3.37.168 6.753.25 10.144.25 1.34 0 2.68-.02 4.016-.043a77.726 77.726 0 0 0-.082 3.567c0 .945.015 1.894.058 2.84.27 6.863 1.106 13.836 2.696 20.687a77.74 77.74 0 0 1-2.352.043"/><path fill="#3a5d9e" d="M255.047 231.453c-2.59 32.215-23.824 60.106-41.55 68.578-22.438 10.711-63.24 14.79-90.774-2.039-27.535-16.832-36.715-44.379-37.735-70.394-.902-23.036 9.383-46.48 22.375-62.516a93.127 93.127 0 0 1 5.16-5.836c2.266-2.344 5.145-4.363 8.407-6.101 18.804-10.075 50.488-11.06 51.77-11.239 16.175-2.39 34.128 3.367 49.222 15.383 13.95 11.082 25.453 27.547 30.836 47.871 2.347 8.871 2.984 17.746 2.289 26.293"/><path fill="#426cb1" d="M127.395 173.828a4.61 4.61 0 0 1-.57-.035c-8.243-.996-8.407-10.527-5.895-20.648 18.804-10.075 50.488-11.06 51.77-11.239a50.357 50.357 0 0 1 7.343-.531c14.125 0 29.031 5.688 41.879 15.914-.39.39-.817.758-1.25 1.102-4.305 3.441-9.82 4.718-15.418 4.718-2.563 0-5.145-.27-7.629-.718-7.918-1.426-15.504-4.47-23.477-5.594a48.277 48.277 0 0 0-6.707-.477c-8.355 0-16.668 2.203-23.91 6.414-4.058 2.368-10.793 11.094-16.136 11.094m2.464-9.8c-3.687 0-3.691 5.742 0 5.742 3.692 0 3.7-5.743 0-5.743m11.227-8.511c-2.84 0-2.84 4.398 0 4.398 2.824 0 2.828-4.398 0-4.398m-5.106-3.235c-3.058 0-3.062 4.75 0 4.75 3.06 0 3.067-4.75 0-4.75m12.239.813c-2.008 0-2.016 3.129 0 3.129 2.011 0 2.015-3.13 0-3.13"/><path fill="#182e72" d="M90.031 196.25a105.572 105.572 0 0 1 4.942-11.723 104.048 104.048 0 0 0-4.93 11.723h-.012m19.668-33.93"/><path fill="#142872" d="M85.012 221.191c.117-2.433.347-4.875.687-7.304.84-6 2.336-11.934 4.332-17.637h.012c-2.004 5.71-3.492 11.64-4.34 17.652 0-.004-.004-.011-.004-.015-.34 2.43-.57 4.87-.687 7.304"/><path fill="#30519e" d="M107.52 180.121c-.547-2.043-.665-4.434-.075-7.508.465-2.425.653-5.258-.082-7.523a91.795 91.795 0 0 1 5.16-5.844c1.29-1.324 2.797-2.547 4.446-3.687-3.649 5.832-6.364 12.421-8.137 18.992a85.956 85.956 0 0 0-1.312 5.57"/><path fill="#213873" d="M164.07 237.676c-3.37 0-10.172-8.727-10.422-11.578-.425-4.875 4.907-6.973 3.426-11.856-4.34 3.875-8.078 5.254-11.832 5.254-3.492 0-6.988-1.191-10.984-2.68-.91-1.91-1.887-3.636-2.95-5.156.743-1.183 1.434-2.453 2.145-3.71.305.109.602.226.887.343l-.055.098.102.379c3.633 2.12 7.203 4.183 11.242 5.332 1.777.77 3.57 1.265 5.531 1.265 2.453 0 5.168-.781 8.442-2.804.39-.227.8-.493 1.199-.774-.344.281-.645.57-.953.852-1.883 1.847-2.727 3.816-2.727 5.824-.008 4.488 4.195 9.183 10.48 13.215.29-.075.575-.153.86-.227.043.024.09.043.14.043a.312.312 0 0 0 .102-.02c.996-.312 2.004-.605 3.012-.91 5.637-1.601 9.191-2.968 11.328-4.601-3.176 6.86-8.504 9.234-18.578 11.664a1.583 1.583 0 0 1-.395.047m32.48-16.668c-5.87 0-11.405-.98-10.718-4.813-.05.285-.105.57-.156.844-.028-.2-.059-.398-.086-.601a45.326 45.326 0 0 0-.305-1.938c.996.57 1.934 1.043 2.871 1.39.246.098.492.18.735.262 1.632.547 3.175.778 4.68.778 1.449 0 2.863-.211 4.296-.532 3.742-.828 7.602-2.402 12.434-3.058-.266 2.98-.84 6.613-1.192 6.652-1.285.164-7.07 1.016-12.558 1.016m-52.43-7.617c-2.496-.797-4.992-1.77-7.02-3.32-.355-.274-.874-.665-1.265-1.114 1.281.594 2.48 1.234 3.613 1.852 1.64.918 3.168 1.82 4.672 2.582m-10.574-5.606c.922-1.625 1.875-3.222 3.016-4.566-.137.258-.278.511-.418.77l-.004.003c-.79 1.418-1.621 2.735-2.594 3.793m71.656-11.472a17.372 17.372 0 0 0-1.293-.481c-.433-.125-.883-.266-1.347-.367.367-.266.71-.531 1.019-.84a9.296 9.296 0 0 0 1.93-2.523c.058 1.414-.024 2.843-.309 4.21m-61.601-3.062c-1.325-1.965-1.692-4.797 1.03-8.688a63.074 63.074 0 0 0 2.005-3.09c-.02.204-.032.41-.032.602.008 3.34 2.438 5.367 4.208 6.39 1.035.614 1.835.876 1.835.876s3.692 2.469-3.593 2.7c-.344.015-.735.015-1.16.015h-.168c-.008 0-.02.004-.032.004h-.164c-.011 0-.015 0-.027.007h-.098c-.011 0-.02.004-.023.004H147.305c-.004 0-.012 0-.024.008h-.034c-.013 0-.017 0-.028.004h-.067c-.011.008-.015.008-.027.008h-.035c-.016.004-.04.004-.059.004h-.004c-.007 0-.02.008-.023.008h-.008c-.016 0-.039 0-.059.003h-.035c-.015.008-.039.008-.058.012h-.035c-.016.008-.032.008-.055.008-.012.004-.02.004-.031.004-.024.008-.04.008-.063.008v.004c-.031 0-.058.007-.09.011-.027.008-.058.008-.086.012h-.007a7.73 7.73 0 0 0-2.875 1.086m7.558-21.285c.957-2.711 1.262-4.387 1.262-4.387s.273.04.762.121a57.364 57.364 0 0 1-2.024 4.266"/><path fill="#27467d" d="M210.434 213.316c-4.895.653-8.79 2.243-12.567 3.082-2.91.653-5.773.832-8.976-.246-.243-.082-.489-.164-.735-.261-.937-.348-1.875-.82-2.87-1.391.12.676.222 1.328.304 1.938 1.262 8.546-.793 10.75-17.988 15.242-9.102-5.836-13.829-13.078-7.754-19.04.308-.28.609-.57.953-.85a16.27 16.27 0 0 1-1.2.773c-8.812 5.449-13.581 1.917-20.152-1.754-1.469-.797-3.043-1.637-4.773-2.371-.406-.18-.84-.344-1.262-.504 4.711-4.942 6.098-15.88 14.48-15.88.426 0 .817 0 1.16-.015 7.286-.23 3.594-2.7 3.594-2.7s-.8-.26-1.835-.874c-2.618-1.508-6.653-5.203-2.25-12.035 3.593-5.59 5.53-10.692 6.53-13.98.368-1.2.614-2.18.759-2.813.12-.59.18-.899.18-.899s19.562 2.797 22.195 14.957c.285 1.266.367 2.61.242 4.078.449-1.71 1.004-3.12 1.613-4.304 2.668-5 6.852-5.793 12.012-6.035 1.191-.067 2.43-.082 3.71-.125 1.86-.063 3.801-.145 5.798-.407 1.183-.144 4.812 12.446 5.058 14.094.715 4.656.55 10.285-3.078 13.629a8.271 8.271 0 0 1-1.02.84c.465.101.915.242 1.348.367 3.547 1.14 5.895 3.242 7.664 6.61.512.98-.586 10.792-1.14 10.874"/><path fill="#2d4a92" d="M178.469 177.773c.058-.738.07-1.449.031-2.132.203.011.414.023.617.043-.234.64-.449 1.34-.648 2.09"/><path fill="#1e3873" d="M179.031 215.262c-2.945 0-5.988-.672-8.972-1.93-.141-.059-.286-.121-.426-.184h.031c.332 0 .414-.52.063-.668-2.297-.93-4.637-2.324-6.176-4.296l-.074.058c.418.61.855 1.18 1.32 1.707-7.867-7.152-9.82-20.597-2.14-28.441 4.007-4.09 9.253-5.895 14.609-5.895.414 0 .82.012 1.234.028.04.683.027 1.394-.031 2.132.199-.75.414-1.449.648-2.09 4.73.36 9.43 2.079 13.328 4.825 1.493 1.054 2.785 2.265 3.785 3.62 4.73 6.376.973 18.298-3.312 24.079-3.606 4.863-8.574 7.055-13.887 7.055m-12.945-7.739c2.41 1.41 5.262 2.18 8.23 2.18 2.098 0 4.254-.379 6.356-1.183 5.11-1.958 8.797-5.95 10.258-10.5v-.004c0-.008 0-.012.007-.012 0-.012.004-.02.004-.024l.036-.109v-.02c.914-2.96.914-6.124-.227-9.117-2.207-5.797-7.988-9.289-14.324-9.289-2.09 0-4.254.38-6.36 1.184a18.193 18.193 0 0 0-3.207 1.598c.207-.38.414-.754.649-1.133l-.106-.074c-.582.64-1.16 1.312-1.718 2.015-4.516 3.375-7.012 8.637-6.508 13.844a15.8 15.8 0 0 0 .457 3.52c.144 1.175.426 2.347.86 3.5.195.496.597.73.991.73h.004c.27.394.567.773.883 1.148l.149-.117c-.18-.39-.356-.781-.524-1.164.094-.059.18-.129.258-.21a14.338 14.338 0 0 0 3.832 3.237"/><path fill="#244582" d="M54.586 105.957c-.39 1.965-.773 3.934-1.16 5.902-3.778-3.07-9.824-2.843-13.356.508-3.535 3.344-4.093 9.367-1.234 13.305-3.914-1.777-8.836-3.45-12.188-.758-2.523 2.035-2.925 5.746-2.441 8.953.082.524.18 1.055.293 1.578 1.652 1.961 3.3 3.922 4.777 5.996l.325-.183c.367-4.332 1.105-7.637 5.453-8.645 3.71-.855 7.687.012 10.992 1.817 1.687.925 6.496 4.336 6.121 6.574a214.601 214.601 0 0 1 3.637-17.457c.64-2.535 1.511-5.309 3.761-6.637 1.61-.95 3.567-.95 5.504-.95 2.203.005 4.371.005 5.973-1.37-4.004-4.957-10.102-8.16-16.457-8.633"/><path fill="#33549e" d="M26.363 154.852c-2.383 0-5.914-2.977-6.863-4.22-2.648-3.464-2.508-8.51-2.016-12.648.172-1.425 2.852-15.836 3.45-15.882.558-.036 1.117-.082 1.68-.118-.235-1.293 1.132-2.347 2.429-2.55.395-.067.789-.082 1.187-.082.22 0 .438.003.653.011.215.004.43.004.644.004.485 0 .961-.023 1.434-.12 2.738-.59 4.242-3.438 5.762-5.79.914-1.406 2.254-2.816 3.734-3.48-1.656 3.101-2.809 8.07-1.27 12.066-1.453-.414-6.113-1.402-9.316-1.402-1.555 0-2.766.23-3.11.87-3.21 5.903-4.39 17.325 1.919 21.9-.266 1.378-.907 7.737.457 7.737.258 0 .531-.16.617-.433.258-.82.46-1.567.64-2.262.008 1.168.012 2.34.024 3.508.008.781-.016 1.633-.516 2.226-.398.47-.925.665-1.539.665"/><path fill="#1e407d" d="M57.184 116.781c-3.262 6.207-4.793 13.582-4.047 20.36-6.137-7.012-14.016-3.93-17.414-8.211-.168-.215-.371-.313-.61-.313-2.023 0-6.238 7.29-7.668 11.774-2.73-6.606-2.957-15.922 2.059-15.922 3.976 0 10.867 5.3 10.867-1.617 0-4.641-2.789-12.2 3.316-12.2 1.801 0 7.852 1.34 11.122 2.926-.32-.152.355-5.629.972-6.105 2.778-2.157 12.403 5.812 14.68 5.812 2.953 0-4.457-9.7-17.023-9.7-2.243 0-2.305 1.364-1.946 5.145-4.02-1.636-6.144-.914-9.691-1.648a1.897 1.897 0 0 0-.426-.047c-2.348 0-6.613 8.715-4.188 15.008-2.152-.617-11.367-2.488-12.425-.531-3.211 5.902-4.39 17.324 1.918 21.898-.266 1.38-.907 7.738.457 7.738.258 0 .531-.16.617-.433 2.203-7.067.734-8.563 7.375-19.2 1.812 1.56 3.95 1.813 6.578 2.31 6.711 1.257 8.965 6.698 14.145 10.355.808-12.028-1.79-7.692 2.457-22.04 2.34-7.917 14.464-4.937 20.464-4.222-8.261-6.27-17.515-5.203-21.59-1.137"/><path fill="#244582" d="M234.55 88.004c.919-1.55 2.114-3.215 3.895-3.477 1.61-.246 3.188.809 4.063 2.18.87 1.375 1.187 3.016 1.484 4.613a36.061 36.061 0 0 1 9.953-6.718c1.145-.52 2.961-1.153 4.004-.082.84.863 1.61 2.347 2.215 3.414 1.352 2.355 2.598 5.578 2.352 8.343-.051.532-.676 1.836-.094 1.965.328.07 1.562-1.043 1.86-1.242a306.34 306.34 0 0 1 2.19-1.48 58.735 58.735 0 0 0-.433 18.27c-1.09-4.74-6.793-7.349-11.527-6.267-4.735 1.086-8.399 4.954-10.7 9.223.536-4.164 1.036-8.57-.648-12.414-.906-2.074-2.715-3.945-4.828-4.797-2.004-.808-3.262-.2-4.504.41-.894.442-1.793.883-2.953.778-4.176-.36 2.324-10.453 3.672-12.72"/><path fill="#1e407d" d="M257.863 104.18c-.586-.18-1.133-.258-1.633-.192-3.668.48-8.585 6.407-10.246 9.446.07-5.188-1.66-10.711-3.722-14.93-.239-.496-.887-.852-1.434-.82-3.71.164-7.504.867-10.96 2.265 2.425-5.722 4.78-10.894 9.218-15.336 2.746 2.657 4.09 6.282 4.223 10.082 1.488-2.46 3.527-4.457 5.867-6.09.785-.546 7.828-4.718 8.488-3.707 2.844 4.352 3.68 8.985 4.219 14.211-.551 1.016-1.078 2.047-1.524 3.125-.32.762.84 1.356 1.36.793 1.21-1.336 2.27-2.793 3.277-4.285-.137 3.719-.266 7.582.234 11.188-1.324-1.758-4.656-4.907-7.367-5.75m10.852-9.77c-.164-.86-.09-2.437-1.121-2.316-.668.082-1.489 1.02-2.02 1.418-.82.61-1.793 1.433-1.906 2.527.305-3.012-.5-5.559-1.363-8.379-.453-1.492-.493-4.129-1.63-5.289-2.155-2.183-6.12.406-8.44 1.356-2.798 1.148-5.169 2.851-7.352 4.914-.988-3.895-4.293-4.993-6.215-8.262-2.063 3.797-5.527 6.379-9.27 8.426-3.011 1.648-6.226 2.496-9.406 3.722-.57.22-.476 1.012.145 1.067 3.34.273 7.37-.719 10.87-2.559-1.612 2.996-2.714 6.215-2.878 9.567l.047.12c-3.133 1.551-5.922 3.731-7.946 6.801-.222.34.227.805.567.567 4.836-3.344 10.945-7.606 17.21-7.133 3.661.273 5.177 4.848 5.74 8.14.683 3.923-.372 7.34-.919 11.18-.125.82 1.008 1.504 1.465.618.078-.145.137-.297.207-.442a.658.658 0 0 0 .355-.281c2.805-4.64 5.438-11.664 11.895-11.879 5.637-.188 7.344 5.785 10.102 9.45.37.503 1.46.445 1.363-.368a15.83 15.83 0 0 0-1.113-4.164l.125-.188c.964-3.648.964-7.726.812-11.734.926 3.293 2.254 6.55 3.781 9.219.243.43 1.047.273.996-.27-.152-1.41-3.152-10.976-4.101-15.828"/><path fill="#613360" d="M190.977 197.852v.02c-1.426 4.612-5.145 8.667-10.305 10.648-5.098 1.94-10.484 1.41-14.586-.997-2.73-1.597-4.91-4.02-6.074-7.101-2.938-7.707 1.57-16.57 10.054-19.793 8.485-3.246 17.746.39 20.684 8.105 1.14 2.993 1.14 6.157.227 9.118"/><path fill="#2f518f" d="M190.977 197.852v.02c-1.426 4.612-5.145 8.667-10.305 10.648-5.098 1.94-10.484 1.41-14.586-.997a11.867 11.867 0 0 1-3.035-4.468c-2.528-6.653 1.508-14.364 9.012-17.239 7.507-2.855 15.648.243 18.199 6.899.633 1.672.855 3.426.715 5.137"/><path fill="#182f73" d="M190.93 198.02v-.004.004m.007-.016c0-.012 0-.02.004-.024 0 .004-.004.012-.004.024m.004-.024.036-.109v-.02.02l-.036.11"/><path fill="#26448f" d="M187.645 203.668c-3.868-7.273-10.31-13.188-17.766-13.2.3-.265.621-.523.965-.769 2.414-1.73 5.027-2.406 7.691-2.406 2.578 0 5.207.629 7.758 1.547.094.027.187.047.27.047.335 0 .62-.23.769-.528a11.629 11.629 0 0 1 2.91 4.309c.008.016.012.027.02.047a11.662 11.662 0 0 1 .715 5.137v.02l-.036.108c-.004.004-.004.012-.004.024-.007 0-.007.004-.007.012v.004c-.657 2.046-1.793 3.964-3.285 5.648"/><path fill="#426cb1" d="M79.121 156.273a23.457 23.457 0 0 1-2.644-3.035c.433-.52.21-1.539-.668-1.539a.968.968 0 0 0-.332.059c-1.942-3.11-3.125-6.547-3.032-9.387.297-9.07 9.18-20.035 6.578-29.137-1.742-6.082-6.152-11.863-2.574-18.238 3.735-6.652 10.008-9.148 16.719-9.148 6.953 0 14.379 2.675 19.937 6.183 7.02 4.418 15.2 7.219 21.696 12.426.394 12.168-.754 24.906-7.387 30.875-5.594 5.043-12.695 7.914-20.047 10.211.813-.781.492-2.535-.96-2.535-1.805 0-1.868 2.703-.188 2.89-6.16 1.875-12.457 3.403-18.156 5.516-3.438 1.277-6.407 2.906-8.942 4.86m12.352-34.504c-.032 1.449-.457 3.007-1.47 4.714-5.226 8.75-4.026 16.88 5.278 16.88 1.14 0 2.399-.126 3.793-.387 4.844-.895 9.93-3.227 13.555-6.618 2.965-2.785 4.781-6.652 5.625-10.8a28.64 28.64 0 0 0 .574-5.45c.715-.59 1.129-1.527.86-2.539-.004-.023-.004-.054-.012-.078l.008.07c-.118-.628-.547-1.289-1.098-1.636-.25-1.934-.68-3.801-1.281-5.5-2.692-7.653-12.547-16.875-20.754-16.875-4.258 0-8.067 2.484-10.2 8.96-1.953 5.915 1.766 9.966 3.844 14.282-.035.043-.074.078-.11.117-1.507 1.66-.722 4.387 1.388 4.86m-10.825 3.222c-.816 0-1.632.403-2.062 1.172l-.168.3c-.922 1.638.406 3.446 2.02 3.446.363 0 .746-.094 1.12-.305l.301-.167c1.348-.758 1.555-2.688.485-3.758a2.387 2.387 0 0 0-1.696-.688m40.024-1.265c-.7 0-1.375.484-1.375 1.347 0 .86.676 1.352 1.375 1.352.308 0 .625-.102.887-.305l.144-.012c1.328-.097 1.336-1.972 0-2.074l-.152-.012a1.406 1.406 0 0 0-.88-.296"/><path fill="#375eb1" d="M87.848 160.441h-.274c-2.976-.101-5.949-1.761-8.453-4.168 2.535-1.953 5.504-3.582 8.942-4.859 5.699-2.113 11.996-3.64 18.156-5.516.058.004.125.012.187.012.41 0 .735-.148.961-.367 7.352-2.297 14.453-5.168 20.047-10.211 6.633-5.969 7.781-18.707 7.387-30.875.332.27.656.543.984.824 4.309 3.735 7.692 8.785 8.492 14.43 2.668 19.016-20.882 21.613-32.918 28.055-6.105 3.265-15.437 11.992-22.68 12.64a9.946 9.946 0 0 1-.831.035"/><path fill="#426cb1" d="M216.21 233.965a26.273 26.273 0 0 1-1.187-3.535c-3.378-13.84 4.672-27.953-.27-41.614-2.312-6.41-8.554-11.957-4.108-18.77.878-1.343 1.77-2.405 2.671-3.222-.058.45-.027.922.075 1.395.265 1.148.804 2.226 1.457 3.261.078.227.129.446.226.676a10.237 10.237 0 0 0 3.422 4.285c-.648 2.258-.793 5.157-.25 8.547 1.688 10.602 1.344 19.594-.484 30.051-.91 5.188.402 9.645 2.718 12.5a24.93 24.93 0 0 0-4.27 6.426m32.653-11.594c-1.324-.902-3.16-1.61-5.972-2.156a23.803 23.803 0 0 0-4.555-.438c-.566 0-1.129.016-1.695.059 3.472-12.09 3.27-31.066-2.344-40.875-3.207-5.602-6.824-8.078-9.844-8.078-.11 0-.219 0-.332.012l-1.969-3.032c-.808-1.234-1.605-2.308-2.695-3.234 5.05.508 10.172 5.773 14.86 9.613 12.937 10.61 11.546 23.43 13.96 38.176.575 3.52.813 6.906.586 9.953m-6.34-15.402c-.062 0-.734.469-.734.472a1.857 1.857 0 0 0-.535 1.282c0 .91.691 1.668 1.578 1.789.09.011.168.02.25.02 1.945 0 2.547-3.196.504-3.555a.918.918 0 0 0-1.145.097c.079-.074.102-.105.082-.105"/><path fill="#23428d" d="M168.207 309.355c-15.879 0-32.219-3.257-45.484-11.363 13.265 8.098 29.597 11.356 45.484 11.356 16.188 0 31.91-3.383 43.414-8.461.629-.285 1.258-.57 1.875-.856-11.633 5.555-28.2 9.324-45.289 9.324M122.723 297.992c-27.535-16.832-36.715-44.379-37.735-70.394.344 8.734 1.606 17.652 4.176 26.28 5.078 17.04 15.281 32.935 33.559 44.114"/><path fill="#0f2165" d="M85.012 221.191c.117-2.433.347-4.875.687-7.304 0 .004.004.011.004.015a81.535 81.535 0 0 0-.687 7.29h-.004"/><path fill="#0b1b5b" d="M84.988 227.598a62.61 62.61 0 0 1-.058-2.84c0-1.188.027-2.375.082-3.567h.004a72.549 72.549 0 0 0-.028 6.407"/><path fill="#2e4e9e" d="M213.496 300.031c4.875-2.347 10.04-6.14 14.973-11.12 11.031-11.036 21.07-27.852 25.047-46.907-3.953 5.73-8.504 11.035-13.79 15.652-14.054 12.281-31.843 17.926-49.828 17.926a88.993 88.993 0 0 1-20.656-2.457c.457-1.504.485-3.238-.023-5.238-1.973-7.809-10.617-11.723-17.125-16.645 4.812-2.449 9.636-4.793 14.996-4.793.89 0 1.793.067 2.71.207.618.094 1.216.227 1.786.395a1.907 1.907 0 0 0-.113.648v.406c.007 1.438 1.125 2.168 2.246 2.168.824 0 1.648-.398 2.031-1.175 7.54 5.28 11.02 16.789 20.82 16.789 1 0 2.067-.121 3.215-.38 13.836-3.12 12.57-15.769 14.73-26.323.364-1.797.938-3.551 1.696-5.22 2.726 6.614 8.848 15.567 15.637 15.567.597 0 1.21-.066 1.82-.219 8.11-1.988 14.227-18.617 15.078-25.695.047-.406.086-.828.117-1.246 2.848 1.934 3.36 4.793 6.184 9.082a86.358 86.358 0 0 1-1.082 8.285 88.186 88.186 0 0 1-.715 3.559c-6.043 27.043-24.242 49.324-39.754 56.734m6.117-36.39c-.27 0-.543.07-.773.207l-.297.175c-1.79 1.075-1.043 3.95 1.07 3.95 2.114 0 2.871-2.871 1.07-3.95l-.296-.175a1.52 1.52 0 0 0-.774-.207m8.215-7.414a1.91 1.91 0 0 0-.707.136l-.914.367c-1.937.778-1.945 3.188 0 3.965l.914.368c.238.093.473.14.707.14 1.258 0 2.383-1.265 2.383-2.488 0-1.227-1.133-2.488-2.383-2.488"/><path fill="#26449e" d="M190.762 293.504c-14.586 0-29.075-2.184-42.89-7.043-3.77-1.32-7.735-2.95-11.727-4.848 2.695.282 5.835.465 9.085.465 10.352.008 21.88-1.914 24.012-8.953a88.993 88.993 0 0 0 20.656 2.457c17.985 0 35.774-5.644 49.829-17.926 5.285-4.617 9.835-9.922 13.789-15.652-3.977 19.055-14.016 35.871-25.047 46.906-12.403 2.957-25.098 4.594-37.707 4.594"/><path fill="#2e4e9e" d="M106.629 207.531c-1.258-9.043-.934-18.32.89-27.41 1.485 5.566 6.153 8.547 8.454 15.711.855 2.672 1.433 5.406 1.824 8.172-2.664.082-5.598.836-8.844 2.336-.808.375-1.586.77-2.324 1.191m-11.656-23.004c3.543-7.172 7.793-13.773 12.39-19.445v.008c-4.59 5.676-8.847 12.265-12.39 19.437"/><path fill="#26449e" d="M93.79 235.012c-2.798-6.496-5.813-13.946-8.087-21.11 1.442-10.254 4.777-20.28 9.27-29.375 3.543-7.172 7.8-13.761 12.39-19.437.735 2.265.547 5.097.082 7.523-.59 3.075-.472 5.465.075 7.508-1.825 9.09-2.149 18.367-.891 27.41-10.781 6.07-14.149 16.422-12.84 27.48"/><path fill="#355bb1" d="M231.848 249.531c-6.79 0-12.91-8.953-15.637-15.566a24.93 24.93 0 0 1 4.27-6.426c1.738 2.137 4.03 3.379 6.39 3.379 2.344 0 4.742-1.23 6.707-4.05.23.448.68.78 1.34.78 2.016 0 2.031-3.12.027-3.156.211-.433.407-.894.594-1.37a39.909 39.909 0 0 0 1.102-3.286 22.344 22.344 0 0 1 1.695-.059c1.527 0 3.05.145 4.555.438 2.812.547 4.648 1.254 5.972 2.156-.031.418-.07.84-.117 1.246-.851 7.078-6.969 23.707-15.078 25.696a7.504 7.504 0 0 1-1.82.218"/><path fill="#1c388d" d="M187.617 303.242c-17.508 0-35.023-3.695-50.965-10.949-18.722-8.523-35.168-21.93-47.488-38.414-2.57-8.629-3.832-17.547-4.176-26.281a62.493 62.493 0 0 1-.058-2.84c0-3.621.27-7.254.773-10.856 2.274 7.164 5.29 14.614 8.086 21.11.707 5.898 2.734 12 5.676 17.754 6.953 13.601 19.008 25.289 30.68 27.925 1.468.336 3.554.668 6 .922a119.486 119.486 0 0 0 11.726 4.848c13.816 4.86 28.305 7.043 42.89 7.043 12.61 0 25.305-1.637 37.708-4.594-4.934 4.98-10.098 8.774-14.973 11.121-.617.285-1.246.57-1.875.856a122.904 122.904 0 0 1-24.004 2.355"/><path fill="#3f73cf" d="M178.227 173.695c-.696-.164-1.329-.593-1.774-1.304-1.785-2.907-3.988-5.106-6.465-6.836a51.839 51.839 0 0 1 3.352 2.402l.078-.078c-4.117-3.402-8.895-6.152-13.969-7.828l-.054.195c2.66.996 5.171 2.14 7.57 3.48-3.426-1.8-7.223-2.996-11.113-4.09.12-.59.18-.898.18-.898s19.562 2.797 22.195 14.957M180.082 173.469c2.668-5 6.852-5.793 12.012-6.035-2.824.492-5.73 1.78-8.125 3.265l-.051-.18c-1.316.012-2.238.618-2.82 1.762l.187.145a10.949 10.949 0 0 1 2.41-1.551 22.544 22.544 0 0 0-2.797 2.086 2.438 2.438 0 0 1-.816.508M203.582 194.625c-.57-2.57-.512-5.383-.691-7.996-.25-3.805.468-10.328-.97-14.52.9 1.797 1.673 3.633 2.102 5.664.836 3.938.059 7.692-.867 11.536-.039.183.094.3.227.3a.238.238 0 0 0 .234-.172c2.344-6.128 1.278-15.03-3.004-20.285.184-.03.254-.308.075-.402-.18-.094-.38-.14-.57-.219l-.216-.277-.023.016.11.21a11.992 11.992 0 0 0-2.04-.64 7.99 7.99 0 0 0-2.144-.531c1.86-.063 3.8-.145 5.797-.407.007 0 .011-.007.02-.007 1.202 0 4.796 12.457 5.038 14.101a27.59 27.59 0 0 1 .336 4.14c.008 3.54-.82 7.098-3.414 9.489m-2.824-24.723c-.067-.074-.13-.152-.192-.226a10.138 10.138 0 0 0-.582-.578c.114.011.239.03.356.035.137.258.277.52.418.77M197.867 216.398c3.164-2.203 6.059-3.261 9.57-3.882.711-2.586.938-5.055.532-7.852-.512-3.527-3.121-5.816-4.059-8.809v-.023c3.547 1.14 5.895 3.242 7.664 6.61.094.175.133.636.133 1.277 0 2.914-.82 9.531-1.273 9.597-4.895.653-8.79 2.243-12.567 3.082m6.613-19.414-.035.036c2.168 2.19 3.543 4.812 4.317 7.785.726 2.812.285 5.16.187 7.968-.008.215.145.32.309.32.137 0 .289-.073.347-.226 2.137-5.543-1.164-12.113-5.125-15.883"/><path fill="#30519e" d="M133.414 207.934c.004-.008.012-.012.016-.024-.004.012-.012.016-.016.024m.016-.024c.043-.043.074-.082.117-.125-.043.043-.074.082-.117.125"/><path fill="#1c3173" d="M133.547 207.785c.973-1.058 1.805-2.375 2.594-3.793-.79 1.418-1.621 2.735-2.594 3.793m12.93-15.62h.007-.007m.183-.024v-.004.004m.149-.024h.007-.007m.03 0h.005-.004m.062-.012h.008-.008m.032 0h.004-.004m.062-.003h.008-.008m.031-.008h.004-.004m.063-.004h.008-.008m.031 0h.004-.004m.063-.008h.004-.004m.027 0h.008-.008m.066-.004h.004-.004m.028-.008h.007-.007m.035 0h.008-.008m.031 0h.012-.012m.035-.004h.004-.004m.035 0h.004-.004m.028 0h.004-.004m.027 0h.008-.008m.035-.007h.008-.008m.031 0h.012-.012m.036 0h.004-.004m.035 0h.004-.004m.027 0h.008-.008m.067-.004h.011-.011m.035 0h.004-.004m.062 0h.012-.012m.035 0h.004-.004"/><path fill="#213d7d" d="M134.34 208.293c-.305-.121-.617-.246-.926-.36.004-.007.012-.011.016-.023.043-.043.074-.082.117-.125.973-1.058 1.805-2.375 2.594-3.793l.004-.004c.406-.734.804-1.5 1.199-2.261 2.23-4.325 4.484-8.805 9.133-9.563h.007c.024-.004.059-.004.086-.012.032-.004.059-.011.09-.011v-.004c.024 0 .04 0 .063-.008.011 0 .02 0 .03-.004.017 0 .04 0 .056-.008h.035c.02-.004.043-.004.058-.012H146.938c.019-.003.042-.003.058-.003h.008c.004 0 .016-.008.023-.008h.004c.02 0 .035 0 .059-.004h.035c.012 0 .016 0 .027-.008h.067c.011-.004.015-.004.027-.004h.035c.012-.008.02-.008.024-.008h.078c.004 0 .012-.004.023-.004h.098c.012-.007.016-.007.027-.007h.164c.012 0 .024-.004.032-.004h.168c.425 0 .816 0 1.16-.016-.47.465-1.016.953-1.692 1.524-.914.78-7.136 7.18-10.547 11.332.813-1.579 1.606-3.168 2.434-4.747l-.043-.023c-1.629 2.719-3.312 5.406-4.867 8.168M150.813 188.465c-1.77-1.024-4.2-3.05-4.208-6.39 0-1.579.543-3.45 1.958-5.645 3.593-5.59 5.53-10.692 6.53-13.98.716 2.413.407 4.288-.71 7.144-1.778 4.508-4.899 7.386-4.613 12.46.062 1.184 1.207 4.126 1.14 5.376a7.7 7.7 0 0 1-.097 1.035M151.16 215.367c-1.96 0-3.754-.496-5.531-1.265.488.14.984.261 1.492.378l.043-.156c-.988-.297-2.016-.601-3.043-.933-1.504-.762-3.031-1.664-4.672-2.582 4.395 1.644 9.055 3.726 12.996 3.726 1.809 0 3.465-.437 4.875-1.562.438-.364.977-.512 1.512-.512.266 0 .527.031.77.101-3.274 2.024-5.989 2.805-8.442 2.805M167.602 231.68c-6.286-4.032-10.489-8.727-10.48-13.215 0-2.008.843-3.977 2.726-5.824 1.261.472 2.144 1.757 1.125 3.164-3.141 4.254 3.414 10.11 7.308 14.449-1.48-1.336-3.094-2.496-4.484-3.95a34.142 34.142 0 0 1-4.508-5.933l-.031.02c2.117 3.89 5.32 8.382 9.375 10.457l-.094.035c-.281.094-.262.449-.078.57-.285.074-.57.152-.86.227m1.512-1.008c5.711-3.121 16.157-7.149 15.293-11.11-.304-1.394.285-2.488 1.184-3.125.191 1.29.308 2.43.308 3.458-.007 5.218-2.976 7.496-14.183 10.671 1.77-.539 3.535-1.117 5.176-1.914.226-.113.09-.414-.121-.414-.02 0-.032.004-.047.004-2.598.516-5.114 1.535-7.61 2.43"/><path fill="#33549e" d="M245.488 123.89c-6.832 0-9.582-11.843-16.468-13.285-3.79-.793-6.043.653-8.532-2.468a.353.353 0 0 0 .11.015.34.34 0 0 0 .199-.062c4.582-3.172 10.316-7.168 16.238-7.168.328 0 .649.012.973.035 1.527.11 2.68.98 3.55 2.184.739 3.757 1.485 7.523 2.231 11.28-.246 1.93-.672 3.837-.96 5.856-.083.547.394 1.04.855 1.04.234 0 .46-.126.609-.422.078-.145.137-.297.207-.442a.658.658 0 0 0 .355-.281c.942-1.555 1.864-3.379 2.918-5.125a7.692 7.692 0 0 0-.054.516c-.004.128.152 3.382 1.031 3.382.105 0 .215-.043.34-.14.906-.711.68-1.871.941-2.926.528-2.11 1.79-4.102 3.723-5.168 1.016-.559 1.965-.785 2.855-.785 1.743 0 3.293.87 4.782 1.949-.301 1.184-.594 2.371-.797 3.566a25.249 25.249 0 0 0-.344 5.461c-1.367-.484-2.742-.96-4.2-.96-.66 0-1.335.097-2.038.335-2.11.73-3.852 2.274-5.93 3.082-.926.368-1.789.532-2.594.532m-11.918-19.618c1.004 0 2.028.29 2.95.895 1.949 1.297 2.636 3.691 3.218 5.805.13.46.52.695.922.695.32 0 .656-.152.856-.461 2.214-3.387-.192-7.871-3.63-9.289a6.826 6.826 0 0 0-2.624-.523c-2.774 0-5.414 1.66-7.016 3.984-.355.52.18 1.144.7 1.144.175 0 .343-.07.476-.234 1.062-1.316 2.586-2.016 4.148-2.016"/><path fill="#3a62b1" d="M264.527 121.91c-1.441 0-2.82-.488-4.214-.984-.024-.008-.04-.02-.063-.024a25.249 25.249 0 0 1 .344-5.46c.203-1.196.496-2.383.797-3.567.843.605 1.671 1.281 2.507 1.902.18.133.36.184.528.184h.043c.789 1.316 1.535 2.656 2.383 3.781.156.211.433.32.703.32.37 0 .715-.214.66-.687a15.83 15.83 0 0 0-1.113-4.164l.125-.188c.671-2.523.875-5.25.886-8.011.153-.664.297-1.328.45-1.985.875 2.684 1.996 5.282 3.257 7.48a.51.51 0 0 0 .457.25.63.63 0 0 0 .172-.023c.137.477.238.973.254 1.493.149 3.175-3.058 8.093-5.969 9.257-.757.301-1.488.426-2.207.426"/><path fill="#33549e" d="M245.984 113.434c.004-.012.004-.024.004-.036.02-.023.043-.054.059-.078a.817.817 0 0 1-.063.114m-25.812-5.72a5.614 5.614 0 0 1-.3-.448c-1.833-2.813-3.505-8.23-1.169-11.215.77-.989 2.438-1.781 4.336-2.512 2.621-.285 5.434-1.176 7.969-2.504-1.266 2.344-2.207 4.817-2.645 7.387a35.281 35.281 0 0 1-2.074 3.34c-2.363 1.445-4.45 3.328-6.059 5.761a.364.364 0 0 0-.058.192"/><path fill="#203f82" d="M245.988 113.398c0-.355-.004-.71-.015-1.066a10.465 10.465 0 0 1 2.043-1.906c-.825 1.058-1.508 2.074-1.97 2.894-.015.024-.038.055-.058.078"/><path fill="#1a3a7d" d="M243.684 121.316c-.461 0-.938-.492-.856-1.039.29-2.02.715-3.925.961-5.855.219 1.148.453 2.297.68 3.445-.414-2.062.238-3.965 1.504-5.535.011.356.015.711.015 1.066 0 .012 0 .024-.004.036a.817.817 0 0 0 .063-.114c.46-.82 1.144-1.836 1.969-2.894a13.26 13.26 0 0 1 2.714-1.496c-2.93 3.097-5.253 6.629-6.449 10.953-.062.215.102.347.266.347.113 0 .23-.062.289-.195.902-2.191 1.941-4.297 3.191-6.254-.113.414-.203.84-.254 1.266-1.054 1.746-1.976 3.57-2.918 5.125a.658.658 0 0 1-.355.281c-.07.145-.129.297-.207.442-.148.296-.375.421-.61.421m23.872-3.254c-.27 0-.547-.109-.703-.32-.848-1.125-1.594-2.465-2.383-3.781a.87.87 0 0 0 .469-.18h.066c.32 0 .633-.097.879-.316.367-.332.496-.844.605-1.328.543-2.375 1.082-4.754 1.625-7.125-.011 2.761-.215 5.488-.886 8.011l-.125.188a15.83 15.83 0 0 1 1.113 4.164c.055.473-.29.688-.66.688m4.722-7.305a.51.51 0 0 1-.457-.25c-1.261-2.2-2.382-4.797-3.257-7.48.128-.575.261-1.137.39-1.704-.719 3.77 2.527 6.188 3.496 9.41a.63.63 0 0 1-.172.024m-51.68-2.606a.353.353 0 0 1-.109-.015 6.59 6.59 0 0 1-.316-.422c0-.063.02-.13.058-.192 1.61-2.433 3.696-4.316 6.06-5.761a35.593 35.593 0 0 1-2.56 3.21 50.004 50.004 0 0 1 10.895-4.558c.215.008.438.02.652.023.36.012.727.024 1.102.024h.117c.953-.004 2.113-.332 3.117-.332.215 0 .41.02.61.055.332.058.617.273.863.586.156.793.312 1.582.473 2.37-.871-1.203-2.024-2.074-3.551-2.183a13.405 13.405 0 0 0-.973-.035c-5.922 0-11.656 3.996-16.238 7.168a.34.34 0 0 1-.2.062m18.215-8.734a67.17 67.17 0 0 1 1.942-.332c.004.023.012.055.012.078a21.34 21.34 0 0 1-1.953.254m-10.45-.996c.438-2.57 1.38-5.043 2.645-7.387-2.535 1.328-5.348 2.219-7.969 2.504 3.758-1.445 8.418-2.613 8.82-4.45a35.055 35.055 0 0 1-3.496 9.333"/><path fill="#b5b8bc" d="M297.91 134.191c.246-2.113.367-4.246.367-6.379 0-.273 0-.546-.007-.824a51.951 51.951 0 0 0-2.957-16.75c2.003 5.64 2.976 11.555 2.976 17.48 0 2.16-.129 4.317-.379 6.473"/><path fill="#568fcd" d="M283.242 132.297c-3.133-3.688-5.062-8.402-5.043-13.219.02-5.45 2.387-10.758 1.899-16.164-.614-6.547-5.243-11.914-9.672-16.793-4.77-5.3-10.215-10.933-17.317-11.726a20.63 20.63 0 0 0-2.425-.122c-.965 0-1.946.047-2.922.086-.98.04-1.957.086-2.914.086-2.91 0-5.625-.394-7.649-2.398-2.488-2.473-2.648-6.59-1.328-9.836.793-1.977 2.04-3.711 3.45-5.324.367.105.71.226 1.077.347 18.997 6.446 36.168 20.707 47.649 36.114 3.797 5.12 5.226 11.058 7.265 16.89a51.951 51.951 0 0 1 2.958 16.75c.007.278.007.551.007.825 0-.274 0-.547-.007-.825-.856-.09-1.711-.144-2.555-.144-2.485 0-4.899.445-7.195 1.531-2.004.953-3.727 2.309-5.278 3.922"/><path fill="#487ccd" d="M296.844 140.293c-4.281-.996-8.348-2.977-11.61-5.938a21.556 21.556 0 0 1-1.992-2.058c1.551-1.613 3.274-2.969 5.278-3.922 2.296-1.086 4.71-1.531 7.195-1.531.844 0 1.7.054 2.555.144a55.184 55.184 0 0 1-.36 7.203 57.945 57.945 0 0 1-1.066 6.102"/><path fill="#426cb1" d="M135.719 256.688c-.23 0-.473-.004-.711-.012-6.168-4.863-11.625-10.598-16.094-17.125-.617-5.36-.273-11.14-.293-16.031-.027-6.512.07-13.114-.824-19.516.16-.004.324-.004.488-.004 5.383 0 9.621 2.785 13.024 7.66-.75 1.184-1.547 2.274-2.47 3.164 1.923.672 3.716 1.36 5.419 1.992.015.043.039.082.058.13 4.547 9.644 6.309 21.472 13.106 29.94 1.281 1.594 2.894 3.009 4.672 4.356-.223.11-.438.219-.656.332-3.426 1.742-6.86 3.485-10.481 4.422a2.68 2.68 0 0 0-.898-.152c-.68 0-1.32.261-1.825.68-.824.105-1.664.163-2.515.163m.261-7.363c-2.894 0-2.894 4.496 0 4.496 2.891 0 2.895-4.496 0-4.496"/><path fill="#375eb1" d="M135.008 256.676a18.74 18.74 0 0 1-3.844-.555c-8.55-2.164-11.371-8.941-12.25-16.57 4.469 6.527 9.926 12.262 16.094 17.125"/><path fill="#264189" d="M134.258 216.816c-1.703-.632-3.496-1.32-5.418-1.992.922-.89 1.719-1.98 2.469-3.164 1.062 1.52 2.039 3.246 2.949 5.156"/><path fill="#355bb1" d="M169.242 273.125c-9.867-2.36-19.363-6.379-27.855-11.879.91-.492 1.543-1.457 1.543-2.531 0-1.246-.844-2.336-1.973-2.719 3.621-.937 7.055-2.68 10.48-4.422.22-.113.434-.222.657-.332 6.508 4.922 15.152 8.836 17.125 16.645.508 2 .48 3.734.023 5.238m-17.965-18.3c-.785 0-1.566.355-1.898 1.077l-.246.536c-.762 1.667.125 3.742 2.144 3.742 2.028 0 2.914-2.075 2.153-3.743a16.57 16.57 0 0 0-.254-.535c-.324-.722-1.11-1.078-1.899-1.078m-14.062 3.535a84.272 84.272 0 0 1-2.207-1.683 19.813 19.813 0 0 0 3.227-.152 2.898 2.898 0 0 0-1.02 1.835m-18.3-18.808c-.376-.551-.747-1.11-1.106-1.672-6.02-9.328-9.7-19.676-11.18-30.348a30.825 30.825 0 0 1 2.324-1.191c3.246-1.5 6.18-2.254 8.844-2.336.894 6.402.797 13.004.824 19.516.02 4.89-.324 10.671.293 16.03"/><path fill="#2b4fb1" d="M145.23 282.078c-3.25 0-6.39-.183-9.085-.465-14.797-7.066-29.848-18.039-36-32.242-1.473-3.398-3.829-8.492-6.356-14.36-1.309-11.058 2.059-21.41 12.84-27.48 1.48 10.672 5.16 21.02 11.18 30.348.359.562.73 1.121 1.105 1.672.879 7.629 3.7 14.406 12.25 16.57a18.74 18.74 0 0 0 3.844.555c.722.57 1.465 1.137 2.207 1.683a2.672 2.672 0 0 0-.024.356c0 1.555 1.313 2.867 2.868 2.867.476 0 .925-.121 1.328-.336 8.492 5.5 17.988 9.52 27.855 11.879-2.133 7.04-13.66 8.96-24.012 8.953"/><path fill="#2041a3" d="M136.145 281.613c-2.446-.254-4.532-.586-6-.922-11.672-2.636-23.727-14.324-30.68-27.925-2.942-5.754-4.969-11.856-5.676-17.754 2.527 5.867 4.883 10.96 6.356 14.36 6.152 14.202 21.203 25.175 36 32.241"/><path fill="#426cb1" d="M38.07 185.95c-5.043 0-10.355-1.184-13.957-2.098-6.113-1.543-11.945-3.973-17.16-7.301-2.457-2.45-4.601-5.074-6.273-7.856a77.505 77.505 0 0 1-.035-2.328c0-6.574.757-13.09 2.214-19.422 1.735 3.614 4.286 6.793 7.754 8.774 8.461 4.836 52.157 3.16 40.27 24.543-2.426 4.363-7.469 5.687-12.813 5.687m-3.367-8.422c.457 1.012 1.469 1.575 2.465 1.575.84 0 1.672-.395 2.176-1.25.953-1.633-.34-4-2.168-4-.258 0-.52.046-.79.148l-.273.098-.367.168c-.383-1.391-1.578-2.457-3.113-2.457-1.703 0-3.332 1.496-3.258 3.257.082 1.758 1.434 3.25 3.258 3.25.75 0 1.484-.308 2.07-.789"/><path fill="#375eb1" d="M6.953 176.55a51.123 51.123 0 0 1-6.11-4.59c-.081-1.085-.12-2.163-.163-3.265 1.672 2.782 3.816 5.407 6.273 7.856"/><path fill="#12276c" d="M168.207 309.348c-15.887 0-32.219-3.258-45.484-11.356-18.278-11.18-28.48-27.074-33.559-44.113 12.32 16.484 28.766 29.89 47.488 38.414 15.942 7.254 33.457 10.95 50.965 10.95 8.051 0 16.106-.782 24.004-2.356-11.504 5.078-27.226 8.46-43.414 8.46"/><path fill="#426cb1" d="M232.715 132.777c-.485-.254-.98-.48-1.492-.683-2.72-1.094-5.582-1.41-8.504-1.41-1.645 0-3.309.097-4.977.214.125-7.765-4.21-13.418-8.242-20.187.094-.297.137-.613.125-.938-.066-1.48-1.02-2.761-2.402-3.152a46.923 46.923 0 0 1-1.871-4.148c-1.903-4.914-6.004-10.785-11.864-10.785-.804 0-1.648.109-2.523.347-1.86.52-3.524 2.024-3.832 3.93-3.774 2.558-3.637 4.789-3.567 9.351.079 4.555 1.645 8.942 3.188 13.23.945 2.606 1.98 5.325 3.3 7.81-4.359-2.172-8.234-5.047-10.827-8.579-1.805-3.238-3.004-6.543-3.356-9.777-.004-.04-.012-.078-.012-.121 0-1.184.137-2.41.41-3.676a42.44 42.44 0 0 1 9.18-18.57c1.172-1.363 2.422-2.649 3.61-3.992 1.714-.79 3.562-1.239 5.523-1.239.777 0 1.574.07 2.383.215 21.926 3.957 16.668 31.004 27.66 43.598 2.723 3.129 6.445 5.191 8.09 8.562"/><path fill="#375eb1" d="M224.508 146.566c-3.688 0-7.863-1.375-11.32-2.238-3.711-.926-7.864-2.75-12.016-5.207.633.211 1.613.367 3.285.664 2.352.418 4.102.774 5.68.774 2.086 0 3.867-.63 6.355-2.586.832-2.57 1.215-4.899 1.25-7.075 1.668-.117 3.332-.214 4.977-.214 2.922 0 5.785.316 8.504 1.41.511.203 1.007.43 1.492.683.758 1.543 1.078 3.36.656 5.68-1.129 6.332-4.676 8.11-8.863 8.11m-24.25-8c-8.344-5.126-16.555-12.755-21.031-20.79 2.593 3.532 6.468 6.407 10.828 8.578 1.894 3.543 4.363 6.618 7.972 8.23 1.442 2.33 1.692 3.388 2.23 3.981M175.86 107.88c-.902-8.828 4.371-22.145 13.2-26.238-1.188 1.343-2.438 2.629-3.61 3.992a42.44 42.44 0 0 0-9.18 18.57 17.401 17.401 0 0 0-.41 3.676"/><path fill="#4c7ec0" d="M220.48 227.54c-2.316-2.856-3.628-7.313-2.718-12.5 1.828-10.458 2.172-19.45.484-30.052-.543-3.39-.398-6.289.25-8.547.156.114.324.23.492.336.621.407 1.274.59 1.907.59 2.765 0 5.261-3.344 3.523-6.02l-.297-.452c.113-.012.223-.012.332-.012 3.02 0 6.637 2.476 9.844 8.078 5.613 9.809 5.816 28.785 2.344 40.875-3.461.246-6.875 1.21-9.926 2.855-.973.012-1.625.512-1.969 1.188a23.822 23.822 0 0 0-4.266 3.66m10.352-14.445c-4.879 0-4.887 7.586 0 7.586 4.883 0 4.895-7.586 0-7.586m-6.11-23.555c-1.788 3.961-1.538 10.703 1.141 14.914 2.594 4.055 5.035 5.668 7.075 5.668 5.699.008 8.28-12.582 2.199-19.68-2.512-2.918-4.653-4.109-6.39-4.109-.99 0-1.845.39-2.567 1.063-.438.117-.852.414-1.16.937-.25.43-.34.84-.297 1.207"/><path fill="#3d6ac0" d="M226.871 230.918c-2.36 0-4.652-1.242-6.39-3.379a23.822 23.822 0 0 1 4.265-3.66c-.707 1.398-.035 3.531 2.008 3.531 3.035 0 3.043-4.719 0-4.719h-.04c3.052-1.644 6.466-2.609 9.927-2.855a39.909 39.909 0 0 1-1.102 3.285 19.29 19.29 0 0 1-.594 1.371h-.027c-1.375 0-1.824 1.446-1.34 2.375-1.965 2.82-4.363 4.051-6.707 4.051"/><path fill="#4c7ec0" d="M95.281 143.363c-9.304 0-10.504-8.129-5.277-16.879 1.012-1.707 1.437-3.265 1.469-4.714.203.046.425.07.652.07 2.574 0 3.691-3.113 2.04-4.93-.567-.617-1.302-.933-2.04-.933-.688 0-1.375.273-1.93.816-2.078-4.316-5.797-8.367-3.843-14.281 2.132-6.477 5.941-8.961 10.199-8.961 8.207 0 18.062 9.222 20.754 16.875.601 1.699 1.03 3.566 1.28 5.5a1.68 1.68 0 0 0-.616-.246 4.93 4.93 0 0 0-.77-.075c-.207 0-.422.024-.691.086-2.215.504-2.465 3.633-.617 4.707.394.235.816.34 1.23.34.621 0 1.234-.238 1.707-.629a28.64 28.64 0 0 1-.574 5.45c-.844 4.148-2.66 8.015-5.625 10.8-3.625 3.391-8.711 5.723-13.555 6.618-1.394.261-2.652.386-3.793.386m-.097-6.527c-.48 0-.957.18-1.305.531-.258.262-.461.531-.621.863-.703 1.493.125 3.356 1.93 3.356 1.8 0 2.628-1.863 1.921-3.356a3.062 3.062 0 0 0-.617-.863 1.84 1.84 0 0 0-1.308-.531m-2.04-5.738c-1.433 0-1.44 2.23 0 2.23 1.438 0 1.438-2.23 0-2.23m10.2-4.325c-3.875 0-3.88 6.028 0 6.028 1.402 0 2.293-.793 2.683-1.797.262.078.535.113.817.113.508 0 1.031-.137 1.52-.426-.216.075-.325.114-.344.114-.024 0 .28-.125.914-.38.398-.214.722-.5.972-.859.875-1.09 1.371-2.277.98-3.695-.316-1.148-1.124-2.004-2.202-2.457a3.72 3.72 0 0 0-1.473-.309c-1.953 0-3.64 1.57-3.773 3.668h-.094m9.18-13.418c-.844 0-1.688.465-1.895 1.407-.05.254-.11.511-.16.77-.164.718-.035 1.554.547 2.073.14.133.285.262.425.387.32.293.7.434 1.082.434.38 0 .762-.14 1.082-.434.141-.125.286-.254.426-.387.48-.425.637-1.062.594-1.68l-.004-.073-.043-.32c-.05-.259-.11-.516-.16-.77-.207-.942-1.05-1.407-1.895-1.407m-10.73-16.804c-7.559 0-10.379 15.918-.805 17.988.57.121 1.11.18 1.61.18 3.285 0 5.191-2.469 5.879-5.582a2.485 2.485 0 0 0 2.039 1.054c.41 0 .832-.105 1.214-.324 1.153-.676 1.563-2.226.887-3.379-.414-.707-1.305-1.332-2.16-1.332-.262 0-.527.059-.77.196a3.991 3.991 0 0 0-.914.675c-.07-3.863-1.707-7.808-4.632-8.992-.442-.18-.868-.3-1.286-.383a5.584 5.584 0 0 0-1.062-.101m-4.566 17.203v.203-.203"/><path fill="#375eb1" d="M201.172 139.121c-.426-.144-.695-.309-.914-.555.3.188.61.375.914.555"/><path fill="#4c7ec0" d="M210.305 131.3c-.25 0-.496 0-.746-.003-5.97-.137-13.239-1.824-19.504-4.942-1.32-2.484-2.356-5.203-3.301-7.808-1.543-4.29-3.11-8.676-3.188-13.23-.07-4.563-.207-6.794 3.567-9.352.308-1.906 1.972-3.41 3.832-3.93a9.585 9.585 0 0 1 2.523-.347c5.86 0 9.961 5.87 11.864 10.785a46.923 46.923 0 0 0 1.87 4.148 3.142 3.142 0 0 0-.867-.117c-1.496 0-2.94 1.16-3.222 2.633-.492-.52-1.192-.864-1.88-.864-.839 0-1.69.508-2.167 1.23-.594-.151-1.234-.163-1.91-.179h-.07c-1.555 0-2.333 1.246-2.333 2.489 0 1.242.778 2.488 2.332 2.488h.07c1.083-.031 2.067-.055 2.93-.617a2.65 2.65 0 0 0 .407-.207c.226.09.484.128.742.128.406 0 .809-.097 1.07-.3.7-.543 1.004-.98 1.324-1.762.575.89 1.543 1.5 2.707 1.5 1.399 0 2.739-1.004 3.145-2.332 4.031 6.77 8.367 12.422 8.242 20.187-.406.036-.812.067-1.222.094-2.079.156-4.16.309-6.215.309m-8.02-9.492c-.195 0-.316.28-.113.386 1.246.618 2.539 1.172 3.402 2.32.258.344.52.477.758.477.441 0 .797-.46.867-.922 0-.011 0-.023.008-.035.395.094.82.14 1.25.14.875 0 1.773-.19 2.52-.566.55-.277.835-.82.882-1.39 2.547-.434 2.442-4.574-.406-4.574-.984 0-1.613.523-1.953 1.207-.762.43-1.543.847-2.375 1.066-1.46.371-1.875 2.098-1.219 3.21-1.273-.116-2.363-.71-3.523-1.296a.252.252 0 0 0-.098-.023m-2.047-2.043c-1.582 0-1.582 2.453 0 2.453 1.575 0 1.578-2.453 0-2.453"/><path fill="#3f6dc0" d="M210.137 140.559c-1.578 0-3.328-.356-5.68-.774-1.672-.297-2.652-.453-3.285-.664a43.78 43.78 0 0 1-.914-.555c-.54-.593-.79-1.652-2.23-3.98-3.61-1.613-6.079-4.688-7.973-8.23 6.265 3.117 13.535 4.804 19.504 4.94.25.005.496.005.746.005 2.054 0 4.136-.153 6.215-.309.41-.027.816-.058 1.222-.094-.035 2.176-.418 4.504-1.25 7.075-2.488 1.957-4.27 2.586-6.355 2.586"/><path fill="#466aa9" d="M175.75 249.098c-1.266-.887-2.633-1.594-4.164-2.047.105-.313.285-.617.512-.88.214-.878.914-1.316 1.62-1.316.704 0 1.407.438 1.626 1.32.37.438.62 1.009.617 1.524v.406c0 .38-.078.708-.211.993"/><path fill="#3b5da9" d="M173.719 250.273c-1.121 0-2.239-.73-2.246-2.168v-.406c0-.21.035-.433.113-.648 1.531.453 2.898 1.16 4.164 2.047-.383.777-1.207 1.175-2.031 1.175"/><path fill="#466aa9" d="M183.918 247.25c-2.156 0-3.746-1.754-3.84-3.84-.094-2.074 1.828-3.84 3.84-3.84 2.152 0 3.746 1.758 3.844 3.84.086 2.074-1.836 3.84-3.844 3.84M192.078 256.613c-2.55 0-2.547-3.957 0-3.957s2.54 3.957 0 3.957M201.254 244.273c-2.426 0-2.418-3.765 0-3.765 2.43 0 2.422 3.765 0 3.765"/><path fill="#5789c7" d="M230.832 220.68c-4.887 0-4.879-7.586 0-7.586 4.895 0 4.883 7.586 0 7.586m1.02-3.727c-.497 0-.985.32-.985.953 0 .742-.035 1.2.637 1.625a.635.635 0 0 0 .348.102.642.642 0 0 0 .355-.102c.664-.426.637-.883.637-1.625 0-.633-.496-.953-.992-.953M224.723 189.54c-.043-.368.047-.778.297-1.208.308-.523.722-.82 1.16-.937-.578.546-1.067 1.28-1.457 2.144"/><path fill="#4e78ba" d="M243.082 210.531c-.082 0-.16-.008-.25-.02a1.82 1.82 0 0 1-1.578-1.788c0-.465.203-.953.535-1.282 0-.004.672-.472.734-.472.02 0-.003.031-.082.105a.918.918 0 0 1 1.145-.098c2.043.36 1.441 3.555-.504 3.555M129.86 169.77c-3.692 0-3.688-5.743 0-5.743 3.699 0 3.69 5.743 0 5.743M135.98 157.031c-3.062 0-3.058-4.75 0-4.75 3.067 0 3.06 4.75 0 4.75M141.086 159.914c-2.84 0-2.84-4.398 0-4.398 2.828 0 2.824 4.398 0 4.398M148.219 156.223c-2.016 0-2.008-3.13 0-3.13 2.015 0 2.011 3.13 0 3.13M209.5 110.71a74.866 74.866 0 0 1-2.277-4.089c1.382.39 2.336 1.672 2.402 3.152.012.325-.031.641-.125.938"/><path fill="#5789c7" d="M206.355 113.043c-1.164 0-2.132-.61-2.707-1.5.012-.027.024-.05.036-.082.336-.844.03-1.707-.551-2.324.281-1.473 1.726-2.633 3.222-2.633.305 0 .594.039.868.117a74.866 74.866 0 0 0 2.277 4.09c-.406 1.328-1.746 2.332-3.145 2.332M197.105 114.3c-1.554 0-2.332-1.245-2.332-2.487 0-1.243.778-2.489 2.332-2.489h.07c.677.016 1.317.028 1.91.18-.386.57-.53 1.27-.257 1.957.332.836.652 1.3 1.36 1.844.093.07.203.129.324.172a2.65 2.65 0 0 1-.407.207c-.863.562-1.847.586-2.93.617h-.07M208.457 124.176a5.45 5.45 0 0 1-1.25-.14c.05-.45-.172-.891-.852-.891h-.007a5.49 5.49 0 0 1-.442-.016c-.656-1.113-.242-2.84 1.219-3.211.832-.219 1.613-.637 2.375-1.066.34-.684.969-1.207 1.953-1.207 2.848 0 2.953 4.14.406 4.574-.047.57-.332 1.113-.882 1.39-.747.375-1.645.567-2.52.567"/><path fill="#466aa9" d="M261.77 110.438a5.822 5.822 0 0 0-.727-.758.043.043 0 0 1-.012-.024c.262.211.52.43.762.676-.004.035-.016.07-.023.106"/><path fill="#4e78ba" d="M264.262 113.625a2.218 2.218 0 0 1-.594-.367c-.606-.535-.941-1.305-1.344-2.012a6.704 6.704 0 0 0-.554-.808c.007-.036.02-.07.023-.106.95.926 1.73 2.09 2.469 3.293"/><path fill="#2c508b" d="M264.938 113.781a1.978 1.978 0 0 1-.676-.156c-.739-1.203-1.52-2.367-2.469-3.293a8.81 8.81 0 0 0-.762-.676 23.037 23.037 0 0 0-2.117-2.515c3.195.394 6.07 2.125 6.527 5.445.059.426-.16.926-.503 1.195m-12.422-5.449.347-.348c1.172-.53 2.547-.843 3.946-.914.296.29.62.668.925 1.032a9.709 9.709 0 0 0-2.011-.2c-1.055 0-2.141.153-3.207.43"/><path fill="#4062a9" d="M248.75 118.945c-.879 0-1.035-3.254-1.031-3.382.011-.172.031-.344.054-.516 2.086-3.461 4.688-6.61 8.977-6.754.086 0 .172-.008.254-.008.328 0 .64.024.945.067.281.332.531.62.711.785.64.57 1.328 1.05 2.04 1.527.062.047.14.07.206.07.313 0 .602-.386.399-.675-.086-.13-.168-.258-.262-.38.262.227.5.477.727.758-.13.477-.254.954-.38 1.438-1.488-1.078-3.038-1.95-4.78-1.95-.891 0-1.84.227-2.856.786-1.934 1.066-3.195 3.059-3.723 5.168-.261 1.055-.035 2.215-.941 2.926-.125.097-.235.14-.34.14"/><path fill="#466fba" d="M264.426 113.96a.873.873 0 0 1-.528-.183c-.836-.62-1.664-1.297-2.507-1.902.125-.484.25-.96.379-1.438.199.25.386.52.554.81.403.706.738 1.476 1.344 2.01.176.153.379.278.594.368.066.11.136.227.207.336h-.043"/><path fill="#284a8b" d="M247.773 115.047c.051-.426.141-.852.254-1.266a27.451 27.451 0 0 1 3.543-4.465c.274-.277.594-.629.946-.984a12.818 12.818 0 0 1 3.207-.43c.695 0 1.363.063 2.011.2.075.085.145.168.215.25a6.733 6.733 0 0 0-.945-.067c-.082 0-.168.008-.254.008-4.29.144-6.89 3.293-8.977 6.754m16.696-1.086c-.07-.11-.14-.227-.207-.336.218.094.449.145.675.156a.87.87 0 0 1-.468.18"/><path fill="#466aa9" d="M62.766 132.305c-.782 0-1.59-.344-2.047-.938a2.372 2.372 0 0 1-.489-1.48l-.027.015c.035-.949.238-1.914.54-2.82a3.815 3.815 0 0 1-.68-2.008c-.086-1.894 1.671-3.508 3.507-3.508.965 0 1.805.391 2.422 1.012.43.129.856.317 1.281.64.747.575 1.223 1.395.957 2.36-.222.824-.968 1.399-1.8 1.5a3.723 3.723 0 0 1-.887.863l-.012.114c-.14 1.097-.39 2.05-.828 3.066-.348.82-1.129 1.184-1.937 1.184M71.863 128.121c-1.16 0-2.207-.742-2.207-2.027 0-1.301 1.047-2.028 2.207-2.028.133 0 .274.012.414.028.852.133 1.403.453 1.899 1.164.316.445.316 1.226 0 1.676-.5.714-1.047 1.03-1.899 1.156-.14.023-.273.031-.414.031M34.11 150.324c-.81 0-1.672-.5-1.856-1.308-.508-2.215-.16-4.457-.305-6.707-.097-1.528 1.336-2.594 2.723-2.594.64 0 1.27.226 1.734.746.532.582 1.114.879 1.63.879h.023c1.043-.016 2.039-.297 3.175-.297h.102c.406-.074.812-.14 1.234-.14h.012c1.2.007 2.496 1.097 2.383 2.382-.305 3.34-2.664 4.746-5.309 4.738-1.14 0-2.336-.261-3.441-.738-.172.727-.367 1.45-.672 2.16-.262.614-.832.88-1.434.88"/><path fill="#5789c7" d="M95.188 141.586c-1.805 0-2.633-1.863-1.93-3.356.16-.332.363-.601.62-.863a1.831 1.831 0 0 1 1.306-.531c.48 0 .96.18 1.308.531.258.262.461.531.617.863.707 1.493-.12 3.356-1.921 3.356M103.344 132.8c-3.88 0-3.875-6.027 0-6.027h.094c-.008.036-.008.07-.008.106-.04.453 0 .91.117 1.351.25.614.379.922.383.922a3.284 3.284 0 0 0 2.097 1.852c-.39 1.004-1.28 1.797-2.683 1.797"/><path fill="#4e78ba" d="M91.473 121.77c-2.11-.473-2.895-3.2-1.387-4.86.035-.039.074-.074.11-.117.761 1.586 1.312 3.21 1.277 4.977"/><path fill="#5789c7" d="M92.125 121.84a2.93 2.93 0 0 1-.652-.07c.035-1.766-.516-3.391-1.278-4.977.555-.543 1.243-.816 1.93-.816.738 0 1.473.316 2.04.933 1.651 1.817.534 4.93-2.04 4.93"/><path fill="#4e78ba" d="M37.168 179.102c-.996 0-2.008-.563-2.465-1.575-.586.48-1.32.79-2.07.79-1.824 0-3.176-1.493-3.258-3.25-.074-1.762 1.555-3.258 3.258-3.258 1.535 0 2.73 1.066 3.113 2.457l.367-.168.274-.098c.27-.102.531-.148.789-.148 1.828 0 3.12 2.367 2.168 4a2.476 2.476 0 0 1-2.176 1.25"/><path fill="#35558b" d="M150.125 208.066c-.996 0-1.98-.441-2.418-1.375-.156-.34-.273-.796-.477-1.086a3.289 3.289 0 0 1-.472.036c-1.953 0-3.477-1.832-3.074-3.61-.618-.043-1.235-.117-1.844-.304-.867-.262-1.035-1.446-.25-1.922.89-.543 1.867-.817 2.867-1.102.508-.14 2.445-.426 2.656-.676.473-.578 1.067-.82 1.668-.82 1.785 0 3.617 2.152 2.414 3.973h-.004c1.293 1.183 2.063 2.906 1.743 4.824-.227 1.332-1.532 2.062-2.809 2.062M168.406 222.941c-1.148 0-2.418-.496-2.879-1.578l-.082-.195a1.363 1.363 0 0 1-.449-.48c-.676-1.227-.734-2.204-.598-3.434v-.05h.004c.028-.24.051-.474.086-.731.188-1.22 1.516-2.028 2.746-2.028.465 0 .926.118 1.293.387a6.512 6.512 0 0 1 1.594 1.578c.996-.023 1.992-.047 3.008-.168.547-.07 1.07-.137 1.566-.137.91 0 1.723.227 2.434 1.075.637.761.695 1.53.316 2.433-.672 1.575-2.066 1.762-3.59 2.035-1.601.29-3.074.852-4.66 1.211-.25.059-.515.082-.789.082M160.082 176.293c-.379 0-.766-.059-1.156-.191-1.07-.372-2.133-1.657-1.63-2.88.665-1.613 1.77-2.312 3.286-3.081 1.379-.692 2.75-1.399 4.316-1.399h.207c2.368.102 3.211 2.688 1.825 4.406-.985 1.211-2.418 1.72-3.817 2.301-.988.414-1.992.844-3.031.844"/><path fill="#2c4882" d="M161.484 204.629c-.394 0-.797-.234-.992-.73a15.174 15.174 0 0 1-.86-3.5c.368 1.503.977 2.93 1.856 4.23h-.004m.512-.133c-.176-.41-.344-.816-.508-1.226.242.351.496.687.766 1.015a1.325 1.325 0 0 1-.258.211m3.688-21.46a40.067 40.067 0 0 1 1.718-2.016l.106.074c-.235.379-.442.754-.649 1.133-.406.253-.797.523-1.175.808"/><path fill="#6b4471" d="M162.254 204.285c-.27-.328-.524-.664-.766-1.015-.96-2.43-1.636-4.895-1.773-7.555.7-4.606 3.086-9.05 5.969-12.68.379-.285.77-.555 1.175-.808-2.004 3.722-2.859 7.496-3.359 11.382-1.219 2.633-1.563 5.559-.805 8.356-.047.547-.105 1.101-.164 1.656-.027.277-.133.5-.277.664m1.512-11.215c2.234-5.27 8.64-8.86 14.773-8.86 3.16 0 6.238.95 8.64 3.106.313.282.325.707.153 1.043-2.46-2.312-5.89-3.605-9.55-3.609h-.012c-1.82 0-3.708.324-5.555 1.008-.024.012-.047.015-.07.027-.032.008-.055.02-.083.031a.081.081 0 0 0-.023.008h-.012c-.004.008-.011.008-.015.012h-.008c-3.746 1.453-6.617 4.11-8.238 7.234"/><path fill="#3c5f9b" d="M162.695 201.965c-.757-2.797-.414-5.723.805-8.356-.012.082-.02.164-.031.246.09-.27.187-.53.297-.785 1.62-3.125 4.492-5.78 8.238-7.234-2.563 1-4.695 2.57-6.32 4.465.246-.016.484-.024.722-.024.828 0 1.645.075 2.446.227.34-.024.671-.035 1.003-.035h.024c-3.309 2.91-4.598 7.148-5.809 11.304l-.058.012c-.543-1.207-.867-2.379-.996-3.512-.106 1.215-.203 2.446-.32 3.692m24.636-13.606c-2.46-2.304-5.89-3.605-9.55-3.609 3.66.004 7.09 1.297 9.55 3.61m-15.32-2.524c.004-.004.011-.004.015-.012-.004.008-.011.008-.015.012M172.145 185.785c.023-.012.046-.015.07-.027-.024.012-.047.015-.07.027m5.625-1.035h.007-.007"/><path fill="#593c71" d="M172.004 185.836h.008-.008m.023-.012h.012-.012m.036-.008c.027-.011.05-.023.082-.03-.032.007-.055.019-.083.03M177.781 184.75h-.004.004"/><path fill="#34539b" d="M168.852 190.504a13.064 13.064 0 0 0-3.168-.203 15.927 15.927 0 0 1 6.32-4.465h.008c.004-.004.011-.004.015-.012h.012a.081.081 0 0 1 .024-.008c.027-.011.05-.023.082-.03.023-.013.046-.016.07-.028a16.029 16.029 0 0 1 5.555-1.008h.011c3.66.004 7.09 1.305 9.551 3.61-.148.296-.434.527-.77.527-.082 0-.175-.02-.269-.047-2.55-.918-5.18-1.547-7.758-1.547-2.664 0-5.277.676-7.691 2.406-.344.246-.664.504-.965.77h-.024c-.332 0-.664.011-1.003.035"/><path fill="#4e78ba" d="M135.98 253.82c-2.894 0-2.894-4.496 0-4.496 2.895 0 2.891 4.496 0 4.496M138.234 256.523a2.873 2.873 0 0 1 1.825-.68c.308 0 .613.052.898.153-.898.227-1.8.406-2.723.527"/><path fill="#4269ba" d="M141.387 261.246a87.051 87.051 0 0 1-4.172-2.887 2.898 2.898 0 0 1 1.02-1.836c.921-.12 1.824-.3 2.722-.527 1.129.383 1.973 1.473 1.973 2.719 0 1.074-.633 2.039-1.543 2.531"/><path fill="#385dba" d="M140.059 261.582c-1.555 0-2.868-1.312-2.868-2.867 0-.121.008-.238.024-.356a87.051 87.051 0 0 0 4.172 2.887 2.804 2.804 0 0 1-1.328.336"/><path fill="#4269ba" d="M151.277 260.18c-2.02 0-2.906-2.075-2.144-3.743l.246-.535c.332-.722 1.113-1.078 1.898-1.078.79 0 1.575.356 1.899 1.078.09.18.172.356.254.536.761 1.667-.125 3.742-2.153 3.742"/><path fill="#4e78ba" d="M270.723 137.414h-.118c-1.707-.074-3.148-1.406-3.148-3.16 0-1.758 1.461-3.129 3.148-3.129.141 0 .282.012.422.031 1.352.18 2.184.985 2.625 2.262.637 1.852-1.007 3.996-2.93 3.996M275.71 125.934c-1.92 0-3.843-1.188-2.218-3.563.098-.152.203-.305.309-.457.48-.71 1.191-1.066 1.91-1.066.71 0 1.426.355 1.91 1.066.106.152.203.305.309.457 1.625 2.375-.297 3.563-2.22 3.563"/><path fill="#4062a9" d="M240.66 111.668a.933.933 0 0 1-.922-.695c-.582-2.114-1.27-4.508-3.218-5.805a5.359 5.359 0 0 0-2.95-.895c-1.562 0-3.086.7-4.148 2.016a.596.596 0 0 1-.477.234c-.52 0-1.054-.625-.699-1.144 1.602-2.324 4.242-3.984 7.016-3.984.87 0 1.758.164 2.625.523 3.437 1.418 5.843 5.902 3.629 9.289-.2.309-.536.461-.856.461"/><path fill="#325490" d="M44.172 122.586a.505.505 0 0 1-.387-.164c-.32-.379-.734-.524-1.058-.902-.45-.524-.711-1.165-1.004-1.778-.633-1.34-1.106-2.734-1.653-4.11-.418-1.042.461-2.655 1.602-2.82 1.152-.16 3.547-.644 5.738-.644 2.278 0 4.34.523 4.555 2.48.281 2.454-2.469 3-5.192 3-.609 0-1.214-.027-1.785-.062.055.406.125.816.168 1.223.063.675.164 1.363.04 2.039-.094.504-.372.828-.454 1.316-.047.266-.308.422-.57.422"/><path fill="#5789c7" d="M110.516 110.191c-.801 0-1.57-.382-2.04-1.054.22-.989.32-2.043.297-3.11.262-.257.57-.492.915-.675.242-.137.507-.196.769-.196.856 0 1.746.625 2.16 1.332.676 1.153.266 2.703-.887 3.38a2.453 2.453 0 0 1-1.214.323M112.523 118.426c-.382 0-.761-.14-1.082-.434a19.07 19.07 0 0 1-.425-.387c-.582-.52-.711-1.355-.547-2.074.05-.258.11-.515.16-.77.207-.94 1.05-1.406 1.894-1.406.844 0 1.688.465 1.895 1.407.05.254.11.511.16.77l.043.32.004.074c.043.617-.113 1.254-.594 1.68-.14.132-.285.261-.426.386-.32.293-.703.434-1.082.434"/><path fill="#4e78ba" d="M80.438 129.91c-1.614 0-2.942-1.808-2.02-3.445l.168-.3c.43-.77 1.246-1.173 2.062-1.173.618 0 1.235.227 1.696.688 1.07 1.07.863 3-.485 3.757l-.3.168c-.375.211-.758.305-1.121.305"/><path fill="#466aa9" d="M67.605 143.742c-.378 0-.77-.094-1.148-.308a3.524 3.524 0 0 1-.594-.375c-1.308-.918-1.707-2.75-.508-3.957a2.384 2.384 0 0 1 1.696-.715c.863 0 1.719.453 2.261 1.23.145.18.27.38.372.586.945 1.684-.422 3.54-2.079 3.54"/><path fill="#4e78ba" d="M276.73 137.332c-2.652 0-2.644-4.113 0-4.113 2.649 0 2.645 4.113 0 4.113M274.324 144.93c0-.04.004-.086.012-.133.129-1.102.726-1.809 1.469-2.121-.493.762-.985 1.52-1.48 2.254"/><path fill="#3d5fa9" d="M276.73 147.95c-1.05 0-2.226-.84-2.449-1.919a44.473 44.473 0 0 0 2.535 1.918h-.086"/><path fill="#446bba" d="M276.816 147.95a44.473 44.473 0 0 1-2.535-1.919 1.746 1.746 0 0 1-.023-.554c.023-.18.043-.36.066-.547.496-.735.988-1.493 1.48-2.254.29-.125.61-.188.926-.188 1.106 0 2.22.77 2.395 2.309.023.226.05.453.074.68.145 1.304-1.187 2.418-2.383 2.472"/><path fill="#3b5da9" d="M219.613 267.973c-2.113 0-2.86-2.875-1.07-3.95l.297-.175a1.53 1.53 0 0 1 .773-.207c.274 0 .543.07.774.207l.297.175c1.8 1.079 1.043 3.95-1.07 3.95M227.828 261.203c-.234 0-.469-.047-.707-.14-.3-.122-.605-.243-.914-.368-1.945-.777-1.937-3.187 0-3.965l.914-.367a1.91 1.91 0 0 1 .707-.136c1.25 0 2.383 1.261 2.383 2.488 0 1.223-1.125 2.488-2.383 2.488"/><path fill="#b4c9e5" d="M232.938 210.121c-2.04 0-4.481-1.613-7.075-5.668-2.68-4.21-2.93-10.953-1.14-14.914.109 1.055 1.23 1.777 2.254 1.777.785 0 1.515-.421 1.71-1.441.278-1.414-.89-2.535-2.058-2.535-.152 0-.3.02-.45.055.723-.672 1.579-1.063 2.567-1.063 1.738 0 3.879 1.191 6.39 4.11 6.083 7.097 3.5 19.687-2.198 19.68m-5.165-11.677c-2.726 0-2.73 4.239 0 4.239 2.727 0 2.735-4.239 0-4.239"/><path fill="#b9cde8" d="M227.773 202.684c-2.73 0-2.726-4.239 0-4.239 2.735 0 2.727 4.239 0 4.239M226.977 191.316c-1.024 0-2.145-.722-2.254-1.777.39-.863.879-1.598 1.457-2.144.148-.036.297-.055.449-.055 1.168 0 2.336 1.12 2.059 2.535-.196 1.02-.926 1.441-1.711 1.441"/><path fill="#acbbd6" d="M213.316 166.824c.118-.949.59-1.808 1.387-2.445.613-.488 1.492-.785 2.352-.785.613 0 1.218.148 1.707.492.246.176.472.355.695.543a7.57 7.57 0 0 0-.789-.04c-1.805 0-3.598.653-5.352 2.235"/><path fill="#b0c1de" d="M218.496 176.441a10.237 10.237 0 0 1-3.422-4.285c-.097-.23-.148-.449-.226-.676-.653-1.035-1.192-2.113-1.457-3.261a4.125 4.125 0 0 1-.075-1.395c1.754-1.582 3.547-2.234 5.352-2.234.266 0 .527.012.789.039 1.09.926 1.887 2 2.695 3.234l1.97 3.032c-2.567.156-4.661 2.14-5.626 5.546"/><path fill="#b4c9e5" d="M220.895 177.367a3.458 3.458 0 0 1-1.907-.59 9.066 9.066 0 0 1-.492-.336c.965-3.406 3.059-5.39 5.625-5.546l.297.453c1.738 2.675-.758 6.02-3.523 6.02M102.598 114.719c-.5 0-1.04-.059-1.61-.18-9.574-2.07-6.754-17.988.805-17.988.344 0 .7.031 1.062.101.418.082.844.203 1.286.383 2.925 1.184 4.562 5.13 4.632 8.992-.683.688-.992 1.602-.55 2.657.07.164.152.312.254.453-.688 3.113-2.594 5.582-5.88 5.582"/><path fill="#b9cde8" d="M108.477 109.137a2.33 2.33 0 0 1-.254-.453c-.442-1.055-.133-1.97.55-2.657a13.13 13.13 0 0 1-.296 3.11"/><path fill="#b4c9e5" d="M106.844 131.117c-.281 0-.555-.035-.817-.113.676-1.754-.183-4.172-2.59-4.23.133-2.098 1.82-3.669 3.774-3.669.484 0 .98.098 1.473.31 1.078.452 1.886 1.308 2.203 2.456.39 1.418-.106 2.606-.98 3.695-.25.36-.575.645-.973.86-.633.254-.938.379-.914.379.02 0 .128-.04.343-.114a2.978 2.978 0 0 1-1.52.426"/><path fill="#b9cde8" d="M106.027 131.004a3.284 3.284 0 0 1-2.097-1.852c-.004 0-.133-.308-.383-.922-.117-.44-.156-.898-.117-1.351 0-.035 0-.07.007-.106 2.407.059 3.266 2.477 2.59 4.23"/><path fill="#7996c7" d="m119.688 117.57-.004-.007-.008-.07c.008.023.008.054.011.077"/><path fill="#7996c7" d="M118.828 120.11a30.276 30.276 0 0 0-.242-4.184c.55.347.98 1.008 1.098 1.636a.03.03 0 0 1 .004.012c.019.145.042.297.058.442.02-.137-.027-.29-.058-.442v-.004c.269 1.012-.145 1.95-.86 2.54"/><path fill="#80a3d2" d="M117.121 120.738c-.414 0-.836-.105-1.23-.34-1.848-1.074-1.598-4.203.617-4.707.27-.062.484-.086.691-.086.235 0 .469.028.77.075.219.035.422.125.617.246.176 1.367.258 2.773.242 4.183a2.718 2.718 0 0 1-1.707.63"/><path fill="#90a8d1" d="M119.746 118.016c-.016-.145-.039-.297-.058-.442.03.153.078.305.058.442m-.058-.442s0-.004-.004-.011l.004.007v.004"/><path fill="#a1abc4" d="M162.371 205.777a14.263 14.263 0 0 1-.883-1.148c.184 0 .356-.047.508-.133.168.383.344.774.524 1.164l-.149.117m-2.738-5.379a15.8 15.8 0 0 1-.457-3.52c.066.653.176 1.302.332 1.946.012.524.054 1.051.125 1.574"/><path fill="#bda9bc" d="M159.508 198.824a14.46 14.46 0 0 1-.332-1.945c-.012-.64.008-1.281.066-1.922.004-.144.121-.215.23-.215.106 0 .212.07.212.215.007.25.011.508.03.758a17.63 17.63 0 0 0-.206 3.11"/><path fill="#a6b2cb" d="M161.488 204.629a13.031 13.031 0 0 1-1.855-4.23c-.07-.524-.113-1.051-.125-1.575.137.535.297 1.067.504 1.598a13.74 13.74 0 0 0 1.476 2.848c.164.41.332.816.508 1.226a1.026 1.026 0 0 1-.508.133"/><path fill="#c1b1c3" d="M161.488 203.27a13.74 13.74 0 0 1-1.476-2.848 13.722 13.722 0 0 1-.504-1.598 17.63 17.63 0 0 1 .207-3.11c.137 2.661.812 5.126 1.773 7.556"/><path fill="#a4b1c8" d="M169.633 213.148c-.028-.007-.059-.011-.082-.02-1.973-.628-3.469-1.73-4.754-3.179a18.623 18.623 0 0 0 4.836 3.2"/><path fill="#a1abc4" d="M169.664 213.148h-.031a18.623 18.623 0 0 1-4.836-3.199 17.803 17.803 0 0 1-1.32-1.707l.074-.058c1.539 1.972 3.879 3.367 6.176 4.296.351.149.27.668-.063.668"/><path fill="#a1afc8" d="M243.617 105.637a.553.553 0 0 1-.445-.215c-.754-1.067-1.192-3.508-2.086-4.652-.106-.536-.211-1.07-.32-1.606a7.26 7.26 0 0 0 .539-.125.64.64 0 0 1 .148-.016c.207 0 .426.098.516.286.91 1.851 1.847 3.816 2.094 5.87.035.305-.2.458-.446.458m-11.265-5.051c-.063 0-.098-.047-.098-.102 0-.05.031-.105.098-.105h.117c1.62 0 3.148-.559 4.742-.777.531-.079 1.066-.13 1.601-.184-1.41.273-2.808.605-4.187.996h-.418c-.594 0-1.203.035-1.832.172h-.023"/><path fill="#9facc8" d="M241.086 100.77c-.246-.313-.531-.528-.863-.586a3.433 3.433 0 0 0-.61-.055c-1.004 0-2.164.328-3.117.332h-.117c-.375 0-.742-.012-1.102-.023-.214-.004-.437-.016-.652-.024a50.962 50.962 0 0 1 4.188-.996 21.34 21.34 0 0 0 1.953-.254c.109.535.214 1.07.32 1.606"/><path fill="#a1afc8" d="M250.73 108.93c1.422-1.5 2.977-2.899 4.622-4.239a.771.771 0 0 1 .484-.187c.156 0 .32.066.465.187.914.793 1.793 1.59 2.613 2.45a12.19 12.19 0 0 0-1.465-.094 6.92 6.92 0 0 0-.64.023c-.25-.246-.485-.433-.672-.507a1.621 1.621 0 0 0-.586-.11c-.918 0-1.86.734-2.688 1.531-.347.157-.68.336-.988.532-.387.12-.766.261-1.145.414"/><path fill="#9facc8" d="M244.547 120.23c-.164 0-.328-.132-.266-.347 1.196-4.324 3.52-7.856 6.45-10.953.378-.153.757-.293 1.144-.414a6.325 6.325 0 0 0-.55.39c-1.548 1.223-2.747 2.965-3.298 4.875-1.25 1.957-2.289 4.063-3.191 6.254a.314.314 0 0 1-.29.195"/><path fill="#a6b6ce" d="M251.875 108.516c.309-.196.64-.375.988-.532l-.347.348c-.22.055-.426.117-.641.184"/><path fill="#a5b3ce" d="M248.027 113.781c.551-1.91 1.75-3.652 3.297-4.875.176-.136.356-.27.551-.39.215-.067.422-.13.64-.184-.35.356-.671.707-.945.984a27.451 27.451 0 0 0-3.543 4.465"/><path fill="#b1c0db" d="M261.043 109.68c-.031-.032-.066-.059-.094-.082.024.02.051.043.082.058 0 .004.004.016.012.024"/><path fill="#a6b6ce" d="M261.031 109.656c-.031-.015-.058-.039-.082-.058-.91-.762-2.012-1.254-3.215-1.496a14.62 14.62 0 0 0-.925-1.032 6.92 6.92 0 0 1 .64-.023c.488 0 .985.035 1.465.094a23.037 23.037 0 0 1 2.117 2.515"/><path fill="#afbddb" d="M260.906 110.734a.357.357 0 0 1-.207-.07c-.71-.477-1.398-.957-2.039-1.527-.18-.164-.43-.453-.71-.785 1.163.156 2.144.605 3 1.246.027.023.062.05.093.082.094.12.176.25.262.379.203.289-.086.675-.399.675"/><path fill="#a5b3ce" d="M260.95 109.598c-.856-.641-1.837-1.09-3-1.246-.071-.082-.141-.165-.216-.25 1.204.242 2.305.734 3.215 1.496"/><path fill="#a3b1cb" d="M54.621 122.98c-.012-1.652 0-3.308.059-4.968a.322.322 0 0 1 .238-.309c.695-.191 1.387-.387 2.086-.566-.2.386-.39.777-.57 1.168-.524.347-.922.87-1.125 1.71a8.754 8.754 0 0 0-.211 1.54c-.168.472-.325.949-.477 1.425"/><path fill="#a1afc8" d="M54.684 132.734h-.016c.07-3.25-.023-6.5-.047-9.754.152-.476.309-.953.477-1.425-.106 1.695.113 3.601.023 5.156-.11 2.008-.39 4.004-.437 6.023m1.75-14.43c.18-.39.37-.78.57-1.167 3.176-.832 6.36-1.555 9.625-1.992.008 0 .02-.004.031-.004.246 0 .266.398.031.468a65.536 65.536 0 0 1-6.39 1.707c-1.438.317-2.88.332-3.867.989"/><path fill="#acbbd6" d="M47.563 136.527a141.521 141.521 0 0 1-7.325-2.976c.473.094.961.18 1.469.273 2.418.45 4.254 1.446 5.855 2.703"/><path fill="#a1afc8" d="M51.86 138.008a.177.177 0 0 1-.063-.012 96.857 96.857 0 0 1-4.234-1.469c-1.602-1.257-3.438-2.254-5.856-2.703-.508-.094-.996-.18-1.469-.273a219.779 219.779 0 0 1-3.793-1.696c-.191-.085-.086-.39.102-.39.016 0 .039.004.058.012 5.208 1.789 10.391 3.742 15.356 6.128.203.094.09.403-.102.403M54.93 136.5c-.086 0-.168-.047-.188-.148-.25-1.59.16-3.075.332-4.641.012-.078.07-.117.13-.117.058 0 .112.035.112.117.004 1.566.25 3.098-.171 4.64-.028.094-.13.149-.215.149"/><path fill="#a4b1c8" d="M183.695 170.875c.094-.059.18-.117.274-.176l.008.043c-.09.047-.188.086-.282.133"/><path fill="#aec4eb" d="m181.285 172.426-.187-.145c.582-1.144 1.504-1.75 2.82-1.761l.05.18c-.093.058-.179.116-.273.175-.851.402-1.707.945-2.41 1.55"/><path fill="#a4b1c8" d="M201.922 172.11a75.086 75.086 0 0 0-1.164-2.208c.496.618.875 1.364 1.164 2.207m-1.938-3.011c-1.132-.145-2.25-.489-3.28-.942-.24-.101-.134-.508.105-.508h.027c.375.047.746.11 1.113.192a7.06 7.06 0 0 1 2.035 1.258"/><path fill="#aec4eb" d="M203.383 189.61c-.133 0-.266-.118-.227-.301.926-3.844 1.703-7.598.867-11.536-.43-2.03-1.203-3.867-2.101-5.664-.29-.843-.668-1.59-1.164-2.207-.14-.25-.281-.511-.418-.77-.117-.003-.242-.023-.356-.034a7.06 7.06 0 0 0-2.035-1.258c.696.152 1.383.367 2.04.64l-.11-.21.023-.016.215.277c.192.078.39.125.57.219.18.094.11.371-.074.402 4.282 5.254 5.348 14.157 3.004 20.286a.238.238 0 0 1-.234.171M209.258 213.094c-.164 0-.317-.106-.309-.32.098-2.81.54-5.157-.187-7.97-.774-2.972-2.149-5.593-4.317-7.784l.035-.036c3.961 3.77 7.262 10.34 5.125 15.883a.369.369 0 0 1-.347.227"/><path fill="#a4b1c8" d="M169.988 165.555a49.716 49.716 0 0 0-3.023-1.828 28.394 28.394 0 0 1 3.023 1.828"/><path fill="#aec4eb" d="M173.34 167.957a51.839 51.839 0 0 0-3.352-2.402 28.394 28.394 0 0 0-3.023-1.828 54.958 54.958 0 0 0-7.57-3.48l.054-.196c5.074 1.676 9.852 4.426 13.969 7.828l-.078.078"/><path fill="#a2abc4" d="M145.629 214.102c-4.04-1.149-7.61-3.211-11.242-5.332l-.102-.38.055-.097c.117.047.226.098.336.144.398.172.781.34 1.16.52.39.45.91.84 1.266 1.113 2.027 1.551 4.523 2.524 7.02 3.32.503.258 1.007.497 1.507.712"/><path fill="#a4b1c8" d="M135.836 208.957c-.379-.18-.762-.348-1.16-.52-.414-.183.558-1.625 2.14-3.542-.09.164-.171.328-.257.492-.282.535-1.246 1.828-1.27 2.351-.02.426.219.84.547 1.219"/><path fill="#a2aec8" d="M134.676 208.438c-.11-.047-.219-.098-.336-.145 1.555-2.762 3.238-5.45 4.867-8.168l.043.023c-.828 1.579-1.621 3.168-2.434 4.747-1.582 1.917-2.554 3.359-2.14 3.542M147.121 214.48a28.709 28.709 0 0 1-1.492-.378c-.5-.215-1.004-.454-1.508-.711 1.027.332 2.055.636 3.043.933l-.043.156"/><path fill="#a2abc4" d="M168.602 231.496a.296.296 0 0 1-.141-.043c1.156-.308 2.238-.601 3.254-.887-1.008.305-2.016.598-3.012.91a.312.312 0 0 1-.101.02"/><path fill="#a4b1c8" d="M168.8 230.84a31.4 31.4 0 0 0-.519-.586c.188.168.375.344.555.52.094-.036.187-.07.277-.102-.101.058-.207.113-.312.168"/><path fill="#a2aec8" d="M168.46 231.453c-.183-.121-.202-.476.08-.57l.093-.035c-4.055-2.075-7.258-6.567-9.375-10.457l.031-.02a34.142 34.142 0 0 0 4.508 5.934c1.39 1.453 3.004 2.613 4.484 3.949.18.2.356.394.52.586.105-.055.21-.11.312-.168 2.496-.895 5.012-1.914 7.61-2.43.015 0 .027-.004.047-.004.21 0 .347.301.12.414-1.64.797-3.406 1.375-5.175 1.914-1.016.286-2.098.579-3.254.887"/><path fill="#a1afc8" d="M24.82 131.332c-.675-2.191-1.574-5.246.188-7.219.777-.875 1.781-1.133 2.851-1.133.723 0 1.48.118 2.22.235.745.117 1.476.226 2.14.226h.082c.336 0 .398.512.074.594a4.02 4.02 0 0 1-1.055.13c-.578 0-1.152-.095-1.722-.18-.578-.094-1.149-.18-1.715-.18-.465 0-.93.062-1.387.238-3.023 1.184-2.34 4.848-1.648 7.281l-.028.008M38.402 113.969c-1.28-1.54.141-3.422 1.559-4.274.906-.539 1.887-.761 2.887-.761 1.644 0 3.332.601 4.777 1.351.156.082.07.309-.082.309-.016 0-.027 0-.047-.004-1.601-.473-3.207-1.25-4.91-1.25-.188 0-.371.008-.566.031-2.575.274-3.5 2.254-3.524 4.555l-.094.043"/><path fill="#acbbd6" d="M75.809 153.535c-1.063 0-1.172-1.472-.332-1.777.312.5.652.996 1 1.48a.839.839 0 0 1-.668.297"/><path fill="#b0c1de" d="M76.477 153.238c-.348-.484-.688-.98-1-1.48a.968.968 0 0 1 .332-.059c.879 0 1.101 1.02.668 1.54M255.91 82.086a68.566 68.566 0 0 1 2.043-1.102.4.4 0 0 1 .195-.046c.16 0 .301.105.372.28.035.098.082.204.12.302h-.148c-.816 0-1.707.234-2.582.566"/><path fill="#a1afc8" d="M261.102 88.668c-.067 0-.125-.023-.153-.094-.676-1.328-1.199-2.777-1.898-4.09-.328-.609-.832-2.101-1.68-2.195h-.027c-.438 0-1.61.957-1.977 1.172a148.69 148.69 0 0 1-9.226 4.898l-.016-.023c3.16-2.191 6.414-4.363 9.785-6.25.875-.332 1.766-.566 2.582-.566h.149c.921 2.3 1.89 4.55 2.656 6.91.043.132-.078.238-.195.238"/><path fill="#b4c9e5" d="M201.254 113.605c-.258 0-.516-.039-.742-.128.082-.04.16-.09.234-.145 1.117-.828 1.117-2.215 0-3.039a2.94 2.94 0 0 0-.64-.352 3.288 3.288 0 0 0-1.02-.437c.476-.723 1.328-1.23 2.168-1.23.687 0 1.387.343 1.879.863-.04.203-.059.422-.047.636.031.645.23 1.258.562 1.77-.32.781-.625 1.219-1.324 1.762-.262.203-.664.3-1.07.3"/><path fill="#b9cde8" d="M203.648 111.543a3.576 3.576 0 0 1-.562-1.77 2.647 2.647 0 0 1 .047-.636c.582.617.887 1.48.55 2.324-.011.031-.023.055-.035.082M200.512 113.477a1.22 1.22 0 0 1-.325-.172c-.707-.543-1.027-1.008-1.359-1.844-.273-.688-.129-1.387.258-1.957.355.09.691.223 1.02.437.222.094.437.2.64.352 1.117.824 1.117 2.21 0 3.039a1.456 1.456 0 0 1-.234.145"/><path fill="#b4c9e5" d="M200.238 122.219c-1.582 0-1.582-2.453 0-2.453 1.578 0 1.575 2.453 0 2.453M206.332 124.992c-.238 0-.5-.133-.758-.476-.863-1.149-2.156-1.704-3.402-2.32-.203-.106-.082-.387.113-.387.028 0 .063.007.098.023 1.16.586 2.25 1.18 3.523 1.297.25.418.66.75 1.219.89.023.004.05.012.082.016-.008.012-.008.024-.008.035-.07.461-.426.922-.867.922"/><path fill="#b9cde8" d="M207.207 124.035c-.031-.004-.059-.012-.082-.015a1.944 1.944 0 0 1-1.219-.891c.145.012.293.016.442.016h.007c.68 0 .903.44.852.89"/><path fill="#b4c9e5" d="M224.746 223.879c.344-.676.996-1.176 1.969-1.188-.66.356-1.3.739-1.918 1.153-.016.011-.035.023-.05.035"/><path fill="#aec0e5" d="M226.754 227.41c-2.043 0-2.715-2.133-2.008-3.531l.05-.035a23.078 23.078 0 0 1 1.919-1.153h.039c3.043 0 3.035 4.72 0 4.72"/><path fill="#aabade" d="M234.918 227.648c-.66 0-1.11-.332-1.34-.78.367-.52.715-1.09 1.043-1.723.11-.211.219-.426.324-.653 2.004.035 1.989 3.156-.027 3.156"/><path fill="#aec0e5" d="M233.578 226.867c-.484-.93-.035-2.375 1.34-2.375h.027c-.105.227-.215.442-.324.653a14.685 14.685 0 0 1-1.043 1.722"/><path fill="#b9cde8" d="M231.852 219.633a.635.635 0 0 1-.348-.102c-.672-.426-.637-.883-.637-1.625 0-.633.488-.953.985-.953.496 0 .992.32.992.953 0 .742.027 1.2-.637 1.625a.642.642 0 0 1-.355.102"/><path fill="#b0c1de" d="M120.672 126.426c-.7 0-1.375-.492-1.375-1.352 0-.863.676-1.347 1.375-1.347.308 0 .625.093.879.296l.152.012c1.336.102 1.328 1.977 0 2.074l-.144.012a1.452 1.452 0 0 1-.887.305M106.219 145.898c-1.68-.187-1.617-2.89.187-2.89 1.453 0 1.774 1.754.961 2.535-.379.121-.762.238-1.148.355"/><path fill="#abbbde" d="M106.406 145.91c-.062 0-.129-.008-.187-.012.386-.117.77-.234 1.148-.355-.226.219-.55.367-.96.367"/><path fill="#b4c9e5" d="M93.145 133.328c-1.442 0-1.434-2.23 0-2.23 1.437 0 1.437 2.23 0 2.23"/><path fill="#b0c1de" d="M278.582 106.418c-.187 0-.383-.031-.605-.102-.211-.07-.422-.132-.625-.203-1.422-.449-1.422-2.433 0-2.89l.625-.196c.222-.07.425-.101.609-.101.969 0 1.453.867 1.453 1.742-.008.875-.492 1.75-1.457 1.75"/><path fill="#4d9846" d="M286.102 240.379a2.77 2.77 0 0 1-1.403-.383c-1.5-.879-2.012-3.293-.578-4.504.695-.594 1.55-1.05 2.422-1.05.426 0 .852.105 1.266.351 1.195.7 1.484 2.262 1.105 3.488-.394 1.27-1.57 2.098-2.812 2.098M302.77 233.266c-.153 0-.297-.024-.446-.082l-.23-.086c-1.395-.532-1.395-2.309 0-2.84l.23-.086c.149-.05.293-.082.446-.082.8 0 1.53.793 1.53 1.59 0 .8-.73 1.586-1.53 1.586M286.93 232.684c-1.953 0-1.946-3.032 0-3.032 1.949 0 1.945 3.032 0 3.032M283.328 232.305c-.265 0-.539-.078-.793-.239l-.18-.125c-.953-.629-.953-1.933 0-2.562l.18-.121a1.42 1.42 0 0 1 .793-.238c.848 0 1.656.738 1.656 1.64 0 .899-.808 1.645-1.656 1.645M284.95 226.805c-.997 0-1.493-.875-1.493-1.754 0-.88.5-1.762 1.496-1.762.059 0 .125 0 .188.012l.257.023c2.211.238 2.211 3.211 0 3.446l-.257.027c-.063.008-.13.008-.192.008M124.762 44.613c-.301 0-.606-.074-.832-.23l-.11-.07c-.757-.508-.992-1.235-.863-2.11l.04-.25c.128-.875.944-1.312 1.765-1.312.816 0 1.636.437 1.765 1.312l.035.25c.133.875-.085 1.598-.855 2.11l-.113.07c-.227.156-.528.23-.832.23M120.906 38.375c-1.437 0-3.035-1.383-2.027-3.105.418-.723 1.047-1.028 1.676-1.028 1.226 0 2.453 1.149 2.14 2.637-.222 1.059-.98 1.496-1.789 1.496M128.332 41.691c-2.324 0-2.316-3.601 0-3.601 2.32 0 2.32 3.601 0 3.601M132.945 44.36c-1.293 0-2.492-.946-2.492-2.426 0-1.485 1.2-2.43 2.492-2.43.41 0 .828.094 1.223.293l.2.105c1.53.782 1.53 3.278 0 4.059l-.2.105c-.395.2-.813.293-1.223.293M145.668 50.414c-2.383 0-2.375-3.703 0-3.703 2.383 0 2.383 3.703 0 3.703"/><path fill="#3b7b40" d="M210.434 30.457c-2.297 0-2.297-3.57 0-3.57 2.3 0 2.3 3.57 0 3.57"/></svg>