<svg xmlns="http://www.w3.org/2000/svg" width="426" viewBox="0 0 319.5 243" height="324" version="1.0"><defs><clipPath id="a"><path d="M155.898 77.809h6.797v6.796h-6.797zm0 0"/></clipPath><clipPath id="b"><path d="M159.297 77.809a3.398 3.398 0 1 0 0 6.797 3.398 3.398 0 0 0 0-6.797zm0 0"/></clipPath><clipPath id="c"><path d="M178 .191h68V69h-68zm0 0"/></clipPath></defs><g clip-path="url(#a)"><g clip-path="url(#b)"><path fill="#62b433" d="M155.898 77.809h6.797v6.796h-6.797zm0 0"/></g></g><path fill="#e65329" d="M21.555 211.34c-5.153 0-8.25-1.285-9.215-3.82-1.547-4.086 2.87-10.66 13.515-20.094.508-.438 49.946-43.09 80.551-64.98 14.223-10.176 85.66-60.919 95.387-60.919.11 0 .207.004.305.016 4.949.496 16.054 7.336 22.902 17.36 5.598 8.195 7.305 17.015 4.934 25.507-2.942 10.524-57.375 40.09-89.563 56.778-43.121 22.355-90.687 44.527-101.8 47.44-6.743 1.774-12.63 2.712-17.016 2.712"/><path fill="#522622" d="M201.793 60.555c-1.629 0-5.953 0-40.02 22.468-22.367 14.754-46.566 31.934-55.933 38.63-30.64 21.917-80.113 64.6-80.61 65.03-11.152 9.887-15.535 16.61-13.796 21.18 1.117 2.953 4.523 4.45 10.12 4.45 4.47 0 10.438-.95 17.262-2.739 11.168-2.933 58.832-25.14 102-47.523 24.36-12.63 45.239-24.219 60.383-33.516 24.887-15.281 28.852-20.937 29.672-23.863 2.45-8.777.695-17.879-5.07-26.317-7.004-10.257-18.473-17.265-23.602-17.78a4.426 4.426 0 0 0-.406-.02zm0 1.945.207.008c7.254.726 33.453 18.52 27 41.64-4.867 17.41-169.105 97.883-190.68 103.543-6.343 1.668-12.258 2.68-16.765 2.68-10.813 0-13.578-5.8 4.945-22.219 0 0 49.547-42.8 80.473-64.918 30.636-21.914 86.742-60.734 94.82-60.734"/><path fill="#b7442c" d="M229 104.148c6.453-23.12-19.746-40.914-27-41.64-.7-.067-1.855.238-3.41.855 16.555 15.887 7.867 30.344 6.887 31.64-1.047 1.392-17.016 10.677-20.118 13.688-3.097 3.012-31.597 19.118-43.23 22.422-11.637 3.301-36.777 21.82-40.211 24.282-3.441 2.457-30.613 17.007-33.781 18.652-3.164 1.644-32.754 19.707-38.086 20.285-2.192.238-3.531-2.348-4.344-5.465-25.102 22.586-8.723 24.43 12.613 18.824 21.575-5.66 185.813-86.132 190.68-103.543"/><path fill="#8f3125" d="M216.988 97.129c-8.687 9.422-180.41 104.238-189.847 106.164-5.262 1.07-9.047-1.45-11.371-3.895-8.903 12.485 5.183 12.86 22.55 8.293 21.575-5.66 185.813-86.132 190.68-103.543 4.219-15.101-5.5-27.933-14.77-35.218 6.36 11.316 8.563 21.902 2.758 28.199"/><path fill="#f89e49" d="M194.035 70.305s9.172 12.343 6.016 15.105c-3.156 2.762-9.692 4.16-16.817 5.063-7.12.902-4.101 5.894-5.222 6.851-1.125.965-21.004 16.45-24.04 16.13-3.03-.317-5.988-.513-6.613-.138-.625.38 1.407 5.145-.976 5.434-2.38.29-7.5 1.684-8.75 1.02-1.254-.66-5.281-7.31-3.078-9.782 2.199-2.465 5.843 2.149 6.539.02.707-2.125 1.879-10.512 4.922-10.645 3.043-.136 9.39 4.258 10.382 1.672.993-2.586 8.813-14.066 14.04-16.7 5.222-2.624 8.699 2.653 10.488.435 1.777-2.211 9.031-20.782 13.11-14.465M122.617 117.492s8.645 9.582 6.996 11.555c-1.648 1.969-6.625-2.973-7.746-2.008-1.12.965 2.813 4.184 1.965 5.59-.855 1.406-3.867-2.164-4.7-1.664-.831.504 2.145 6.37-.058 7.422-2.203 1.05-2.941 2.644-4.984 3.023-2.043.375-2.942 4.992-5.676 3.762-2.734-1.238-7.523-11.02-8.734-6.926-1.223 4.09 2.87 13.191-.157 13.352-3.023.164-5.507-6.286-7.21-4.403-1.7 1.883 2.023 6.16-.262 7.54-2.285 1.382-5.965-2.352-7.668-.47-1.703 1.88-4.094 4.508-5.29 5.348-1.19.84-7.507 4.953-10.261 4.633-2.75-.328-3.137 2.79-4.703 4.422-1.567 1.637-3.399 1.894-5.152 1.816-1.75-.074-4.5 6.172-7.11 5.606-2.617-.567-1.37-4.606 1.242-6.387 2.61-1.789 6.746-2.46 8.106-4.91 1.36-2.445 3.844-7.258 6.863-7.43 3.02-.172 1.445 1.918 5.012-1.093 3.578-3.02 7.457-8.34 9.933-10.34 2.489-2.004 5.286-4.407 7.075-4.282 1.78.13 3.582 3.114 3.55.247-.035-2.872 2.618-7.883 5.739-8.356 3.12-.469 6.246 5.156 7.355 3.707 1.117-1.445-2.566-5.18-1.078-6.937 1.496-1.754 3.852.941 4.656-.899.797-1.828.743-5.207 2.32-5.879 1.587-.672 7.61-5.738 9.977-6.039"/><path fill="#522622" d="M180.324 80.023s1.332 1.516 3.11 3.922a109.978 109.978 0 0 1 2.941 4.176c.516.777 1.07 1.57 1.59 2.399l1.586 2.52c.508.855 1.015 1.71 1.515 2.558.508.836.961 1.691 1.426 2.5.465.808.883 1.609 1.29 2.367.405.75.738 1.512 1.058 2.191 1.281 2.735 1.965 4.602 1.965 4.602s-1.278-1.594-2.942-4.059c-.41-.617-.855-1.285-1.332-1.988-.488-.707-1.004-1.445-1.508-2.23-.503-.782-1.054-1.575-1.562-2.41-.52-.829-1.04-1.676-1.57-2.516a366.06 366.06 0 0 0-1.524-2.547c-.508-.836-.972-1.684-1.441-2.485a112.554 112.554 0 0 1-2.434-4.488c-1.383-2.656-2.168-4.512-2.168-4.512M149.117 94.633s.227.215.59.605c.363.395.875.961 1.438 1.672.578.711 1.203 1.559 1.851 2.48a56.897 56.897 0 0 1 3.66 6.036 43.064 43.064 0 0 1 1.332 2.793 28.7 28.7 0 0 1 .817 2.05c.18.504.261.805.261.805s-.226-.215-.593-.605a28.689 28.689 0 0 1-1.438-1.672 45.866 45.866 0 0 1-1.855-2.477 58.09 58.09 0 0 1-1.922-2.965 51.568 51.568 0 0 1-1.727-3.078 46.517 46.517 0 0 1-1.336-2.789 29.827 29.827 0 0 1-.82-2.05c-.18-.508-.258-.805-.258-.805M118.512 121.969s.593.351 1.258 1.011c.695.645 1.46 1.606 2.09 2.641.628 1.043 1.124 2.16 1.374 3.074.278.899.309 1.586.309 1.586.004 0-.59-.351-1.258-1.008-.695-.644-1.457-1.605-2.09-2.644-.625-1.043-1.12-2.16-1.375-3.07-.273-.899-.304-1.59-.308-1.59M103.129 131.277s1.043 1.094 2.379 2.864c.683.882 1.437 1.93 2.21 3.074.38.578.798 1.16 1.177 1.777.382.617.773 1.242 1.168 1.86.37.64.742 1.277 1.109 1.898.375.621.695 1.262 1.031 1.867a59.42 59.42 0 0 1 1.695 3.383c.95 2.008 1.434 3.441 1.434 3.441s-1.043-1.093-2.383-2.863a60.359 60.359 0 0 1-2.21-3.074c-.384-.578-.798-1.16-1.177-1.781-.382-.614-.769-1.239-1.16-1.864-.375-.632-.746-1.27-1.113-1.894-.371-.625-.695-1.262-1.027-1.863a65.675 65.675 0 0 1-1.703-3.383c-.946-2.012-1.43-3.442-1.43-3.442M68.078 157.363s.176.16.445.469c.274.3.645.742 1.047 1.293.414.55.848 1.21 1.293 1.93.438.722.867 1.507 1.27 2.312.394.801.762 1.625 1.07 2.41.3.79.563 1.536.746 2.196.2.656.317 1.222.395 1.62.074.4.101.637.101.637s-.175-.16-.445-.464a15.132 15.132 0 0 1-1.047-1.297 23.445 23.445 0 0 1-1.293-1.926 33.11 33.11 0 0 1-1.27-2.316 33.862 33.862 0 0 1-1.07-2.415c-.297-.789-.562-1.535-.746-2.195A17.246 17.246 0 0 1 68.18 158c-.078-.398-.102-.637-.102-.637M72.61 161.098s.199.168.511.476c.317.313.75.758 1.227 1.328.492.555 1.015 1.239 1.554 1.98a36.91 36.91 0 0 1 2.973 4.906c.406.821.766 1.603 1.031 2.298.281.684.477 1.277.61 1.703.125.418.18.668.18.668s-.2-.16-.512-.469a18.687 18.687 0 0 1-1.227-1.328 29.662 29.662 0 0 1-1.559-1.98 36.38 36.38 0 0 1-1.574-2.399 35.127 35.127 0 0 1-1.39-2.511 30.952 30.952 0 0 1-1.036-2.293 19.657 19.657 0 0 1-.605-1.704c-.125-.421-.184-.675-.184-.675M90.387 166.531s.558.305 1.18.887c.648.566 1.343 1.422 1.913 2.355.567.938 1 1.954 1.204 2.786.23.824.23 1.46.23 1.46s-.562-.3-1.184-.878c-.648-.57-1.343-1.426-1.914-2.36-.558-.937-.996-1.953-1.199-2.789-.226-.82-.23-1.46-.23-1.46M45.797 177.328s.234.227.617.649c.379.425.914 1.03 1.504 1.789.61.754 1.266 1.66 1.953 2.644a63.465 63.465 0 0 1 2.04 3.145 67.415 67.415 0 0 1 1.847 3.265 52.985 52.985 0 0 1 1.43 2.953c.398.875.687 1.633.886 2.165.196.535.285.855.285.855s-.234-.23-.62-.652a32.544 32.544 0 0 1-1.509-1.79 55.324 55.324 0 0 1-1.953-2.64 68.612 68.612 0 0 1-2.027-3.149 64.277 64.277 0 0 1-1.848-3.265c-.547-1.067-1.047-2.067-1.433-2.953a32.77 32.77 0 0 1-.883-2.168c-.2-.531-.29-.848-.29-.848M39.969 179.434s.582.332 1.23.96c.68.618 1.414 1.54 2.02 2.54.61 1 1.082 2.078 1.312 2.964.258.872.282 1.54.282 1.54s-.586-.333-1.235-.961c-.676-.618-1.41-1.54-2.02-2.54-.601-1-1.074-2.085-1.308-2.964-.258-.871-.281-1.54-.281-1.54M38.973 183.89s.183.137.468.4c.286.26.676.636 1.102 1.12.437.48.906 1.063 1.383 1.7a28.78 28.78 0 0 1 2.574 4.25c.34.722.645 1.402.863 2.011.227.602.38 1.125.477 1.5.101.371.137.598.137.598s-.18-.137-.465-.399c-.285-.261-.68-.636-1.11-1.12a25.299 25.299 0 0 1-1.379-1.696 32.283 32.283 0 0 1-1.378-2.07A31.07 31.07 0 0 1 40.453 188c-.34-.719-.64-1.406-.86-2.012a14.505 14.505 0 0 1-.62-2.097M27.914 190.027s.555.29 1.172.86c.64.554 1.328 1.394 1.887 2.316.554.918.984 1.918 1.175 2.742.22.805.22 1.438.22 1.438s-.56-.293-1.173-.863c-.64-.555-1.328-1.395-1.883-2.31-.554-.925-.98-1.925-1.175-2.745-.223-.813-.223-1.438-.223-1.438M25.555 193.625s.668.484 1.457 1.336c.812.84 1.726 2.059 2.515 3.355.79 1.305 1.442 2.68 1.809 3.79.39 1.093.508 1.914.508 1.914s-.676-.48-1.461-1.336c-.813-.84-1.73-2.059-2.516-3.36-.785-1.3-1.437-2.68-1.808-3.789-.387-1.094-.504-1.91-.504-1.91M149.008 131.063s.238.23.62.652c.38.418.911 1.027 1.505 1.789a52.771 52.771 0 0 1 1.953 2.64 68.47 68.47 0 0 1 2.035 3.145 65.933 65.933 0 0 1 1.848 3.262c.55 1.07 1.047 2.07 1.433 2.957.399.879.692 1.629.883 2.168.2.535.29.847.29.847s-.24-.226-.618-.648a30.916 30.916 0 0 1-1.512-1.79 52.152 52.152 0 0 1-1.953-2.64 64.616 64.616 0 0 1-2.035-3.148 65.478 65.478 0 0 1-1.844-3.266 54.349 54.349 0 0 1-1.43-2.953 28.974 28.974 0 0 1-.882-2.164c-.203-.535-.293-.851-.293-.851M172.375 128.848s.64.433 1.379 1.21c.762.762 1.621 1.88 2.348 3.07.722 1.2 1.312 2.474 1.632 3.505a8.89 8.89 0 0 1 .426 1.781s-.64-.426-1.383-1.207c-.761-.762-1.617-1.875-2.34-3.074-.718-1.196-1.308-2.469-1.632-3.5-.344-1.016-.43-1.785-.43-1.785M184.992 124.344s.52.234 1.082.722c.586.47 1.203 1.192 1.696 1.996.484.805.84 1.692.984 2.43.168.723.129 1.297.129 1.297s-.524-.238-1.082-.719c-.59-.472-1.207-1.199-1.692-2-.484-.812-.843-1.691-.984-2.433-.168-.723-.133-1.293-.133-1.293M206.129 93.945s1.008 1.04 2.3 2.735a55.83 55.83 0 0 1 2.133 2.941c.36.55.762 1.11 1.13 1.703.367.586.742 1.188 1.117 1.785.355.61.71 1.22 1.062 1.82.36.594.664 1.212.988 1.786a57.935 57.935 0 0 1 1.618 3.25c.902 1.933 1.347 3.312 1.347 3.312s-1.008-1.039-2.304-2.73a56.767 56.767 0 0 1-2.13-2.945c-.363-.551-.765-1.106-1.124-1.7-.371-.59-.743-1.191-1.118-1.789-.355-.61-.714-1.218-1.062-1.82-.36-.594-.664-1.207-.988-1.79a57.935 57.935 0 0 1-1.618-3.25c-.898-1.933-1.351-3.308-1.351-3.308M209.586 72.54s1.215 1.378 2.816 3.577a95.086 95.086 0 0 1 2.653 3.805c.457.719.96 1.437 1.425 2.195.47.754.946 1.524 1.422 2.29.457.777.918 1.558 1.371 2.323.457.762.864 1.54 1.278 2.278a89.504 89.504 0 0 1 2.144 4.117c1.207 2.441 1.86 4.152 1.86 4.152s-1.215-1.375-2.813-3.578a83.072 83.072 0 0 1-2.652-3.804c-.461-.711-.961-1.43-1.422-2.196-.473-.75-.95-1.52-1.426-2.289-.457-.777-.914-1.555-1.37-2.324-.454-.762-.86-1.54-1.278-2.277a87.203 87.203 0 0 1-2.14-4.118c-1.208-2.441-1.868-4.152-1.868-4.152"/><path fill="#77c232" d="M225.82 88.27c-.363 0-.703-.06-1.074-.13-1.941-.374-6.113-8.214-9.273-14.722a.967.967 0 0 1 .03-.906c.29-.508 7.157-12.465 13.653-14.914a.975.975 0 0 1 1.07.266c.266.304.32.741.13 1.097l-1.88 3.527c2.157-1.933 5.06-4.246 8.766-6.625 9.074-5.828 34.594-24.25 34.852-24.433a.982.982 0 0 1 .973-.098c1.906.871 5.19 3.438 3.984 6.934a.994.994 0 0 1-.356.48l-19.433 13.77c7.043-2.703 17.531-6.477 24.75-7.973l.199-.023c.328 0 .64.171.82.457.492.777 4.742 7.707 2.45 11.343a.977.977 0 0 1-.473.387l-33.16 12.734a54.07 54.07 0 0 1 4.863-.238c3.422 0 6.43.399 8.934 1.18a.961.961 0 0 1 .57.469c.098.187 2.37 4.57-1.395 9.648a.977.977 0 0 1-.78.395h-.407c-2.992 0-18.352.168-27.2 3.5-3.398 1.277-5.558 2.16-6.992 2.742-2.086.847-2.789 1.133-3.62 1.133"/><path fill="#522622" d="M272.664 30.273c-.406 0-.805.125-1.14.368-.254.183-25.758 18.593-34.81 24.402a72.389 72.389 0 0 0-5.292 3.734 1.95 1.95 0 0 0-.465-1.554 1.947 1.947 0 0 0-2.144-.535c-6.708 2.53-13.41 14.039-14.157 15.343a1.937 1.937 0 0 0-.058 1.809c.015.035 1.718 3.543 3.632 7.047 3.942 7.222 5.204 7.988 6.336 8.21.403.075.805.145 1.254.145 1.024 0 1.828-.328 3.985-1.207 1.43-.578 3.59-1.46 6.972-2.73 8.875-3.344 25.04-3.438 26.856-3.438h.406a1.94 1.94 0 0 0 1.559-.789c4.129-5.57 1.586-10.476 1.476-10.683a1.955 1.955 0 0 0-1.137-.942c-2.363-.734-5.132-1.14-8.253-1.207l27.675-10.633c.391-.148.723-.422.946-.777 2.55-4.05-1.594-11.023-2.45-12.379a1.954 1.954 0 0 0-1.644-.906c-.129 0-.266.015-.395.043-5.195 1.074-11.925 3.261-17.918 5.41l13.356-9.465c.332-.234.582-.566.715-.953 1.437-4.156-2.317-7.14-4.5-8.137a1.955 1.955 0 0 0-.805-.176zm0 1.946s4.707 2.144 3.469 5.73l-26.04 18.457s20.34-8.472 32.118-10.914c0 0 4.476 7.09 2.45 10.309l-42.403 16.285s7.008-1.91 14.453-1.91c2.953 0 5.969.3 8.648 1.133 0 0 2.121 3.968-1.32 8.613h-.406c-2.727 0-18.48.152-27.543 3.562-8.04 3.028-9.153 3.813-10.27 3.813-.265 0-.53-.04-.89-.113-1.871-.36-8.582-14.188-8.582-14.188s6.906-12.137 13.148-14.488l-5.129 9.629s4.196-5.547 13.399-11.457c9.199-5.907 34.898-24.461 34.898-24.461"/><path fill="#4ba439" d="M282.21 45.492c-11.776 2.442-32.116 10.914-32.116 10.914l26.039-18.457c1.238-3.586-3.469-5.73-3.469-5.73s-1.344.968-3.516 2.523c1.493.875 2.887 1.867 2.668 2.418l-31.601 22.871s35.48-11.187 39.183-10.648c3.7.547.84 4.972.11 5.414-.727.441-46.895 18.016-50.93 20.734-2.875 1.942-6.16 4.57-7.805 5.926 1.668 2.945 3.356 5.57 4.157 5.727 1.87.363 1.215.046 11.16-3.7 9.945-3.742 27.95-3.562 27.95-3.562 3.44-4.645 1.32-8.613 1.32-8.613-9.45-2.942-23.102.777-23.102.777L284.66 55.8c2.027-3.219-2.45-10.309-2.45-10.309"/><path fill="#522622" d="M230.824 66.93s.035-.028.121-.082c1.266-.848 12.168-7.961 27.39-13.602a.97.97 0 0 0 .575-1.25.979.979 0 0 0-1.25-.574c-16.469 6.105-27.887 13.875-27.933 13.902a.972.972 0 1 0 1.097 1.606"/><path fill="#f6811f" d="M15.973 232.48c-2.828 0-4.727-.91-5.645-2.699-1.937-3.785 1.016-11.027 9.031-22.14.399-.54 39.297-52.985 64.356-81.047 11.816-13.235 71.222-79.32 80.023-80.387a7.42 7.42 0 0 1 .969-.059c5.832 0 18.434 4.758 26.922 13.692 6.164 6.5 9.082 13.926 8.66 22.082-.562 10.914-47.195 51.695-74.95 75.027-37.171 31.258-78.726 63.313-88.929 68.598-8.633 4.473-15.89 6.933-20.437 6.933"/><path fill="#522622" d="M164.707 45.18c-.39 0-.758.02-1.086.058-1.644.203-5.496.668-34.09 30.313-18.734 19.422-38.789 41.715-46.543 50.394-25.09 28.094-64.011 80.578-64.402 81.106-8.379 11.617-11.273 18.972-9.125 23.176.758 1.468 2.496 3.226 6.512 3.226 6.023 0 14.683-3.832 20.886-7.047 10.254-5.308 51.895-37.418 89.11-68.71 20.996-17.66 38.828-33.548 51.574-45.938 20.934-20.363 23.559-26.75 23.715-29.785.43-8.313-2.656-16.196-8.926-22.801-8.672-9.133-21.613-13.992-27.625-13.992zm0 1.941c8.434 0 35.805 11.629 34.61 34.75-.93 18.059-143.551 132.559-163.352 142.813-7.903 4.09-15.278 6.824-19.992 6.824-7.102 0-8.157-6.2 4.175-23.297 0 0 38.973-52.613 64.293-80.969 25.32-28.36 72.18-79.191 79.414-80.074.258-.031.54-.047.852-.047"/><path fill="#e55928" d="M199.316 81.871c1.239-23.969-28.222-35.586-35.46-34.703-.704.082-1.758.633-3.137 1.582 19.629 11.863 14.316 27.879 13.648 29.355-.722 1.59-14.27 14.145-16.633 17.762-2.363 3.617-26.64 25.582-37.265 31.352s-31.102 29.355-33.918 32.504c-2.813 3.152-26.137 23.3-28.867 25.601-2.735 2.301-27.641 26.41-32.715 28.137-2.094.71-3.957-1.52-5.438-4.383-19.55 27.543-3.16 25.75 16.434 15.606C55.765 214.43 198.387 99.93 199.316 81.87"/><path fill="#ba4628" d="M186.063 77.66c-6.418 11.098-153.18 141.235-161.977 145.18-4.895 2.195-9.145.566-11.941-1.309-5.954 14.133 7.87 11.414 23.82 3.153C55.765 214.43 198.387 99.93 199.316 81.87c.805-15.656-11.484-26.047-22.125-31.117 8.684 9.644 13.153 19.492 8.871 26.906"/><path fill="#f89e49" d="M157.793 56.516s11.652 10.035 9.184 13.422c-2.48 3.386-8.551 6.187-15.309 8.624-6.746 2.438-2.707 6.645-3.594 7.829-.879 1.191-16.887 20.648-19.914 21.007-3.027.352-5.957.809-6.488 1.309-.527.508 2.504 4.715.242 5.52-2.266.804-6.95 3.285-8.316 2.914-1.368-.375-6.75-5.98-5.145-8.871 1.602-2.891 6.164.816 6.379-1.41.223-2.235-.465-10.672 2.473-11.47 2.933-.8 10.093 2.098 10.496-.644.398-2.742 5.52-15.648 10.039-19.367 4.523-3.707 9.074.68 10.328-1.871 1.254-2.555 4.262-22.262 9.625-16.992M98.45 118.207s10.53 7.457 9.355 9.738c-1.176 2.285-7.114-1.445-8-.257-.887 1.183 3.668 3.464 3.136 5.023-.52 1.555-4.242-1.27-4.945-.594-.7.672 3.492 5.742 1.574 7.246-1.93 1.512-2.297 3.23-4.21 4.047-1.907.817-1.774 5.52-4.708 4.91-2.941-.601-9.75-9.101-10.043-4.84-.289 4.258 5.696 12.247 2.778 13.063-2.918.824-6.754-4.926-7.996-2.719-1.254 2.211 3.32 5.57 1.386 7.422-1.925 1.848-6.336-.992-7.582 1.219-1.246 2.207-3.004 5.289-3.984 6.375-.98 1.082-6.242 6.472-8.996 6.762-2.758.289-2.453 3.418-3.621 5.347-1.168 1.946-2.903 2.602-4.63 2.906-1.722.31-3.034 7.008-5.71 7.032-2.676.015-2.344-4.192-.188-6.512 2.157-2.313 6.047-3.875 6.836-6.559.79-2.691 2.164-7.93 5.07-8.757 2.903-.836 1.825 1.554 4.65-2.172 2.823-3.723 5.448-9.77 7.429-12.262 1.98-2.496 4.191-5.457 5.953-5.723 1.77-.27 4.183 2.25 3.527-.547-.664-2.789.824-8.257 3.766-9.402 2.941-1.144 7.223 3.66 7.988 2.004.77-1.652-3.64-4.492-2.57-6.531 1.078-2.043 3.965.07 4.34-1.895.375-1.96-.407-5.246.984-6.25 1.395-1 6.16-7.261 8.41-8.074"/><path fill="#522622" d="M146.54 69.008s1.632 1.183 3.894 3.14a113.53 113.53 0 0 1 3.789 3.43c.668.649 1.386 1.297 2.074 1.992.695.7 1.39 1.403 2.094 2.114.683.722 1.37 1.445 2.043 2.16.68.707 1.308 1.437 1.937 2.129.633.687 1.219 1.379 1.777 2.027.563.64 1.055 1.309 1.516 1.902 1.848 2.387 2.918 4.059 2.922 4.059 0 0-1.598-1.273-3.758-3.313-.535-.511-1.117-1.062-1.734-1.648-.633-.582-1.297-1.191-1.961-1.844-.664-.652-1.371-1.308-2.055-2.011-.683-.696-1.383-1.403-2.078-2.11a375.762 375.762 0 0 0-2.043-2.148c-.68-.703-1.32-1.43-1.953-2.114a108.475 108.475 0 0 1-3.36-3.84c-1.933-2.285-3.101-3.93-3.105-3.925M119.285 90.09s.274.16.715.465c.441.304 1.063.75 1.773 1.32a47.22 47.22 0 0 1 2.348 2.008 61.981 61.981 0 0 1 2.527 2.469 57.02 57.02 0 0 1 2.364 2.62 47.09 47.09 0 0 1 1.914 2.434c.543.73.957 1.367 1.242 1.824.289.454.434.73.434.73s-.266-.155-.711-.464a28.056 28.056 0 0 1-1.77-1.316 44.086 44.086 0 0 1-2.351-2.012 57.173 57.173 0 0 1-2.524-2.469 61.627 61.627 0 0 1-2.367-2.625 44.856 44.856 0 0 1-1.91-2.43c-.543-.73-.961-1.37-1.25-1.824-.281-.453-.434-.73-.434-.73M95.422 123.473s.652.215 1.45.707c.82.48 1.773 1.254 2.616 2.125.84.875 1.575 1.855 2.016 2.691.465.824.648 1.484.648 1.484s-.656-.21-1.453-.707c-.82-.476-1.77-1.25-2.613-2.125-.84-.878-1.57-1.859-2.016-2.695-.465-.816-.648-1.48-.648-1.48M82.45 135.926s1.253.836 2.952 2.27c.86.706 1.825 1.57 2.832 2.515.496.48 1.032.96 1.536 1.476.507.516 1.027 1.043 1.546 1.563.5.54 1.004 1.078 1.496 1.613.504.52.954 1.078 1.415 1.594a58.119 58.119 0 0 1 2.402 2.926c1.363 1.754 2.148 3.043 2.148 3.043s-1.257-.836-2.957-2.274a59.751 59.751 0 0 1-2.828-2.515c-.492-.48-1.031-.953-1.535-1.477l-1.543-1.562c-.5-.54-1.004-1.078-1.5-1.61-.5-.523-.953-1.078-1.414-1.593a61.995 61.995 0 0 1-2.398-2.93c-1.364-1.754-2.153-3.04-2.153-3.04M53.973 169.059s.203.12.535.359c.332.238.797.582 1.308 1.035.52.442 1.09.992 1.68 1.594.582.613 1.18 1.281 1.746 1.98a33.65 33.65 0 0 1 1.574 2.118c.465.703.883 1.37 1.207 1.976.336.594.579 1.121.743 1.492.16.375.234.602.234.602s-.207-.121-.54-.356a16.04 16.04 0 0 1-1.308-1.039c-.52-.437-1.086-.988-1.68-1.593a33.763 33.763 0 0 1-1.742-1.977 35.22 35.22 0 0 1-1.57-2.121 25.225 25.225 0 0 1-1.21-1.98 17.026 17.026 0 0 1-.74-1.489c-.163-.375-.237-.601-.237-.601M59.21 171.715s.231.117.606.351c.371.235.899.57 1.489 1.024.597.441 1.258.988 1.949 1.594.684.609 1.387 1.285 2.066 1.988.672.703 1.32 1.43 1.907 2.144a30.36 30.36 0 0 1 1.511 2.012 17.828 17.828 0 0 1 1.29 2.145s-.231-.118-.606-.352a17.45 17.45 0 0 1-1.488-1.02 31.15 31.15 0 0 1-1.954-1.593 40.658 40.658 0 0 1-2.062-1.988 39.11 39.11 0 0 1-1.902-2.149 29.193 29.193 0 0 1-1.516-2.012 20.617 20.617 0 0 1-.965-1.527 12.11 12.11 0 0 1-.324-.617M77.742 173.121s.613.168 1.344.598c.758.414 1.625 1.097 2.383 1.883.758.789 1.406 1.683 1.789 2.453a6.27 6.27 0 0 1 .547 1.375s-.618-.172-1.356-.602c-.75-.41-1.62-1.094-2.379-1.883-.754-.789-1.398-1.683-1.78-2.453-.407-.754-.548-1.37-.548-1.37M36.602 193.418s.28.172.742.5c.468.328 1.125.805 1.867 1.418.754.598 1.598 1.34 2.484 2.144a64.696 64.696 0 0 1 5.192 5.407 52.601 52.601 0 0 1 2.047 2.57c.578.77 1.03 1.445 1.336 1.922.308.476.468.766.468.766s-.285-.172-.746-.5a31.288 31.288 0 0 1-1.867-1.415 58.159 58.159 0 0 1-2.484-2.148 69.985 69.985 0 0 1-2.672-2.629 66.89 66.89 0 0 1-2.516-2.781 52.391 52.391 0 0 1-2.043-2.567 33.628 33.628 0 0 1-1.34-1.921c-.308-.477-.468-.766-.468-.766M31.375 196.75s.64.2 1.414.672c.797.453 1.715 1.187 2.531 2.031.809.84 1.508 1.79 1.922 2.606.442.793.617 1.437.617 1.437s-.64-.195-1.418-.664c-.793-.453-1.71-1.191-2.527-2.031-.805-.848-1.504-1.797-1.926-2.61-.441-.793-.613-1.441-.613-1.441M31.383 201.316s.207.094.543.286c.336.191.8.476 1.324.855.531.371 1.11.836 1.719 1.352a28.239 28.239 0 0 1 3.441 3.582c.492.629.938 1.226 1.281 1.773.356.54.621 1.016.797 1.36.18.34.266.55.266.55s-.207-.09-.543-.285a13.665 13.665 0 0 1-1.324-.851 22.377 22.377 0 0 1-1.723-1.356A28.07 28.07 0 0 1 33.727 205c-.489-.629-.934-1.227-1.282-1.773a15.456 15.456 0 0 1-.797-1.356 7.205 7.205 0 0 1-.265-.555M21.941 209.727s.606.16 1.332.582c.743.402 1.602 1.07 2.348 1.843.742.778 1.375 1.66 1.746 2.418a6.23 6.23 0 0 1 .531 1.356s-.609-.16-1.335-.582c-.743-.403-1.598-1.07-2.348-1.844-.742-.777-1.371-1.664-1.746-2.422-.387-.738-.528-1.351-.528-1.351M20.422 213.758s.762.32 1.715.984c.976.64 2.136 1.633 3.195 2.723 1.047 1.094 1.988 2.297 2.59 3.297.625.984.91 1.758.91 1.758s-.762-.32-1.715-.985c-.976-.64-2.137-1.629-3.187-2.722-1.055-1.098-1.992-2.301-2.594-3.301a10.999 10.999 0 0 1-.914-1.754M127.168 125.664s.281.176.746.504c.465.324 1.117.805 1.863 1.414.754.602 1.594 1.34 2.485 2.148.879.81 1.789 1.704 2.675 2.625a66.576 66.576 0 0 1 2.516 2.778 52.155 52.155 0 0 1 2.047 2.566c.582.77 1.027 1.446 1.34 1.922.308.48.469.766.469.766s-.286-.168-.75-.496a31.779 31.779 0 0 1-1.864-1.418c-.757-.598-1.597-1.34-2.484-2.145a67.232 67.232 0 0 1-2.676-2.629 69.435 69.435 0 0 1-2.515-2.777 54.278 54.278 0 0 1-2.043-2.57 31.848 31.848 0 0 1-1.34-1.918c-.309-.48-.469-.77-.469-.77M149.484 118.387s.72.277 1.61.875c.914.578 1.996 1.476 2.965 2.484.964 1.008 1.824 2.121 2.363 3.055.555.918.805 1.648.805 1.648s-.72-.277-1.614-.87c-.91-.579-1.988-1.481-2.957-2.485-.969-1.016-1.82-2.13-2.36-3.067-.562-.91-.812-1.64-.812-1.64M160.8 111.227s.563.117 1.22.464c.671.332 1.437.903 2.093 1.582.653.676 1.196 1.461 1.496 2.153.32.668.41 1.234.41 1.234s-.558-.113-1.218-.465c-.672-.328-1.438-.898-2.09-1.578-.649-.68-1.191-1.469-1.492-2.156-.324-.668-.418-1.234-.418-1.234M174.77 76.938s1.21.792 2.847 2.16a53.246 53.246 0 0 1 2.719 2.406c.476.457.992.91 1.473 1.414.492.492.988.992 1.484 1.492l1.437 1.543c.48.504.915 1.04 1.356 1.531a57.096 57.096 0 0 1 2.289 2.817c1.3 1.687 2.043 2.933 2.043 2.933s-1.215-.793-2.848-2.16a54.93 54.93 0 0 1-2.722-2.406c-.477-.461-.993-.91-1.473-1.41-.488-.496-.984-1-1.484-1.5-.477-.52-.961-1.035-1.434-1.543-.477-.504-.91-1.035-1.352-1.531a56.67 56.67 0 0 1-2.289-2.817c-1.3-1.687-2.046-2.93-2.046-2.93M173.457 55.29s1.484 1.077 3.527 2.874c1.028.89 2.2 1.957 3.422 3.133.606.594 1.254 1.187 1.871 1.824.625.637 1.258 1.277 1.891 1.922.617.664 1.238 1.32 1.844 1.973.617.64 1.183 1.308 1.75 1.941a82.743 82.743 0 0 1 2.992 3.547c1.715 2.113 2.73 3.644 2.73 3.644s-1.488-1.074-3.535-2.87a95.066 95.066 0 0 1-3.422-3.137c-.601-.594-1.25-1.184-1.867-1.829-.625-.632-1.258-1.277-1.89-1.921-.622-.657-1.239-1.32-1.844-1.97-.613-.644-1.18-1.312-1.75-1.94a94.802 94.802 0 0 1-2.992-3.547c-1.715-2.118-2.727-3.645-2.727-3.645"/><path fill="#77c232" d="M191.621 67.188c-1.992 0-7.758-6.708-12.238-12.333a.963.963 0 0 1-.172-.89c.172-.559 4.262-13.723 10.059-17.543a.973.973 0 0 1 .53-.16c.204 0 .403.066.571.187a.962.962 0 0 1 .367 1.043l-1.058 3.86c1.68-2.36 4.004-5.254 7.101-8.391 7.574-7.672 28.442-31.238 28.653-31.48a.963.963 0 0 1 .726-.325l.2.02c2.054.43 5.824 2.219 5.413 5.894a.989.989 0 0 1-.246.547L215.586 25.31c6.285-4.184 15.687-10.164 22.406-13.204a.967.967 0 0 1 1.09.2c.648.652 6.309 6.484 4.867 10.53a.947.947 0 0 1-.375.481l-29.539 19.676c3.613-1.172 7.848-2.164 11.856-2.164.609 0 1.214.024 1.789.074.254.02.488.141.66.332.133.157 3.308 3.942.742 9.723a.975.975 0 0 1-.684.555c-.171.035-17.527 3.797-26.152 9.457-3.02 1.988-4.937 3.32-6.207 4.199-2.512 1.75-2.836 1.977-4.379 2.02h-.039"/><g clip-path="url(#c)"><path fill="#522622" d="M226.16.184c-.55 0-1.082.234-1.457.652-.21.242-21.055 23.789-28.61 31.445a73.03 73.03 0 0 0-4.355 4.801 1.936 1.936 0 0 0-1.937-1.789c-.371 0-.742.105-1.07.32-5.981 3.938-10.008 16.633-10.45 18.067a1.958 1.958 0 0 0 .34 1.785c10.121 12.695 12.137 12.695 13 12.695h.074c1.828-.055 2.293-.383 4.899-2.191 1.265-.875 3.176-2.211 6.187-4.184 8.477-5.57 25.649-9.289 25.82-9.324a1.947 1.947 0 0 0 1.376-1.113c2.808-6.332-.75-10.57-.903-10.75a1.954 1.954 0 0 0-1.316-.668 24.136 24.136 0 0 0-1.867-.075c-2.13 0-4.317.278-6.446.704l24.668-16.434c.348-.23.614-.57.754-.965 1.606-4.508-3.965-10.402-5.097-11.543a1.957 1.957 0 0 0-1.375-.57c-.274 0-.543.058-.801.172-4.836 2.187-10.926 5.8-16.301 9.207L232.25 8.27a2 2 0 0 0 .488-1.09c.489-4.375-3.828-6.461-6.18-6.957a1.996 1.996 0 0 0-.398-.04zm0 1.945s5.07 1.058 4.645 4.836l-21.368 23.707s17.997-12.723 28.958-17.684c0 0 5.914 5.938 4.64 9.52l-37.805 25.18s11.122-5.887 20.66-5.887c.575 0 1.15.023 1.708.07 0 0 2.945 3.41.601 8.688 0 0-17.605 3.765-26.488 9.601-8.879 5.832-8.176 6-10.078 6.055h-.012c-1.941 0-11.48-11.965-11.48-11.965s4.093-13.348 9.66-17.016l-2.895 10.524s2.88-6.332 10.567-14.117c7.683-7.778 28.687-31.512 28.687-31.512"/></g><path fill="#4ba439" d="M238.395 12.988c-10.961 4.961-28.958 17.684-28.958 17.684l21.368-23.707c.425-3.777-4.645-4.836-4.645-4.836s-1.097 1.238-2.875 3.234c1.645.524 3.23 1.188 3.133 1.77l-25.816 29.246s32.164-18.695 35.894-18.977c3.719-.28 1.906 4.668 1.293 5.258-.613.586-41.809 27.848-45.144 31.387-2.383 2.527-5.016 5.812-6.329 7.492 2.282 2.512 4.496 4.703 5.317 4.676 1.902-.055 1.199-.223 10.078-6.055 8.883-5.836 26.488-9.601 26.488-9.601 2.344-5.278-.601-8.688-.601-8.688-9.86-.8-22.368 5.816-22.368 5.816l37.805-25.18c1.274-3.581-4.64-9.519-4.64-9.519"/><path fill="#522622" d="m192.945 45.164.102-.105c1.05-1.106 10.125-10.434 23.742-19.274a.982.982 0 0 0 .285-1.348.979.979 0 0 0-1.347-.285c-14.723 9.567-24.165 19.649-24.2 19.684a.97.97 0 1 0 1.418 1.328"/><path fill="#f6811f" d="M46.242 240.285c-5.922 0-9.422-1.387-10.402-4.129-1.477-4.14 3.195-10.558 14.277-19.625.516-.414 51.617-41.066 83.067-61.726 14.511-9.535 87.41-57.09 97.578-57.09.164 0 .312.012.449.031 4.926.688 15.754 7.969 22.2 18.258 5.273 8.406 6.624 17.285 3.917 25.676-3.36 10.402-58.926 37.785-91.746 53.183-43.973 20.625-92.387 40.89-103.605 43.367-6.094 1.344-11.536 2.055-15.735 2.055"/><path fill="#522622" d="M230.762 96.742h-.004c-2.649 0-9.774 2.184-40.946 21.024-22.898 13.847-47.601 29.945-57.164 36.222-31.484 20.692-82.617 61.367-83.128 61.778-11.618 9.5-16.25 16.078-14.59 20.718 1.129 3.168 4.933 4.778 11.312 4.778 4.266 0 9.778-.719 15.946-2.082 11.277-2.485 59.78-22.785 103.808-43.438 24.836-11.648 46.156-22.402 61.664-31.097 25.473-14.278 29.66-19.774 30.59-22.665 2.797-8.671 1.414-17.832-4.012-26.492-6.597-10.527-17.777-17.992-22.89-18.71a4.677 4.677 0 0 0-.586-.036zm0 1.942c.117 0 .218.007.316.023 7.223 1.012 32.695 19.828 25.324 42.68C250.848 158.59 83.54 232.48 61.77 237.285c-5.797 1.274-11.211 2.028-15.528 2.028-11.898 0-15.437-5.731 4.488-22.028 0 0 51.211-40.793 82.985-61.672 31.347-20.59 88.586-56.922 97.047-56.93"/><path fill="#e55928" d="M256.402 141.387c7.371-22.852-18.101-41.668-25.324-42.68-.691-.098-1.867.16-3.433.723 15.902 16.523 6.644 30.629 5.62 31.879-1.105 1.355-17.43 9.996-20.644 12.879-3.219 2.89-32.332 17.851-44.09 20.69-11.754 2.84-37.617 20.352-41.14 22.669-3.536 2.316-31.258 15.777-34.496 17.3-3.227 1.52-33.512 18.395-38.86 18.758-2.195.149-3.43-2.484-4.125-5.64-25.98 21.578-9.687 24.07 11.86 19.32 21.77-4.805 189.078-78.695 194.632-95.898"/><path fill="#ba4628" d="M244.68 133.895c-9.055 9.07-184.403 96.996-193.907 98.546-5.296.864-8.984-1.808-11.21-4.34-9.391 12.118 4.667 13.055 22.207 9.184 21.77-4.805 189.078-78.695 194.632-95.898 4.813-14.93-4.386-28.133-13.359-35.782 5.906 11.567 7.691 22.223 1.637 28.29"/><path fill="#f89e49" d="M222.813 106.184s8.68 12.691 5.41 15.324c-3.262 2.637-9.852 3.777-17.004 4.394-7.153.621-4.332 5.727-5.492 6.641-1.16.918-21.641 15.605-24.657 15.164-3.015-.437-5.965-.75-6.605-.402-.64.355 1.203 5.195-1.188 5.394-2.394.192-7.562 1.383-8.789.672-1.226-.71-4.98-7.52-2.687-9.898 2.297-2.375 5.754 2.379 6.535.277.785-2.098 2.297-10.426 5.336-10.441 3.047-.016 9.219 4.629 10.312 2.078 1.09-2.54 9.364-13.696 14.688-16.121 5.328-2.418 8.59 2.996 10.465.855 1.867-2.148 9.847-20.418 13.675-13.937M149.582 150.5s8.254 9.914 6.523 11.824c-1.726 1.899-6.5-3.234-7.66-2.316-1.156.914 2.649 4.289 1.743 5.664-.91 1.371-3.782-2.32-4.633-1.848-.848.469 1.894 6.45-.348 7.406-2.246.965-3.039 2.532-5.102 2.825-2.054.3-3.136 4.87-5.82 3.53-2.687-1.335-7.078-11.308-8.457-7.265-1.371 4.043 2.352 13.297-.683 13.34-3.032.04-5.254-6.5-7.028-4.687-1.773 1.816 1.781 6.234-.558 7.523-2.344 1.293-5.875-2.582-7.649-.773-1.773 1.812-4.262 4.34-5.492 5.136-1.227.793-7.7 4.649-10.438 4.215-2.738-.43-3.25 2.668-4.878 4.242-1.63 1.57-3.47 1.754-5.215 1.606-1.746-.145-4.742 5.988-7.332 5.32-2.594-.672-1.188-4.652 1.5-6.336 2.675-1.68 6.836-2.183 8.289-4.582 1.457-2.39 4.133-7.097 7.156-7.152 3.023-.055 1.363 1.973 5.055-.895 3.691-2.87 7.773-8.035 10.332-9.937 2.562-1.903 5.457-4.192 7.234-3.992 1.777.195 3.461 3.25 3.547.379.078-2.872 2.922-7.774 6.059-8.118 3.14-.343 6.03 5.399 7.203 3.996 1.168-1.402-2.36-5.28-.797-6.976 1.562-1.691 3.808 1.094 4.68-.707.87-1.805.953-5.176 2.558-5.785 1.606-.61 7.824-5.43 10.211-5.637"/><path fill="#522622" d="M208.723 115.348s1.273 1.562 2.953 4.043c.844 1.238 1.793 2.699 2.773 4.289.485.8 1.008 1.613 1.496 2.46.489.852.98 1.715 1.48 2.579.473.875.946 1.75 1.415 2.613.472.86.89 1.73 1.324 2.563.43.824.816 1.644 1.191 2.414.38.77.68 1.539.977 2.23 1.168 2.777 1.773 4.676 1.773 4.676s-1.21-1.645-2.77-4.172c-.39-.629-.812-1.316-1.257-2.043-.457-.719-.945-1.484-1.418-2.281-.472-.809-.988-1.617-1.46-2.477-.49-.847-.977-1.71-1.473-2.578-.473-.871-.95-1.742-1.418-2.601-.477-.856-.903-1.72-1.344-2.54a109.337 109.337 0 0 1-2.254-4.582c-1.277-2.707-1.988-4.593-1.988-4.593M176.96 128.703s.224.219.571.629c.348.41.832 1 1.371 1.734a50.622 50.622 0 0 1 1.75 2.547 55.118 55.118 0 0 1 3.41 6.176c.481 1.024.903 1.992 1.227 2.84.336.848.57 1.574.73 2.086.16.512.231.816.231.816s-.219-.222-.57-.629c-.348-.41-.832-1-1.368-1.73-.55-.73-1.14-1.602-1.753-2.55a62.157 62.157 0 0 1-1.805-3.032 61.634 61.634 0 0 1-1.606-3.149 41.89 41.89 0 0 1-1.218-2.84 29.27 29.27 0 0 1-.739-2.081c-.16-.512-.23-.817-.23-.817M145.297 154.805s.578.375 1.223 1.062c.664.676 1.39 1.66 1.98 2.727.586 1.062 1.04 2.199 1.25 3.12.238.911.242 1.602.246 1.602 0 0-.578-.375-1.223-1.062-.668-.672-1.39-1.66-1.976-2.723-.582-1.066-1.04-2.203-1.25-3.129-.238-.906-.25-1.597-.25-1.597M129.559 163.5s.996 1.133 2.265 2.953a59.676 59.676 0 0 1 2.082 3.16c.36.59.75 1.192 1.106 1.825l1.09 1.906c.347.652.695 1.3 1.035 1.937.347.637.644 1.29.953 1.906a53.405 53.405 0 0 1 1.562 3.45c.871 2.047 1.297 3.492 1.297 3.492s-1-1.129-2.27-2.953a57.335 57.335 0 0 1-2.081-3.16c-.356-.594-.754-1.192-1.106-1.825-.36-.632-.726-1.27-1.09-1.91-.343-.648-.691-1.297-1.035-1.937-.344-.637-.64-1.29-.953-1.906a59.42 59.42 0 0 1-1.562-3.446c-.868-2.05-1.293-3.492-1.293-3.492M93.5 188.172s.168.168.43.48c.257.32.613.77.992 1.34.39.563.797 1.242 1.215 1.977a34.15 34.15 0 0 1 1.175 2.363c.364.82.7 1.652.973 2.45.27.8.5 1.558.66 2.226.172.664.27 1.23.328 1.633.063.402.079.644.079.644s-.172-.172-.43-.484c-.262-.317-.617-.77-.996-1.336-.395-.567-.801-1.242-1.215-1.98a32.38 32.38 0 0 1-1.176-2.36 33.183 33.183 0 0 1-.969-2.453c-.27-.8-.5-1.563-.66-2.227-.172-.664-.27-1.23-.328-1.632-.062-.403-.078-.641-.078-.641M97.883 192.086s.187.176.492.496c.3.32.719.785 1.172 1.371.465.582.96 1.281 1.473 2.043a38.497 38.497 0 0 1 1.488 2.453c.465.86.906 1.73 1.285 2.567.375.84.703 1.632.945 2.336.254.695.422 1.296.535 1.722.11.426.157.68.157.68s-.196-.172-.496-.492a20.07 20.07 0 0 1-1.172-1.375 29.27 29.27 0 0 1-1.477-2.04 38.461 38.461 0 0 1-1.48-2.452c-.47-.86-.91-1.73-1.29-2.567-.37-.84-.703-1.633-.94-2.336a18.623 18.623 0 0 1-.54-1.722c-.113-.43-.152-.684-.152-.684M115.43 198.223c-.004 0 .547.324 1.144.925.621.598 1.285 1.477 1.813 2.434.531.961.922 1.992 1.09 2.836.195.828.171 1.465.171 1.465s-.546-.32-1.148-.926c-.625-.594-1.285-1.48-1.813-2.434-.523-.96-.917-1.992-1.085-2.835-.192-.833-.172-1.465-.172-1.465M70.441 207.238s.227.239.594.676c.363.434.871 1.066 1.434 1.848a48.71 48.71 0 0 1 1.844 2.715 63.417 63.417 0 0 1 1.91 3.226c.617 1.117 1.199 2.25 1.718 3.332.504 1.086.965 2.11 1.313 3.008.363.894.625 1.66.8 2.2.173.542.255.859.255.859s-.23-.235-.594-.672a27.747 27.747 0 0 1-1.438-1.848c-.578-.773-1.195-1.707-1.847-2.715a63.41 63.41 0 0 1-3.618-6.558c-.507-1.09-.964-2.11-1.316-3.012a34.455 34.455 0 0 1-.8-2.195c-.176-.543-.255-.864-.255-.864M64.531 209.113s.567.352 1.192 1.008c.652.645 1.355 1.594 1.922 2.613.562 1.024.996 2.125 1.195 3.02.219.879.215 1.547.215 1.547.004 0-.567-.352-1.192-1.008-.652-.64-1.351-1.594-1.918-2.617-.562-1.024-.996-2.121-1.195-3.016-.219-.879-.219-1.547-.219-1.547M63.363 213.527s.176.141.45.41c.273.274.652.668 1.058 1.168.418.493.863 1.094 1.313 1.75.449.66.89 1.38 1.3 2.122.41.738.786 1.496 1.106 2.222.312.735.586 1.43.781 2.051.203.61.34 1.137.422 1.516.082.375.11.601.11.601s-.176-.144-.45-.418c-.273-.27-.652-.664-1.058-1.16a25.572 25.572 0 0 1-1.317-1.754 31.059 31.059 0 0 1-1.297-2.117 31.787 31.787 0 0 1-1.101-2.23 23.112 23.112 0 0 1-.782-2.047 14.558 14.558 0 0 1-.421-1.516c-.086-.375-.114-.598-.114-.598M52.07 219.215s.543.316 1.137.906c.617.582 1.273 1.45 1.793 2.387.52.945.906 1.957 1.07 2.789.184.816.157 1.445.157 1.445s-.543-.308-1.133-.906c-.617-.582-1.274-1.445-1.793-2.387-.516-.941-.903-1.957-1.067-2.789-.187-.816-.164-1.445-.164-1.445M49.566 222.715s.653.508 1.403 1.394c.777.871 1.648 2.125 2.383 3.453.738 1.333 1.336 2.739 1.66 3.86.343 1.113.43 1.933.43 1.933s-.653-.507-1.407-1.39c-.781-.875-1.648-2.13-2.379-3.461-.738-1.332-1.332-2.738-1.66-3.86-.344-1.109-.43-1.93-.43-1.93M175.414 165.102s.23.238.59.68c.367.433.875 1.062 1.437 1.847.57.773 1.196 1.703 1.844 2.715a61.752 61.752 0 0 1 3.621 6.558c.512 1.086.965 2.11 1.313 3.008.363.895.625 1.66.8 2.2.172.542.254.863.254.863s-.23-.239-.597-.676a34.077 34.077 0 0 1-1.434-1.848 53.397 53.397 0 0 1-1.844-2.715 63.409 63.409 0 0 1-3.617-6.562 55.663 55.663 0 0 1-1.316-3.008c-.36-.89-.621-1.66-.793-2.2-.18-.538-.258-.862-.258-.862M198.848 163.82c-.004 0 .62.453 1.328 1.258.734.793 1.547 1.945 2.226 3.168.672 1.223 1.211 2.516 1.493 3.563a9.18 9.18 0 0 1 .355 1.8s-.621-.457-1.332-1.261c-.734-.79-1.543-1.942-2.219-3.164-.672-1.223-1.215-2.524-1.496-3.567a9.486 9.486 0 0 1-.355-1.797M211.621 159.816s.516.254 1.059.762c.566.492 1.16 1.242 1.613 2.067.457.828.781 1.726.89 2.468.141.727.083 1.301.083 1.301s-.516-.254-1.059-.762c-.566-.492-1.156-1.242-1.613-2.066-.45-.828-.774-1.727-.887-2.469-.14-.73-.086-1.3-.086-1.3M233.957 130.281s.965 1.082 2.191 2.824a56.479 56.479 0 0 1 2.008 3.024c.344.566.723 1.14 1.059 1.746.347.605.7 1.219 1.055 1.832.328.625.66 1.246.984 1.86.336.609.617 1.234.914 1.828a55.428 55.428 0 0 1 1.488 3.308c.82 1.969 1.219 3.363 1.219 3.363s-.969-1.078-2.195-2.82a55.15 55.15 0 0 1-2.008-3.027c-.344-.567-.723-1.137-1.063-1.746-.343-.602-.695-1.215-1.043-1.828-.332-.625-.664-1.247-.992-1.86-.332-.613-.617-1.238-.91-1.832a56.873 56.873 0 0 1-1.488-3.312c-.824-1.965-1.219-3.36-1.219-3.36M238.262 109.031s1.156 1.426 2.672 3.688a91.965 91.965 0 0 1 2.496 3.91c.43.73.902 1.469 1.336 2.246.437.773.89 1.559 1.332 2.344.43.797.855 1.594 1.277 2.375.43.781.8 1.574 1.188 2.324a88.46 88.46 0 0 1 1.98 4.203c1.105 2.484 1.695 4.223 1.695 4.223s-1.16-1.422-2.675-3.684a88.525 88.525 0 0 1-2.497-3.914c-.433-.723-.906-1.465-1.336-2.242-.437-.774-.886-1.563-1.332-2.348-.43-.797-.855-1.594-1.273-2.375-.426-.781-.805-1.574-1.191-2.328a89.951 89.951 0 0 1-1.977-4.195c-1.105-2.488-1.695-4.227-1.695-4.227"/><path fill="#77c232" d="M253.988 125.395c-.414 0-.789-.079-1.203-.176-1.922-.453-5.781-8.453-8.683-15.078a.968.968 0 0 1 .066-.907c.309-.496 7.648-12.164 14.238-14.359a.93.93 0 0 1 .309-.05c.285 0 .562.128.754.359a.98.98 0 0 1 .086 1.105l-2.024 3.45c2.235-1.848 5.227-4.044 9.028-6.274 9.293-5.461 35.527-22.856 35.789-23.031a.979.979 0 0 1 .539-.16c.148 0 .3.03.437.101 1.871.945 5.055 3.645 3.711 7.09a.947.947 0 0 1-.375.46l-19.96 12.99c7.144-2.423 17.769-5.778 25.038-6.985l.16-.012a.98.98 0 0 1 .844.484c.461.801 4.434 7.895 2 11.43a1.005 1.005 0 0 1-.488.375l-33.645 11.406a56.88 56.88 0 0 1 2.989-.082c4.218 0 7.843.528 10.77 1.567.234.09.437.265.546.496.09.187 2.184 4.66-1.781 9.582a.977.977 0 0 1-.758.363l-.047-.004c-.023 0-2.21-.105-5.422-.105-5.504 0-15.71.328-22.293 2.511a250.367 250.367 0 0 0-7.086 2.461c-2 .723-2.75.993-3.539.993"/><path fill="#522622" d="M302.887 69.3c-.38 0-.75.106-1.075.325-.265.172-26.476 17.555-35.75 23a74.96 74.96 0 0 0-5.437 3.52 1.961 1.961 0 0 0-.402-1.575 1.953 1.953 0 0 0-1.508-.718c-.207 0-.414.03-.617.101-6.797 2.266-13.961 13.496-14.754 14.766a1.953 1.953 0 0 0-.133 1.808c.016.035 1.582 3.606 3.355 7.184 3.653 7.371 4.88 8.187 5.996 8.453.458.11.91.203 1.426.203.961 0 1.75-.285 3.871-1.05a231.926 231.926 0 0 1 7.063-2.45c6.45-2.144 16.543-2.465 21.984-2.465 3.184 0 5.352.106 5.375.106l.094.004c.586 0 1.145-.266 1.516-.723 4.347-5.398 2-10.41 1.894-10.621a1.924 1.924 0 0 0-1.094-.984c-2.336-.829-5.086-1.344-8.199-1.54l28.07-9.519c.399-.137.743-.395.977-.738 2.715-3.946-1.156-11.078-1.953-12.469-.356-.61-1-.969-1.684-.969-.109 0-.214.004-.316.024-5.234.87-12.043 2.789-18.113 4.695l13.718-8.926c.34-.222.602-.543.75-.926 1.594-4.097-2.035-7.226-4.18-8.308a1.921 1.921 0 0 0-.874-.207zm0 1.942s4.62 2.336 3.242 5.871l-26.75 17.407s20.66-7.66 32.52-9.63c0 0 4.199 7.258 2.042 10.395l-43.015 14.586s5.949-1.367 12.672-1.367c3.515 0 7.238.375 10.441 1.508 0 0 1.961 4.054-1.664 8.554 0 0-2.191-.109-5.469-.109-6.12 0-16.035.383-22.601 2.563-7.922 2.628-9.223 3.406-10.317 3.406-.297 0-.582-.063-.976-.153-1.856-.437-8.024-14.523-8.024-14.523s7.39-11.844 13.727-13.953l-5.516 9.418s4.414-5.375 13.852-10.914c9.422-5.535 35.836-23.059 35.836-23.059"/><path fill="#4ba439" d="M311.898 84.89c-11.859 1.97-32.52 9.63-32.52 9.63l26.75-17.407c1.38-3.535-3.241-5.87-3.241-5.87s-1.38.913-3.617 2.386c1.46.93 2.82 1.98 2.574 2.516l-32.48 21.605s35.898-9.773 39.577-9.086c3.668.691.633 5.004-.109 5.414-.746.41-47.578 16.133-51.71 18.695-2.95 1.825-6.337 4.329-8.044 5.606 1.555 3.016 3.145 5.707 3.934 5.894 1.851.438 1.21.09 11.293-3.253 10.09-3.352 28.07-2.454 28.07-2.454 3.625-4.5 1.664-8.554 1.664-8.554-9.32-3.313-23.113-.14-23.113-.14l43.015-14.587c2.157-3.137-2.043-10.394-2.043-10.394"/><path fill="#522622" d="M259.703 104.27s.035-.028.125-.079c1.3-.796 12.473-7.472 27.906-12.5a.977.977 0 0 0 .625-1.226.964.964 0 0 0-1.222-.621c-16.7 5.441-28.422 12.754-28.465 12.777a.973.973 0 0 0 1.031 1.649"/></svg>