<svg xmlns="http://www.w3.org/2000/svg" xmlns:xlink="http://www.w3.org/1999/xlink" width="64" zoomAndPan="magnify" viewBox="0 0 48 46.499999" height="62" preserveAspectRatio="xMidYMid meet" version="1.0"><defs><clipPath id="baf148a83d"><path d="M 19.792969 22.722656 L 20.976562 22.722656 L 20.976562 23.910156 L 19.792969 23.910156 Z M 19.792969 22.722656 " clip-rule="nonzero"/></clipPath><clipPath id="2469f9fe0a"><path d="M 20.386719 22.722656 C 20.058594 22.722656 19.792969 22.988281 19.792969 23.316406 C 19.792969 23.644531 20.058594 23.910156 20.386719 23.910156 C 20.710938 23.910156 20.976562 23.644531 20.976562 23.316406 C 20.976562 22.988281 20.710938 22.722656 20.386719 22.722656 Z M 20.386719 22.722656 " clip-rule="nonzero"/></clipPath><clipPath id="7444dd9a68"><path d="M 0.792969 0.722656 L 1.976562 0.722656 L 1.976562 1.910156 L 0.792969 1.910156 Z M 0.792969 0.722656 " clip-rule="nonzero"/></clipPath><clipPath id="f72b051ffb"><path d="M 1.386719 0.722656 C 1.058594 0.722656 0.792969 0.988281 0.792969 1.316406 C 0.792969 1.644531 1.058594 1.910156 1.386719 1.910156 C 1.710938 1.910156 1.976562 1.644531 1.976562 1.316406 C 1.976562 0.988281 1.710938 0.722656 1.386719 0.722656 Z M 1.386719 0.722656 " clip-rule="nonzero"/></clipPath><clipPath id="d84dd1841b"><rect x="0" width="2" y="0" height="2"/></clipPath><clipPath id="6d5c8eed91"><path d="M 2 7 L 46 7 L 46 45.261719 L 2 45.261719 Z M 2 7 " clip-rule="nonzero"/></clipPath></defs><g clip-path="url(#baf148a83d)"><g clip-path="url(#2469f9fe0a)"><g transform="matrix(1, 0, 0, 1, 19, 22)"><g clip-path="url(#d84dd1841b)"><g clip-path="url(#7444dd9a68)"><g clip-path="url(#f72b051ffb)"><path fill="#dc0b1b" d="M 0.792969 0.722656 L 1.976562 0.722656 L 1.976562 1.910156 L 0.792969 1.910156 Z M 0.792969 0.722656 " fill-opacity="1" fill-rule="nonzero"/></g></g></g></g></g></g><path fill="#7cb342" d="M 38.265625 41.292969 C 36.171875 43.824219 32.839844 45.136719 29.46875 44.753906 L 25.675781 44.324219 C 24.5625 44.199219 23.4375 44.199219 22.324219 44.324219 L 18.53125 44.753906 C 15.160156 45.136719 11.828125 43.824219 9.734375 41.292969 C 2.296875 32.304688 0.253906 14.410156 9.121094 8.480469 C 12.074219 6.328125 16.578125 8.351562 21.296875 9.621094 C 23.066406 10.101562 24.933594 10.101562 26.703125 9.621094 C 31.421875 8.351562 35.925781 6.328125 38.878906 8.480469 C 47.742188 14.410156 45.703125 32.304688 38.265625 41.292969 Z M 38.265625 41.292969 " fill-opacity="1" fill-rule="nonzero"/><path fill="#c6e0a6" d="M 38.878906 8.480469 C 35.921875 6.328125 31.421875 8.351562 26.703125 9.621094 C 24.933594 10.101562 23.066406 10.101562 21.296875 9.621094 C 16.578125 8.351562 12.074219 6.328125 9.121094 8.480469 C 0.253906 14.410156 2.296875 32.304688 9.734375 41.292969 C 11.828125 43.824219 15.160156 45.136719 18.53125 44.753906 L 22.324219 44.324219 C 23.4375 44.199219 24.5625 44.199219 25.675781 44.324219 L 29.46875 44.753906 C 32.839844 45.136719 36.171875 43.824219 38.265625 41.292969 C 45.703125 32.304688 47.742188 14.410156 38.878906 8.480469 Z M 37.453125 40.515625 C 35.480469 42.902344 32.335938 44.144531 29.15625 43.78125 L 25.582031 43.375 C 24.53125 43.257812 23.46875 43.257812 22.417969 43.375 L 18.84375 43.78125 C 15.664062 44.144531 12.519531 42.902344 10.546875 40.515625 C 3.535156 32.042969 1.609375 15.167969 9.96875 9.578125 C 12.757812 7.546875 17.003906 9.457031 21.449219 10.652344 C 23.121094 11.101562 24.878906 11.101562 26.550781 10.652344 C 30.996094 9.457031 35.242188 7.542969 38.03125 9.578125 C 46.390625 15.167969 44.464844 32.042969 37.453125 40.515625 Z M 37.453125 40.515625 " fill-opacity="1" fill-rule="nonzero"/><path fill="#568b3e" d="M 38.265625 41.292969 C 36.171875 43.824219 32.839844 45.136719 29.46875 44.753906 L 25.675781 44.324219 C 24.5625 44.199219 23.4375 44.199219 22.324219 44.324219 L 18.53125 44.753906 C 15.160156 45.136719 11.828125 43.824219 9.734375 41.292969 C 9.625 41.160156 9.515625 41.023438 9.40625 40.886719 C 9.371094 40.84375 9.339844 40.800781 9.304688 40.753906 C 9.261719 40.703125 9.222656 40.648438 9.179688 40.59375 C 9.132812 40.53125 9.089844 40.472656 9.042969 40.414062 C 9.007812 40.363281 8.972656 40.316406 8.9375 40.269531 C 8.929688 40.257812 8.921875 40.246094 8.910156 40.230469 C 8.867188 40.167969 8.820312 40.105469 8.773438 40.042969 C 8.730469 39.980469 8.6875 39.921875 8.644531 39.859375 C 8.585938 39.777344 8.53125 39.695312 8.472656 39.609375 C 8.472656 39.609375 8.46875 39.605469 8.46875 39.601562 C 9.113281 39.964844 9.796875 40.257812 10.511719 40.472656 C 11.808594 40.863281 13.203125 40.996094 14.597656 40.835938 L 18.390625 40.40625 C 19.503906 40.28125 20.628906 40.28125 21.746094 40.40625 L 25.535156 40.835938 C 28.90625 41.21875 32.242188 39.90625 34.335938 37.375 C 39.917969 30.625 42.460938 18.855469 39.625 10.898438 C 39.273438 9.914062 38.839844 8.984375 38.320312 8.132812 C 38.371094 8.160156 38.417969 8.1875 38.46875 8.214844 C 38.492188 8.226562 38.511719 8.238281 38.53125 8.253906 C 38.605469 8.296875 38.679688 8.34375 38.75 8.390625 C 38.769531 8.40625 38.792969 8.417969 38.808594 8.433594 C 38.832031 8.449219 38.855469 8.464844 38.878906 8.480469 C 47.742188 14.410156 45.703125 32.304688 38.265625 41.292969 Z M 38.265625 41.292969 " fill-opacity="1" fill-rule="nonzero"/><path fill="#c6e0a6" d="M 10.042969 10.050781 C 10.183594 10.167969 10.28125 10.332031 10.332031 10.535156 C 10.382812 10.742188 10.382812 10.972656 10.335938 11.230469 C 10.289062 11.484375 10.195312 11.75 10.054688 12.019531 C 9.917969 12.292969 9.742188 12.546875 9.535156 12.792969 C 9.324219 13.035156 9.097656 13.246094 8.851562 13.421875 C 8.601562 13.601562 8.355469 13.734375 8.109375 13.820312 C 7.859375 13.90625 7.628906 13.941406 7.421875 13.921875 C 7.210938 13.90625 7.035156 13.835938 6.890625 13.714844 C 6.75 13.59375 6.65625 13.433594 6.605469 13.226562 C 6.554688 13.023438 6.550781 12.792969 6.601562 12.535156 C 6.648438 12.277344 6.742188 12.015625 6.878906 11.742188 C 7.019531 11.472656 7.191406 11.214844 7.402344 10.972656 C 7.609375 10.730469 7.839844 10.519531 8.085938 10.339844 C 8.332031 10.164062 8.582031 10.03125 8.828125 9.941406 C 9.074219 9.855469 9.304688 9.824219 9.515625 9.839844 C 9.726562 9.859375 9.902344 9.929688 10.042969 10.050781 Z M 10.042969 10.050781 " fill-opacity="1" fill-rule="nonzero"/><path fill="#568b3e" d="M 38.472656 26.730469 C 38.601562 26.785156 38.703125 26.882812 38.78125 27.03125 C 38.859375 27.175781 38.902344 27.359375 38.917969 27.578125 C 38.933594 27.800781 38.917969 28.039062 38.867188 28.296875 C 38.820312 28.558594 38.742188 28.816406 38.636719 29.074219 C 38.53125 29.335938 38.402344 29.574219 38.257812 29.792969 C 38.109375 30.011719 37.953125 30.195312 37.789062 30.339844 C 37.625 30.488281 37.460938 30.585938 37.304688 30.636719 C 37.144531 30.6875 37 30.6875 36.875 30.636719 C 36.746094 30.585938 36.644531 30.484375 36.566406 30.339844 C 36.488281 30.191406 36.441406 30.007812 36.425781 29.789062 C 36.414062 29.570312 36.429688 29.328125 36.476562 29.070312 C 36.527344 28.8125 36.605469 28.550781 36.710938 28.292969 C 36.816406 28.035156 36.941406 27.796875 37.089844 27.574219 C 37.238281 27.355469 37.394531 27.171875 37.558594 27.027344 C 37.722656 26.878906 37.886719 26.78125 38.042969 26.730469 C 38.203125 26.679688 38.34375 26.679688 38.472656 26.730469 Z M 38.472656 26.730469 " fill-opacity="1" fill-rule="nonzero"/><path fill="#568b3e" d="M 35.820312 29.402344 C 35.9375 29.503906 35.964844 29.671875 35.902344 29.910156 C 35.84375 30.148438 35.710938 30.386719 35.503906 30.625 C 35.300781 30.863281 35.082031 31.03125 34.855469 31.128906 C 34.628906 31.226562 34.457031 31.226562 34.339844 31.125 C 34.222656 31.027344 34.195312 30.855469 34.253906 30.617188 C 34.316406 30.378906 34.449219 30.140625 34.65625 29.902344 C 34.859375 29.664062 35.074219 29.496094 35.304688 29.398438 C 35.53125 29.300781 35.703125 29.300781 35.820312 29.402344 Z M 35.820312 29.402344 " fill-opacity="1" fill-rule="nonzero"/><path fill="#c6e0a6" d="M 7.078125 14.242188 C 7.203125 14.308594 7.269531 14.441406 7.277344 14.640625 C 7.285156 14.839844 7.230469 15.050781 7.113281 15.265625 C 7 15.480469 6.855469 15.640625 6.6875 15.746094 C 6.515625 15.851562 6.371094 15.871094 6.242188 15.804688 C 6.117188 15.738281 6.050781 15.605469 6.042969 15.40625 C 6.039062 15.207031 6.089844 15 6.207031 14.785156 C 6.320312 14.566406 6.464844 14.40625 6.632812 14.300781 C 6.804688 14.195312 6.953125 14.175781 7.078125 14.242188 Z M 7.078125 14.242188 " fill-opacity="1" fill-rule="nonzero"/><path fill="#c6e0a6" d="M 8.117188 14.1875 C 8.167969 14.226562 8.191406 14.292969 8.179688 14.382812 C 8.167969 14.476562 8.128906 14.566406 8.0625 14.652344 C 7.992188 14.742188 7.917969 14.804688 7.832031 14.839844 C 7.746094 14.878906 7.679688 14.875 7.628906 14.835938 C 7.574219 14.796875 7.554688 14.730469 7.566406 14.640625 C 7.578125 14.550781 7.617188 14.460938 7.683594 14.371094 C 7.753906 14.28125 7.828125 14.21875 7.914062 14.183594 C 7.996094 14.148438 8.066406 14.148438 8.117188 14.1875 Z M 8.117188 14.1875 " fill-opacity="1" fill-rule="nonzero"/><path fill="#7cb342" d="M 38.878906 8.480469 C 38.855469 8.464844 38.832031 8.449219 38.8125 8.433594 C 38.792969 8.421875 38.773438 8.40625 38.75 8.394531 C 38.679688 8.34375 38.605469 8.296875 38.53125 8.253906 C 38.511719 8.238281 38.492188 8.226562 38.46875 8.214844 C 38.421875 8.1875 38.371094 8.160156 38.320312 8.132812 C 38.839844 8.984375 39.273438 9.914062 39.625 10.898438 C 46.097656 17.472656 43.976562 32.632812 37.453125 40.515625 C 35.476562 42.90625 32.335938 44.144531 29.15625 43.78125 L 25.582031 43.375 C 24.53125 43.257812 23.46875 43.257812 22.417969 43.375 L 18.84375 43.78125 C 15.664062 44.144531 12.523438 42.90625 10.546875 40.515625 C 10.535156 40.503906 10.523438 40.488281 10.511719 40.472656 C 9.796875 40.261719 9.113281 39.96875 8.46875 39.601562 C 8.46875 39.605469 8.472656 39.609375 8.472656 39.609375 C 8.53125 39.695312 8.585938 39.777344 8.644531 39.859375 C 8.6875 39.921875 8.730469 39.980469 8.773438 40.042969 C 8.820312 40.105469 8.867188 40.171875 8.910156 40.234375 C 8.921875 40.246094 8.929688 40.257812 8.9375 40.269531 C 8.972656 40.316406 9.007812 40.367188 9.042969 40.414062 C 9.089844 40.472656 9.132812 40.535156 9.179688 40.59375 C 9.222656 40.648438 9.261719 40.703125 9.304688 40.757812 C 9.339844 40.800781 9.371094 40.84375 9.40625 40.886719 C 9.515625 41.023438 9.625 41.160156 9.734375 41.292969 C 11.828125 43.824219 15.160156 45.140625 18.53125 44.757812 L 22.324219 44.324219 C 23.4375 44.199219 24.5625 44.199219 25.675781 44.324219 L 29.46875 44.757812 C 32.839844 45.136719 36.171875 43.824219 38.265625 41.292969 C 45.703125 32.304688 47.742188 14.410156 38.878906 8.480469 Z M 38.878906 8.480469 " fill-opacity="1" fill-rule="nonzero"/><g clip-path="url(#6d5c8eed91)"><path fill="#04043f" d="M 17.382812 45.128906 C 16.066406 45.128906 14.757812 44.882812 13.539062 44.402344 C 11.953125 43.777344 10.554688 42.769531 9.496094 41.488281 C 8.308594 40.054688 7.242188 38.382812 6.320312 36.511719 C 5.425781 34.691406 4.6875 32.730469 4.132812 30.683594 C 3.574219 28.636719 3.210938 26.558594 3.054688 24.511719 C 2.890625 22.40625 2.949219 20.382812 3.226562 18.5 C 3.914062 13.824219 5.890625 10.273438 8.945312 8.230469 C 11.488281 6.378906 15.066406 7.457031 18.855469 8.59375 C 19.679688 8.84375 20.527344 9.097656 21.375 9.324219 C 23.09375 9.789062 24.90625 9.789062 26.625 9.324219 C 27.472656 9.097656 28.324219 8.84375 29.144531 8.59375 C 32.933594 7.457031 36.511719 6.378906 39.058594 8.230469 C 42.113281 10.273438 44.089844 13.828125 44.773438 18.5 C 45.050781 20.386719 45.109375 22.40625 44.945312 24.511719 C 44.789062 26.558594 44.425781 28.636719 43.871094 30.683594 C 43.3125 32.730469 42.574219 34.691406 41.679688 36.511719 C 40.757812 38.382812 39.691406 40.058594 38.507812 41.488281 C 37.445312 42.769531 36.046875 43.78125 34.460938 44.402344 C 32.875 45.027344 31.136719 45.253906 29.433594 45.0625 L 25.640625 44.632812 C 24.550781 44.507812 23.449219 44.507812 22.359375 44.632812 L 18.566406 45.0625 C 18.171875 45.105469 17.777344 45.128906 17.382812 45.128906 Z M 12.351562 7.84375 C 11.109375 7.84375 10.125 8.132812 9.304688 8.730469 C 9.300781 8.734375 9.296875 8.734375 9.292969 8.738281 C 6.386719 10.683594 4.5 14.089844 3.839844 18.589844 C 2.730469 26.136719 5.253906 35.390625 9.972656 41.09375 C 11.988281 43.53125 15.253906 44.816406 18.496094 44.449219 L 22.289062 44.019531 C 23.421875 43.890625 24.574219 43.890625 25.710938 44.019531 L 29.503906 44.449219 C 29.871094 44.492188 30.238281 44.511719 30.605469 44.511719 C 33.46875 44.511719 36.242188 43.257812 38.027344 41.097656 C 42.746094 35.394531 45.269531 26.136719 44.160156 18.589844 C 43.5 14.089844 41.613281 10.683594 38.707031 8.738281 C 38.703125 8.734375 38.699219 8.734375 38.695312 8.730469 C 37.65625 7.972656 36.355469 7.710938 34.59375 7.90625 C 32.984375 8.082031 31.207031 8.617188 29.324219 9.183594 C 28.496094 9.433594 27.640625 9.691406 26.785156 9.921875 C 24.964844 10.410156 23.035156 10.410156 21.214844 9.921875 C 20.359375 9.691406 19.503906 9.433594 18.675781 9.183594 C 16.792969 8.617188 15.015625 8.082031 13.40625 7.90625 C 13.035156 7.863281 12.683594 7.84375 12.351562 7.84375 Z M 12.351562 7.84375 " fill-opacity="1" fill-rule="nonzero"/></g><path fill="#568b3e" d="M 37.671875 31.625 C 37.8125 31.742188 37.925781 31.886719 38.019531 32.058594 C 38.109375 32.226562 38.175781 32.421875 38.214844 32.636719 C 38.253906 32.851562 38.265625 33.082031 38.25 33.335938 C 38.234375 33.585938 38.195312 33.851562 38.125 34.128906 C 38.058594 34.40625 37.964844 34.691406 37.847656 34.984375 C 37.730469 35.28125 37.589844 35.574219 37.425781 35.875 C 37.261719 36.171875 37.078125 36.46875 36.875 36.761719 C 36.671875 37.050781 36.449219 37.335938 36.214844 37.609375 C 35.980469 37.882812 35.734375 38.140625 35.476562 38.386719 C 35.21875 38.632812 34.953125 38.859375 34.683594 39.066406 C 34.410156 39.273438 34.140625 39.457031 33.867188 39.621094 C 33.59375 39.78125 33.324219 39.917969 33.058594 40.023438 C 32.792969 40.132812 32.535156 40.214844 32.289062 40.269531 C 32.042969 40.320312 31.808594 40.347656 31.589844 40.339844 C 31.371094 40.335938 31.171875 40.300781 30.988281 40.238281 C 30.804688 40.171875 30.644531 40.082031 30.503906 39.964844 C 30.363281 39.84375 30.25 39.699219 30.15625 39.527344 C 30.066406 39.359375 30 39.167969 29.960938 38.953125 C 29.921875 38.738281 29.910156 38.503906 29.925781 38.253906 C 29.941406 38 29.980469 37.738281 30.050781 37.457031 C 30.117188 37.179688 30.210938 36.894531 30.328125 36.601562 C 30.445312 36.308594 30.585938 36.011719 30.75 35.710938 C 30.914062 35.414062 31.097656 35.117188 31.300781 34.828125 C 31.503906 34.535156 31.726562 34.253906 31.960938 33.976562 C 32.195312 33.703125 32.441406 33.445312 32.699219 33.199219 C 32.957031 32.953125 33.222656 32.726562 33.492188 32.519531 C 33.765625 32.3125 34.035156 32.128906 34.308594 31.96875 C 34.582031 31.804688 34.851562 31.671875 35.117188 31.5625 C 35.382812 31.453125 35.640625 31.371094 35.886719 31.316406 C 36.132812 31.265625 36.367188 31.242188 36.585938 31.246094 C 36.804688 31.25 37.003906 31.285156 37.1875 31.351562 C 37.371094 31.414062 37.53125 31.503906 37.671875 31.625 Z M 37.671875 31.625 " fill-opacity="1" fill-rule="nonzero"/><path fill="#754c29" d="M 29.1875 2.59375 C 26.167969 4.996094 24.773438 8.808594 24.316406 12.835938 C 23.90625 12.859375 23.492188 12.835938 23.082031 12.777344 C 23.136719 7.398438 24.699219 3.546875 27.488281 0.945312 C 27.75 0.703125 28.148438 0.679688 28.433594 0.894531 L 29.164062 1.433594 C 29.550781 1.71875 29.5625 2.296875 29.1875 2.59375 Z M 29.1875 2.59375 " fill-opacity="1" fill-rule="nonzero"/><path fill="#a97c50" d="M 28.136719 1.40625 C 28.359375 1.199219 28.683594 1.152344 28.949219 1.273438 L 28.433594 0.890625 C 28.148438 0.679688 27.75 0.703125 27.488281 0.945312 C 24.699219 3.546875 23.136719 7.398438 23.082031 12.777344 C 23.300781 12.808594 23.519531 12.828125 23.738281 12.839844 C 23.867188 7.667969 25.417969 3.941406 28.136719 1.40625 Z M 28.136719 1.40625 " fill-opacity="1" fill-rule="nonzero"/><path fill="#04043f" d="M 24.003906 13.152344 C 23.679688 13.152344 23.355469 13.128906 23.039062 13.082031 C 22.886719 13.058594 22.773438 12.929688 22.773438 12.773438 C 22.800781 10.101562 23.203125 7.726562 23.96875 5.710938 C 24.714844 3.75 25.828125 2.070312 27.277344 0.722656 C 27.648438 0.375 28.210938 0.34375 28.617188 0.644531 L 29.347656 1.1875 C 29.609375 1.378906 29.765625 1.679688 29.769531 2.003906 C 29.777344 2.332031 29.632812 2.632812 29.378906 2.835938 C 26.738281 4.933594 25.140625 8.3125 24.625 12.871094 C 24.605469 13.019531 24.484375 13.136719 24.332031 13.144531 C 24.222656 13.148438 24.113281 13.152344 24.003906 13.152344 Z M 23.398438 12.503906 C 23.609375 12.527344 23.824219 12.539062 24.039062 12.535156 C 24.296875 10.457031 24.792969 8.589844 25.507812 6.980469 C 26.355469 5.074219 27.53125 3.519531 28.992188 2.355469 C 29.097656 2.273438 29.15625 2.148438 29.152344 2.015625 C 29.148438 1.882812 29.085938 1.761719 28.980469 1.679688 L 28.25 1.140625 C 28.082031 1.015625 27.851562 1.03125 27.699219 1.171875 C 24.945312 3.742188 23.496094 7.554688 23.398438 12.503906 Z M 29.1875 2.59375 Z M 29.1875 2.59375 " fill-opacity="1" fill-rule="nonzero"/><path fill="#a97c50" d="M 27.964844 1.777344 C 28.023438 1.835938 28.039062 1.925781 28 2.054688 C 27.964844 2.179688 27.890625 2.304688 27.777344 2.425781 C 27.664062 2.550781 27.546875 2.636719 27.421875 2.683594 C 27.300781 2.730469 27.207031 2.726562 27.144531 2.667969 C 27.085938 2.613281 27.070312 2.523438 27.109375 2.394531 C 27.144531 2.269531 27.21875 2.144531 27.332031 2.019531 C 27.445312 1.898438 27.5625 1.8125 27.6875 1.765625 C 27.808594 1.71875 27.902344 1.722656 27.964844 1.777344 Z M 27.964844 1.777344 " fill-opacity="1" fill-rule="nonzero"/><path fill="#a97c50" d="M 27.144531 2.832031 C 27.214844 2.894531 27.1875 2.996094 27.058594 3.136719 C 26.929688 3.277344 26.832031 3.3125 26.761719 3.25 C 26.691406 3.1875 26.71875 3.085938 26.847656 2.945312 C 26.976562 2.804688 27.074219 2.769531 27.144531 2.832031 Z M 27.144531 2.832031 " fill-opacity="1" fill-rule="nonzero"/><path fill="#04043f" d="M 20.128906 11.378906 C 22.246094 12.683594 24.679688 12.9375 26.949219 11.867188 C 27.261719 11.722656 27.566406 11.550781 27.871094 11.378906 C 27.9375 11.339844 28.019531 11.363281 28.058594 11.425781 C 28.089844 11.484375 28.078125 11.554688 28.03125 11.59375 C 27.761719 11.835938 27.472656 12.054688 27.164062 12.25 C 25.28125 13.449219 22.71875 13.449219 20.835938 12.25 C 20.527344 12.054688 20.238281 11.835938 19.96875 11.59375 C 19.851562 11.484375 19.988281 11.296875 20.128906 11.378906 Z M 20.128906 11.378906 " fill-opacity="1" fill-rule="nonzero"/><path fill="#42a047" d="M 43.722656 0.339844 C 42.132812 5.019531 39.878906 8.128906 36.671875 9.855469 C 33.746094 11.433594 30.023438 11.859375 25.289062 11.273438 C 25.050781 11.246094 24.808594 11.214844 24.5625 11.179688 C 25.960938 9.035156 27.226562 7.09375 28.773438 5.351562 C 30.714844 3.152344 33.441406 1.808594 36.371094 1.542969 C 39.277344 1.277344 41.347656 1.429688 43.722656 0.339844 Z M 43.722656 0.339844 " fill-opacity="1" fill-rule="nonzero"/><path fill="#81c785" d="M 43.722656 0.339844 C 42.132812 5.019531 39.878906 8.128906 36.671875 9.855469 C 41.109375 6.519531 42.167969 1.644531 42.167969 1.644531 C 40.453125 2.292969 34.976562 2.351562 32.324219 3.632812 C 29.671875 4.917969 26.191406 10.507812 26.191406 10.507812 L 25.289062 11.273438 C 25.050781 11.246094 24.808594 11.214844 24.5625 11.179688 C 25.960938 9.035156 27.226562 7.09375 28.773438 5.351562 C 30.714844 3.152344 33.441406 1.808594 36.371094 1.542969 C 39.277344 1.277344 41.347656 1.429688 43.722656 0.339844 Z M 43.722656 0.339844 " fill-opacity="1" fill-rule="nonzero"/><path fill="#1e5f30" d="M 41.441406 2.558594 C 36.117188 5.988281 30.550781 9.0625 24.699219 11.519531 C 24.511719 11.597656 24.296875 11.511719 24.21875 11.324219 C 24.140625 11.136719 24.226562 10.921875 24.414062 10.84375 C 30.304688 8.574219 35.945312 5.667969 41.351562 2.414062 C 41.390625 2.386719 41.445312 2.402344 41.472656 2.441406 C 41.496094 2.480469 41.484375 2.535156 41.441406 2.558594 Z M 41.441406 2.558594 " fill-opacity="1" fill-rule="nonzero"/><path fill="#1e5f30" d="M 32.355469 4.613281 C 31.152344 6.332031 29.871094 8.007812 28.582031 9.664062 C 28.582031 9.664062 28.378906 9.308594 28.378906 9.308594 L 29.171875 9.203125 C 31.011719 8.964844 32.898438 8.738281 34.742188 8.582031 C 34.851562 8.578125 34.878906 8.734375 34.769531 8.757812 C 34.242188 8.859375 33.714844 8.949219 33.191406 9.039062 C 31.640625 9.292969 29.996094 9.535156 28.4375 9.746094 C 28.246094 9.773438 28.113281 9.542969 28.234375 9.390625 C 28.882812 8.566406 29.535156 7.742188 30.199219 6.929688 C 30.488281 6.574219 30.90625 6.070312 31.203125 5.714844 C 31.539062 5.3125 31.878906 4.910156 32.222656 4.511719 C 32.292969 4.4375 32.414062 4.527344 32.355469 4.613281 Z M 32.355469 4.613281 " fill-opacity="1" fill-rule="nonzero"/><path fill="#1e5f30" d="M 35.542969 3.921875 C 34.917969 4.855469 34.238281 5.773438 33.558594 6.671875 C 33.332031 6.96875 33.101562 7.265625 32.871094 7.5625 L 32.667969 7.210938 C 34.175781 7.007812 35.714844 6.824219 37.234375 6.726562 C 37.339844 6.722656 37.363281 6.878906 37.257812 6.902344 C 36.882812 6.984375 36.503906 7.050781 36.128906 7.121094 C 35.011719 7.320312 33.851562 7.496094 32.726562 7.648438 C 32.53125 7.675781 32.398438 7.445312 32.523438 7.292969 C 32.988281 6.703125 33.457031 6.113281 33.9375 5.535156 C 34.144531 5.28125 34.449219 4.921875 34.664062 4.667969 C 34.910156 4.382812 35.15625 4.097656 35.414062 3.820312 C 35.480469 3.746094 35.597656 3.835938 35.542969 3.921875 Z M 35.542969 3.921875 " fill-opacity="1" fill-rule="nonzero"/><path fill="#1e5f30" d="M 38.332031 3.09375 C 37.929688 3.742188 37.484375 4.359375 37.027344 4.972656 C 36.875 5.175781 36.71875 5.378906 36.566406 5.578125 L 36.359375 5.222656 C 37.382812 5.089844 38.417969 4.972656 39.449219 4.941406 C 39.554688 4.941406 39.574219 5.089844 39.472656 5.117188 C 39.222656 5.179688 38.96875 5.230469 38.714844 5.285156 C 37.960938 5.4375 37.183594 5.558594 36.421875 5.660156 C 36.226562 5.6875 36.09375 5.460938 36.214844 5.308594 C 36.53125 4.90625 36.851562 4.511719 37.179688 4.125 C 37.511719 3.738281 37.847656 3.355469 38.203125 2.992188 C 38.269531 2.921875 38.382812 3.007812 38.332031 3.09375 Z M 38.332031 3.09375 " fill-opacity="1" fill-rule="nonzero"/><path fill="#81c785" d="M 34.109375 3.167969 C 34.148438 3.277344 34.117188 3.398438 34.011719 3.527344 C 33.902344 3.65625 33.753906 3.753906 33.5625 3.820312 C 33.371094 3.890625 33.195312 3.90625 33.03125 3.875 C 32.867188 3.84375 32.765625 3.773438 32.726562 3.660156 C 32.683594 3.546875 32.71875 3.425781 32.824219 3.300781 C 32.929688 3.171875 33.078125 3.074219 33.269531 3.003906 C 33.460938 2.9375 33.636719 2.917969 33.800781 2.949219 C 33.964844 2.980469 34.066406 3.054688 34.109375 3.167969 Z M 34.109375 3.167969 " fill-opacity="1" fill-rule="nonzero"/><path fill="#81c785" d="M 37.402344 2.589844 C 37.417969 2.710938 37.363281 2.820312 37.234375 2.925781 C 37.105469 3.03125 36.941406 3.101562 36.742188 3.128906 C 36.539062 3.160156 36.363281 3.144531 36.207031 3.082031 C 36.054688 3.023438 35.964844 2.929688 35.949219 2.8125 C 35.929688 2.695312 35.984375 2.582031 36.113281 2.476562 C 36.242188 2.371094 36.410156 2.304688 36.609375 2.273438 C 36.808594 2.242188 36.988281 2.257812 37.140625 2.320312 C 37.296875 2.382812 37.382812 2.472656 37.402344 2.589844 Z M 37.402344 2.589844 " fill-opacity="1" fill-rule="nonzero"/><path fill="#81c785" d="M 34.917969 3.175781 C 34.933594 3.230469 34.914062 3.285156 34.859375 3.34375 C 34.804688 3.402344 34.730469 3.441406 34.636719 3.46875 C 34.546875 3.496094 34.460938 3.5 34.382812 3.480469 C 34.304688 3.457031 34.257812 3.421875 34.242188 3.367188 C 34.226562 3.3125 34.246094 3.253906 34.300781 3.195312 C 34.359375 3.140625 34.433594 3.097656 34.523438 3.070312 C 34.617188 3.042969 34.703125 3.042969 34.78125 3.0625 C 34.859375 3.082031 34.902344 3.121094 34.917969 3.175781 Z M 34.917969 3.175781 " fill-opacity="1" fill-rule="nonzero"/><path fill="#81c785" d="M 28.558594 7.589844 C 28.632812 7.667969 28.648438 7.785156 28.597656 7.941406 C 28.546875 8.097656 28.449219 8.25 28.300781 8.394531 C 28.15625 8.542969 28.003906 8.640625 27.84375 8.691406 C 27.6875 8.738281 27.570312 8.726562 27.492188 8.648438 C 27.417969 8.574219 27.402344 8.457031 27.453125 8.300781 C 27.503906 8.140625 27.601562 7.988281 27.75 7.84375 C 27.894531 7.699219 28.046875 7.601562 28.207031 7.550781 C 28.363281 7.5 28.480469 7.515625 28.558594 7.589844 Z M 28.558594 7.589844 " fill-opacity="1" fill-rule="nonzero"/><path fill="#04043f" d="M 29.066406 11.835938 C 27.675781 11.835938 26.167969 11.71875 24.519531 11.484375 C 24.414062 11.46875 24.324219 11.402344 24.28125 11.304688 C 24.238281 11.210938 24.246094 11.097656 24.304688 11.011719 L 24.34375 10.945312 C 25.707031 8.859375 26.996094 6.890625 28.539062 5.148438 C 29.527344 4.027344 30.714844 3.121094 32.0625 2.445312 C 33.398438 1.78125 34.839844 1.371094 36.34375 1.234375 C 37.011719 1.175781 37.632812 1.136719 38.230469 1.097656 C 40.230469 0.972656 41.8125 0.875 43.59375 0.0625 C 43.707031 0.0078125 43.839844 0.0273438 43.929688 0.113281 C 44.023438 0.195312 44.054688 0.324219 44.015625 0.441406 C 43.214844 2.796875 42.269531 4.710938 41.125 6.289062 C 39.957031 7.898438 38.613281 9.117188 37.019531 10.015625 C 35.429688 10.910156 33.636719 11.460938 31.53125 11.699219 C 30.75 11.789062 29.929688 11.835938 29.066406 11.835938 Z M 25.089844 10.941406 C 26.519531 11.125 27.859375 11.21875 29.109375 11.21875 C 36.347656 11.21875 40.59375 8.03125 43.199219 0.894531 C 41.566406 1.507812 40.023438 1.605469 38.269531 1.714844 C 37.675781 1.753906 37.0625 1.789062 36.398438 1.851562 C 33.511719 2.113281 30.886719 3.429688 29.003906 5.554688 C 27.574219 7.171875 26.355469 9 25.089844 10.941406 Z M 25.089844 10.941406 " fill-opacity="1" fill-rule="nonzero"/></svg>