<svg xmlns="http://www.w3.org/2000/svg" width="367" viewBox="0 0 275.25 263.25" height="351" version="1.0"><defs><clipPath id="a"><path d="M113.727 107.484h6.785v6.79h-6.785zm0 0"/></clipPath><clipPath id="b"><path d="M117.121 107.484a3.394 3.394 0 1 0 0 6.79c1.871 0 3.39-1.52 3.39-3.395a3.393 3.393 0 0 0-3.39-3.395zm0 0"/></clipPath></defs><g clip-path="url(#a)"><g clip-path="url(#b)"><path fill="#62b433" d="M113.727 107.484h6.785v6.79h-6.785zm0 0"/></g></g><path fill="#7cb342" d="M219.707 239.45c-12.105 14.679-31.371 22.296-50.848 20.081l-21.918-2.5a86.028 86.028 0 0 0-19.386 0l-21.918 2.5c-19.473 2.215-38.739-5.402-50.844-20.082C11.824 187.34.016 83.586 51.258 49.211c17.078-12.496 43.105-.75 70.36 6.613a59.947 59.947 0 0 0 31.265 0c27.258-7.363 53.285-19.11 70.363-6.613 51.234 34.375 39.434 138.129-3.539 190.238zm0 0"/><path fill="#c6e0a6" d="M223.246 49.21c-17.082-12.495-43.11-.75-70.367 6.614a59.932 59.932 0 0 1-31.262 0c-27.254-7.363-53.281-19.11-70.363-6.613C.016 83.586 11.824 187.34 54.797 239.449c12.105 14.68 31.371 22.297 50.844 20.082l21.918-2.5a86.028 86.028 0 0 1 19.386 0l21.918 2.5c19.477 2.215 38.742-5.402 50.848-20.082 42.969-52.11 54.77-155.863 3.535-190.238zm-8.238 185.74c-11.414 13.843-29.582 21.03-47.95 18.937l-20.667-2.356a80.82 80.82 0 0 0-18.282 0l-20.668 2.356c-18.363 2.093-36.53-5.094-47.945-18.938C18.973 185.816 7.84 87.973 56.16 55.56c16.106-11.786 40.649-.707 66.352 6.234a56.475 56.475 0 0 0 29.476 0c25.703-6.941 50.25-18.02 66.356-6.234 48.316 32.414 37.187 130.257-3.336 179.39zm0 0"/><path fill="#568b3e" d="M219.707 239.45c-12.105 14.679-31.371 22.296-50.848 20.081l-21.914-2.5a85.574 85.574 0 0 0-19.386 0l-21.918 2.5c-19.473 2.215-38.739-5.402-50.844-20.082a113.235 113.235 0 0 1-2.477-3.113 43.255 43.255 0 0 1-.726-.945l-.782-1.04-.613-.835c-.05-.067-.101-.141-.152-.211-.27-.368-.531-.735-.793-1.106a119.157 119.157 0 0 1-1.742-2.504c-.008-.011-.02-.03-.032-.043a57.833 57.833 0 0 0 11.813 5.047 58.784 58.784 0 0 0 23.617 2.117l21.922-2.496a85.54 85.54 0 0 1 19.383 0l21.918 2.496c19.476 2.215 38.742-5.402 50.847-20.082 32.27-39.129 46.965-107.382 30.579-153.511-2.028-5.72-4.536-11.102-7.551-16.043.293.156.582.312.87.484a23.807 23.807 0 0 1 1.969 1.262c.133.09.266.18.395.281 51.238 34.379 39.438 138.133-3.535 190.242zm0 0"/><path fill="#c6e0a6" d="M56.586 58.297a4.83 4.83 0 0 1 1.027 1.23c.282.477.492 1.008.637 1.594a8.1 8.1 0 0 1 .223 1.895c.007.675-.059 1.382-.196 2.12a15.445 15.445 0 0 1-.613 2.266c-.273.774-.61 1.547-1.008 2.325a21.903 21.903 0 0 1-1.355 2.293 23.888 23.888 0 0 1-1.66 2.175 23.807 23.807 0 0 1-1.895 1.973 22.394 22.394 0 0 1-2.059 1.691c-.707.512-1.421.961-2.14 1.352-.723.387-1.438.707-2.149.953-.707.25-1.394.422-2.066.523-.668.102-1.3.126-1.906.07a5.846 5.846 0 0 1-1.672-.382 4.898 4.898 0 0 1-1.379-.824 4.834 4.834 0 0 1-1.023-1.235 5.895 5.895 0 0 1-.641-1.593 8.1 8.1 0 0 1-.223-1.895c-.004-.672.063-1.379.2-2.117.136-.738.34-1.496.613-2.266.273-.773.605-1.55 1.004-2.328.398-.773.851-1.539 1.36-2.293a23.793 23.793 0 0 1 1.655-2.172c.598-.699 1.23-1.355 1.895-1.972a22.33 22.33 0 0 1 2.058-1.696 18.75 18.75 0 0 1 2.145-1.347c.723-.39 1.437-.707 2.145-.957.71-.246 1.398-.422 2.066-.524a8.335 8.335 0 0 1 1.906-.07c.602.055 1.16.184 1.676.387.512.203.973.476 1.375.824zm0 0"/><path fill="#568b3e" d="M220.898 155.023c.364.149.7.368.997.66.3.29.558.649.78 1.07.223.423.4.9.536 1.438.137.536.223 1.121.27 1.75.042.633.039 1.297-.008 2-.051.7-.145 1.422-.286 2.164a22.25 22.25 0 0 1-.55 2.254 25.32 25.32 0 0 1-.793 2.254 23.575 23.575 0 0 1-2.191 4.16c-.423.63-.86 1.211-1.313 1.747a14.357 14.357 0 0 1-1.395 1.433 9.894 9.894 0 0 1-1.418 1.067c-.472.289-.933.507-1.386.652-.453.148-.891.223-1.309.223a3.146 3.146 0 0 1-1.172-.227 3.073 3.073 0 0 1-1-.66 4.15 4.15 0 0 1-.777-1.07 6.354 6.354 0 0 1-.535-1.438 9.783 9.783 0 0 1-.27-1.75 14.272 14.272 0 0 1 .008-2c.05-.7.144-1.422.285-2.168a24.138 24.138 0 0 1 1.344-4.504 25.41 25.41 0 0 1 1.008-2.164c.367-.703.761-1.367 1.183-1.996.422-.629.86-1.211 1.313-1.75.457-.535.918-1.012 1.39-1.434.473-.418.946-.773 1.418-1.062.473-.29.938-.508 1.391-.656a4.288 4.288 0 0 1 1.305-.22c.418.005.808.079 1.175.227zM205.57 170.508c.16.14.293.308.395.508.105.199.176.425.219.675.039.254.05.532.027.829-.024.296-.074.609-.16.937-.086.332-.2.672-.344 1.02a9.745 9.745 0 0 1-.516 1.058 12.405 12.405 0 0 1-1.449 2.074c-.281.328-.578.637-.883.934-.308.293-.62.566-.945.816-.32.254-.64.477-.965.672a7.47 7.47 0 0 1-.957.496 5.85 5.85 0 0 1-.902.305c-.29.066-.563.098-.82.098a2.328 2.328 0 0 1-.704-.11 1.592 1.592 0 0 1-.562-.316 1.7 1.7 0 0 1-.399-.504 2.238 2.238 0 0 1-.214-.68 3.546 3.546 0 0 1-.032-.824c.024-.297.078-.61.164-.941.082-.328.2-.668.344-1.016.14-.351.313-.703.512-1.059a12.881 12.881 0 0 1 1.453-2.074c.281-.328.574-.64.883-.933.305-.297.62-.57.941-.82.32-.25.645-.473.969-.669.324-.199.64-.363.953-.496a5.05 5.05 0 0 1 .906-.304c.29-.067.563-.102.82-.098.255 0 .489.039.704.11.21.07.398.175.562.312zm0 0"/><path fill="#c6e0a6" d="M39.445 82.613c.172.09.328.211.47.36.136.148.253.32.355.52.097.195.175.417.23.655.055.243.086.5.098.778.007.273-.004.562-.04.86a7.146 7.146 0 0 1-.171.91 8.33 8.33 0 0 1-.305.929 8.628 8.628 0 0 1-.941 1.766 7.96 7.96 0 0 1-.598.773 7.405 7.405 0 0 1-.66.652 5.43 5.43 0 0 1-.692.512 3.782 3.782 0 0 1-.699.352c-.23.09-.457.148-.676.18-.218.027-.43.027-.629-.005a1.774 1.774 0 0 1-1.023-.543 2.144 2.144 0 0 1-.355-.519 2.862 2.862 0 0 1-.23-.66 4.02 4.02 0 0 1-.102-.778 5.922 5.922 0 0 1 .039-.859 7.792 7.792 0 0 1 .477-1.84c.12-.308.26-.613.421-.91.156-.297.332-.582.52-.855.187-.274.39-.532.601-.77a6.15 6.15 0 0 1 1.352-1.168c.23-.144.465-.262.695-.351.23-.09.457-.149.676-.18.219-.027.43-.027.629.004.203.035.386.094.558.187zM45.46 82.297c.142.11.247.262.31.457.058.195.074.422.042.676a2.92 2.92 0 0 1-.222.785 3.99 3.99 0 0 1-1.086 1.438c-.227.187-.461.331-.695.429a1.635 1.635 0 0 1-.66.14.875.875 0 0 1-.524-.171.894.894 0 0 1-.309-.457 1.626 1.626 0 0 1-.046-.672c.03-.254.105-.516.226-.785a3.68 3.68 0 0 1 .457-.782c.188-.25.399-.468.625-.656.23-.187.461-.332.695-.43.235-.101.457-.148.66-.14a.876.876 0 0 1 .528.168zm0 0"/><path fill="#7cb342" d="M223.246 49.21c-.133-.1-.266-.19-.394-.28a21.646 21.646 0 0 0-1.605-1.047 4.994 4.994 0 0 0-.368-.215 18.849 18.849 0 0 0-.867-.484c3.015 4.941 5.523 10.324 7.547 16.043 37.41 38.113 25.156 126.007-12.555 171.73-11.414 13.84-29.582 21.027-47.945 18.938l-20.672-2.36a80.786 80.786 0 0 0-18.278 0l-20.668 2.36c-18.363 2.09-36.53-5.098-47.945-18.938l-.203-.25a57.599 57.599 0 0 1-11.809-5.05c.008.011.02.03.032.042.324.485.66.973.996 1.45.242.355.488.706.746 1.054.258.375.523.738.789 1.106l.156.214c.203.282.41.555.613.832.258.352.52.696.782 1.04.234.32.48.636.722.945.192.258.387.508.59.758.621.797 1.25 1.582 1.89 2.355 12.102 14.68 31.372 22.3 50.845 20.082l21.914-2.5a85.574 85.574 0 0 1 19.386 0l21.918 2.5c19.477 2.215 38.742-5.402 50.848-20.082 42.969-52.113 54.77-155.867 3.535-190.242zm0 0"/><path fill="#04043f" d="M99 261.695a60.557 60.557 0 0 1-22.203-4.207c-9.164-3.62-17.246-9.465-23.379-16.902-6.848-8.3-13.02-18.008-18.344-28.86-5.176-10.542-9.433-21.913-12.656-33.792-3.215-11.868-5.313-23.907-6.223-35.79-.937-12.195-.601-23.925.996-34.851 3.965-27.102 15.387-47.688 33.04-59.543 14.71-10.734 35.394-4.492 57.289 2.113 4.75 1.434 9.664 2.914 14.566 4.239a58.227 58.227 0 0 0 30.332 0c4.902-1.325 9.816-2.805 14.57-4.239 21.895-6.605 42.578-12.847 57.29-2.113 17.652 11.855 29.074 32.445 33.038 59.547 1.598 10.93 1.934 22.656.997 34.851-.915 11.883-3.008 23.922-6.227 35.79-3.223 11.878-7.48 23.25-12.656 33.792-5.325 10.848-11.496 20.56-18.34 28.86-6.133 7.437-14.215 13.281-23.383 16.902-9.156 3.617-19.203 4.938-29.047 3.817l-21.918-2.497a83.808 83.808 0 0 0-18.98 0l-21.918 2.497a60.843 60.843 0 0 1-6.844.386zM69.926 45.508c-7.188 0-12.875 1.68-17.614 5.144a.509.509 0 0 1-.058.04C35.445 61.968 24.547 81.718 20.73 107.804c-6.402 43.77 8.176 97.437 35.446 130.504 11.648 14.129 30.523 21.578 49.261 19.445l21.918-2.5a87.76 87.76 0 0 1 19.79 0l21.917 2.5c2.122.238 4.25.36 6.364.36 16.562 0 32.574-7.278 42.902-19.801 27.27-33.067 41.844-86.731 35.445-130.5-3.816-26.09-14.714-45.84-31.523-57.118-.02-.015-.04-.027-.059-.043-6.004-4.39-13.535-5.914-23.707-4.785-9.304 1.031-19.582 4.133-30.464 7.414-4.778 1.442-9.715 2.934-14.672 4.27a61.816 61.816 0 0 1-32.196 0c-4.953-1.336-9.89-2.828-14.668-4.27-10.879-3.281-21.156-6.383-30.46-7.414a55.382 55.382 0 0 0-6.098-.36zm0 0"/><path fill="#568b3e" d="M216.27 183.39a8.679 8.679 0 0 1 2 2.516c.265.492.488 1.02.68 1.578.187.559.335 1.153.448 1.774.114.62.188 1.27.223 1.945.035.68.031 1.383-.012 2.11-.039.722-.12 1.472-.238 2.242a29.221 29.221 0 0 1-.473 2.355 33.894 33.894 0 0 1-.695 2.453 39.41 39.41 0 0 1-.914 2.52c-.34.851-.715 1.707-1.125 2.566a52.748 52.748 0 0 1-2.828 5.168 54.16 54.16 0 0 1-1.68 2.555 61.314 61.314 0 0 1-3.805 4.918 61.032 61.032 0 0 1-4.277 4.516 57.023 57.023 0 0 1-4.586 3.938 50.915 50.915 0 0 1-2.351 1.702 48.508 48.508 0 0 1-2.364 1.504c-.789.465-1.574.895-2.351 1.29-.781.394-1.555.75-2.32 1.065-.762.317-1.516.59-2.258.829-.742.234-1.469.43-2.18.582-.71.152-1.406.265-2.082.336-.672.066-1.328.093-1.957.078a12.403 12.403 0 0 1-1.824-.172 10.587 10.587 0 0 1-1.664-.426 9.048 9.048 0 0 1-1.492-.672 8.25 8.25 0 0 1-1.305-.918 8.516 8.516 0 0 1-2-2.515 10.426 10.426 0 0 1-.676-1.579 12.264 12.264 0 0 1-.453-1.773 15.254 15.254 0 0 1-.223-1.945c-.035-.68-.031-1.38.012-2.106.04-.726.121-1.476.242-2.246.117-.766.274-1.555.469-2.355.195-.805.426-1.621.695-2.453.27-.833.574-1.672.914-2.52.34-.852.715-1.707 1.125-2.566.407-.864.848-1.723 1.32-2.586a57.415 57.415 0 0 1 3.188-5.137 61.315 61.315 0 0 1 3.805-4.918 61.03 61.03 0 0 1 4.277-4.516 57.022 57.022 0 0 1 4.586-3.938 56.495 56.495 0 0 1 2.352-1.702 46.78 46.78 0 0 1 2.367-1.504c.785-.465 1.57-.895 2.351-1.29.778-.394 1.551-.75 2.317-1.062a29.006 29.006 0 0 1 2.258-.832c.742-.234 1.468-.43 2.18-.582.71-.152 1.406-.265 2.081-.332.676-.07 1.328-.097 1.961-.082a12.96 12.96 0 0 1 1.82.172c.583.102 1.137.242 1.665.426a9.048 9.048 0 0 1 1.492.672c.469.265.902.57 1.305.918zm0 0"/><path fill="#754c29" d="M167.23 15.07C149.777 29 141.715 51.105 139.082 74.457a36.28 36.28 0 0 1-7.129-.344c.313-31.191 9.332-53.515 25.461-68.601a4.27 4.27 0 0 1 5.457-.309l4.227 3.137c2.238 1.66 2.308 4.996.132 6.73zm0 0"/><path fill="#a97c50" d="M161.16 8.176a4.272 4.272 0 0 1 4.7-.758l-2.989-2.215a4.266 4.266 0 0 0-5.457.309c-16.129 15.082-25.144 37.406-25.46 68.601 1.257.184 2.523.297 3.792.352.73-29.985 9.691-51.578 25.414-66.29zm0 0"/><path fill="#04043f" d="M137.27 76.29c-1.868 0-3.735-.138-5.579-.407a1.794 1.794 0 0 1-1.527-1.79c.156-15.484 2.484-29.265 6.918-40.956 4.309-11.367 10.738-21.102 19.106-28.93a6.062 6.062 0 0 1 7.75-.441l4.222 3.136a6.017 6.017 0 0 1 2.445 4.754 5.995 5.995 0 0 1-2.261 4.813c-15.258 12.176-24.508 31.754-27.485 58.187a1.787 1.787 0 0 1-1.687 1.586c-.633.031-1.27.047-1.902.047zm-3.504-3.75c1.234.124 2.48.183 3.722.175 1.485-12.063 4.336-22.89 8.473-32.211 4.91-11.05 11.691-20.078 20.152-26.828a2.43 2.43 0 0 0 .918-1.957 2.468 2.468 0 0 0-1-1.946l-4.226-3.132a2.471 2.471 0 0 0-3.168.18c-15.93 14.894-24.29 37-24.871 65.718zm33.464-57.47zm0 0"/><path fill="#a97c50" d="M160.156 10.344c.172.156.278.37.317.648.035.274.007.586-.094.942a4.652 4.652 0 0 1-.488 1.093A6.667 6.667 0 0 1 158.082 15a4.482 4.482 0 0 1-1.047.582c-.34.133-.652.191-.93.18-.277-.016-.503-.102-.675-.258-.168-.156-.274-.371-.313-.649-.039-.273-.008-.59.094-.94.101-.352.262-.72.488-1.095a6.754 6.754 0 0 1 1.809-1.977c.351-.253.703-.448 1.043-.577.344-.133.656-.192.933-.18.278.016.5.101.672.258zM155.43 16.445a.513.513 0 0 1 .148.305c.016.133.004.277-.047.445a2.142 2.142 0 0 1-.226.512 3.182 3.182 0 0 1-.852.93c-.168.12-.328.21-.492.273-.16.063-.305.09-.438.082a.476.476 0 0 1-.316-.117.492.492 0 0 1-.148-.305 1.146 1.146 0 0 1 .043-.445c.05-.164.125-.336.23-.512a3.182 3.182 0 0 1 .852-.93 2.07 2.07 0 0 1 .492-.273c.16-.062.304-.09.437-.082a.497.497 0 0 1 .317.117zm0 0"/><path fill="#04043f" d="M114.883 66c12.222 7.563 26.293 9.043 39.422 2.828 1.808-.832 3.558-1.82 5.32-2.832a.79.79 0 0 1 1.074.29.787.787 0 0 1-.152.972 36.143 36.143 0 0 1-5.02 3.805c-10.863 6.94-25.691 6.94-36.55 0a36.376 36.376 0 0 1-5.02-3.805c-.676-.64.11-1.723.926-1.258zm0 0"/><path fill="#42a047" d="M251.242 2.004c-9.199 27.121-22.222 45.152-40.754 55.164-16.91 9.148-38.414 11.617-65.781 8.234a222.782 222.782 0 0 1-4.203-.554c8.09-12.422 15.402-23.68 24.328-33.793 11.234-12.742 26.996-20.535 43.922-22.082 16.789-1.532 28.758-.66 42.488-6.97zm0 0"/><path fill="#81c785" d="M251.242 2.004c-9.199 27.121-22.222 45.152-40.754 55.164 25.66-19.328 31.758-47.617 31.758-47.617-9.89 3.777-41.555 4.113-56.883 11.55-15.332 7.438-35.453 39.844-35.453 39.844l-5.207 4.457a227.095 227.095 0 0 1-4.203-.554c8.094-12.422 15.406-23.68 24.328-33.793 11.234-12.742 27-20.535 43.922-22.082 16.793-1.532 28.762-.66 42.492-6.97zm0 0"/><path fill="#1e5f30" d="M238.066 14.863c-30.777 19.875-62.945 37.711-96.765 51.957a2.126 2.126 0 0 1-2.79-1.136 2.124 2.124 0 0 1 1.134-2.786c34.054-13.164 66.644-29.996 97.89-48.886a.507.507 0 0 1 .692.172.505.505 0 0 1-.16.68zm0 0"/><path fill="#1e5f30" d="M185.543 26.781c-6.965 9.953-14.363 19.676-21.8 29.274l-1.18-2.051 4.585-.613c10.625-1.371 21.532-2.703 32.2-3.59.617-.043.777.87.136 1.011-3.035.583-6.078 1.098-9.12 1.618-8.962 1.488-18.45 2.886-27.458 4.105-1.12.164-1.883-1.164-1.176-2.047a952.401 952.401 0 0 1 11.356-14.281c1.652-2.07 4.082-4.977 5.789-7.055 1.953-2.332 3.906-4.664 5.91-6.957.395-.437 1.094.075.758.586zm0 0"/><path fill="#1e5f30" d="M203.965 22.77c-3.617 5.418-7.54 10.734-11.465 15.933a629.727 629.727 0 0 1-3.984 5.184l-1.176-2.047c8.726-1.168 17.605-2.235 26.39-2.8.618-.028.754.866.141 1.01-2.168.47-4.348.868-6.523 1.27-6.453 1.149-13.168 2.172-19.664 3.047-1.13.164-1.883-1.168-1.18-2.047 2.687-3.433 5.398-6.847 8.18-10.203 1.195-1.476 2.96-3.543 4.199-5.015 1.426-1.653 2.847-3.309 4.324-4.922.402-.426 1.078.086.758.59zm0 0"/><path fill="#1e5f30" d="M220.094 17.957c-2.328 3.762-4.906 7.355-7.547 10.902a296.73 296.73 0 0 1-2.676 3.512l-1.18-2.05c5.907-.786 11.891-1.466 17.848-1.641.602-.008.723.855.137 1.011-1.453.372-2.922.672-4.383.977-4.352.879-8.852 1.586-13.258 2.184-1.125.164-1.883-1.168-1.18-2.051a233.964 233.964 0 0 1 5.567-6.852c1.914-2.25 3.851-4.469 5.914-6.582.398-.402 1.05.102.758.59zm0 0"/><path fill="#81c785" d="M195.676 18.387c.113.312.117.652.02 1.015-.098.36-.298.72-.59 1.078a5.17 5.17 0 0 1-1.114.977c-.449.297-.937.54-1.469.727a6.877 6.877 0 0 1-1.593.37 4.993 4.993 0 0 1-1.48-.05c-.458-.086-.837-.238-1.145-.457a1.65 1.65 0 0 1-.63-.797c-.113-.313-.116-.652-.019-1.012.098-.363.297-.722.594-1.078.293-.36.664-.683 1.113-.98a6.922 6.922 0 0 1 1.465-.727 6.716 6.716 0 0 1 1.594-.367 4.993 4.993 0 0 1 1.48.047c.457.086.836.238 1.145.457.305.219.516.484.629.797zM214.707 15.05c.05.333-.008.665-.176 1-.164.34-.426.653-.785.946a5.15 5.15 0 0 1-1.281.75 6.86 6.86 0 0 1-1.578.434 6.77 6.77 0 0 1-1.633.058 4.933 4.933 0 0 1-1.445-.332c-.43-.172-.774-.394-1.036-.664a1.68 1.68 0 0 1-.464-.902c-.051-.328.007-.664.171-1 .168-.336.43-.652.79-.945a4.999 4.999 0 0 1 1.277-.747 6.779 6.779 0 0 1 1.578-.437 6.803 6.803 0 0 1 1.637-.059c.535.051 1.015.16 1.445.332.43.172.773.395 1.035.664.258.274.414.575.465.903zM200.363 18.438a.798.798 0 0 1-.023.484 1.385 1.385 0 0 1-.317.492c-.152.16-.34.305-.562.43a3.203 3.203 0 0 1-.723.3 3.163 3.163 0 0 1-.773.126 2.498 2.498 0 0 1-.703-.07 1.378 1.378 0 0 1-.532-.259.777.777 0 0 1-.273-.398.797.797 0 0 1 .023-.484c.06-.168.165-.336.317-.497.152-.16.34-.3.562-.43a3.32 3.32 0 0 1 1.496-.422c.254-.01.489.013.704.071.214.055.39.14.53.254.138.113.231.246.274.402zM163.59 44.04c.21.21.336.491.379.843.039.351-.012.746-.149 1.187a5.604 5.604 0 0 1-.648 1.34c-.297.457-.649.89-1.055 1.297-.406.41-.84.758-1.297 1.055a5.626 5.626 0 0 1-1.343.648c-.438.137-.836.188-1.188.149-.351-.043-.633-.168-.844-.38-.215-.214-.34-.495-.382-.847-.04-.352.011-.746.148-1.184.137-.437.355-.886.648-1.343.297-.457.649-.89 1.055-1.297.406-.406.84-.758 1.297-1.055a5.626 5.626 0 0 1 1.344-.648c.437-.137.836-.188 1.187-.145.352.04.633.164.848.38zm0 0"/><path fill="#04043f" d="M166.543 68.645c-8.055 0-16.758-.672-26.293-2.028a1.797 1.797 0 0 1-1.379-1.031 1.788 1.788 0 0 1 .133-1.715l.238-.371c7.883-12.094 15.324-23.516 24.242-33.629 5.72-6.488 12.575-11.758 20.371-15.656 7.727-3.867 16.047-6.23 24.735-7.024 3.87-.351 7.445-.574 10.902-.793 11.574-.722 20.715-1.293 31-6.02a1.793 1.793 0 0 1 2.445 2.2c-4.636 13.672-10.105 24.766-16.71 33.906-6.75 9.34-14.512 16.41-23.73 21.621-9.185 5.188-19.556 8.383-31.708 9.766-4.527.516-9.262.774-14.246.774zm-23-5.188c8.281 1.074 16.016 1.625 23.23 1.625 41.844 0 66.387-18.48 81.45-59.875-9.45 3.57-18.368 4.129-28.504 4.766-3.43.214-6.98.433-10.801.785-16.691 1.52-31.875 9.148-42.746 21.48-8.262 9.364-15.297 19.977-22.629 31.219zm0 0"/></svg>