<svg xmlns="http://www.w3.org/2000/svg" xmlns:xlink="http://www.w3.org/1999/xlink" width="45" zoomAndPan="magnify" viewBox="0 0 33.75 48" height="64" preserveAspectRatio="xMidYMid meet" version="1.0"><defs><clipPath id="bdba24b7c6"><path d="M 11.195312 23.511719 L 12.371094 23.511719 L 12.371094 24.6875 L 11.195312 24.6875 Z M 11.195312 23.511719 " clip-rule="nonzero"/></clipPath><clipPath id="6356132505"><path d="M 11.785156 23.511719 C 11.460938 23.511719 11.195312 23.773438 11.195312 24.097656 C 11.195312 24.421875 11.460938 24.6875 11.785156 24.6875 C 12.109375 24.6875 12.371094 24.421875 12.371094 24.097656 C 12.371094 23.773438 12.109375 23.511719 11.785156 23.511719 Z M 11.785156 23.511719 " clip-rule="nonzero"/></clipPath><clipPath id="15f086cb0c"><path d="M 0.195312 0.511719 L 1.371094 0.511719 L 1.371094 1.6875 L 0.195312 1.6875 Z M 0.195312 0.511719 " clip-rule="nonzero"/></clipPath><clipPath id="dd61cf795d"><path d="M 0.785156 0.511719 C 0.460938 0.511719 0.195312 0.773438 0.195312 1.097656 C 0.195312 1.421875 0.460938 1.6875 0.785156 1.6875 C 1.109375 1.6875 1.371094 1.421875 1.371094 1.097656 C 1.371094 0.773438 1.109375 0.511719 0.785156 0.511719 Z M 0.785156 0.511719 " clip-rule="nonzero"/></clipPath><clipPath id="690e344180"><rect x="0" width="2" y="0" height="2"/></clipPath><clipPath id="b336e3713c"><path d="M 15.757812 4.65625 L 33.269531 4.65625 L 33.269531 43.824219 L 15.757812 43.824219 Z M 15.757812 4.65625 " clip-rule="nonzero"/></clipPath><clipPath id="5e22075598"><path d="M 15.84375 4.65625 L 33.269531 4.65625 L 33.269531 32.535156 L 15.84375 32.535156 Z M 15.84375 4.65625 " clip-rule="nonzero"/></clipPath><clipPath id="53e8715233"><path d="M 0.222656 9 L 30 9 L 30 46 L 0.222656 46 Z M 0.222656 9 " clip-rule="nonzero"/></clipPath></defs><g clip-path="url(#bdba24b7c6)"><g clip-path="url(#6356132505)"><g transform="matrix(1, 0, 0, 1, 11, 23)"><g clip-path="url(#690e344180)"><g clip-path="url(#15f086cb0c)"><g clip-path="url(#dd61cf795d)"><path fill="#dc0b1b" d="M 0.195312 0.511719 L 1.371094 0.511719 L 1.371094 1.6875 L 0.195312 1.6875 Z M 0.195312 0.511719 " fill-opacity="1" fill-rule="nonzero"/></g></g></g></g></g></g><g clip-path="url(#b336e3713c)"><path fill="#6b9913" d="M 32.375 43.71875 C 27.574219 44.242188 22.457031 41.894531 22.878906 33.332031 C 23.300781 24.765625 30.09375 16.085938 16.597656 9.511719 C 16.117188 10.207031 15.539062 8.945312 15.910156 7.316406 C 16.101562 6.476562 16.550781 5.535156 17.394531 4.714844 C 17.394531 4.714844 32.058594 3.777344 33.269531 22.3125 C 33.21875 26.1875 32.28125 29.566406 31.351562 32.453125 C 29.542969 38.046875 27.75 41.792969 32.375 43.71875 " fill-opacity="1" fill-rule="nonzero"/></g><g clip-path="url(#5e22075598)"><path fill="#99d148" d="M 31.351562 32.453125 C 31.703125 29.707031 31.746094 26.90625 31.390625 24.171875 C 30.933594 20.648438 29.734375 17.179688 27.617188 14.3125 C 24.855469 10.570312 20.546875 7.980469 15.910156 7.316406 C 16.101562 6.476562 16.550781 5.535156 17.394531 4.714844 C 17.394531 4.714844 32.058594 3.777344 33.269531 22.3125 C 33.21875 26.1875 32.28125 29.566406 31.351562 32.453125 " fill-opacity="1" fill-rule="nonzero"/></g><path fill="#425e03" d="M 15.4375 6.910156 C 15.601562 6.914062 15.738281 6.929688 15.886719 6.945312 C 16.03125 6.960938 16.175781 6.980469 16.320312 7.003906 C 16.605469 7.046875 16.890625 7.101562 17.171875 7.164062 C 17.730469 7.289062 18.285156 7.445312 18.828125 7.632812 C 19.910156 8.003906 20.953125 8.484375 21.929688 9.066406 C 22.417969 9.355469 22.898438 9.664062 23.351562 10.003906 C 23.585938 10.164062 23.804688 10.347656 24.027344 10.519531 L 24.351562 10.789062 C 24.460938 10.878906 24.570312 10.972656 24.675781 11.066406 C 25.519531 11.816406 26.292969 12.640625 26.996094 13.519531 C 26.253906 12.671875 25.441406 11.890625 24.570312 11.1875 C 24.464844 11.09375 24.351562 11.011719 24.242188 10.925781 L 23.90625 10.671875 C 23.675781 10.511719 23.453125 10.34375 23.214844 10.195312 C 22.75 9.882812 22.265625 9.601562 21.773438 9.339844 C 20.789062 8.8125 19.75 8.390625 18.683594 8.078125 C 18.148438 7.921875 17.605469 7.796875 17.0625 7.699219 C 16.789062 7.65625 16.515625 7.613281 16.242188 7.585938 C 16.105469 7.570312 15.96875 7.558594 15.832031 7.550781 C 15.699219 7.542969 15.554688 7.535156 15.433594 7.535156 L 15.4375 6.910156 " fill-opacity="1" fill-rule="nonzero"/><g clip-path="url(#53e8715233)"><path fill="#ffb200" d="M 29.558594 25.496094 C 29.5 28.304688 28.707031 31.046875 27.371094 33.523438 C 21.734375 43.953125 14.265625 47.019531 6.671875 45.273438 C 5.414062 45.027344 4.394531 44.449219 3.628906 43.636719 C 2.820312 42.777344 2.292969 41.652344 2.0625 40.363281 C 1.761719 38.695312 1.972656 37.039062 2.148438 35.367188 C 2.402344 32.933594 1.429688 31.246094 0.914062 28.957031 C 0.363281 26.492188 0.238281 23.941406 0.355469 21.425781 C 1.507812 10.824219 9.816406 9.375 13.867188 9.308594 C 15.203125 9.285156 16.078125 9.414062 16.078125 9.414062 C 23.054688 10.597656 29.738281 16.613281 29.558594 25.496094 " fill-opacity="1" fill-rule="nonzero"/></g><path fill="#fc9200" d="M 29.558594 25.496094 C 29.5 28.304688 28.707031 31.046875 27.371094 33.523438 C 21.734375 43.953125 14.265625 47.019531 6.671875 45.273438 C 5.414062 45.027344 4.394531 44.449219 3.628906 43.636719 C 5.03125 44.167969 6.515625 44.453125 8.058594 44.453125 C 16.316406 44.453125 23.011719 36.265625 23.011719 26.164062 C 23.011719 18.582031 19.242188 12.078125 13.867188 9.308594 C 15.203125 9.285156 16.078125 9.414062 16.078125 9.414062 C 23.054688 10.597656 29.738281 16.613281 29.558594 25.496094 " fill-opacity="1" fill-rule="nonzero"/><path fill="#fed559" d="M 9.25 21.007812 C 7.09375 26.292969 9 32.183594 5.722656 30.875 C 2.449219 29.566406 0.371094 23.390625 2.527344 18.105469 C 4.683594 12.820312 10.253906 10.425781 13.53125 11.734375 C 16.804688 13.042969 11.40625 15.722656 9.25 21.007812 " fill-opacity="1" fill-rule="nonzero"/><path fill="#fcf8e5" d="M 6.53125 17.214844 C 6.109375 17.214844 5.753906 17.085938 5.535156 16.8125 C 4.964844 16.117188 5.507812 14.753906 6.742188 13.765625 C 7.496094 13.164062 8.335938 12.839844 9.003906 12.839844 C 9.429688 12.839844 9.78125 12.96875 10.003906 13.238281 C 10.570312 13.933594 10.03125 15.300781 8.796875 16.285156 C 8.042969 16.890625 7.199219 17.214844 6.53125 17.214844 " fill-opacity="1" fill-rule="nonzero"/><path fill="#f3f9e9" d="M 30.792969 15.726562 C 30.472656 15.140625 30.175781 14.554688 29.816406 14.003906 C 29.648438 13.722656 29.460938 13.453125 29.277344 13.183594 C 29.234375 13.113281 29.183594 13.050781 29.136719 12.984375 L 28.992188 12.789062 C 28.894531 12.65625 28.800781 12.523438 28.695312 12.398438 C 28.300781 11.886719 27.867188 11.402344 27.417969 10.933594 L 27.074219 10.589844 C 26.960938 10.476562 26.835938 10.371094 26.71875 10.257812 L 26.542969 10.09375 C 26.484375 10.039062 26.421875 9.984375 26.359375 9.933594 C 26.234375 9.828125 26.117188 9.71875 25.988281 9.617188 C 24.992188 8.789062 23.910156 8.050781 22.773438 7.402344 C 22.203125 7.078125 21.617188 6.777344 21.019531 6.492188 C 20.425781 6.207031 19.816406 5.949219 19.1875 5.707031 C 19.523438 5.742188 19.855469 5.804688 20.183594 5.878906 C 20.511719 5.949219 20.839844 6.042969 21.160156 6.136719 C 21.808594 6.335938 22.441406 6.578125 23.058594 6.859375 C 24.289062 7.425781 25.453125 8.148438 26.5 9.015625 C 27.019531 9.457031 27.515625 9.925781 27.96875 10.429688 C 28.082031 10.554688 28.191406 10.6875 28.300781 10.816406 C 28.355469 10.882812 28.410156 10.945312 28.464844 11.011719 L 28.617188 11.214844 C 28.71875 11.351562 28.824219 11.484375 28.921875 11.621094 L 29.207031 12.042969 C 29.304688 12.183594 29.382812 12.332031 29.472656 12.476562 C 29.554688 12.621094 29.648438 12.765625 29.722656 12.914062 L 29.953125 13.367188 C 30.03125 13.515625 30.09375 13.671875 30.160156 13.824219 C 30.433594 14.441406 30.636719 15.082031 30.792969 15.726562 " fill-opacity="1" fill-rule="nonzero"/><path fill="#99d148" d="M 19.890625 0.691406 L 19.890625 0.703125 C 19.890625 0.726562 19.886719 0.75 19.886719 0.773438 C 19.882812 0.800781 19.878906 0.828125 19.871094 0.855469 C 19.871094 0.867188 19.867188 0.878906 19.863281 0.890625 C 19.859375 0.90625 19.855469 0.925781 19.847656 0.941406 C 19.804688 1.070312 19.730469 1.1875 19.625 1.28125 C 18.460938 2.308594 15.824219 5.402344 16.335938 12.023438 L 15.804688 12.066406 L 15.09375 12.117188 L 14.917969 12.132812 C 14.367188 5.015625 17.238281 1.523438 18.652344 0.253906 C 18.886719 0.0429688 19.207031 0.00390625 19.476562 0.105469 C 19.53125 0.128906 19.578125 0.152344 19.628906 0.1875 L 19.632812 0.191406 C 19.769531 0.28125 19.863281 0.433594 19.882812 0.597656 C 19.886719 0.628906 19.890625 0.660156 19.890625 0.691406 " fill-opacity="1" fill-rule="nonzero"/><path fill="#6b9913" d="M 19.890625 0.691406 L 19.890625 0.703125 C 19.890625 0.726562 19.886719 0.75 19.886719 0.773438 C 19.882812 0.800781 19.878906 0.828125 19.871094 0.855469 C 19.871094 0.867188 19.867188 0.878906 19.863281 0.890625 C 19.859375 0.90625 19.855469 0.925781 19.847656 0.941406 C 19.804688 1.070312 19.730469 1.1875 19.625 1.28125 C 18.460938 2.308594 15.824219 5.402344 16.335938 12.023438 L 14.9375 12.367188 C 14.9375 12.363281 14.964844 12.25 15.09375 12.117188 C 15.1875 12.027344 15.328125 11.925781 15.546875 11.84375 C 15.0625 5.238281 17.949219 1.582031 19.476562 0.105469 C 19.53125 0.128906 19.578125 0.152344 19.628906 0.1875 L 19.632812 0.191406 C 19.769531 0.28125 19.863281 0.433594 19.882812 0.597656 C 19.886719 0.628906 19.890625 0.660156 19.890625 0.691406 " fill-opacity="1" fill-rule="nonzero"/><path fill="#d37402" d="M 13.304688 11.683594 C 13.660156 11.808594 14.007812 11.875 14.355469 11.910156 C 14.703125 11.941406 15.046875 11.933594 15.386719 11.894531 C 15.558594 11.867188 15.730469 11.847656 15.898438 11.804688 C 16.070312 11.777344 16.238281 11.71875 16.410156 11.675781 C 16.5 11.65625 16.582031 11.625 16.667969 11.597656 C 16.753906 11.570312 16.839844 11.542969 16.925781 11.519531 C 17.097656 11.457031 17.269531 11.394531 17.457031 11.34375 C 17.390625 11.414062 17.324219 11.476562 17.253906 11.539062 C 17.183594 11.601562 17.109375 11.664062 17.035156 11.722656 C 16.957031 11.773438 16.878906 11.828125 16.796875 11.878906 C 16.714844 11.925781 16.636719 11.980469 16.550781 12.019531 C 16.375 12.101562 16.203125 12.183594 16.015625 12.234375 C 15.96875 12.25 15.921875 12.261719 15.875 12.277344 L 15.804688 12.296875 L 15.734375 12.3125 L 15.445312 12.359375 C 15.058594 12.40625 14.65625 12.378906 14.28125 12.269531 C 13.910156 12.160156 13.554688 11.972656 13.304688 11.683594 " fill-opacity="1" fill-rule="nonzero"/></svg>