<svg xmlns="http://www.w3.org/2000/svg" width="278" viewBox="0 0 208.5 299.25" height="399" version="1.0"><defs><clipPath id="a"><path d="M44.426 204.785h6.793v6.79h-6.793zm0 0"/></clipPath><clipPath id="b"><path d="M47.82 204.785a3.394 3.394 0 1 0 0 6.79 3.398 3.398 0 0 0 3.399-3.395 3.398 3.398 0 0 0-3.399-3.395zm0 0"/></clipPath><clipPath id="c"><path d="M97.387 29.477h109.75v248.039H97.387zm0 0"/></clipPath><clipPath id="d"><path d="M98 29.477h109.137V206H98zm0 0"/></clipPath><clipPath id="e"><path d="M.012 58H184v232H.012zm0 0"/></clipPath></defs><g clip-path="url(#a)"><g clip-path="url(#b)"><path fill="#903089" d="M44.426 204.785h6.793v6.79h-6.793zm0 0"/></g></g><g clip-path="url(#c)"><path fill="#6b9913" d="M201.523 276.86c-30.085 3.312-62.144-11.57-59.496-65.798 2.637-54.23 45.196-109.203-39.375-150.828-3.015 4.395-6.632-3.59-4.304-13.894 1.21-5.328 4.007-11.29 9.3-16.477 0 0 91.891-5.953 99.489 111.434-.336 24.543-6.2 45.937-12.04 64.219-11.312 35.414-22.57 59.129 6.426 71.343"/></g><g clip-path="url(#d)"><path fill="#99d148" d="M195.098 205.516c2.218-17.387 2.488-35.145.257-52.442-2.875-22.312-10.375-44.293-23.64-62.445-17.32-23.695-44.305-40.086-73.367-44.29 1.21-5.327 4.007-11.288 9.3-16.476 0 0 91.891-5.953 99.489 111.434-.336 24.543-6.2 45.937-12.04 64.219"/></g><path fill="#425e03" d="M95.39 43.754c1.016.039 1.883.129 2.81.226.91.106 1.812.23 2.71.364 1.793.277 3.57.629 5.332 1.015a97.63 97.63 0 0 1 10.387 2.965 104.957 104.957 0 0 1 19.445 9.086c3.059 1.844 6.055 3.793 8.91 5.934 1.453 1.027 2.825 2.172 4.23 3.261l2.04 1.723a47.79 47.79 0 0 1 2.012 1.75 124.688 124.688 0 0 1 14.539 15.524 124.284 124.284 0 0 0-15.18-14.766c-.672-.574-1.375-1.11-2.074-1.645l-2.098-1.605c-1.441-1.012-2.84-2.078-4.324-3.027-2.91-1.977-5.945-3.754-9.031-5.422a102.713 102.713 0 0 0-19.375-7.98 94.562 94.562 0 0 0-10.157-2.391 79.757 79.757 0 0 0-5.14-.73 71.298 71.298 0 0 0-2.57-.227 37.065 37.065 0 0 0-2.489-.086l.024-3.97"/><g clip-path="url(#e)"><path fill="#ffb200" d="M183.871 161.465c-.355 17.773-5.324 35.133-13.715 50.816-35.32 66.055-82.12 85.465-129.687 74.418-7.89-1.578-14.278-5.23-19.067-10.375-5.078-5.437-8.379-12.562-9.836-20.734-1.875-10.563-.566-21.047.532-31.633 1.609-15.414-4.489-26.098-7.711-40.582-3.473-15.613-4.246-31.762-3.5-47.7 7.207-67.136 59.273-76.312 84.66-76.73 8.371-.136 13.844.676 13.844.676 43.738 7.48 85.613 45.57 84.48 101.844"/></g><path fill="#fc9200" d="M183.871 161.465c-.355 17.773-5.324 35.133-13.715 50.816-35.32 66.055-82.12 85.465-129.687 74.418-7.89-1.578-14.278-5.23-19.067-10.375 8.766 3.36 18.075 5.168 27.746 5.168 51.75 0 93.704-51.851 93.704-115.812 0-48.012-23.633-89.184-57.305-106.735 8.371-.136 13.844.676 13.844.676 43.738 7.48 85.613 45.57 84.48 101.844"/><path fill="#fed559" d="M56.621 133.023c-13.512 33.473-1.582 70.774-22.105 62.485-20.528-8.293-33.543-47.387-20.036-80.86C27.992 81.18 62.914 66.012 83.437 74.301c20.524 8.289-13.308 25.254-26.816 58.722"/><path fill="#fcf8e5" d="M39.582 109.008c-2.652 0-4.875-.82-6.254-2.531-3.558-4.403-.176-13.043 7.559-19.293 4.734-3.829 10-5.871 14.187-5.871 2.656 0 4.875.82 6.258 2.527 3.559 4.406.172 13.043-7.559 19.297-4.734 3.824-10.003 5.87-14.191 5.87"/><path fill="#f3f9e9" d="M191.602 99.59c-2.004-3.715-3.86-7.434-6.114-10.918-1.043-1.785-2.238-3.477-3.37-5.188a21.615 21.615 0 0 0-.891-1.261l-.907-1.246c-.613-.825-1.191-1.668-1.843-2.461-2.493-3.254-5.215-6.309-8.016-9.274l-2.156-2.172c-.703-.738-1.48-1.402-2.22-2.11l-1.112-1.05c-.375-.344-.762-.676-1.145-1.012-.773-.668-1.523-1.359-2.316-2.003-6.254-5.25-13.024-9.907-20.16-14.012-3.567-2.059-7.235-3.965-10.973-5.762-3.738-1.82-7.563-3.457-11.492-4.973 2.101.211 4.18.614 6.242 1.079 2.062.457 4.098 1.03 6.129 1.636a95.916 95.916 0 0 1 11.875 4.567c7.715 3.582 15.008 8.168 21.57 13.668 3.254 2.78 6.356 5.75 9.207 8.949.715.8 1.387 1.637 2.078 2.453.34.41.692.816 1.028 1.23l.964 1.286c.633.863 1.297 1.703 1.907 2.582l1.773 2.672c.613.87 1.125 1.816 1.668 2.734.524.93 1.11 1.82 1.574 2.785l1.438 2.852c.496.941.883 1.937 1.308 2.91 1.7 3.89 2.985 7.945 3.954 12.039"/><path fill="#99d148" d="M123.285 4.39v.07c0 .145-.008.298-.027.446-.02.168-.04.336-.078.504a.885.885 0 0 1-.063.227c-.02.113-.047.222-.09.32a4.946 4.946 0 0 1-1.406 2.152c-7.277 6.5-23.808 26.098-20.598 68.036l-3.34.257-4.44.34-1.11.09c-3.465-45.074 14.535-67.195 23.39-75.219 1.465-1.332 3.48-1.597 5.168-.933.336.129.653.297.95.504l.02.011.01.008c.872.578 1.446 1.543 1.575 2.578.027.203.04.406.04.61"/><path fill="#6b9913" d="M123.285 4.39v.07c0 .145-.008.298-.027.446-.02.168-.04.336-.078.504a.885.885 0 0 1-.063.227c-.02.113-.047.222-.09.32a4.946 4.946 0 0 1-1.406 2.152c-7.277 6.5-23.808 26.098-20.598 68.036l-8.761 2.164c0-.02.168-.735.98-1.567.574-.586 1.465-1.23 2.836-1.746C93.035 33.164 111.133 10.023 120.691.68c.336.129.653.297.95.504l.02.011.01.008c.872.578 1.446 1.543 1.575 2.578.027.203.04.406.04.61"/><path fill="#d37402" d="M82.012 73.988c2.238.79 4.422 1.219 6.597 1.43 2.168.21 4.32.144 6.465-.098 1.07-.172 2.145-.297 3.207-.57 1.078-.18 2.121-.54 3.203-.809.551-.117 1.067-.336 1.606-.5.535-.18 1.078-.343 1.629-.504 1.074-.39 2.152-.792 3.324-1.101-.406.43-.84.832-1.281 1.23-.438.403-.89.797-1.36 1.16-.492.337-.988.669-1.492.989-.508.312-1.004.66-1.555.898-1.082.516-2.175 1.047-3.351 1.364-.29.097-.578.18-.871.265l-.438.13-.449.089-1.808.312c-2.434.278-4.942.125-7.29-.57-2.332-.7-4.57-1.883-6.136-3.715"/></svg>