<svg xmlns="http://www.w3.org/2000/svg" xmlns:xlink="http://www.w3.org/1999/xlink" width="64" zoomAndPan="magnify" viewBox="0 0 48 47.25" height="63" preserveAspectRatio="xMidYMid meet" version="1.0"><defs><clipPath id="b57860b88d"><path d="M 19.8125 23.339844 L 20.992188 23.339844 L 20.992188 24.519531 L 19.8125 24.519531 Z M 19.8125 23.339844 " clip-rule="nonzero"/></clipPath><clipPath id="38546197bc"><path d="M 20.402344 23.339844 C 20.078125 23.339844 19.8125 23.605469 19.8125 23.929688 C 19.8125 24.257812 20.078125 24.519531 20.402344 24.519531 C 20.730469 24.519531 20.992188 24.257812 20.992188 23.929688 C 20.992188 23.605469 20.730469 23.339844 20.402344 23.339844 Z M 20.402344 23.339844 " clip-rule="nonzero"/></clipPath><clipPath id="7115710b11"><path d="M 0.8125 0.339844 L 1.992188 0.339844 L 1.992188 1.519531 L 0.8125 1.519531 Z M 0.8125 0.339844 " clip-rule="nonzero"/></clipPath><clipPath id="421b662eb0"><path d="M 1.402344 0.339844 C 1.078125 0.339844 0.8125 0.605469 0.8125 0.929688 C 0.8125 1.257812 1.078125 1.519531 1.402344 1.519531 C 1.730469 1.519531 1.992188 1.257812 1.992188 0.929688 C 1.992188 0.605469 1.730469 0.339844 1.402344 0.339844 Z M 1.402344 0.339844 " clip-rule="nonzero"/></clipPath><clipPath id="a3498e4ee9"><rect x="0" width="2" y="0" height="2"/></clipPath><clipPath id="919e2ab5a0"><path d="M 0.375 1 L 47 1 L 47 45 L 0.375 45 Z M 0.375 1 " clip-rule="nonzero"/></clipPath><clipPath id="1c6fb0a7bb"><path d="M 13 5 L 17 5 L 17 7 L 13 7 Z M 13 5 " clip-rule="nonzero"/></clipPath><clipPath id="80bfedb3a9"><path d="M 14.433594 5.355469 L 15.484375 5.070312 C 15.992188 5.007812 16.183594 5.132812 16.058594 5.453125 C 15.867188 5.832031 15.515625 6.152344 15.003906 6.40625 C 14.109375 6.789062 13.507812 6.722656 13.1875 6.214844 C 13.058594 6.023438 13.125 5.863281 13.378906 5.738281 C 13.507812 5.675781 13.859375 5.546875 14.433594 5.355469 Z M 14.433594 5.355469 " clip-rule="evenodd"/></clipPath><radialGradient gradientTransform="matrix(0.581842, 0.8129, 0.814539, -0.580671, 14.469736, -8.791662)" gradientUnits="userSpaceOnUse" r="1.849522" cx="11.228967" id="ba5e570df3" cy="-8.651483" fx="11.228967" fy="-8.651483"><stop stop-opacity="1" stop-color="rgb(48.934937%, 70.857239%, 10.960388%)" offset="0"/><stop stop-opacity="1" stop-color="rgb(48.724365%, 70.555115%, 10.914612%)" offset="0.0078125"/><stop stop-opacity="1" stop-color="rgb(48.471069%, 70.191956%, 10.85968%)" offset="0.0195312"/><stop stop-opacity="1" stop-color="rgb(48.217773%, 69.828796%, 10.804749%)" offset="0.03125"/><stop stop-opacity="1" stop-color="rgb(47.966003%, 69.467163%, 10.749817%)" offset="0.0429688"/><stop stop-opacity="1" stop-color="rgb(47.712708%, 69.104004%, 10.693359%)" offset="0.0546875"/><stop stop-opacity="1" stop-color="rgb(47.460938%, 68.740845%, 10.638428%)" offset="0.0664062"/><stop stop-opacity="1" stop-color="rgb(47.207642%, 68.377686%, 10.583496%)" offset="0.078125"/><stop stop-opacity="1" stop-color="rgb(46.954346%, 68.014526%, 10.528564%)" offset="0.0898438"/><stop stop-opacity="1" stop-color="rgb(46.702576%, 67.651367%, 10.473633%)" offset="0.101562"/><stop stop-opacity="1" stop-color="rgb(46.44928%, 67.288208%, 10.418701%)" offset="0.113281"/><stop stop-opacity="1" stop-color="rgb(46.195984%, 66.925049%, 10.362244%)" offset="0.125"/><stop stop-opacity="1" stop-color="rgb(45.944214%, 66.56189%, 10.307312%)" offset="0.136719"/><stop stop-opacity="1" stop-color="rgb(45.690918%, 66.19873%, 10.25238%)" offset="0.148438"/><stop stop-opacity="1" stop-color="rgb(45.437622%, 65.835571%, 10.197449%)" offset="0.160156"/><stop stop-opacity="1" stop-color="rgb(45.185852%, 65.472412%, 10.142517%)" offset="0.171875"/><stop stop-opacity="1" stop-color="rgb(44.932556%, 65.109253%, 10.08606%)" offset="0.183594"/><stop stop-opacity="1" stop-color="rgb(44.67926%, 64.74762%, 10.031128%)" offset="0.195312"/><stop stop-opacity="1" stop-color="rgb(44.42749%, 64.38446%, 9.976196%)" offset="0.207031"/><stop stop-opacity="1" stop-color="rgb(44.174194%, 64.021301%, 9.921265%)" offset="0.21875"/><stop stop-opacity="1" stop-color="rgb(43.920898%, 63.658142%, 9.866333%)" offset="0.230469"/><stop stop-opacity="1" stop-color="rgb(43.669128%, 63.294983%, 9.811401%)" offset="0.242188"/><stop stop-opacity="1" stop-color="rgb(43.458557%, 62.991333%, 9.764099%)" offset="0.253906"/><stop stop-opacity="1" stop-color="rgb(43.289185%, 62.750244%, 9.727478%)" offset="0.261719"/><stop stop-opacity="1" stop-color="rgb(43.121338%, 62.507629%, 9.690857%)" offset="0.269531"/><stop stop-opacity="1" stop-color="rgb(42.951965%, 62.265015%, 9.654236%)" offset="0.277344"/><stop stop-opacity="1" stop-color="rgb(42.784119%, 62.023926%, 9.617615%)" offset="0.285156"/><stop stop-opacity="1" stop-color="rgb(42.614746%, 61.781311%, 9.580994%)" offset="0.292969"/><stop stop-opacity="1" stop-color="rgb(42.446899%, 61.540222%, 9.544373%)" offset="0.300781"/><stop stop-opacity="1" stop-color="rgb(42.277527%, 61.297607%, 9.507751%)" offset="0.308594"/><stop stop-opacity="1" stop-color="rgb(42.10968%, 61.054993%, 9.47113%)" offset="0.316406"/><stop stop-opacity="1" stop-color="rgb(41.941833%, 60.813904%, 9.432983%)" offset="0.324219"/><stop stop-opacity="1" stop-color="rgb(41.772461%, 60.571289%, 9.396362%)" offset="0.332031"/><stop stop-opacity="1" stop-color="rgb(41.604614%, 60.328674%, 9.359741%)" offset="0.339844"/><stop stop-opacity="1" stop-color="rgb(41.435242%, 60.087585%, 9.32312%)" offset="0.347656"/><stop stop-opacity="1" stop-color="rgb(41.267395%, 59.844971%, 9.286499%)" offset="0.355469"/><stop stop-opacity="1" stop-color="rgb(41.098022%, 59.603882%, 9.249878%)" offset="0.363281"/><stop stop-opacity="1" stop-color="rgb(40.930176%, 59.361267%, 9.213257%)" offset="0.371094"/><stop stop-opacity="1" stop-color="rgb(40.762329%, 59.118652%, 9.176636%)" offset="0.378906"/><stop stop-opacity="1" stop-color="rgb(40.592957%, 58.877563%, 9.140015%)" offset="0.386719"/><stop stop-opacity="1" stop-color="rgb(40.42511%, 58.634949%, 9.101868%)" offset="0.394531"/><stop stop-opacity="1" stop-color="rgb(40.255737%, 58.39386%, 9.065247%)" offset="0.402344"/><stop stop-opacity="1" stop-color="rgb(40.087891%, 58.151245%, 9.028625%)" offset="0.410156"/><stop stop-opacity="1" stop-color="rgb(39.918518%, 57.90863%, 8.992004%)" offset="0.417969"/><stop stop-opacity="1" stop-color="rgb(39.750671%, 57.667542%, 8.955383%)" offset="0.425781"/><stop stop-opacity="1" stop-color="rgb(39.581299%, 57.424927%, 8.918762%)" offset="0.433594"/><stop stop-opacity="1" stop-color="rgb(39.413452%, 57.182312%, 8.882141%)" offset="0.441406"/><stop stop-opacity="1" stop-color="rgb(39.245605%, 56.941223%, 8.84552%)" offset="0.449219"/><stop stop-opacity="1" stop-color="rgb(39.076233%, 56.698608%, 8.807373%)" offset="0.457031"/><stop stop-opacity="1" stop-color="rgb(38.908386%, 56.45752%, 8.770752%)" offset="0.464844"/><stop stop-opacity="1" stop-color="rgb(38.739014%, 56.214905%, 8.734131%)" offset="0.472656"/><stop stop-opacity="1" stop-color="rgb(38.571167%, 55.97229%, 8.69751%)" offset="0.480469"/><stop stop-opacity="1" stop-color="rgb(38.401794%, 55.731201%, 8.660889%)" offset="0.488281"/><stop stop-opacity="1" stop-color="rgb(38.233948%, 55.488586%, 8.624268%)" offset="0.496094"/><stop stop-opacity="1" stop-color="rgb(38.023376%, 55.186462%, 8.578491%)" offset="0.503906"/><stop stop-opacity="1" stop-color="rgb(37.770081%, 54.823303%, 8.52356%)" offset="0.515625"/><stop stop-opacity="1" stop-color="rgb(37.518311%, 54.460144%, 8.467102%)" offset="0.527344"/><stop stop-opacity="1" stop-color="rgb(37.265015%, 54.096985%, 8.41217%)" offset="0.539062"/><stop stop-opacity="1" stop-color="rgb(37.011719%, 53.733826%, 8.357239%)" offset="0.550781"/><stop stop-opacity="1" stop-color="rgb(36.759949%, 53.370667%, 8.302307%)" offset="0.5625"/><stop stop-opacity="1" stop-color="rgb(36.506653%, 53.009033%, 8.247375%)" offset="0.574219"/><stop stop-opacity="1" stop-color="rgb(36.253357%, 52.645874%, 8.192444%)" offset="0.585938"/><stop stop-opacity="1" stop-color="rgb(36.001587%, 52.282715%, 8.135986%)" offset="0.597656"/><stop stop-opacity="1" stop-color="rgb(35.748291%, 51.919556%, 8.081055%)" offset="0.609375"/><stop stop-opacity="1" stop-color="rgb(35.494995%, 51.556396%, 8.026123%)" offset="0.621094"/><stop stop-opacity="1" stop-color="rgb(35.284424%, 51.252747%, 7.980347%)" offset="0.632812"/><stop stop-opacity="1" stop-color="rgb(35.116577%, 51.011658%, 7.943726%)" offset="0.640625"/><stop stop-opacity="1" stop-color="rgb(34.947205%, 50.769043%, 7.907104%)" offset="0.648438"/><stop stop-opacity="1" stop-color="rgb(34.779358%, 50.526428%, 7.870483%)" offset="0.65625"/><stop stop-opacity="1" stop-color="rgb(34.611511%, 50.285339%, 7.832336%)" offset="0.664062"/><stop stop-opacity="1" stop-color="rgb(34.442139%, 50.042725%, 7.795715%)" offset="0.671875"/><stop stop-opacity="1" stop-color="rgb(34.274292%, 49.801636%, 7.759094%)" offset="0.679688"/><stop stop-opacity="1" stop-color="rgb(34.104919%, 49.559021%, 7.722473%)" offset="0.6875"/><stop stop-opacity="1" stop-color="rgb(33.937073%, 49.316406%, 7.685852%)" offset="0.695312"/><stop stop-opacity="1" stop-color="rgb(33.7677%, 49.075317%, 7.649231%)" offset="0.703125"/><stop stop-opacity="1" stop-color="rgb(33.599854%, 48.832703%, 7.61261%)" offset="0.710938"/><stop stop-opacity="1" stop-color="rgb(33.430481%, 48.591614%, 7.575989%)" offset="0.71875"/><stop stop-opacity="1" stop-color="rgb(33.262634%, 48.348999%, 7.539368%)" offset="0.726562"/><stop stop-opacity="1" stop-color="rgb(33.094788%, 48.106384%, 7.501221%)" offset="0.734375"/><stop stop-opacity="1" stop-color="rgb(32.925415%, 47.865295%, 7.4646%)" offset="0.742188"/><stop stop-opacity="1" stop-color="rgb(32.757568%, 47.622681%, 7.427979%)" offset="0.75"/><stop stop-opacity="1" stop-color="rgb(32.546997%, 47.320557%, 7.382202%)" offset="0.757812"/><stop stop-opacity="1" stop-color="rgb(32.293701%, 46.957397%, 7.327271%)" offset="0.769531"/><stop stop-opacity="1" stop-color="rgb(32.040405%, 46.594238%, 7.272339%)" offset="0.78125"/><stop stop-opacity="1" stop-color="rgb(31.788635%, 46.231079%, 7.215881%)" offset="0.792969"/><stop stop-opacity="1" stop-color="rgb(31.535339%, 45.86792%, 7.16095%)" offset="0.804688"/><stop stop-opacity="1" stop-color="rgb(31.324768%, 45.565796%, 7.115173%)" offset="0.816406"/><stop stop-opacity="1" stop-color="rgb(31.156921%, 45.323181%, 7.078552%)" offset="0.824219"/><stop stop-opacity="1" stop-color="rgb(30.987549%, 45.082092%, 7.041931%)" offset="0.832031"/><stop stop-opacity="1" stop-color="rgb(30.819702%, 44.839478%, 7.00531%)" offset="0.839844"/><stop stop-opacity="1" stop-color="rgb(30.65033%, 44.596863%, 6.968689%)" offset="0.847656"/><stop stop-opacity="1" stop-color="rgb(30.482483%, 44.355774%, 6.932068%)" offset="0.855469"/><stop stop-opacity="1" stop-color="rgb(30.31311%, 44.113159%, 6.895447%)" offset="0.863281"/><stop stop-opacity="1" stop-color="rgb(30.145264%, 43.870544%, 6.8573%)" offset="0.871094"/><stop stop-opacity="1" stop-color="rgb(29.934692%, 43.56842%, 6.811523%)" offset="0.878906"/><stop stop-opacity="1" stop-color="rgb(29.681396%, 43.206787%, 6.756592%)" offset="0.890625"/><stop stop-opacity="1" stop-color="rgb(29.429626%, 42.843628%, 6.70166%)" offset="0.902344"/><stop stop-opacity="1" stop-color="rgb(29.219055%, 42.539978%, 6.655884%)" offset="0.914062"/><stop stop-opacity="1" stop-color="rgb(29.049683%, 42.297363%, 6.619263%)" offset="0.921875"/><stop stop-opacity="1" stop-color="rgb(28.881836%, 42.056274%, 6.582642%)" offset="0.929688"/><stop stop-opacity="1" stop-color="rgb(28.712463%, 41.81366%, 6.544495%)" offset="0.9375"/><stop stop-opacity="1" stop-color="rgb(28.501892%, 41.511536%, 6.498718%)" offset="0.945312"/><stop stop-opacity="1" stop-color="rgb(28.291321%, 41.209412%, 6.452942%)" offset="0.957031"/><stop stop-opacity="1" stop-color="rgb(28.123474%, 40.966797%, 6.416321%)" offset="0.964844"/><stop stop-opacity="1" stop-color="rgb(27.912903%, 40.664673%, 6.370544%)" offset="0.972656"/><stop stop-opacity="1" stop-color="rgb(27.702332%, 40.362549%, 6.324768%)" offset="0.984375"/><stop stop-opacity="1" stop-color="rgb(27.532959%, 40.119934%, 6.288147%)" offset="0.992188"/><stop stop-opacity="1" stop-color="rgb(27.449036%, 39.99939%, 6.269836%)" offset="1"/></radialGradient><clipPath id="4664c12ad3"><path d="M 12 4 L 16 4 L 16 7 L 12 7 Z M 12 4 " clip-rule="nonzero"/></clipPath><clipPath id="ee7c1a57b3"><path d="M 14.242188 4.785156 C 14.625 4.65625 15.039062 4.65625 15.484375 4.785156 C 15.929688 4.972656 16.027344 5.230469 15.773438 5.546875 C 15.390625 5.929688 14.941406 6.183594 14.433594 6.308594 C 13.859375 6.5 13.445312 6.46875 13.191406 6.214844 C 12.933594 5.960938 12.871094 5.738281 13 5.546875 C 13.125 5.355469 13.539062 5.101562 14.242188 4.785156 Z M 14.242188 4.785156 " clip-rule="evenodd"/></clipPath><radialGradient gradientTransform="matrix(0.581842, 0.8129, 0.814539, -0.580672, 14.486391, -8.805537)" gradientUnits="userSpaceOnUse" r="1.849468" cx="10.882823" id="c4aa35a60b" cy="-8.662696" fx="10.882823" fy="-8.662696"><stop stop-opacity="1" stop-color="rgb(48.902893%, 70.806885%, 10.954285%)" offset="0"/><stop stop-opacity="1" stop-color="rgb(48.684692%, 70.484924%, 10.908508%)" offset="0.03125"/><stop stop-opacity="1" stop-color="rgb(48.480225%, 70.185852%, 10.865784%)" offset="0.0585938"/><stop stop-opacity="1" stop-color="rgb(48.277283%, 69.885254%, 10.823059%)" offset="0.0859375"/><stop stop-opacity="1" stop-color="rgb(48.072815%, 69.584656%, 10.780334%)" offset="0.113281"/><stop stop-opacity="1" stop-color="rgb(47.883606%, 69.30542%, 10.740662%)" offset="0.140625"/><stop stop-opacity="1" stop-color="rgb(47.709656%, 69.049072%, 10.702515%)" offset="0.164062"/><stop stop-opacity="1" stop-color="rgb(47.53418%, 68.791199%, 10.665894%)" offset="0.1875"/><stop stop-opacity="1" stop-color="rgb(47.360229%, 68.533325%, 10.629272%)" offset="0.210938"/><stop stop-opacity="1" stop-color="rgb(47.184753%, 68.276978%, 10.592651%)" offset="0.234375"/><stop stop-opacity="1" stop-color="rgb(47.024536%, 68.040466%, 10.559082%)" offset="0.257812"/><stop stop-opacity="1" stop-color="rgb(46.879578%, 67.826843%, 10.528564%)" offset="0.277344"/><stop stop-opacity="1" stop-color="rgb(46.734619%, 67.611694%, 10.498047%)" offset="0.296875"/><stop stop-opacity="1" stop-color="rgb(46.588135%, 67.398071%, 10.467529%)" offset="0.316406"/><stop stop-opacity="1" stop-color="rgb(46.443176%, 67.182922%, 10.437012%)" offset="0.335938"/><stop stop-opacity="1" stop-color="rgb(46.298218%, 66.969299%, 10.406494%)" offset="0.355469"/><stop stop-opacity="1" stop-color="rgb(46.151733%, 66.75415%, 10.374451%)" offset="0.375"/><stop stop-opacity="1" stop-color="rgb(45.948792%, 66.453552%, 10.331726%)" offset="0.394531"/><stop stop-opacity="1" stop-color="rgb(45.68634%, 66.067505%, 10.276794%)" offset="0.429688"/><stop stop-opacity="1" stop-color="rgb(45.439148%, 65.70282%, 10.224915%)" offset="0.464844"/><stop stop-opacity="1" stop-color="rgb(45.207214%, 65.359497%, 10.176086%)" offset="0.496094"/><stop stop-opacity="1" stop-color="rgb(44.989014%, 65.039062%, 10.13031%)" offset="0.527344"/><stop stop-opacity="1" stop-color="rgb(44.784546%, 64.738464%, 10.08606%)" offset="0.554688"/><stop stop-opacity="1" stop-color="rgb(44.595337%, 64.459229%, 10.046387%)" offset="0.582031"/><stop stop-opacity="1" stop-color="rgb(44.421387%, 64.201355%, 10.009766%)" offset="0.605469"/><stop stop-opacity="1" stop-color="rgb(44.261169%, 63.96637%, 9.976196%)" offset="0.628906"/><stop stop-opacity="1" stop-color="rgb(44.114685%, 63.751221%, 9.945679%)" offset="0.648438"/><stop stop-opacity="1" stop-color="rgb(43.969727%, 63.537598%, 9.915161%)" offset="0.667969"/><stop stop-opacity="1" stop-color="rgb(43.824768%, 63.322449%, 9.884644%)" offset="0.6875"/><stop stop-opacity="1" stop-color="rgb(43.6203%, 63.021851%, 9.841919%)" offset="0.707031"/><stop stop-opacity="1" stop-color="rgb(43.373108%, 62.657166%, 9.790039%)" offset="0.742188"/><stop stop-opacity="1" stop-color="rgb(43.154907%, 62.336731%, 9.742737%)" offset="0.773438"/><stop stop-opacity="1" stop-color="rgb(42.965698%, 62.057495%, 9.703064%)" offset="0.800781"/><stop stop-opacity="1" stop-color="rgb(42.805481%, 61.820984%, 9.669495%)" offset="0.824219"/><stop stop-opacity="1" stop-color="rgb(42.660522%, 61.607361%, 9.638977%)" offset="0.84375"/><stop stop-opacity="1" stop-color="rgb(42.471313%, 61.328125%, 9.599304%)" offset="0.863281"/><stop stop-opacity="1" stop-color="rgb(42.266846%, 61.027527%, 9.55658%)" offset="0.894531"/><stop stop-opacity="1" stop-color="rgb(42.106628%, 60.792542%, 9.52301%)" offset="0.917969"/><stop stop-opacity="1" stop-color="rgb(41.917419%, 60.513306%, 9.483337%)" offset="0.9375"/><stop stop-opacity="1" stop-color="rgb(41.685486%, 60.169983%, 9.432983%)" offset="0.96875"/><stop stop-opacity="1" stop-color="rgb(41.569519%, 59.999084%, 9.408569%)" offset="1"/></radialGradient></defs><g clip-path="url(#b57860b88d)"><g clip-path="url(#38546197bc)"><g transform="matrix(1, 0, 0, 1, 19, 23)"><g clip-path="url(#a3498e4ee9)"><g clip-path="url(#7115710b11)"><g clip-path="url(#421b662eb0)"><path fill="#dc0b1b" d="M 0.8125 0.339844 L 1.992188 0.339844 L 1.992188 1.519531 L 0.8125 1.519531 Z M 0.8125 0.339844 " fill-opacity="1" fill-rule="nonzero"/></g></g></g></g></g></g><g clip-path="url(#919e2ab5a0)"><path fill="#d66915" d="M 34.609375 4.019531 C 39.835938 6.566406 43.214844 9.714844 44.746094 13.46875 C 47.296875 19.511719 47.519531 25.683594 45.414062 31.980469 C 42.738281 40.125 36.363281 44.421875 26.292969 44.863281 C 16.984375 45.308594 10.097656 43.210938 5.636719 38.566406 C 2.191406 35.003906 0.4375 30.421875 0.375 24.824219 C 0.3125 19.035156 1.808594 14.136719 4.867188 10.128906 C 7.800781 6.183594 11.882812 3.480469 17.109375 2.015625 C 22.910156 0.425781 28.746094 1.09375 34.609375 4.019531 Z M 34.609375 4.019531 " fill-opacity="1" fill-rule="evenodd"/></g><path fill="#eb7805" d="M 40.347656 11.75 C 40.664062 11.878906 40.921875 12.261719 41.109375 12.894531 C 41.367188 13.40625 41.589844 13.851562 41.78125 14.230469 C 41.847656 14.484375 41.847656 14.898438 41.78125 15.472656 C 41.589844 16.933594 41.527344 17.859375 41.589844 18.238281 C 41.65625 18.429688 41.816406 18.71875 42.070312 19.101562 C 42.261719 19.480469 42.421875 20.023438 42.546875 20.722656 C 42.800781 21.996094 42.867188 23.074219 42.738281 23.964844 C 42.609375 24.792969 42.546875 25.972656 42.546875 27.496094 C 42.546875 27.6875 42.609375 28.132812 42.738281 28.835938 C 42.867188 29.34375 42.867188 29.820312 42.738281 30.265625 C 42.609375 30.773438 42.066406 31.410156 41.109375 32.175781 C 39.835938 33.128906 39.167969 33.636719 39.101562 33.703125 C 38.019531 35.035156 37.476562 36.085938 37.476562 36.851562 C 37.476562 37.167969 36.839844 37.835938 35.566406 38.855469 C 34.351562 39.808594 33.398438 40.414062 32.695312 40.667969 L 28.488281 42.382812 C 27.789062 42.703125 27.179688 42.734375 26.671875 42.480469 C 25.84375 42.101562 25.207031 41.90625 24.761719 41.90625 C 23.292969 41.90625 21.730469 41.683594 20.074219 41.238281 C 19.757812 41.109375 19.34375 41.175781 18.832031 41.429688 C 18.257812 41.621094 17.585938 41.652344 16.824219 41.523438 C 16.378906 41.460938 15.132812 41.429688 13.09375 41.429688 C 12.648438 41.429688 12.105469 41.207031 11.46875 40.761719 C 10.832031 40.378906 10.386719 39.996094 10.128906 39.617188 C 10.066406 39.234375 10 38.949219 9.9375 38.757812 C 9.75 38.4375 9.175781 37.960938 8.21875 37.324219 C 7.132812 36.691406 6.496094 36.277344 6.304688 36.085938 C 6.175781 36.019531 5.859375 35.703125 5.347656 35.132812 C 4.582031 34.433594 4.039062 33.859375 3.722656 33.414062 C 3.210938 32.714844 2.957031 31.792969 2.957031 30.648438 C 2.957031 29.628906 2.894531 28.800781 2.765625 28.164062 C 2.640625 27.59375 2.542969 27.050781 2.480469 26.542969 C 2.480469 26.226562 2.289062 25.304688 1.90625 23.773438 C 1.523438 22.4375 1.398438 21.546875 1.523438 21.101562 C 1.78125 20.273438 2.003906 19.222656 2.195312 17.953125 C 2.515625 15.535156 2.898438 14.070312 3.339844 13.5625 C 3.40625 13.5 3.628906 13.054688 4.011719 12.226562 C 4.332031 11.464844 4.710938 10.984375 5.160156 10.792969 C 5.542969 10.605469 5.859375 10.382812 6.113281 10.125 C 6.625 9.679688 7.136719 9.269531 7.644531 8.886719 C 7.898438 8.695312 8.472656 7.964844 9.367188 6.691406 C 9.941406 5.800781 10.800781 5.324219 11.949219 5.261719 C 14.113281 5.070312 16.347656 4.527344 18.640625 3.640625 C 21.253906 2.621094 23.933594 2.523438 26.675781 3.351562 L 27.152344 3.351562 C 28.171875 3.480469 29.257812 3.863281 30.402344 4.496094 C 31.742188 5.261719 32.570312 5.675781 32.890625 5.738281 C 33.460938 5.929688 34.101562 6.089844 34.800781 6.214844 C 35.3125 6.40625 35.628906 6.789062 35.757812 7.359375 C 35.886719 7.871094 36.011719 8.15625 36.140625 8.21875 C 36.777344 8.472656 37.226562 8.695312 37.480469 8.886719 C 38.117188 9.269531 38.5 9.652344 38.625 10.03125 C 38.816406 10.605469 39.007812 10.988281 39.199219 11.179688 C 39.390625 11.304688 39.773438 11.496094 40.347656 11.75 Z M 40.347656 11.75 " fill-opacity="1" fill-rule="evenodd"/><path fill="#f98b0e" d="M 23.324219 5.640625 C 24.789062 6.023438 25.84375 6.375 26.480469 6.691406 L 28.871094 8.503906 C 30.019531 9.394531 30.847656 9.90625 31.359375 10.03125 C 31.742188 10.09375 32.410156 10.699219 33.367188 11.84375 C 34.324219 12.863281 34.960938 13.722656 35.277344 14.421875 C 35.726562 15.3125 36.074219 16.648438 36.332031 18.429688 C 36.648438 19.574219 36.777344 20.976562 36.714844 22.628906 C 36.648438 24.089844 36.492188 25.015625 36.234375 25.394531 C 36.042969 25.585938 35.789062 26.320312 35.472656 27.589844 C 35.214844 28.734375 35.089844 29.5625 35.089844 30.070312 C 35.089844 30.644531 34.230469 31.40625 32.507812 32.363281 C 31.871094 32.742188 31.074219 33.347656 30.117188 34.175781 C 29.03125 35.191406 28.234375 35.894531 27.722656 36.273438 C 27.023438 36.785156 26.511719 37.007812 26.195312 36.945312 C 25.046875 36.816406 24.28125 36.753906 23.898438 36.753906 C 22.816406 36.816406 22.210938 36.945312 22.082031 37.132812 C 21.828125 37.707031 21.667969 37.992188 21.605469 37.992188 C 21.285156 38.308594 20.746094 38.40625 19.980469 38.28125 C 19.023438 38.089844 18.195312 37.960938 17.492188 37.898438 C 16.726562 37.769531 15.710938 37.800781 14.433594 37.992188 C 13.667969 37.992188 12.714844 37.832031 11.566406 37.515625 C 11.054688 37.386719 10.640625 37.101562 10.320312 36.65625 C 9.875 36.085938 9.589844 35.734375 9.460938 35.605469 C 8.058594 35.160156 7.132812 34.589844 6.6875 33.890625 C 6.113281 33.378906 5.574219 32.777344 5.0625 32.078125 C 4.742188 31.695312 4.390625 30.648438 4.007812 28.925781 C 3.6875 27.144531 3.46875 26.066406 3.339844 25.683594 C 3.210938 25.238281 3.148438 24.761719 3.148438 24.25 C 3.210938 23.742188 3.242188 23.359375 3.242188 23.105469 C 2.796875 21.578125 2.636719 20.496094 2.765625 19.863281 C 2.828125 19.164062 3.339844 17.824219 4.296875 15.855469 C 4.679688 15.152344 4.804688 14.390625 4.679688 13.5625 C 4.613281 12.992188 4.742188 12.511719 5.0625 12.132812 C 5.570312 11.8125 5.953125 11.496094 6.207031 11.175781 C 6.71875 10.730469 7.609375 9.777344 8.886719 8.3125 C 9.457031 7.679688 9.9375 7.390625 10.320312 7.453125 C 10.574219 7.515625 10.859375 7.582031 11.179688 7.644531 C 11.5625 7.582031 12.902344 6.914062 15.195312 5.640625 C 15.832031 5.386719 16.472656 5.257812 17.109375 5.257812 C 18.066406 5.324219 18.796875 5.324219 19.308594 5.257812 C 20.265625 5.132812 21.605469 5.261719 23.324219 5.640625 Z M 23.324219 5.640625 " fill-opacity="1" fill-rule="evenodd"/><path fill="#ba5106" d="M 22.367188 4.496094 L 20.933594 4.59375 C 19.976562 4.59375 18.128906 5.230469 15.386719 6.5 C 15.003906 6.691406 14.496094 7.042969 13.859375 7.550781 C 13.414062 7.933594 12.871094 8.1875 12.234375 8.316406 C 11.148438 8.632812 9.9375 9.332031 8.597656 10.414062 C 8.664062 10.160156 8.980469 9.746094 9.554688 9.171875 C 10.191406 8.601562 11.023438 8.15625 12.042969 7.835938 L 10.796875 7.648438 C 10.414062 7.582031 10.066406 7.613281 9.746094 7.742188 L 9.269531 7.933594 L 10.222656 7.359375 C 11.054688 7.042969 11.816406 7.007812 12.519531 7.265625 C 13.222656 7.457031 13.507812 7.425781 13.378906 7.171875 C 13.253906 6.722656 13.253906 6.441406 13.378906 6.3125 C 13.570312 6.121094 13.636719 5.929688 13.570312 5.738281 C 13.445312 5.355469 13.378906 5.039062 13.378906 4.785156 C 13.445312 4.085938 13.699219 3.386719 14.144531 2.683594 L 13.953125 3.066406 C 13.761719 3.894531 13.859375 4.65625 14.242188 5.355469 C 14.496094 5.929688 14.558594 5.929688 14.433594 5.355469 C 14.367188 5.101562 14.6875 4.464844 15.386719 3.449219 C 16.089844 2.367188 16.792969 1.792969 17.492188 1.730469 C 16.21875 3.191406 15.582031 4.210938 15.582031 4.785156 L 16.152344 4.878906 C 16.726562 4.878906 17.492188 4.785156 18.449219 4.59375 C 19.980469 4.273438 21.285156 4.242188 22.367188 4.496094 Z M 22.367188 4.496094 " fill-opacity="1" fill-rule="evenodd"/><path fill="#ba5106" d="M 15.769531 4.117188 C 16.28125 3.542969 16.886719 3.222656 17.585938 3.160156 C 17.777344 3.542969 17.746094 3.921875 17.492188 4.304688 C 17.238281 4.75 16.695312 5.164062 15.867188 5.546875 L 18.351562 5.355469 C 19.054688 5.421875 19.757812 5.386719 20.457031 5.261719 C 18.800781 6.34375 17.589844 6.882812 16.824219 6.882812 C 16.378906 6.949219 15.867188 6.851562 15.292969 6.597656 L 14.625 6.214844 C 14.433594 7.679688 13.890625 8.539062 13 8.792969 C 12.425781 8.984375 11.882812 9.046875 11.375 8.984375 L 10.796875 8.886719 C 11.179688 8.378906 11.851562 7.871094 12.808594 7.359375 L 14.242188 6.40625 L 11.277344 5.929688 L 11.851562 5.640625 C 12.359375 5.515625 12.835938 5.515625 13.285156 5.640625 L 14.242188 5.738281 Z M 15.769531 4.117188 " fill-opacity="1" fill-rule="evenodd"/><path fill="#7db51c" d="M 15.101562 3.542969 C 15.355469 3.160156 15.804688 2.714844 16.441406 2.207031 C 17.140625 2.714844 17.363281 3.128906 17.109375 3.449219 L 15.484375 5.070312 L 18.066406 4.59375 C 18.960938 4.527344 19.660156 4.59375 20.171875 4.78125 C 19.789062 5.226562 18.960938 5.675781 17.683594 6.117188 C 16.917969 6.371094 16.1875 6.46875 15.484375 6.40625 L 14.625 6.214844 C 14.433594 6.914062 14.019531 7.484375 13.378906 7.933594 C 12.742188 8.378906 11.691406 8.535156 10.226562 8.410156 C 10.03125 8.347656 10.066406 8.125 10.320312 7.742188 C 10.894531 6.914062 11.851562 6.308594 13.191406 5.929688 C 12.617188 5.992188 12.105469 5.929688 11.660156 5.738281 L 10.703125 4.976562 L 11.757812 4.785156 C 12.585938 4.660156 13.347656 4.785156 14.050781 5.167969 Z M 15.101562 3.542969 " fill-opacity="1" fill-rule="evenodd"/><path fill="#6a9918" d="M 18.066406 5.070312 C 17.109375 5.261719 16.25 5.515625 15.484375 5.832031 L 14.625 6.214844 C 14.433594 6.917969 14.019531 7.488281 13.378906 7.933594 C 12.742188 8.378906 11.691406 8.539062 10.226562 8.410156 L 10.128906 8.316406 L 11.085938 7.933594 C 11.914062 7.613281 12.933594 7.042969 14.144531 6.214844 L 15.578125 5.070312 L 18.066406 4.59375 C 18.957031 4.527344 19.660156 4.59375 20.167969 4.78125 Z M 18.066406 5.070312 " fill-opacity="1" fill-rule="evenodd"/><g clip-path="url(#1c6fb0a7bb)"><g clip-path="url(#80bfedb3a9)"><path fill="url(#ba5e570df3)" d="M 12.214844 5.609375 L 15.128906 3.53125 L 17.027344 6.1875 L 14.117188 8.261719 Z M 12.214844 5.609375 " fill-rule="nonzero"/></g></g><g clip-path="url(#4664c12ad3)"><g clip-path="url(#ee7c1a57b3)"><path fill="url(#c4aa35a60b)" d="M 11.996094 5.28125 L 14.960938 3.167969 L 16.898438 5.878906 L 13.9375 7.988281 Z M 11.996094 5.28125 " fill-rule="nonzero"/></g></g><path fill="#d7e34f" d="M 14.71875 4.878906 C 15.101562 4.941406 14.816406 5.132812 13.859375 5.453125 C 13.667969 5.386719 13.730469 5.261719 14.050781 5.070312 C 14.304688 4.941406 14.527344 4.878906 14.71875 4.878906 Z M 14.71875 4.878906 " fill-opacity="1" fill-rule="evenodd"/><path fill="#f5a510" d="M 24.1875 10.605469 C 25.203125 11.242188 26.640625 12.957031 28.488281 15.757812 C 28.742188 16.011719 28.964844 16.648438 29.15625 17.667969 C 29.347656 19.066406 29.539062 20.050781 29.730469 20.625 C 30.175781 22.085938 29.539062 24.027344 27.816406 26.445312 C 27.5625 27.144531 26.828125 27.941406 25.617188 28.832031 C 25.363281 29.023438 24.597656 29.597656 23.324219 30.550781 C 22.941406 30.867188 22.429688 30.996094 21.792969 30.929688 C 20.964844 30.804688 20.261719 30.707031 19.6875 30.644531 C 19.179688 30.644531 18.667969 30.898438 18.160156 31.410156 C 17.648438 32.042969 17.136719 32.363281 16.628906 32.363281 C 15.546875 32.488281 14.460938 32.550781 13.378906 32.550781 C 11.65625 32.550781 10.476562 32.394531 9.839844 32.074219 C 9.203125 31.757812 8.851562 31.566406 8.789062 31.503906 C 8.597656 31.3125 8.339844 30.835938 8.023438 30.074219 C 7.832031 29.628906 7.128906 28.640625 5.917969 27.113281 C 4.835938 25.78125 4.328125 24.953125 4.390625 24.632812 C 4.453125 24.316406 4.453125 23.964844 4.390625 23.582031 L 4.101562 22.628906 C 3.976562 21.929688 4.039062 21.292969 4.292969 20.71875 L 5.15625 19.097656 C 5.34375 18.84375 5.441406 18.492188 5.441406 18.046875 L 5.441406 16.808594 C 5.503906 16.296875 6.015625 15.4375 6.972656 14.230469 C 8.054688 13.085938 8.628906 12.417969 8.691406 12.226562 C 8.882812 11.972656 9.203125 11.8125 9.648438 11.75 C 10.222656 11.75 10.703125 11.652344 11.085938 11.464844 C 11.464844 11.335938 11.847656 10.921875 12.230469 10.222656 C 12.613281 9.648438 13.476562 9.332031 14.8125 9.269531 C 15.449219 9.011719 16.058594 8.886719 16.628906 8.886719 C 17.777344 8.824219 18.414062 8.789062 18.542969 8.789062 C 20.007812 8.601562 21.890625 9.207031 24.1875 10.605469 Z M 24.1875 10.605469 " fill-opacity="1" fill-rule="evenodd"/><path fill="#f7b61c" d="M 21.03125 14.519531 C 21.222656 15.152344 21.382812 15.503906 21.507812 15.566406 C 21.828125 15.824219 21.988281 16.171875 21.988281 16.617188 C 22.050781 17.1875 22.175781 17.636719 22.371094 17.953125 C 22.625 18.398438 22.71875 18.84375 22.65625 19.289062 C 22.59375 19.609375 22.527344 20.054688 22.464844 20.625 L 22.5625 22.058594 C 22.5625 22.628906 22.433594 23.074219 22.179688 23.394531 C 21.988281 23.648438 21.574219 24.15625 20.933594 24.921875 C 20.363281 25.621094 19.660156 26.066406 18.832031 26.257812 C 17.875 26.449219 17.238281 26.574219 16.917969 26.636719 C 16.539062 26.765625 16.15625 27.019531 15.773438 27.402344 C 15.328125 27.785156 14.785156 27.945312 14.148438 27.878906 C 13.191406 27.753906 12.332031 27.625 11.566406 27.496094 C 10.671875 27.433594 10.164062 27.308594 10.035156 27.113281 C 9.972656 26.925781 9.8125 26.765625 9.558594 26.636719 C 8.984375 26.382812 8.632812 25.652344 8.507812 24.445312 C 8.441406 24.0625 8.316406 23.777344 8.125 23.585938 C 7.742188 23.140625 7.453125 22.789062 7.261719 22.535156 C 6.941406 21.964844 6.847656 21.550781 6.976562 21.292969 C 7.101562 21.039062 7.164062 20.816406 7.164062 20.625 C 7.355469 19.417969 7.546875 18.621094 7.738281 18.238281 C 7.929688 17.984375 8.152344 17.828125 8.410156 17.761719 L 8.695312 17.761719 L 9.269531 15.472656 C 9.460938 14.835938 9.652344 14.519531 9.84375 14.519531 C 10.097656 14.519531 10.257812 14.484375 10.320312 14.421875 C 10.832031 13.59375 11.53125 13.148438 12.421875 13.085938 C 14.464844 12.957031 15.738281 12.925781 16.25 12.992188 C 17.015625 13.054688 17.140625 13.117188 16.632812 13.179688 C 17.398438 13.246094 18.417969 13.433594 19.691406 13.753906 C 20.394531 13.820312 20.839844 14.074219 21.03125 14.519531 Z M 21.03125 14.519531 " fill-opacity="1" fill-rule="evenodd"/><path fill="#f3c563" d="M 9.84375 20.53125 C 9.652344 20.339844 9.554688 19.863281 9.554688 19.097656 C 10.066406 17.636719 10.351562 16.839844 10.414062 16.710938 C 10.542969 16.457031 10.765625 16.265625 11.085938 16.140625 C 11.46875 16.011719 11.691406 15.886719 11.753906 15.757812 C 11.945312 15.3125 12.488281 14.898438 13.378906 14.519531 C 14.464844 14.007812 15.386719 14.042969 16.152344 14.613281 C 16.535156 14.929688 16.949219 15.40625 17.398438 16.046875 C 17.523438 16.109375 17.875 16.269531 18.449219 16.523438 C 18.832031 16.648438 19.085938 16.871094 19.214844 17.191406 C 19.339844 17.445312 19.277344 17.890625 19.023438 18.527344 C 18.769531 19.355469 18.640625 19.894531 18.640625 20.148438 C 18.640625 20.71875 18.511719 21.261719 18.257812 21.769531 C 18.066406 22.277344 17.109375 22.53125 15.390625 22.53125 C 14.816406 22.597656 14.371094 22.789062 14.050781 23.105469 C 13.667969 23.617188 13.347656 23.902344 13.09375 23.964844 C 12.648438 24.09375 12.265625 24.027344 11.945312 23.773438 C 11.5625 23.457031 11.242188 23.234375 10.988281 23.105469 C 10.351562 22.851562 10.160156 22.246094 10.414062 21.292969 C 10.480469 21.039062 10.414062 20.847656 10.226562 20.722656 C 10.03125 20.65625 9.90625 20.59375 9.84375 20.53125 Z M 9.84375 20.53125 " fill-opacity="1" fill-rule="evenodd"/><path fill="#ffffff" d="M 15.003906 17.667969 C 15.835938 17.792969 16.152344 18.046875 15.960938 18.429688 C 15.707031 18.875 15.324219 19.003906 14.8125 18.8125 C 14.367188 18.683594 14.207031 18.460938 14.335938 18.144531 C 14.402344 17.761719 14.625 17.605469 15.003906 17.667969 Z M 15.003906 17.667969 " fill-opacity="1" fill-rule="evenodd"/><path fill="#ffffff" d="M 15.769531 19.863281 C 16.089844 19.988281 16.152344 20.179688 15.960938 20.433594 C 15.832031 20.6875 15.609375 20.753906 15.292969 20.625 C 14.972656 20.5625 14.71875 20.402344 14.527344 20.148438 C 14.335938 19.828125 14.335938 19.609375 14.527344 19.480469 C 14.71875 19.351562 15.132812 19.480469 15.769531 19.863281 Z M 15.769531 19.863281 " fill-opacity="1" fill-rule="evenodd"/><path fill="#ffffff" d="M 16.824219 18.714844 C 17.394531 18.652344 17.746094 18.90625 17.875 19.480469 C 18.066406 19.988281 17.9375 20.339844 17.492188 20.53125 C 17.171875 20.722656 16.855469 20.625 16.535156 20.242188 C 16.214844 19.734375 15.992188 19.417969 15.867188 19.289062 C 15.613281 18.910156 15.929688 18.714844 16.824219 18.714844 Z M 16.824219 18.714844 " fill-opacity="1" fill-rule="evenodd"/><path fill="#ffffff" d="M 19.59375 18.238281 C 19.914062 18.304688 20.042969 18.460938 19.980469 18.71875 C 19.851562 18.972656 19.660156 19.195312 19.40625 19.386719 C 19.148438 19.578125 18.925781 19.546875 18.734375 19.292969 C 18.480469 19.101562 18.351562 18.847656 18.351562 18.527344 C 18.351562 18.144531 18.765625 18.046875 19.59375 18.238281 Z M 19.59375 18.238281 " fill-opacity="1" fill-rule="evenodd"/><path fill="#ffffff" d="M 18.257812 16.046875 C 18.703125 16.171875 18.957031 16.425781 19.023438 16.808594 C 19.148438 17.191406 19.023438 17.414062 18.640625 17.476562 C 17.746094 17.792969 17.238281 17.761719 17.109375 17.382812 C 16.980469 17.0625 17.046875 16.746094 17.300781 16.425781 C 17.492188 16.109375 17.8125 15.980469 18.257812 16.046875 Z M 18.257812 16.046875 " fill-opacity="1" fill-rule="evenodd"/><path fill="#ffffff" d="M 16.058594 17.382812 C 15.292969 17.253906 14.941406 16.871094 15.003906 16.234375 C 15.003906 15.789062 15.261719 15.40625 15.769531 15.089844 C 16.214844 14.773438 16.535156 14.804688 16.726562 15.183594 C 16.980469 15.628906 17.015625 16.109375 16.824219 16.617188 C 16.632812 17.1875 16.375 17.445312 16.058594 17.382812 Z M 16.058594 17.382812 " fill-opacity="1" fill-rule="evenodd"/><path fill="#ffffff" d="M 14.816406 14.707031 C 14.941406 15.089844 14.878906 15.40625 14.625 15.664062 C 14.371094 15.855469 14.082031 15.917969 13.761719 15.855469 C 13.191406 15.597656 13.191406 15.027344 13.761719 14.136719 C 13.953125 13.820312 14.144531 13.753906 14.335938 13.945312 C 14.527344 14.074219 14.6875 14.328125 14.816406 14.707031 Z M 14.816406 14.707031 " fill-opacity="1" fill-rule="evenodd"/><path fill="#ffffff" d="M 13.570312 17.1875 C 14.019531 17.890625 13.921875 18.367188 13.285156 18.621094 C 12.710938 18.8125 12.328125 18.683594 12.136719 18.238281 C 12.007812 17.859375 12.167969 17.507812 12.613281 17.1875 C 13.0625 16.871094 13.378906 16.871094 13.570312 17.1875 Z M 13.570312 17.1875 " fill-opacity="1" fill-rule="evenodd"/><path fill="#ffffff" d="M 13.570312 19.191406 C 13.953125 19.320312 14.113281 19.574219 14.050781 19.957031 C 14.050781 20.019531 13.890625 20.339844 13.570312 20.910156 C 13.507812 21.164062 13.316406 21.199219 12.996094 21.003906 C 12.679688 20.75 12.488281 20.464844 12.421875 20.148438 C 12.359375 19.894531 12.457031 19.636719 12.710938 19.382812 C 13.03125 19.191406 13.316406 19.128906 13.570312 19.191406 Z M 13.570312 19.191406 " fill-opacity="1" fill-rule="evenodd"/><path fill="#ffffff" d="M 14.816406 21.007812 C 15.132812 21.070312 15.355469 21.324219 15.484375 21.769531 C 15.546875 22.214844 15.484375 22.5 15.292969 22.628906 C 15.039062 22.757812 14.753906 22.757812 14.433594 22.628906 C 14.113281 22.5 13.957031 22.308594 13.957031 22.054688 C 13.824219 21.230469 14.113281 20.878906 14.816406 21.007812 Z M 14.816406 21.007812 " fill-opacity="1" fill-rule="evenodd"/><path fill="#ffffff" d="M 17.203125 21.390625 C 17.460938 21.578125 17.617188 21.867188 17.683594 22.25 C 17.683594 22.695312 17.460938 22.949219 17.015625 23.011719 C 16.570312 23.074219 16.3125 23.011719 16.25 22.820312 C 16.25 22.503906 16.21875 22.21875 16.152344 21.960938 C 16.089844 21.644531 16.152344 21.421875 16.34375 21.292969 C 16.535156 21.167969 16.824219 21.199219 17.203125 21.390625 Z M 17.203125 21.390625 " fill-opacity="1" fill-rule="evenodd"/><path fill="#ffffff" d="M 18.925781 21.007812 C 19.308594 21.070312 19.5 21.261719 19.5 21.578125 C 19.5 21.898438 19.371094 22.152344 19.117188 22.34375 C 18.925781 22.472656 18.703125 22.4375 18.449219 22.25 C 18.257812 22.058594 18.128906 21.835938 18.066406 21.578125 C 17.9375 21.070312 18.226562 20.878906 18.925781 21.007812 Z M 18.925781 21.007812 " fill-opacity="1" fill-rule="evenodd"/><path fill="#ffffff" d="M 12.136719 22.054688 C 12.136719 22.949219 11.851562 23.105469 11.277344 22.53125 C 11.019531 22.214844 11.085938 21.960938 11.464844 21.769531 C 11.914062 21.578125 12.136719 21.675781 12.136719 22.054688 Z M 12.136719 22.054688 " fill-opacity="1" fill-rule="evenodd"/><path fill="#ffffff" d="M 13.285156 22.726562 C 13.605469 22.726562 13.761719 23.011719 13.761719 23.585938 C 13.761719 24.222656 13.445312 24.285156 12.808594 23.773438 C 12.550781 23.585938 12.488281 23.328125 12.617188 23.011719 C 12.808594 22.757812 13.03125 22.660156 13.285156 22.726562 Z M 13.285156 22.726562 " fill-opacity="1" fill-rule="evenodd"/><path fill="#ffffff" d="M 11.277344 18.8125 C 11.40625 18.9375 11.46875 19.132812 11.46875 19.386719 C 11.402344 19.703125 11.277344 19.894531 11.085938 19.957031 C 10.828125 20.019531 10.671875 19.957031 10.605469 19.765625 C 10.605469 19.511719 10.574219 19.320312 10.511719 19.195312 C 10.445312 19.066406 10.542969 18.941406 10.796875 18.8125 C 11.054688 18.683594 11.210938 18.683594 11.277344 18.8125 Z M 11.277344 18.8125 " fill-opacity="1" fill-rule="evenodd"/><path fill="#ffffff" d="M 11.65625 16.710938 C 11.65625 17.09375 11.46875 17.285156 11.085938 17.285156 C 10.828125 17.285156 10.640625 17.15625 10.511719 16.902344 C 10.382812 16.648438 10.382812 16.425781 10.511719 16.234375 C 10.640625 16.046875 10.863281 15.980469 11.179688 16.046875 C 11.5 16.171875 11.65625 16.394531 11.65625 16.710938 Z M 11.65625 16.710938 " fill-opacity="1" fill-rule="evenodd"/><path fill="#ffffff" d="M 12.421875 14.707031 C 12.742188 15.28125 12.550781 15.503906 11.851562 15.375 C 11.46875 15.25 11.4375 15.058594 11.753906 14.804688 C 12.074219 14.550781 12.296875 14.519531 12.421875 14.707031 Z M 12.421875 14.707031 " fill-opacity="1" fill-rule="evenodd"/><path fill="#ffffff" d="M 12.519531 13.660156 C 12.710938 13.59375 12.835938 13.660156 12.902344 13.847656 C 12.902344 14.039062 12.773438 14.136719 12.519531 14.136719 C 12.265625 14.199219 12.167969 14.136719 12.234375 13.945312 C 12.234375 13.820312 12.328125 13.722656 12.519531 13.660156 Z M 12.519531 13.660156 " fill-opacity="1" fill-rule="evenodd"/><path fill="#ffffff" d="M 9.460938 21.390625 C 9.585938 22.089844 9.554688 22.441406 9.363281 22.441406 C 9.234375 22.441406 9.109375 22.25 8.980469 21.867188 C 8.917969 21.613281 8.949219 21.390625 9.074219 21.199219 C 9.269531 21.007812 9.394531 21.070312 9.460938 21.390625 Z M 9.460938 21.390625 " fill-opacity="1" fill-rule="evenodd"/><path fill="#ffffff" d="M 12.039062 24.441406 C 12.488281 24.632812 12.644531 24.855469 12.519531 25.113281 C 12.390625 25.304688 12.167969 25.367188 11.851562 25.304688 C 11.59375 25.238281 11.53125 25.050781 11.660156 24.730469 C 11.722656 24.410156 11.851562 24.316406 12.039062 24.441406 Z M 12.039062 24.441406 " fill-opacity="1" fill-rule="evenodd"/><path fill="#f5a510" d="M 20.648438 15.28125 C 21.09375 15.726562 21.1875 16.078125 20.933594 16.332031 C 20.679688 16.648438 20.394531 16.519531 20.070312 15.949219 C 19.753906 15.4375 19.691406 15.121094 19.882812 14.996094 C 20.074219 14.804688 20.328125 14.898438 20.648438 15.28125 Z M 20.648438 15.28125 " fill-opacity="1" fill-rule="evenodd"/><path fill="#f5a510" d="M 21.507812 17.382812 C 21.761719 17.761719 21.730469 18.113281 21.414062 18.429688 C 21.09375 18.8125 20.871094 18.84375 20.742188 18.527344 C 20.617188 18.269531 20.648438 17.953125 20.839844 17.570312 C 21.09375 17.253906 21.316406 17.1875 21.507812 17.382812 Z M 21.507812 17.382812 " fill-opacity="1" fill-rule="evenodd"/><path fill="#f5a510" d="M 21.699219 21.007812 C 21.636719 21.515625 21.507812 21.929688 21.316406 22.25 C 21.0625 22.503906 20.839844 22.503906 20.648438 22.25 C 20.519531 21.996094 20.648438 21.644531 21.027344 21.199219 C 21.476562 20.753906 21.699219 20.6875 21.699219 21.007812 Z M 21.699219 21.007812 " fill-opacity="1" fill-rule="evenodd"/><path fill="#f5a510" d="M 17.683594 23.488281 C 18.382812 23.679688 18.578125 24.058594 18.257812 24.632812 C 18.003906 25.144531 17.492188 25.492188 16.726562 25.683594 C 16.152344 25.875 15.769531 25.84375 15.582031 25.589844 C 15.453125 25.398438 15.421875 25.050781 15.484375 24.539062 C 15.613281 23.582031 16.34375 23.234375 17.683594 23.488281 Z M 17.683594 23.488281 " fill-opacity="1" fill-rule="evenodd"/><path fill="#f5a510" d="M 19.785156 24.347656 C 20.679688 24.285156 20.421875 24.632812 19.023438 25.398438 C 18.765625 25.398438 18.765625 25.238281 19.023438 24.921875 C 19.277344 24.539062 19.53125 24.347656 19.785156 24.347656 Z M 19.785156 24.347656 " fill-opacity="1" fill-rule="evenodd"/><path fill="#f5a510" d="M 10.511719 25.78125 C 10.640625 26.226562 10.542969 26.480469 10.222656 26.542969 C 9.84375 26.542969 9.554688 26.382812 9.363281 26.066406 C 9.171875 25.75 9.265625 25.496094 9.648438 25.304688 C 10.03125 25.109375 10.320312 25.269531 10.511719 25.78125 Z M 10.511719 25.78125 " fill-opacity="1" fill-rule="evenodd"/><path fill="#f5a510" d="M 8.695312 18.714844 C 8.628906 18.84375 8.503906 19.320312 8.3125 20.148438 C 8.246094 20.402344 8.058594 20.371094 7.738281 20.050781 C 7.417969 19.734375 7.546875 19.351562 8.121094 18.90625 C 8.695312 18.335938 8.886719 18.269531 8.695312 18.714844 Z M 8.695312 18.714844 " fill-opacity="1" fill-rule="evenodd"/><path fill="#f7b61c" d="M 18.542969 26.925781 C 19.4375 27.304688 19.4375 27.65625 18.542969 27.976562 C 17.652344 28.359375 17.140625 28.324219 17.015625 27.878906 C 16.949219 27.5625 17.109375 27.308594 17.492188 27.113281 C 17.8125 26.859375 18.160156 26.796875 18.542969 26.925781 Z M 18.542969 26.925781 " fill-opacity="1" fill-rule="evenodd"/><path fill="#f7b61c" d="M 14.242188 28.546875 C 14.6875 28.800781 14.558594 29.058594 13.859375 29.3125 C 13.15625 29.5 12.710938 29.4375 12.519531 29.121094 C 12.390625 28.738281 12.488281 28.453125 12.808594 28.261719 C 13.191406 28.070312 13.667969 28.164062 14.242188 28.546875 Z M 14.242188 28.546875 " fill-opacity="1" fill-rule="evenodd"/><path fill="#f7b61c" d="M 16.152344 28.925781 C 16.664062 28.863281 16.855469 29.023438 16.726562 29.402344 C 16.601562 29.851562 16.3125 30.007812 15.867188 29.882812 C 15.546875 29.753906 15.453125 29.5625 15.578125 29.308594 C 15.707031 29.054688 15.898438 28.925781 16.152344 28.925781 Z M 16.152344 28.925781 " fill-opacity="1" fill-rule="evenodd"/><path fill="#f7b61c" d="M 24.375 21.390625 C 24.3125 22.023438 24.152344 22.441406 23.898438 22.628906 C 23.710938 22.820312 23.546875 22.757812 23.421875 22.441406 C 23.359375 22.121094 23.515625 21.769531 23.898438 21.390625 C 24.21875 20.945312 24.375 20.945312 24.375 21.390625 Z M 24.375 21.390625 " fill-opacity="1" fill-rule="evenodd"/><path fill="#f7b61c" d="M 24.089844 16.425781 C 24.472656 17.128906 24.441406 17.667969 23.996094 18.046875 C 23.546875 18.367188 23.199219 18.269531 22.941406 17.761719 C 22.6875 17.316406 22.785156 16.902344 23.230469 16.519531 C 23.675781 16.078125 23.960938 16.046875 24.089844 16.425781 Z M 24.089844 16.425781 " fill-opacity="1" fill-rule="evenodd"/><path fill="#f7b61c" d="M 22.941406 12.992188 C 23.324219 13.117188 23.453125 13.53125 23.324219 14.230469 C 23.195312 14.867188 22.910156 15.058594 22.464844 14.804688 C 22.082031 14.613281 21.984375 14.230469 22.175781 13.660156 C 22.367188 13.085938 22.625 12.863281 22.941406 12.992188 Z M 22.941406 12.992188 " fill-opacity="1" fill-rule="evenodd"/><path fill="#f7b61c" d="M 24.28125 14.613281 C 24.792969 14.484375 25.109375 14.707031 25.238281 15.28125 C 25.300781 15.855469 25.015625 16.078125 24.375 15.949219 C 23.804688 15.886719 23.582031 15.664062 23.707031 15.28125 C 23.773438 14.898438 23.960938 14.675781 24.28125 14.613281 Z M 24.28125 14.613281 " fill-opacity="1" fill-rule="evenodd"/><path fill="#f7b61c" d="M 26.289062 23.011719 C 26.289062 23.964844 25.96875 24.601562 25.332031 24.921875 C 24.695312 25.304688 24.375 25.144531 24.375 24.441406 C 24.441406 23.933594 24.792969 23.457031 25.429688 23.011719 C 26.066406 22.628906 26.351562 22.628906 26.289062 23.011719 Z M 26.289062 23.011719 " fill-opacity="1" fill-rule="evenodd"/><path fill="#f7b61c" d="M 21.507812 26.066406 C 22.589844 26.066406 22.941406 26.449219 22.558594 27.210938 C 22.113281 27.976562 21.539062 28.292969 20.839844 28.164062 C 20.199219 28.101562 20.007812 27.71875 20.265625 27.019531 C 20.519531 26.382812 20.933594 26.066406 21.507812 26.066406 Z M 21.507812 26.066406 " fill-opacity="1" fill-rule="evenodd"/><path fill="#f7b61c" d="M 9.269531 27.6875 C 9.585938 28.257812 9.554688 28.546875 9.171875 28.546875 C 8.726562 28.546875 8.375 28.355469 8.121094 27.972656 C 7.929688 27.65625 8.023438 27.433594 8.40625 27.304688 C 8.726562 27.179688 9.011719 27.304688 9.269531 27.6875 Z M 9.269531 27.6875 " fill-opacity="1" fill-rule="evenodd"/><path fill="#f5a510" d="M 20.742188 31.789062 C 21.890625 31.980469 21.988281 32.457031 21.03125 33.222656 C 20.074219 33.984375 19.308594 34.113281 18.734375 33.605469 C 18.160156 33.15625 18.226562 32.710938 18.925781 32.265625 C 19.5 31.886719 20.105469 31.726562 20.742188 31.789062 Z M 20.742188 31.789062 " fill-opacity="1" fill-rule="evenodd"/><path fill="#f5a510" d="M 28.96875 27.6875 C 28.902344 28.578125 28.554688 29.308594 27.914062 29.882812 C 27.277344 30.453125 26.925781 30.421875 26.863281 29.785156 C 26.796875 29.214844 27.148438 28.609375 27.914062 27.972656 C 28.679688 27.273438 29.03125 27.179688 28.96875 27.6875 Z M 28.96875 27.6875 " fill-opacity="1" fill-rule="evenodd"/><path fill="#f5a510" d="M 32.027344 28.164062 C 32.601562 28.484375 32.410156 29.089844 31.453125 29.976562 C 30.558594 30.804688 29.988281 30.902344 29.730469 30.265625 C 29.476562 29.628906 29.667969 29.054688 30.304688 28.546875 C 30.878906 27.972656 31.453125 27.847656 32.027344 28.164062 Z M 32.027344 28.164062 " fill-opacity="1" fill-rule="evenodd"/><path fill="#f5a510" d="M 33.171875 17.859375 C 33.238281 19.066406 32.917969 19.863281 32.21875 20.242188 C 31.582031 20.5625 31.199219 20.179688 31.070312 19.097656 C 30.941406 18.015625 31.261719 17.316406 32.027344 17 C 32.726562 16.679688 33.109375 16.96875 33.171875 17.859375 Z M 33.171875 17.859375 " fill-opacity="1" fill-rule="evenodd"/><path fill="#f5a510" d="M 32.503906 21.769531 C 32.378906 22.40625 32.15625 22.949219 31.835938 23.394531 C 31.515625 23.839844 31.199219 23.773438 30.878906 23.203125 C 30.625 22.628906 30.847656 22.152344 31.550781 21.769531 C 32.25 21.324219 32.570312 21.324219 32.503906 21.769531 Z M 32.503906 21.769531 " fill-opacity="1" fill-rule="evenodd"/><path fill="#f5a510" d="M 13.570312 34.84375 C 14.335938 35.164062 14.558594 35.640625 14.242188 36.277344 C 13.859375 36.910156 13.285156 37.132812 12.519531 36.945312 C 11.753906 36.753906 11.5625 36.277344 11.945312 35.511719 C 12.328125 34.75 12.871094 34.527344 13.570312 34.84375 Z M 13.570312 34.84375 " fill-opacity="1" fill-rule="evenodd"/><path fill="#f5a510" d="M 7.640625 32.078125 C 7.898438 32.523438 7.929688 32.839844 7.738281 33.03125 C 7.546875 33.285156 7.261719 33.253906 6.878906 32.9375 C 6.558594 32.617188 6.527344 32.300781 6.78125 31.980469 C 7.101562 31.601562 7.386719 31.632812 7.640625 32.078125 Z M 7.640625 32.078125 " fill-opacity="1" fill-rule="evenodd"/><path fill="#f5a510" d="M 16.726562 35.417969 C 17.363281 35.417969 17.554688 35.765625 17.300781 36.46875 C 17.046875 37.101562 16.601562 37.359375 15.960938 37.230469 C 15.449219 37.039062 15.324219 36.691406 15.578125 36.179688 C 15.898438 35.671875 16.28125 35.417969 16.726562 35.417969 Z M 16.726562 35.417969 " fill-opacity="1" fill-rule="evenodd"/><path fill="#f5a510" d="M 26.003906 34.464844 C 26.703125 34.527344 26.832031 34.78125 26.386719 35.226562 C 25.9375 35.671875 25.460938 35.863281 24.953125 35.796875 C 24.441406 35.734375 24.378906 35.480469 24.761719 35.035156 C 25.078125 34.589844 25.492188 34.398438 26.003906 34.464844 Z M 26.003906 34.464844 " fill-opacity="1" fill-rule="evenodd"/><path fill="#f5a510" d="M 34.417969 22.628906 C 34.546875 23.519531 34.480469 24.125 34.226562 24.441406 C 34.035156 24.824219 33.78125 24.664062 33.460938 23.964844 C 33.140625 23.332031 33.207031 22.851562 33.652344 22.535156 C 34.035156 22.152344 34.292969 22.183594 34.417969 22.628906 Z M 34.417969 22.628906 " fill-opacity="1" fill-rule="evenodd"/><path fill="#f5a510" d="M 29.730469 11.464844 C 30.6875 12.355469 30.878906 12.992188 30.304688 13.375 C 29.667969 13.753906 29.0625 13.628906 28.488281 12.992188 C 28.042969 12.484375 28.042969 12.007812 28.488281 11.558594 C 28.933594 11.113281 29.347656 11.082031 29.730469 11.464844 Z M 29.730469 11.464844 " fill-opacity="1" fill-rule="evenodd"/><path fill="#f98b0e" d="M 31.546875 35.796875 C 32.503906 36.054688 32.441406 36.5 31.359375 37.132812 C 30.273438 37.769531 29.605469 37.863281 29.347656 37.421875 C 29.09375 37.039062 29.222656 36.625 29.730469 36.179688 C 30.242188 35.734375 30.847656 35.609375 31.546875 35.796875 Z M 31.546875 35.796875 " fill-opacity="1" fill-rule="evenodd"/><path fill="#f98b0e" d="M 26.765625 38.28125 C 28.042969 38.34375 28.488281 38.820312 28.105469 39.710938 C 27.722656 40.664062 27.023438 40.984375 26.003906 40.664062 C 25.109375 40.410156 24.824219 39.933594 25.140625 39.234375 C 25.523438 38.535156 26.066406 38.214844 26.765625 38.28125 Z M 26.765625 38.28125 " fill-opacity="1" fill-rule="evenodd"/><path fill="#f98b0e" d="M 8.886719 35.992188 C 9.332031 36.246094 9.398438 36.5 9.074219 36.753906 C 8.757812 36.945312 8.441406 36.882812 8.121094 36.5625 C 7.800781 36.308594 7.769531 36.085938 8.023438 35.894531 C 8.28125 35.765625 8.566406 35.796875 8.886719 35.992188 Z M 8.886719 35.992188 " fill-opacity="1" fill-rule="evenodd"/><path fill="#f98b0e" d="M 36.042969 35.796875 C 37.636719 36.179688 37.097656 36.816406 34.417969 37.707031 C 34.164062 37.578125 34.289062 37.199219 34.800781 36.5625 C 35.308594 35.992188 35.722656 35.734375 36.042969 35.796875 Z M 36.042969 35.796875 " fill-opacity="1" fill-rule="evenodd"/><path fill="#eb7805" d="M 40.726562 34.558594 C 40.984375 35.257812 40.792969 35.863281 40.15625 36.371094 C 39.519531 36.878906 39.070312 36.945312 38.816406 36.5625 C 38.5625 36.246094 38.785156 35.671875 39.488281 34.84375 C 40.125 34.082031 40.539062 33.984375 40.726562 34.558594 Z M 40.726562 34.558594 " fill-opacity="1" fill-rule="evenodd"/><path fill="#eb7805" d="M 43.695312 17.1875 C 43.882812 17.699219 43.851562 18.113281 43.597656 18.429688 C 43.40625 18.683594 43.214844 18.621094 43.023438 18.238281 C 42.835938 17.859375 42.867188 17.445312 43.121094 17 C 43.3125 16.554688 43.5 16.617188 43.695312 17.1875 Z M 43.695312 17.1875 " fill-opacity="1" fill-rule="evenodd"/><path fill="#eb7805" d="M 44.457031 23.871094 C 45.03125 24.378906 45.160156 25.140625 44.839844 26.160156 C 44.585938 27.179688 44.234375 27.402344 43.789062 26.828125 C 43.40625 26.195312 43.34375 25.460938 43.597656 24.632812 C 43.789062 23.804688 44.074219 23.550781 44.457031 23.871094 Z M 44.457031 23.871094 " fill-opacity="1" fill-rule="evenodd"/><path fill="#eb7805" d="M 43.597656 14.328125 C 44.363281 15.089844 44.234375 15.472656 43.214844 15.472656 C 42.703125 15.472656 42.578125 15.21875 42.832031 14.707031 C 43.023438 14.136719 43.277344 14.007812 43.597656 14.328125 Z M 43.597656 14.328125 " fill-opacity="1" fill-rule="evenodd"/><path fill="#eb7805" d="M 42.738281 31.980469 C 42.925781 32.300781 42.832031 32.710938 42.449219 33.222656 C 42.128906 33.667969 41.84375 33.730469 41.585938 33.414062 C 41.335938 33.03125 41.398438 32.554688 41.78125 31.980469 C 42.164062 31.472656 42.480469 31.472656 42.738281 31.980469 Z M 42.738281 31.980469 " fill-opacity="1" fill-rule="evenodd"/><path fill="#eb7805" d="M 36.519531 39.902344 C 37.414062 40.03125 37.507812 40.441406 36.808594 41.140625 C 36.042969 41.78125 35.339844 41.96875 34.707031 41.714844 C 34.195312 41.523438 34.257812 41.140625 34.894531 40.570312 C 35.46875 40.0625 36.011719 39.839844 36.519531 39.902344 Z M 36.519531 39.902344 " fill-opacity="1" fill-rule="evenodd"/><path fill="#eb7805" d="M 23.421875 42.195312 C 24.121094 42.320312 24.089844 42.703125 23.328125 43.339844 C 22.625 43.910156 21.957031 43.976562 21.316406 43.53125 C 20.746094 43.085938 20.777344 42.734375 21.414062 42.476562 C 21.988281 42.160156 22.65625 42.066406 23.421875 42.195312 Z M 23.421875 42.195312 " fill-opacity="1" fill-rule="evenodd"/><path fill="#eb7805" d="M 8.214844 38.28125 C 8.726562 38.980469 8.757812 39.363281 8.3125 39.425781 C 7.800781 39.554688 7.417969 39.363281 7.164062 38.851562 C 6.910156 38.40625 6.941406 38.121094 7.261719 37.996094 C 7.578125 37.800781 7.898438 37.898438 8.214844 38.28125 Z M 8.214844 38.28125 " fill-opacity="1" fill-rule="evenodd"/><path fill="#f98b0e" d="M 22.941406 10.511719 C 24.28125 11.273438 24.34375 11.589844 23.132812 11.464844 C 21.859375 11.273438 21.222656 10.953125 21.222656 10.511719 C 21.222656 10.128906 21.410156 9.96875 21.792969 10.03125 C 22.175781 10.03125 22.558594 10.191406 22.941406 10.511719 Z M 22.941406 10.511719 " fill-opacity="1" fill-rule="evenodd"/><path fill="#f98b0e" d="M 25.332031 12.515625 C 25.714844 12.894531 25.652344 13.214844 25.140625 13.46875 C 24.632812 13.660156 24.3125 13.566406 24.1875 13.183594 C 24.058594 12.800781 24.15625 12.515625 24.472656 12.320312 C 24.726562 12.066406 25.015625 12.132812 25.332031 12.515625 Z M 25.332031 12.515625 " fill-opacity="1" fill-rule="evenodd"/><path fill="#f98b0e" d="M 26.195312 14.136719 C 26.511719 14.390625 26.609375 14.644531 26.480469 14.898438 C 26.417969 15.152344 26.195312 15.25 25.8125 15.183594 C 25.492188 15.121094 25.429688 14.898438 25.621094 14.519531 C 25.8125 14.136719 26.003906 14.007812 26.195312 14.136719 Z M 26.195312 14.136719 " fill-opacity="1" fill-rule="evenodd"/><path fill="#f98b0e" d="M 28.394531 15.089844 C 28.523438 15.664062 28.457031 15.980469 28.203125 16.046875 C 27.949219 16.109375 27.691406 15.949219 27.4375 15.566406 C 27.246094 15.25 27.246094 14.960938 27.4375 14.707031 C 27.5 14.582031 27.597656 14.484375 27.722656 14.421875 L 28.011719 14.421875 C 28.203125 14.484375 28.332031 14.707031 28.394531 15.089844 Z M 28.394531 15.089844 " fill-opacity="1" fill-rule="evenodd"/><path fill="#f98b0e" d="M 28.011719 17.1875 C 28.265625 17.699219 28.140625 18.046875 27.628906 18.238281 C 27.179688 18.429688 26.957031 18.269531 26.957031 17.761719 C 26.957031 17.316406 27.085938 17 27.339844 16.808594 C 27.59375 16.679688 27.820312 16.808594 28.011719 17.1875 Z M 28.011719 17.1875 " fill-opacity="1" fill-rule="evenodd"/><path fill="#f98b0e" d="M 26.003906 18.335938 C 26.386719 18.78125 26.480469 19.257812 26.289062 19.765625 C 26.101562 20.210938 25.78125 20.277344 25.335938 19.957031 C 24.886719 19.640625 24.824219 19.226562 25.144531 18.714844 C 25.460938 18.269531 25.746094 18.144531 26.003906 18.335938 Z M 26.003906 18.335938 " fill-opacity="1" fill-rule="evenodd"/><path fill="#f98b0e" d="M 28.203125 19.289062 C 28.519531 19.734375 28.519531 20.179688 28.203125 20.625 C 27.882812 21.007812 27.566406 20.976562 27.246094 20.53125 C 26.863281 20.085938 26.863281 19.703125 27.246094 19.386719 C 27.628906 19.003906 27.945312 18.96875 28.203125 19.289062 Z M 28.203125 19.289062 " fill-opacity="1" fill-rule="evenodd"/><path fill="#f98b0e" d="M 30.113281 21.007812 C 30.050781 21.898438 29.796875 22.46875 29.347656 22.726562 C 28.902344 22.980469 28.648438 22.789062 28.585938 22.152344 C 28.519531 21.644531 28.746094 21.230469 29.253906 20.914062 C 29.828125 20.53125 30.113281 20.5625 30.113281 21.007812 Z M 30.113281 21.007812 " fill-opacity="1" fill-rule="evenodd"/><path fill="#f98b0e" d="M 27.914062 23.582031 C 27.46875 25.046875 27.085938 25.617188 26.765625 25.300781 C 26.511719 25.046875 26.578125 24.632812 26.957031 24.058594 C 27.339844 23.488281 27.660156 23.328125 27.914062 23.582031 Z M 27.914062 23.582031 " fill-opacity="1" fill-rule="evenodd"/><path fill="#f98b0e" d="M 24.949219 26.734375 C 25.015625 27.242188 24.917969 27.625 24.664062 27.878906 C 24.34375 28.195312 23.992188 28.195312 23.609375 27.878906 C 23.164062 27.625 23.261719 27.210938 23.898438 26.636719 C 24.535156 26.128906 24.886719 26.160156 24.949219 26.734375 Z M 24.949219 26.734375 " fill-opacity="1" fill-rule="evenodd"/><path fill="#f98b0e" d="M 21.605469 29.214844 C 22.6875 29.148438 23.070312 29.375 22.75 29.882812 C 22.367188 30.328125 21.859375 30.550781 21.222656 30.550781 C 20.648438 30.488281 20.457031 30.265625 20.648438 29.882812 C 20.839844 29.5 21.15625 29.277344 21.605469 29.214844 Z M 21.605469 29.214844 " fill-opacity="1" fill-rule="evenodd"/><path fill="#f98b0e" d="M 17.203125 30.550781 C 17.96875 30.742188 17.9375 31.027344 17.109375 31.410156 C 16.28125 31.855469 15.675781 31.949219 15.292969 31.695312 C 14.910156 31.441406 14.972656 31.15625 15.484375 30.835938 C 15.929688 30.453125 16.503906 30.359375 17.203125 30.550781 Z M 17.203125 30.550781 " fill-opacity="1" fill-rule="evenodd"/><path fill="#f98b0e" d="M 14.625 31.21875 C 15.003906 31.347656 14.972656 31.570312 14.527344 31.886719 C 14.082031 32.140625 13.667969 32.140625 13.285156 31.886719 C 12.835938 31.632812 12.808594 31.410156 13.191406 31.21875 C 13.507812 31.089844 13.984375 31.089844 14.625 31.21875 Z M 14.625 31.21875 " fill-opacity="1" fill-rule="evenodd"/><path fill="#f98b0e" d="M 10.128906 30.167969 C 10.257812 30.550781 10.222656 30.839844 10.03125 31.027344 C 9.777344 31.28125 9.523438 31.25 9.269531 30.933594 C 9.011719 30.679688 9.074219 30.421875 9.457031 30.167969 C 9.777344 29.914062 10 29.914062 10.128906 30.167969 Z M 10.128906 30.167969 " fill-opacity="1" fill-rule="evenodd"/><path fill="#f98b0e" d="M 6.398438 24.632812 C 6.910156 25.144531 7.070312 25.558594 6.878906 25.875 C 6.625 26.257812 6.367188 26.257812 6.113281 25.875 C 5.921875 25.621094 5.890625 25.304688 6.019531 24.921875 C 6.082031 24.539062 6.207031 24.441406 6.398438 24.632812 Z M 6.398438 24.632812 " fill-opacity="1" fill-rule="evenodd"/><path fill="#f7700b" d="M 34.800781 26.734375 C 34.800781 27.75 34.546875 28.355469 34.035156 28.546875 C 33.460938 28.734375 33.238281 28.417969 33.363281 27.59375 C 33.429688 26.828125 33.683594 26.351562 34.128906 26.160156 C 34.511719 25.90625 34.738281 26.097656 34.800781 26.734375 Z M 34.800781 26.734375 " fill-opacity="1" fill-rule="evenodd"/><path fill="#f7700b" d="M 33.554688 29.597656 C 34.449219 29.660156 34.578125 29.976562 33.9375 30.550781 C 33.300781 31.183594 32.855469 31.34375 32.601562 31.027344 C 32.472656 30.773438 32.503906 30.453125 32.695312 30.074219 C 32.949219 29.691406 33.238281 29.53125 33.554688 29.597656 Z M 33.554688 29.597656 " fill-opacity="1" fill-rule="evenodd"/><path fill="#f7700b" d="M 30.304688 32.078125 C 30.625 32.265625 30.558594 32.554688 30.113281 32.9375 C 29.667969 33.382812 29.347656 33.476562 29.160156 33.222656 C 28.902344 32.96875 28.933594 32.683594 29.253906 32.363281 C 29.574219 31.980469 29.921875 31.886719 30.304688 32.078125 Z M 30.304688 32.078125 " fill-opacity="1" fill-rule="evenodd"/><path fill="#f7700b" d="M 27.722656 32.457031 C 28.234375 32.523438 28.363281 32.839844 28.105469 33.414062 C 27.789062 33.984375 27.339844 34.175781 26.765625 33.984375 C 26.257812 33.792969 26.164062 33.507812 26.480469 33.125 C 26.800781 32.683594 27.210938 32.457031 27.722656 32.457031 Z M 27.722656 32.457031 " fill-opacity="1" fill-rule="evenodd"/><path fill="#f7700b" d="M 20.265625 36.46875 C 20.964844 36.65625 21.316406 36.816406 21.316406 36.945312 L 21.027344 37.421875 C 20.773438 37.738281 20.582031 37.898438 20.453125 37.898438 C 20.199219 37.960938 19.816406 37.867188 19.308594 37.609375 C 18.734375 37.355469 18.605469 37.070312 18.925781 36.753906 C 19.246094 36.433594 19.691406 36.339844 20.265625 36.46875 Z M 20.265625 36.46875 " fill-opacity="1" fill-rule="evenodd"/><path fill="#f7700b" d="M 22.273438 35.320312 C 22.847656 35.386719 23.070312 35.574219 22.941406 35.894531 C 22.816406 36.210938 22.496094 36.308594 21.988281 36.179688 C 21.542969 36.054688 21.382812 35.863281 21.507812 35.609375 C 21.636719 35.289062 21.890625 35.195312 22.273438 35.320312 Z M 22.273438 35.320312 " fill-opacity="1" fill-rule="evenodd"/><path fill="#f7700b" d="M 35.375 18.714844 C 35.691406 19.542969 35.660156 20.148438 35.277344 20.53125 C 34.894531 20.910156 34.578125 20.847656 34.324219 20.339844 C 34.132812 19.894531 34.230469 19.417969 34.609375 18.910156 C 34.992188 18.398438 35.246094 18.335938 35.375 18.714844 Z M 35.375 18.714844 " fill-opacity="1" fill-rule="evenodd"/><path fill="#f7700b" d="M 32.503906 11.75 C 33.015625 12.386719 33.140625 12.832031 32.886719 13.085938 C 32.570312 13.40625 32.21875 13.339844 31.835938 12.894531 C 31.453125 12.449219 31.390625 12.039062 31.644531 11.65625 C 31.898438 11.273438 32.1875 11.304688 32.503906 11.75 Z M 32.503906 11.75 " fill-opacity="1" fill-rule="evenodd"/><path fill="#d66915" d="M 32.027344 39.140625 C 32.664062 39.773438 32.539062 40.21875 31.644531 40.472656 C 30.75 40.664062 30.175781 40.601562 29.921875 40.285156 C 29.667969 39.964844 29.828125 39.585938 30.402344 39.140625 C 31.039062 38.628906 31.582031 38.628906 32.027344 39.140625 Z M 32.027344 39.140625 " fill-opacity="1" fill-rule="evenodd"/><path fill="#d66915" d="M 28.203125 41.046875 C 28.714844 41.683594 28.394531 41.9375 27.246094 41.8125 C 27.054688 41.683594 27.117188 41.429688 27.4375 41.046875 C 27.753906 40.730469 28.011719 40.730469 28.203125 41.046875 Z M 28.203125 41.046875 " fill-opacity="1" fill-rule="evenodd"/><path fill="#d66915" d="M 22.175781 40.09375 C 23.007812 40.539062 23.132812 40.886719 22.558594 41.144531 C 22.050781 41.335938 21.539062 41.304688 21.03125 41.050781 C 20.585938 40.921875 20.550781 40.636719 20.933594 40.191406 C 21.253906 39.808594 21.667969 39.777344 22.175781 40.09375 Z M 22.175781 40.09375 " fill-opacity="1" fill-rule="evenodd"/><path fill="#d66915" d="M 36.902344 33.414062 C 37.730469 33.476562 37.988281 33.792969 37.667969 34.367188 C 37.414062 35 36.96875 35.195312 36.332031 34.9375 C 35.820312 34.746094 35.691406 34.429688 35.949219 33.984375 C 36.136719 33.539062 36.457031 33.351562 36.902344 33.414062 Z M 36.902344 33.414062 " fill-opacity="1" fill-rule="evenodd"/><path fill="#d66915" d="M 42.164062 27.019531 C 42.164062 27.972656 41.972656 28.546875 41.589844 28.738281 C 41.207031 28.925781 40.921875 28.738281 40.726562 28.164062 C 40.664062 27.71875 40.890625 27.335938 41.398438 27.019531 C 41.910156 26.636719 42.164062 26.636719 42.164062 27.019531 Z M 42.164062 27.019531 " fill-opacity="1" fill-rule="evenodd"/><path fill="#d66915" d="M 42.066406 20.722656 C 42.132812 21.675781 42.003906 22.183594 41.683594 22.25 C 41.304688 22.25 41.015625 21.960938 40.824219 21.390625 C 40.632812 20.878906 40.792969 20.53125 41.304688 20.339844 C 41.8125 20.148438 42.066406 20.277344 42.066406 20.722656 Z M 42.066406 20.722656 " fill-opacity="1" fill-rule="evenodd"/><path fill="#d66915" d="M 40.726562 13.566406 C 41.109375 14.453125 41.046875 14.929688 40.539062 14.996094 C 40.09375 15.058594 39.808594 14.742188 39.679688 14.042969 C 39.613281 13.53125 39.742188 13.214844 40.0625 13.085938 C 40.378906 13.023438 40.601562 13.183594 40.726562 13.566406 Z M 40.726562 13.566406 " fill-opacity="1" fill-rule="evenodd"/><path fill="#d66915" d="M 40.441406 16.234375 C 40.757812 17.1875 40.695312 17.667969 40.25 17.667969 C 39.804688 17.605469 39.519531 17.285156 39.390625 16.710938 C 39.328125 16.203125 39.453125 15.882812 39.773438 15.757812 C 40.089844 15.628906 40.3125 15.789062 40.441406 16.234375 Z M 40.441406 16.234375 " fill-opacity="1" fill-rule="evenodd"/><path fill="#ffffff" d="M 15.960938 24.539062 C 16.535156 25.109375 16.664062 25.492188 16.34375 25.683594 C 16.089844 25.875 15.707031 25.8125 15.195312 25.496094 C 14.75 25.242188 14.71875 24.984375 15.101562 24.730469 C 15.417969 24.410156 15.707031 24.347656 15.960938 24.539062 Z M 15.960938 24.539062 " fill-opacity="1" fill-rule="evenodd"/><path fill="#ffffff" d="M 9.363281 17.859375 C 9.429688 18.113281 9.394531 18.335938 9.269531 18.527344 C 9.140625 18.714844 8.949219 18.78125 8.695312 18.714844 C 8.441406 18.652344 8.472656 18.429688 8.789062 18.046875 C 9.109375 17.667969 9.300781 17.605469 9.363281 17.859375 Z M 9.363281 17.859375 " fill-opacity="1" fill-rule="evenodd"/><path fill="#ffffff" d="M 7.929688 16.140625 C 8.121094 16.269531 8.183594 16.425781 8.121094 16.617188 C 8.058594 16.746094 7.898438 16.777344 7.640625 16.710938 C 7.453125 16.648438 7.417969 16.523438 7.546875 16.332031 C 7.675781 16.078125 7.800781 16.011719 7.929688 16.140625 Z M 7.929688 16.140625 " fill-opacity="1" fill-rule="evenodd"/><path fill="#ffffff" d="M 18.925781 14.421875 C 19.371094 14.742188 19.5 14.996094 19.308594 15.183594 C 19.054688 15.375 18.765625 15.40625 18.449219 15.28125 C 18.195312 15.152344 18.160156 14.960938 18.351562 14.707031 C 18.542969 14.390625 18.734375 14.296875 18.925781 14.421875 Z M 18.925781 14.421875 " fill-opacity="1" fill-rule="evenodd"/><path fill="#ffffff" d="M 18.066406 12.320312 C 18.449219 12.386719 18.609375 12.546875 18.542969 12.800781 C 18.414062 12.992188 18.226562 13.023438 17.96875 12.894531 C 17.523438 12.515625 17.554688 12.320312 18.066406 12.320312 Z M 18.066406 12.320312 " fill-opacity="1" fill-rule="evenodd"/><path fill="#ffffff" d="M 21.507812 23.105469 C 21.890625 23.171875 21.890625 23.394531 21.507812 23.773438 C 21.125 24.15625 20.871094 24.253906 20.742188 24.0625 C 20.617188 23.933594 20.648438 23.742188 20.839844 23.488281 C 21.09375 23.171875 21.316406 23.042969 21.507812 23.105469 Z M 21.507812 23.105469 " fill-opacity="1" fill-rule="evenodd"/></svg>