<svg xmlns="http://www.w3.org/2000/svg" width="280" viewBox="0 0 210 204" height="272" version="1.0"><defs><clipPath id="a"><path d="M124.953 113.738h6.809v6.809h-6.809zm0 0"/></clipPath><clipPath id="b"><path d="M128.355 113.738a3.403 3.403 0 0 0-3.402 3.403 3.406 3.406 0 0 0 3.402 3.406 3.403 3.403 0 1 0 0-6.809zm0 0"/></clipPath><clipPath id="c"><path d="M56 22h14v8H56zm0 0"/></clipPath><clipPath id="d"><path d="m62.477 23.887 4.671-1.278c2.266-.28 3.114.286 2.551 1.703-.847 1.7-2.414 3.118-4.68 4.254-3.968 1.7-6.656 1.414-8.07-.851-.574-.852-.289-1.567.848-2.125.57-.285 2.129-.856 4.68-1.703zm0 0" clip-rule="evenodd"/></clipPath><clipPath id="f"><path d="M55 20h15v9H55zm0 0"/></clipPath><clipPath id="g"><path d="M61.625 21.336c1.703-.566 3.543-.566 5.527 0 1.985.848 2.407 1.984 1.278 3.398-1.696 1.703-3.68 2.836-5.95 3.399-2.55.851-4.39.71-5.527-.426-1.129-1.133-1.418-2.125-.848-2.977.56-.843 2.399-1.98 5.52-3.394zm0 0" clip-rule="evenodd"/></clipPath><radialGradient gradientTransform="matrix(.58109 .81395 .81349 -.58142 62.643 -39.158)" gradientUnits="userSpaceOnUse" r="8.231" cx="49.971" id="e" cy="-38.501" fx="49.971" fy="-38.501"><stop stop-color="#7DB51C" offset="0"/><stop stop-color="#7CB41C" offset=".008"/><stop stop-color="#7CB31C" offset=".02"/><stop stop-color="#7BB21C" offset=".031"/><stop stop-color="#7AB11B" offset=".043"/><stop stop-color="#7AB01B" offset=".055"/><stop stop-color="#79AF1B" offset=".066"/><stop stop-color="#78AE1B" offset=".078"/><stop stop-color="#78AD1B" offset=".09"/><stop stop-color="#77AD1B" offset=".102"/><stop stop-color="#76AC1B" offset=".113"/><stop stop-color="#76AB1A" offset=".125"/><stop stop-color="#75AA1A" offset=".137"/><stop stop-color="#74A91A" offset=".148"/><stop stop-color="#74A81A" offset=".16"/><stop stop-color="#73A71A" offset=".172"/><stop stop-color="#73A61A" offset=".184"/><stop stop-color="#72A51A" offset=".195"/><stop stop-color="#71A419" offset=".207"/><stop stop-color="#71A319" offset=".219"/><stop stop-color="#70A219" offset=".23"/><stop stop-color="#6FA119" offset=".242"/><stop stop-color="#6FA119" offset=".254"/><stop stop-color="#6EA019" offset=".262"/><stop stop-color="#6E9F19" offset=".27"/><stop stop-color="#6E9F19" offset=".277"/><stop stop-color="#6D9E19" offset=".285"/><stop stop-color="#6D9E18" offset=".293"/><stop stop-color="#6C9D18" offset=".301"/><stop stop-color="#6C9C18" offset=".309"/><stop stop-color="#6B9C18" offset=".316"/><stop stop-color="#6B9B18" offset=".324"/><stop stop-color="#6B9A18" offset=".332"/><stop stop-color="#6A9A18" offset=".34"/><stop stop-color="#6A9918" offset=".348"/><stop stop-color="#699918" offset=".355"/><stop stop-color="#699818" offset=".363"/><stop stop-color="#689718" offset=".371"/><stop stop-color="#689717" offset=".379"/><stop stop-color="#689617" offset=".387"/><stop stop-color="#679617" offset=".395"/><stop stop-color="#679517" offset=".402"/><stop stop-color="#669417" offset=".41"/><stop stop-color="#669417" offset=".418"/><stop stop-color="#659317" offset=".426"/><stop stop-color="#659217" offset=".434"/><stop stop-color="#659217" offset=".441"/><stop stop-color="#649117" offset=".449"/><stop stop-color="#649117" offset=".457"/><stop stop-color="#639016" offset=".465"/><stop stop-color="#638F16" offset=".473"/><stop stop-color="#628F16" offset=".48"/><stop stop-color="#628E16" offset=".488"/><stop stop-color="#628E16" offset=".496"/><stop stop-color="#618D16" offset=".504"/><stop stop-color="#608C16" offset=".516"/><stop stop-color="#608B16" offset=".527"/><stop stop-color="#5F8A16" offset=".539"/><stop stop-color="#5E8915" offset=".551"/><stop stop-color="#5E8815" offset=".563"/><stop stop-color="#5D8715" offset=".574"/><stop stop-color="#5D8615" offset=".586"/><stop stop-color="#5C8515" offset=".598"/><stop stop-color="#5B8415" offset=".609"/><stop stop-color="#5B8315" offset=".621"/><stop stop-color="#5A8314" offset=".633"/><stop stop-color="#5A8214" offset=".641"/><stop stop-color="#598114" offset=".648"/><stop stop-color="#598114" offset=".656"/><stop stop-color="#588014" offset=".664"/><stop stop-color="#588014" offset=".672"/><stop stop-color="#577F14" offset=".68"/><stop stop-color="#577E14" offset=".688"/><stop stop-color="#577E14" offset=".695"/><stop stop-color="#567D14" offset=".703"/><stop stop-color="#567D13" offset=".711"/><stop stop-color="#557C13" offset=".719"/><stop stop-color="#557B13" offset=".727"/><stop stop-color="#547B13" offset=".734"/><stop stop-color="#547A13" offset=".742"/><stop stop-color="#547913" offset=".75"/><stop stop-color="#537913" offset=".758"/><stop stop-color="#527813" offset=".77"/><stop stop-color="#527713" offset=".781"/><stop stop-color="#517612" offset=".793"/><stop stop-color="#517512" offset=".805"/><stop stop-color="#507412" offset=".816"/><stop stop-color="#507412" offset=".824"/><stop stop-color="#4F7312" offset=".832"/><stop stop-color="#4F7212" offset=".84"/><stop stop-color="#4E7212" offset=".848"/><stop stop-color="#4E7112" offset=".855"/><stop stop-color="#4D7012" offset=".863"/><stop stop-color="#4D7012" offset=".871"/><stop stop-color="#4C6F11" offset=".879"/><stop stop-color="#4C6E11" offset=".891"/><stop stop-color="#4B6D11" offset=".902"/><stop stop-color="#4B6C11" offset=".914"/><stop stop-color="#4A6C11" offset=".922"/><stop stop-color="#4A6B11" offset=".93"/><stop stop-color="#496B11" offset=".938"/><stop stop-color="#496A11" offset=".945"/><stop stop-color="#486911" offset=".957"/><stop stop-color="#486810" offset=".965"/><stop stop-color="#476810" offset=".973"/><stop stop-color="#476710" offset=".984"/><stop stop-color="#466610" offset=".992"/><stop stop-color="#466610" offset="1"/></radialGradient><radialGradient gradientTransform="matrix(.58109 .81395 .81349 -.58142 62.717 -39.22)" gradientUnits="userSpaceOnUse" r="8.23" cx="48.431" id="h" cy="-38.551" fx="48.431" fy="-38.551"><stop stop-color="#7DB51C" offset="0"/><stop stop-color="#7CB41C" offset=".031"/><stop stop-color="#7CB31C" offset=".059"/><stop stop-color="#7BB21C" offset=".086"/><stop stop-color="#7BB11C" offset=".113"/><stop stop-color="#7AB11B" offset=".141"/><stop stop-color="#7AB01B" offset=".164"/><stop stop-color="#79AF1B" offset=".188"/><stop stop-color="#79AF1B" offset=".211"/><stop stop-color="#78AE1B" offset=".234"/><stop stop-color="#78AE1B" offset=".258"/><stop stop-color="#78AD1B" offset=".277"/><stop stop-color="#77AC1B" offset=".297"/><stop stop-color="#77AC1B" offset=".316"/><stop stop-color="#76AB1B" offset=".336"/><stop stop-color="#76AB1B" offset=".355"/><stop stop-color="#76AA1A" offset=".375"/><stop stop-color="#75A91A" offset=".395"/><stop stop-color="#75A81A" offset=".43"/><stop stop-color="#74A81A" offset=".465"/><stop stop-color="#73A71A" offset=".496"/><stop stop-color="#73A61A" offset=".527"/><stop stop-color="#72A51A" offset=".555"/><stop stop-color="#72A41A" offset=".582"/><stop stop-color="#71A41A" offset=".605"/><stop stop-color="#71A319" offset=".629"/><stop stop-color="#71A319" offset=".648"/><stop stop-color="#70A219" offset=".668"/><stop stop-color="#70A119" offset=".688"/><stop stop-color="#6FA119" offset=".707"/><stop stop-color="#6FA019" offset=".742"/><stop stop-color="#6E9F19" offset=".773"/><stop stop-color="#6E9E19" offset=".801"/><stop stop-color="#6D9E19" offset=".824"/><stop stop-color="#6D9D19" offset=".844"/><stop stop-color="#6C9C18" offset=".863"/><stop stop-color="#6C9C18" offset=".895"/><stop stop-color="#6B9B18" offset=".918"/><stop stop-color="#6B9A18" offset=".938"/><stop stop-color="#6A9918" offset=".969"/><stop stop-color="#6A9918" offset="1"/></radialGradient></defs><g clip-path="url(#a)"><g clip-path="url(#b)"><path fill="#fc6c03" d="M124.953 113.738h6.809v6.809h-6.809zm0 0"/></g></g><path fill="#d66915" d="M152.152 17.934c23.23 11.34 38.254 25.37 45.051 42.093 11.332 26.934 12.328 54.43 2.977 82.5-11.895 36.29-40.235 55.426-84.996 57.403-41.368 1.988-71.965-7.364-91.801-28.059C8.078 155.992.28 135.586 0 110.637c-.281-25.793 6.375-47.625 19.973-65.492C33.003 27.575 51.137 15.52 74.37 9.004c25.781-7.09 51.715-4.117 77.781 8.93zm0 0" fill-rule="evenodd"/><path fill="#eb7805" d="M177.652 52.379c1.414.566 2.551 2.27 3.399 5.101 1.137 2.27 2.12 4.258 2.98 5.954.285 1.132.285 2.98 0 5.53-.851 6.516-1.136 10.634-.851 12.329.289.848.996 2.133 2.129 3.832.847 1.7 1.562 4.113 2.12 7.23 1.137 5.668 1.423 10.48.856 14.454-.578 3.687-.855 8.937-.855 15.734 0 .852.285 2.84.855 5.957.567 2.27.567 4.395 0 6.375-.578 2.273-2.984 5.102-7.234 8.508-5.66 4.25-8.637 6.523-8.926 6.804-4.816 5.954-7.223 10.633-7.223 14.036 0 1.418-2.832 4.39-8.504 8.93-5.382 4.253-9.636 6.945-12.75 8.074l-18.699 7.656c-3.113 1.418-5.808 1.562-8.07.422-3.68-1.692-6.52-2.547-8.5-2.547-6.516 0-13.457-.992-20.824-2.977-1.414-.574-3.254-.289-5.528.848-2.543.848-5.527.992-8.918.422-1.984-.285-7.511-.422-16.582-.422-1.984 0-4.39-.992-7.222-2.98-2.832-1.704-4.813-3.407-5.95-5.102-.28-1.703-.57-2.98-.847-3.828-.848-1.418-3.399-3.543-7.649-6.38-4.82-2.827-7.652-4.675-8.504-5.523-.574-.289-1.984-1.703-4.253-4.254-3.399-3.117-5.809-5.664-7.223-7.648-2.266-3.125-3.399-7.234-3.399-12.336 0-4.539-.28-8.226-.847-11.055a76.194 76.194 0 0 1-1.274-7.234c0-1.414-.851-5.523-2.55-12.336-1.696-5.95-2.27-9.918-1.696-11.906 1.13-3.684 2.121-8.367 2.977-14.035 1.418-10.77 3.12-17.293 5.094-19.559.289-.285 1.28-2.273 2.976-5.957 1.418-3.398 3.113-5.527 5.098-6.379 1.703-.847 3.12-1.84 4.254-2.976a118.493 118.493 0 0 1 6.797-5.524c1.136-.855 3.687-4.11 7.656-9.781 2.547-3.969 6.375-6.094 11.472-6.379 9.63-.848 19.555-3.258 29.747-7.227 11.62-4.535 23.523-4.964 35.699-1.273h2.125c4.535.566 9.351 2.266 14.453 5.102 5.945 3.398 9.633 5.246 11.047 5.53 2.543.849 5.387 1.56 8.504 2.126 2.265.851 3.68 2.55 4.246 5.101.57 2.27 1.129 3.543 1.703 3.829 2.832 1.128 4.816 2.12 5.945 2.976 2.836 1.703 4.531 3.402 5.102 5.106.847 2.55 1.703 4.253 2.55 5.101.84.559 2.544 1.414 5.094 2.55zm0 0" fill-rule="evenodd"/><path fill="#f98b0e" d="M102 25.156c6.512 1.703 11.191 3.262 14.023 4.68l10.63 8.078c5.097 3.969 8.78 6.238 11.054 6.805 1.695.281 4.672 2.98 8.918 8.074 4.25 4.539 7.09 8.367 8.504 11.484 1.984 3.97 3.535 9.922 4.68 17.86 1.414 5.101 1.984 11.343 1.699 18.715-.285 6.515-.992 10.628-2.13 12.328-.847.851-1.983 4.113-3.394 9.78-1.132 5.103-1.703 8.786-1.703 11.056 0 2.55-3.82 5.949-11.476 10.203-2.825 1.703-6.368 4.398-10.625 8.082-4.813 4.531-8.356 7.656-10.63 9.36-3.112 2.269-5.382 3.253-6.796 2.976-5.106-.57-8.504-.848-10.203-.848-4.813.281-7.508.848-8.07 1.7-1.133 2.55-1.844 3.823-2.126 3.823-1.418 1.415-3.824 1.844-7.222 1.278-4.254-.848-7.934-1.414-11.047-1.7-3.406-.57-7.934-.425-13.598.423-3.398 0-7.652-.708-12.75-2.125-2.27-.57-4.11-1.84-5.527-3.825-1.984-2.547-3.262-4.11-3.828-4.683-6.235-1.985-10.344-4.532-12.328-7.649-2.551-2.273-4.953-4.965-7.223-8.082-1.426-1.695-2.98-6.37-4.684-14.031-1.418-7.938-2.406-12.758-2.976-14.461-.567-1.98-.844-4.11-.844-6.379.285-2.27.422-3.965.422-5.098-1.984-6.804-2.695-11.625-2.125-14.46.285-3.118 2.547-9.075 6.797-17.86 1.703-3.12 2.273-6.515 1.703-10.207-.281-2.55.281-4.68 1.703-6.375 2.266-1.422 3.961-2.844 5.094-4.258 2.273-1.984 6.234-6.238 11.902-12.754 2.551-2.836 4.672-4.113 6.375-3.836 1.13.286 2.406.575 3.824.852 1.704-.285 7.649-3.258 17.852-8.934 2.832-1.128 5.664-1.695 8.496-1.695 4.254.281 7.504.281 9.774 0 4.25-.558 10.207.004 17.855 1.703zm0 0" fill-rule="evenodd"/><path fill="#ba5106" d="m97.75 20.059-6.375.421c-4.254 0-12.469 2.84-24.648 8.508-1.704.848-3.97 2.407-6.801 4.676-1.98 1.703-4.39 2.836-7.223 3.406-4.82 1.414-10.203 4.54-16.156 9.352.289-1.133 1.703-2.973 4.254-5.531 2.832-2.551 6.52-4.536 11.054-5.95l-5.527-.851c-1.703-.281-3.262-.14-4.68.422l-2.125.855 4.247-2.55c3.687-1.422 7.085-1.567 10.207-.426 3.117.847 4.39.707 3.824-.422-.563-1.989-.563-3.258 0-3.828.847-.848 1.133-1.7.847-2.551-.562-1.703-.847-3.117-.847-4.254.285-3.117 1.422-6.234 3.406-9.36l-.855 1.704c-.848 3.683-.426 7.09 1.273 10.207 1.133 2.55 1.414 2.55.852 0-.286-1.133 1.128-3.973 4.25-8.504 3.117-4.813 6.238-7.371 9.351-7.653-5.664 6.516-8.496 11.051-8.496 13.606l2.543.426c2.55 0 5.953-.426 10.207-1.278 6.793-1.418 12.598-1.558 17.418-.425zm0 0" fill-rule="evenodd"/><path fill="#ba5106" d="M68.422 18.355c2.273-2.55 4.96-3.972 8.078-4.253.848 1.703.71 3.398-.422 5.101-1.129 1.988-3.543 3.828-7.223 5.531l11.047-.847c3.118.281 6.239.136 9.352-.422-7.367 4.812-12.75 7.226-16.145 7.226-1.984.282-4.254-.144-6.804-1.28l-2.97-1.696c-.847 6.52-3.26 10.348-7.222 11.48-2.55.848-4.965 1.13-7.226.848l-2.559-.422c1.695-2.27 4.672-4.535 8.922-6.805l6.375-4.25-13.168-2.128L51 25.155c2.266-.566 4.39-.566 6.375 0l4.25.426zm0 0" fill-rule="evenodd"/><path fill="#7db51c" d="M65.453 15.805c1.137-1.703 3.121-3.688 5.945-5.953 3.118 2.27 4.11 4.113 2.977 5.53l-7.223 7.227L78.63 20.48c3.969-.285 7.086 0 9.351.848-1.703 1.985-5.382 3.973-11.054 5.953-3.399 1.13-6.656 1.563-9.774 1.282l-3.824-.856c-.848 3.125-2.695 5.668-5.527 7.656-2.832 1.985-7.512 2.696-14.024 2.121-.855-.277-.71-1.27.426-2.972 2.55-3.68 6.797-6.38 12.75-8.075-2.55.282-4.816 0-6.8-.847l-4.247-3.402 4.68-.848c3.68-.567 7.078 0 10.2 1.7zm0 0" fill-rule="evenodd"/><path fill="#6a9918" d="M78.629 22.61c-4.254.847-8.078 1.988-11.477 3.402l-3.824 1.703c-.848 3.12-2.695 5.668-5.527 7.652-2.832 1.985-7.512 2.696-14.024 2.125l-.425-.422 4.25-1.703c3.68-1.418 8.214-3.972 13.597-7.652l6.375-5.106 11.051-2.129c3.969-.285 7.082 0 9.352.848zm0 0" fill-rule="evenodd"/><g clip-path="url(#c)"><g clip-path="url(#d)"><path fill="url(#e)" d="m52.625 25.008 12.945-9.254 8.446 11.828-12.946 9.254zm0 0"/></g></g><g clip-path="url(#f)"><g clip-path="url(#g)"><path fill="url(#h)" d="m51.652 23.543 13.168-9.41 8.621 12.074-13.168 9.414zm0 0"/></g></g><path fill="#d7e34f" d="M63.75 21.762c1.703.281.426 1.133-3.824 2.55-.848-.289-.567-.847.847-1.703 1.137-.57 2.122-.847 2.977-.847zm0 0" fill-rule="evenodd"/><path fill="#f5a510" d="M105.824 47.27c4.531 2.835 10.91 10.488 19.121 22.964 1.137 1.137 2.13 3.973 2.977 8.508.848 6.242 1.703 10.63 2.55 13.18 1.985 6.516-.847 15.164-8.503 25.941-1.133 3.117-4.39 6.66-9.774 10.633-1.132.844-4.535 3.399-10.199 7.652-1.703 1.418-3.973 1.989-6.805 1.7-3.687-.567-6.8-.993-9.351-1.278-2.266 0-4.535 1.133-6.8 3.403-2.27 2.832-4.536 4.246-6.798 4.246-4.816.574-9.633.851-14.453.851-7.648 0-12.894-.707-15.719-2.125-2.84-1.414-4.398-2.27-4.68-2.547-.847-.847-1.984-2.976-3.398-6.378-.847-1.985-3.969-6.372-9.351-13.184-4.813-5.945-7.078-9.633-6.797-11.055.281-1.414.281-2.976 0-4.676l-1.274-4.253c-.566-3.118-.285-5.957.848-8.504l3.824-7.227c.848-1.133 1.274-2.695 1.274-4.68v-5.53c.285-2.27 2.55-6.099 6.804-11.481 4.809-5.106 7.367-8.078 7.649-8.934.847-1.129 2.27-1.84 4.254-2.121 2.543 0 4.672-.43 6.375-1.277 1.695-.57 3.398-2.407 5.097-5.532 1.696-2.55 5.528-3.968 11.477-4.246 2.832-1.136 5.527-1.703 8.078-1.703 5.098-.285 7.93-.43 8.496-.43 6.52-.84 14.879 1.848 25.078 8.083zm0 0" fill-rule="evenodd"/><path fill="#f7b61c" d="M91.8 64.71c.848 2.833 1.563 4.392 2.122 4.677 1.422 1.136 2.129 2.695 2.129 4.675.285 2.551.847 4.543 1.703 5.958 1.129 1.984 1.558 3.968 1.273 5.957-.28 1.414-.562 3.398-.847 5.949l.43 6.379c0 2.55-.575 4.539-1.704 5.957-.847 1.133-2.687 3.402-5.527 6.808-2.55 3.118-5.664 5.102-9.352 5.95a11498.9 11498.9 0 0 0-8.5 1.699c-1.695.57-3.398 1.703-5.097 3.406-1.98 1.7-4.39 2.41-7.22 2.121a325.855 325.855 0 0 1-11.472-1.703c-3.972-.281-6.238-.848-6.804-1.703-.282-.84-.993-1.559-2.121-2.121-2.551-1.133-4.102-4.395-4.676-9.781-.282-1.696-.848-2.977-1.7-3.82-1.695-1.985-2.972-3.544-3.824-4.68-1.422-2.547-1.843-4.395-1.277-5.532.566-1.133.844-2.125.844-2.98.847-5.383 1.699-8.93 2.55-10.633.848-1.129 1.84-1.84 2.977-2.125h1.273l2.551-10.203c.848-2.836 1.703-4.254 2.551-4.254 1.129 0 1.832-.145 2.121-.43 2.27-3.683 5.383-5.668 9.348-5.949 9.07-.574 14.734-.71 17-.43 3.406.285 3.969.567 1.703.852 3.398.281 7.933 1.129 13.598 2.543 3.117.297 5.101 1.426 5.949 3.414zm0 0" fill-rule="evenodd"/><path fill="#f3c563" d="M42.082 91.5c-.848-.848-1.281-2.98-1.281-6.379 2.273-6.516 3.543-10.066 3.824-10.633.57-1.133 1.559-1.984 2.977-2.55 1.695-.567 2.687-1.133 2.976-1.7.848-1.984 3.262-3.824 7.223-5.527 4.82-2.277 8.926-2.125 12.324.426 1.703 1.414 3.543 3.539 5.527 6.379.57.28 2.13.992 4.68 2.125 1.695.57 2.832 1.558 3.398 2.976.563 1.137.282 3.125-.851 5.953-1.129 3.688-1.7 6.094-1.7 7.227 0 2.55-.566 4.957-1.695 7.226-.851 2.27-5.101 3.403-12.75 3.403-2.55.281-4.535 1.136-5.957 2.554-1.695 2.27-3.12 3.54-4.25 3.825-1.984.57-3.68.28-5.101-.852-1.696-1.414-3.121-2.406-4.25-2.973-2.832-1.136-3.68-3.832-2.551-8.082.281-1.128 0-1.984-.848-2.543-.855-.289-1.418-.574-1.695-.855zm0 0" fill-rule="evenodd"/><path fill="#fff" d="M65.023 78.742c3.688.567 5.102 1.7 4.247 3.399-1.13 1.988-2.825 2.554-5.098 1.703-1.98-.563-2.688-1.563-2.129-2.977.293-1.703 1.285-2.406 2.98-2.125zM68.422 88.52c1.422.574 1.703 1.421.848 2.554-.563 1.13-1.555 1.418-2.977.848-1.414-.285-2.547-.992-3.398-2.125-.848-1.422-.848-2.406 0-2.98.855-.563 2.695 0 5.527 1.703zM73.102 83.418c2.543-.281 4.109.848 4.671 3.398.852 2.278.286 3.836-1.695 4.684-1.418.848-2.832.422-4.25-1.277-1.422-2.266-2.414-3.688-2.976-4.246-1.133-1.704.28-2.559 4.25-2.559zM85.426 81.293c1.418.285 1.984.992 1.699 2.133-.57 1.129-1.41 2.12-2.547 2.976-1.133.848-2.125.711-2.976-.422-1.133-.847-1.704-1.984-1.704-3.406 0-1.707 1.848-2.133 5.528-1.281zM79.477 71.516c1.984.57 3.117 1.703 3.398 3.398.57 1.703 0 2.695-1.703 2.98-3.961 1.415-6.23 1.274-6.797-.43-.57-1.417-.281-2.831.852-4.245.851-1.426 2.265-1.992 4.25-1.703zM69.703 77.465c-3.402-.563-4.96-2.274-4.68-5.102 0-1.984 1.133-3.687 3.399-5.101 1.984-1.414 3.406-1.278 4.254.422 1.129 1.984 1.281 4.109.426 6.379-.848 2.55-1.985 3.687-3.399 3.402zM64.176 65.559c.566 1.703.285 3.117-.848 4.254-1.129.847-2.41 1.132-3.824.847-2.55-1.137-2.55-3.683 0-7.652.848-1.414 1.703-1.703 2.543-.852.848.567 1.558 1.7 2.129 3.403zM58.648 76.613c1.985 3.121 1.567 5.246-1.273 6.38-2.543.847-4.246.28-5.102-1.704-.562-1.7.141-3.258 2.125-4.676 1.985-1.422 3.403-1.422 4.25 0zM58.648 85.543c1.704.57 2.407 1.703 2.125 3.398 0 .286-.71 1.704-2.125 4.25-.28 1.137-1.136 1.282-2.546.426-1.422-1.129-2.27-2.406-2.551-3.824-.285-1.133.144-2.27 1.281-3.402 1.414-.848 2.68-1.133 3.816-.848zM64.176 93.625c1.422.281 2.414 1.418 2.976 3.398.285 1.989 0 3.258-.847 3.829-1.13.566-2.407.566-3.825 0-1.417-.57-2.12-1.422-2.12-2.551-.579-3.684.695-5.242 3.816-4.676zM74.797 95.328c1.137.848 1.84 2.125 2.129 3.824 0 1.989-.992 3.125-2.969 3.403-1.984.28-3.121 0-3.406-.848 0-1.422-.137-2.691-.426-3.828-.281-1.422 0-2.406.848-2.98.855-.563 2.129-.422 3.824.43zM82.453 93.625c1.695.281 2.55 1.129 2.55 2.55 0 1.419-.57 2.552-1.702 3.4-.848.573-1.84.429-2.969-.423-.848-.847-1.422-1.84-1.703-2.976-.57-2.27.71-3.117 3.824-2.551zM52.273 98.3c0 3.97-1.273 4.68-3.824 2.126-1.136-1.414-.847-2.547.844-3.403 1.988-.847 2.98-.421 2.98 1.278zM57.375 101.277c1.418 0 2.129 1.278 2.129 3.836 0 2.832-1.418 3.117-4.254.84-1.129-.84-1.41-1.98-.848-3.398.848-1.133 1.844-1.559 2.973-1.278zM48.457 83.844c.563.566.84 1.422.84 2.554-.281 1.415-.84 2.266-1.695 2.551-1.137.281-1.848 0-2.13-.847 0-1.133-.136-1.989-.425-2.555-.285-.563.144-1.129 1.281-1.695 1.137-.57 1.84-.57 2.129-.008zM50.145 74.488c0 1.696-.848 2.551-2.543 2.551-1.137 0-1.985-.566-2.555-1.695-.567-1.133-.567-2.125 0-2.98.57-.848 1.562-1.137 2.976-.848 1.418.566 2.122 1.55 2.122 2.972zM53.55 65.559c1.419 2.55.571 3.543-2.55 2.976-1.703-.562-1.84-1.414-.422-2.543 1.414-1.144 2.406-1.281 2.973-.433zM53.977 60.883c.847-.285 1.414 0 1.695.847 0 .848-.563 1.278-1.695 1.278-1.137.281-1.563 0-1.274-.852 0-.562.426-.992 1.274-1.273zM40.379 95.328c.566 3.117.422 4.68-.426 4.68-.574 0-1.133-.848-1.703-2.551-.281-1.133-.137-2.125.422-2.973.851-.859 1.418-.578 1.707.844zM51.848 108.934c1.984.847 2.687 1.84 2.129 2.984-.57.848-1.563 1.129-2.977.848-1.129-.282-1.414-1.133-.848-2.551.278-1.426.848-1.848 1.696-1.281zm0 0" fill-rule="evenodd"/><path fill="#f5a510" d="M90.098 68.11c1.984 1.984 2.406 3.542 1.277 4.675-1.133 1.422-2.406.848-3.832-1.695-1.414-2.278-1.695-3.692-.844-4.25.848-.856 1.985-.434 3.399 1.27zM93.922 77.465c1.137 1.7.992 3.262-.422 4.676-1.41 1.703-2.402 1.847-2.977.43-.562-1.137-.425-2.551.43-4.255 1.137-1.414 2.121-1.703 2.969-.851zM94.77 93.625c-.282 2.27-.848 4.11-1.696 5.527-1.129 1.133-2.12 1.133-2.976 0-.567-1.129 0-2.695 1.695-4.675 1.984-1.985 2.977-2.274 2.977-.852zM76.926 104.68c3.117.847 3.969 2.55 2.55 5.101-1.128 2.274-3.398 3.832-6.8 4.684-2.551.847-4.254.707-5.094-.422-.574-.852-.71-2.41-.43-4.684.567-4.254 3.82-5.812 9.774-4.68zM86.273 108.504c3.97-.281 2.832 1.277-3.398 4.683-1.129 0-1.129-.703 0-2.124 1.137-1.704 2.266-2.56 3.398-2.56zM45.047 114.89c.57 1.985.144 3.118-1.277 3.4-1.696 0-2.977-.708-3.825-2.126-.847-1.414-.425-2.543 1.278-3.398 1.699-.856 2.98-.145 3.824 2.125zM36.977 83.418c-.286.57-.852 2.695-1.704 6.379-.28 1.133-1.132.992-2.55-.426-1.418-1.422-.848-3.117 1.695-5.105 2.559-2.543 3.41-2.832 2.559-.848zm0 0" fill-rule="evenodd"/><path fill="#f7b61c" d="M80.75 119.992c3.973 1.7 3.973 3.258 0 4.684-3.969 1.703-6.234 1.558-6.793-.43-.289-1.414.418-2.55 2.121-3.406 1.414-1.137 2.973-1.418 4.672-.848zM61.625 127.219c1.988 1.133 1.414 2.277-1.7 3.406-3.12.844-5.093.566-5.948-.848-.57-1.703-.137-2.976 1.273-3.828 1.703-.86 3.828-.426 6.375 1.27zM70.125 128.918c2.266-.285 3.121.422 2.55 2.125-.566 1.984-1.84 2.695-3.823 2.121-1.422-.57-1.844-1.414-1.278-2.543.567-1.133 1.422-1.703 2.551-1.703zM106.672 95.328c-.281 2.832-.992 4.68-2.121 5.527-.844.852-1.559.567-2.125-.847-.281-1.418.43-2.977 2.125-4.68 1.418-1.988 2.12-1.988 2.12 0zM105.398 73.219c1.704 3.117 1.563 5.531-.421 7.222-1.985 1.418-3.543.993-4.68-1.277-1.129-1.984-.703-3.828 1.281-5.531 1.98-1.98 3.254-2.117 3.82-.414zM100.297 57.902c1.703.567 2.273 2.41 1.703 5.532-.57 2.836-1.848 3.687-3.832 2.55-1.695-.847-2.121-2.55-1.273-5.101.847-2.551 1.988-3.547 3.402-2.98zM106.25 65.137c2.27-.57 3.688.422 4.25 2.976.285 2.555-.996 3.547-3.828 2.98-2.543-.28-3.535-1.277-2.969-2.98.281-1.707 1.129-2.695 2.547-2.976zM115.172 102.555c0 4.25-1.414 7.09-4.246 8.507-2.832 1.704-4.254.993-4.254-2.128.289-2.27 1.848-4.395 4.68-6.375 2.832-1.704 4.109-1.704 3.82-.004zM93.922 116.164c4.82 0 6.375 1.703 4.68 5.106-1.985 3.406-4.536 4.82-7.649 4.253-2.84-.28-3.687-1.984-2.558-5.109 1.136-2.832 2.98-4.25 5.527-4.25zM39.523 123.387c1.422 2.55 1.278 3.828-.425 3.828-1.985 0-3.543-.844-4.68-2.547-.848-1.418-.426-2.41 1.281-2.984 1.422-.559 2.688.007 3.824 1.703zm0 0" fill-rule="evenodd"/><path fill="#f5a510" d="M90.523 141.676c5.102.847 5.528 2.976 1.278 6.379-4.254 3.398-7.653 3.968-10.2 1.703-2.55-1.992-2.269-3.973.848-5.957 2.551-1.7 5.242-2.403 8.074-2.125zM127.078 123.387c-.289 3.972-1.84 7.234-4.683 9.777-2.829 2.555-4.391 2.414-4.672-.418-.285-2.555 1.273-5.242 4.672-8.078 3.402-3.121 4.968-3.543 4.683-1.281zM140.672 125.523c2.55 1.415 1.703 4.11-2.547 8.07-3.969 3.696-6.516 4.114-7.648 1.282-1.13-2.836-.282-5.387 2.543-7.656 2.558-2.551 5.105-3.117 7.652-1.696zM145.77 79.598c.285 5.386-1.13 8.922-4.247 10.625-2.824 1.422-4.527-.282-5.097-5.102-.57-4.82.847-7.937 4.246-9.355 3.113-1.418 4.816-.141 5.098 3.832zM142.8 97.031c-.566 2.832-1.558 5.246-2.972 7.227-1.418 1.984-2.832 1.695-4.25-.848-1.133-2.555-.14-4.676 2.977-6.379 3.11-1.988 4.527-1.988 4.246 0zM58.648 155.285c3.399 1.414 4.391 3.54 2.977 6.38-1.7 2.827-4.25 3.823-7.648 2.98-3.399-.848-4.25-2.98-2.551-6.38 1.703-3.406 4.11-4.398 7.222-2.98zM32.297 142.95c1.137 1.988 1.281 3.402.426 4.25-.848 1.136-2.121 1-3.825-.423-1.418-1.418-1.558-2.836-.421-4.25 1.414-1.703 2.687-1.562 3.82.422zM72.676 157.832c2.832 0 3.687 1.563 2.55 4.688-1.132 2.828-3.117 3.964-5.956 3.398-2.266-.848-2.825-2.406-1.696-4.68 1.422-2.27 3.121-3.406 5.102-3.406zM113.902 153.582c3.114.285 3.688 1.422 1.703 3.402-1.984 1.985-4.109 2.832-6.375 2.551-2.27-.281-2.55-1.422-.851-3.398 1.41-1.98 3.254-2.836 5.523-2.555zM151.297 100.855c.574 3.97.289 6.665-.84 8.079-.848 1.703-1.992.992-3.41-2.125-1.414-2.829-1.133-4.957.851-6.38 1.704-1.702 2.84-1.558 3.399.426zM130.477 51.102c4.246 3.972 5.101 6.808 2.543 8.511-2.825 1.696-5.52 1.13-8.07-1.703-1.985-2.27-1.985-4.394 0-6.379 1.984-1.992 3.823-2.129 5.527-.43zm0 0" fill-rule="evenodd"/><path fill="#f98b0e" d="M138.547 159.535c4.246 1.137 3.969 3.121-.84 5.953-4.824 2.832-7.8 3.254-8.934 1.282-1.128-1.704-.562-3.547 1.704-5.532 2.27-1.984 4.957-2.55 8.07-1.703zM117.3 170.59c5.665.281 7.65 2.414 5.95 6.379-1.703 4.246-4.82 5.668-9.348 4.246-3.968-1.13-5.246-3.254-3.824-6.371 1.7-3.117 4.106-4.54 7.223-4.254zM37.828 160.39c1.98 1.137 2.27 2.274.844 3.407-1.414.848-2.828.562-4.246-.852-1.422-1.129-1.559-2.125-.426-2.976 1.133-.574 2.41-.434 3.828.422zM158.52 159.535c7.093 1.703 4.687 4.535-7.223 8.508-1.129-.57-.563-2.27 1.703-5.102 2.266-2.55 4.11-3.687 5.52-3.406zm0 0" fill-rule="evenodd"/><path fill="#eb7805" d="M179.348 154.012c1.136 3.117.293 5.804-2.543 8.074-2.832 2.27-4.817 2.55-5.95.848-1.128-1.414-.136-3.97 2.977-7.653 2.828-3.394 4.668-3.82 5.516-1.27zM192.531 76.613c.844 2.27.703 4.11-.433 5.528-.844 1.14-1.692.851-2.543-.848-.844-1.695-.703-3.54.422-5.527.851-1.989 1.695-1.704 2.554.847zM195.922 106.383c2.55 2.265 3.121 5.668 1.703 10.203-1.129 4.539-2.688 5.531-4.672 2.98-1.703-2.828-1.984-6.097-.855-9.777.855-3.691 2.125-4.828 3.824-3.406zM192.094 63.855c3.402 3.399 2.836 5.102-1.692 5.102-2.273 0-2.84-1.129-1.703-3.406.848-2.543 1.985-3.117 3.395-1.696zM188.277 142.527c.844 1.414.422 3.258-1.277 5.532-1.422 1.984-2.695 2.27-3.832.847-1.125-1.707-.844-3.832.852-6.379 1.703-2.265 3.12-2.265 4.257 0zM160.648 177.824c3.973.57 4.391 2.406 1.278 5.524-3.406 2.84-6.52 3.687-9.348 2.55-2.273-.847-1.984-2.55.844-5.101 2.555-2.266 4.96-3.258 7.226-2.973zM102.426 188.035c3.117.567 2.976 2.266-.422 5.098-3.121 2.55-6.09 2.84-8.922.851-2.55-1.984-2.414-3.543.418-4.687 2.55-1.406 5.523-1.836 8.926-1.262zM34.852 170.59c2.27 3.12 2.406 4.824.421 5.11-2.27.57-3.968-.286-5.101-2.552-1.129-1.988-.992-3.257.43-3.828 1.41-.855 2.832-.43 4.25 1.27zm0 0" fill-rule="evenodd"/><path fill="#f98b0e" d="M100.297 46.848c5.953 3.402 6.238 4.816.848 4.25-5.665-.848-8.497-2.27-8.497-4.25 0-1.703.848-2.407 2.551-2.13 1.7.009 3.403.712 5.098 2.13zM110.926 55.777c1.699 1.703 1.418 3.125-.848 4.258-2.27.848-3.687.426-4.246-1.277-.574-1.703-.144-2.98 1.273-3.832 1.125-1.133 2.399-.844 3.82.851zM114.75 63.008c1.414 1.137 1.84 2.265 1.273 3.398-.28 1.133-1.273 1.567-2.976 1.278-1.414-.286-1.7-1.278-.848-2.973.848-1.703 1.703-2.277 2.551-1.703zM124.527 67.262c.575 2.55.285 3.968-.847 4.254-1.137.28-2.274-.426-3.403-2.13-.847-1.413-.847-2.698 0-3.827.282-.567.711-.993 1.274-1.278h1.281c.844.285 1.414 1.278 1.695 2.98zM122.828 76.613c1.129 2.27.57 3.828-1.703 4.676-1.984.848-2.977.137-2.977-2.125 0-1.984.57-3.398 1.704-4.254 1.128-.562 2.12.004 2.976 1.703zM113.902 81.723c1.703 1.976 2.121 4.101 1.274 6.379-.84 1.976-2.266 2.265-4.246.847-1.985-1.422-2.266-3.261-.848-5.531 1.414-1.984 2.684-2.55 3.82-1.695zM123.676 85.977c1.418 1.98 1.418 3.964 0 5.949-1.422 1.703-2.832 1.566-4.254-.422-1.695-1.984-1.695-3.688 0-5.102 1.703-1.707 3.117-1.851 4.254-.425zM132.172 93.625c-.281 3.969-1.414 6.516-3.399 7.652-1.984 1.137-3.113.285-3.398-2.543-.281-2.277.71-4.113 2.98-5.53 2.543-1.704 3.817-1.567 3.817.421zM122.395 105.105c-1.985 6.524-3.68 9.07-5.102 7.657-1.129-1.133-.84-2.985.848-5.532 1.71-2.55 3.12-3.257 4.254-2.125zM109.223 119.14c.28 2.266-.137 3.97-1.274 5.102-1.422 1.418-2.976 1.418-4.68 0-1.984-1.133-1.558-2.98 1.274-5.531 2.84-2.27 4.398-2.125 4.68.43zM94.352 130.191c4.808-.28 6.511.711 5.097 2.98-1.699 1.985-3.969 2.985-6.8 2.985-2.551-.289-3.399-1.281-2.551-2.984.855-1.703 2.27-2.695 4.254-2.98zM74.797 136.152c3.406.848 3.262 2.121-.422 3.82-3.68 1.985-6.375 2.41-8.074 1.282-1.696-1.133-1.414-2.414.847-3.828 1.985-1.703 4.536-2.13 7.649-1.274zM63.328 139.129c1.695.566 1.559 1.559-.426 2.973-1.984 1.132-3.824 1.132-5.527 0-1.984-1.133-2.125-2.125-.422-2.973 1.414-.57 3.54-.57 6.375 0zM43.352 134.45c.562 1.706.418 2.984-.43 3.831-1.129 1.13-2.266.992-3.399-.43-1.136-1.128-.851-2.265.852-3.402 1.418-1.14 2.41-1.14 2.977 0zM26.773 109.781c2.27 2.274 2.977 4.117 2.13 5.531-1.13 1.704-2.266 1.704-3.4 0-.847-1.132-.991-2.546-.417-4.25.277-1.703.836-2.128 1.687-1.28zm0 0" fill-rule="evenodd"/><path fill="#f7700b" d="M153 119.14c0 4.536-1.129 7.231-3.398 8.075-2.555.847-3.547-.567-2.98-4.25.28-3.406 1.417-5.528 3.401-6.38 1.704-1.136 2.696-.28 2.977 2.556zM147.473 131.895c3.968.285 4.535 1.699 1.703 4.257-2.832 2.828-4.817 3.536-5.95 2.121-.57-1.128-.425-2.55.422-4.253 1.13-1.704 2.407-2.407 3.825-2.125zM133.02 142.95c1.421.85 1.132 2.124-.848 3.827-1.977 1.985-3.399 2.414-4.246 1.282-1.13-1.137-.992-2.414.43-3.832 1.41-1.7 2.968-2.125 4.664-1.278zM121.547 144.652c2.273.286 2.836 1.7 1.703 4.254-1.414 2.547-3.398 3.403-5.95 2.547-2.269-.848-2.687-2.125-1.277-3.828 1.422-1.98 3.254-2.973 5.524-2.973zM88.395 162.52c3.12.843 4.68 1.558 4.68 2.125l-1.282 2.125c-1.129 1.414-1.977 2.12-2.547 2.12-1.133.286-2.836-.144-5.101-1.28-2.551-1.13-3.122-2.407-1.696-3.82 1.418-1.419 3.403-1.84 5.946-1.27zM97.328 157.41c2.543.285 3.535 1.133 2.969 2.55-.563 1.415-1.977 1.845-4.246 1.278-1.977-.566-2.688-1.422-2.13-2.55.575-1.415 1.704-1.848 3.407-1.278zM155.55 83.418c1.419 3.687 1.282 6.379-.421 8.082-1.703 1.695-3.117 1.414-4.246-.848-.848-1.988-.422-4.109 1.273-6.379 1.7-2.27 2.828-2.55 3.395-.855zM142.8 52.379c2.274 2.836 2.833 4.82 1.7 5.953-1.41 1.418-2.977 1.137-4.672-.852-1.703-1.984-1.984-3.824-.848-5.527 1.133-1.703 2.399-1.566 3.82.426zm0 0" fill-rule="evenodd"/><path fill="#d66915" d="M140.672 174.422c2.832 2.828 2.273 4.816-1.695 5.945-3.973.848-6.52.574-7.653-.844-1.129-1.418-.426-3.117 2.125-5.101 2.836-2.27 5.25-2.27 7.223 0zM123.676 182.926c2.273 2.832.847 3.972-4.254 3.406-.84-.574-.563-1.703.848-3.406 1.421-1.422 2.558-1.422 3.406 0zM96.898 178.676c3.688 1.988 4.247 3.539 1.704 4.676-2.266.847-4.536.71-6.801-.422-1.98-.57-2.125-1.84-.422-3.825 1.414-1.703 3.254-1.847 5.52-.43zM162.352 148.906c3.68.285 4.812 1.7 3.398 4.25-1.129 2.828-3.117 3.684-5.95 2.547-2.273-.851-2.831-2.27-1.698-4.25.847-1.98 2.261-2.828 4.25-2.547zM185.723 120.414c0 4.254-.848 6.805-2.551 7.656-1.7.848-2.969 0-3.824-2.547-.282-1.984.714-3.695 2.984-5.109 2.262-1.703 3.39-1.703 3.39 0zM185.3 92.355c.286 4.247-.28 6.516-1.698 6.797-1.7 0-2.977-1.273-3.82-3.824-.856-2.27-.141-3.828 2.12-4.676 2.262-.851 3.399-.285 3.399 1.703zM179.348 60.46c1.703 3.966 1.418 6.09-.844 6.38-1.984.281-3.254-1.137-3.824-4.254-.282-2.273.289-3.691 1.703-4.254 1.406-.285 2.398.426 2.965 2.129zM178.078 72.363c1.41 4.25 1.125 6.38-.848 6.38-1.984-.282-3.257-1.704-3.824-4.255-.289-2.27.281-3.687 1.703-4.254 1.407-.566 2.399.145 2.97 2.13zm0 0" fill-rule="evenodd"/><path fill="#fff" d="M69.27 109.36c2.55 2.55 3.12 4.253 1.703 5.105-1.13.847-2.832.57-5.098-.844-1.988-1.133-2.129-2.273-.43-3.406 1.422-1.426 2.696-1.711 3.825-.856zM39.953 79.598c.281 1.129.137 2.125-.43 2.972-.562.848-1.418 1.13-2.546.848-1.133-.281-.993-1.277.418-2.977 1.425-1.699 2.273-1.98 2.558-.843zM33.578 71.938c.848.57 1.129 1.28.848 2.124-.285.57-.992.708-2.13.426-.843-.281-.991-.847-.421-1.703.57-1.133 1.129-1.414 1.703-.847zM82.453 64.281c1.98 1.422 2.55 2.551 1.695 3.403-1.136.847-2.402.992-3.824.425-1.129-.57-1.281-1.421-.426-2.55.852-1.414 1.704-1.844 2.555-1.278zM78.629 54.926c1.703.289 2.406.992 2.121 2.129-.57.847-1.41.992-2.547.425-1.984-1.703-1.848-2.554.426-2.554zM93.922 102.98c1.703.286 1.703 1.278 0 2.973-1.695 1.703-2.824 2.133-3.399 1.281-.562-.57-.425-1.418.43-2.55 1.137-1.418 2.121-1.985 2.969-1.704zm0 0" fill-rule="evenodd"/></svg>