<svg xmlns="http://www.w3.org/2000/svg" xmlns:xlink="http://www.w3.org/1999/xlink" width="501" zoomAndPan="magnify" viewBox="0 0 375.75 615.000004" height="820" preserveAspectRatio="xMidYMid meet" version="1.0"><defs><clipPath id="91a16a7c62"><path d="M 276.90625 296.144531 L 298.023438 296.144531 L 298.023438 317.257812 L 276.90625 317.257812 Z M 276.90625 296.144531 " clip-rule="nonzero"/></clipPath><clipPath id="6c52ff5182"><path d="M 287.464844 296.144531 C 281.632812 296.144531 276.90625 300.871094 276.90625 306.703125 C 276.90625 312.53125 281.632812 317.257812 287.464844 317.257812 C 293.292969 317.257812 298.023438 312.53125 298.023438 306.703125 C 298.023438 300.871094 293.292969 296.144531 287.464844 296.144531 Z M 287.464844 296.144531 " clip-rule="nonzero"/></clipPath><clipPath id="dd029d9ae7"><path d="M 0.90625 0.144531 L 22.023438 0.144531 L 22.023438 21.257812 L 0.90625 21.257812 Z M 0.90625 0.144531 " clip-rule="nonzero"/></clipPath><clipPath id="0bfc7f54c6"><path d="M 11.464844 0.144531 C 5.632812 0.144531 0.90625 4.871094 0.90625 10.703125 C 0.90625 16.53125 5.632812 21.257812 11.464844 21.257812 C 17.292969 21.257812 22.023438 16.53125 22.023438 10.703125 C 22.023438 4.871094 17.292969 0.144531 11.464844 0.144531 Z M 11.464844 0.144531 " clip-rule="nonzero"/></clipPath><clipPath id="3c3c038526"><rect x="0" width="23" y="0" height="22"/></clipPath></defs><g clip-path="url(#91a16a7c62)"><g clip-path="url(#6c52ff5182)"><g transform="matrix(1, 0, 0, 1, 276, 296)"><g clip-path="url(#3c3c038526)"><g clip-path="url(#dd029d9ae7)"><g clip-path="url(#0bfc7f54c6)"><path fill="#ade027" d="M 0.90625 0.144531 L 22.023438 0.144531 L 22.023438 21.257812 L 0.90625 21.257812 Z M 0.90625 0.144531 " fill-opacity="1" fill-rule="nonzero"/></g></g></g></g></g></g><path fill="#adc71c" d="M 103.644531 160.285156 C 90.558594 179.210938 82.769531 201.269531 76.632812 223.441406 C 70.488281 245.605469 65.824219 268.21875 58.230469 289.9375 C 49.089844 316.09375 35.828125 340.578125 24.394531 365.816406 C 12.960938 391.0625 3.222656 417.625 1.820312 445.296875 C 0.628906 468.621094 5.507812 492.160156 15.339844 513.347656 C 25.175781 534.53125 39.914062 553.355469 57.757812 568.449219 C 93.429688 598.628906 140.960938 613.195312 187.699219 612.625 C 230.578125 612.109375 273.707031 599.003906 307.789062 572.992188 C 341.875 546.984375 366.28125 507.742188 371.511719 465.210938 C 374.949219 437.210938 370.238281 408.6875 361.492188 381.867188 C 352.757812 355.039062 340.082031 329.695312 327.199219 304.597656 C 312.378906 275.730469 297.1875 246.957031 285.628906 216.640625 C 278.386719 197.636719 272.503906 177.878906 261.714844 160.640625 C 253.390625 147.355469 242.191406 135.789062 228.835938 127.574219 C 215.476562 119.363281 199.929688 114.558594 184.25 114.441406 C 168.160156 114.3125 152.179688 119.097656 138.347656 127.300781 C 124.511719 135.507812 112.792969 147.058594 103.644531 160.285156 " fill-opacity="1" fill-rule="nonzero"/><path fill="#daea48" d="M 88.046875 251.742188 C 90.1875 237.238281 93.800781 222.941406 98.800781 209.15625 C 100.871094 203.480469 103.179688 197.867188 106.269531 192.671875 C 109.355469 187.484375 113.25 182.703125 118.105469 179.109375 C 120.664062 177.222656 123.523438 175.648438 126.648438 175.089844 C 128.214844 174.8125 129.824219 174.789062 131.382812 175.097656 C 132.9375 175.410156 134.433594 176.058594 135.679688 177.046875 C 137.753906 178.699219 139.035156 181.226562 139.445312 183.847656 C 139.855469 186.460938 139.457031 189.160156 138.597656 191.667969 C 136.84375 196.839844 133.28125 201.160156 129.949219 205.488281 C 121.878906 215.960938 114.585938 227.464844 111.78125 240.386719 C 110.960938 244.1875 110.535156 248.074219 109.457031 251.8125 C 108.378906 255.550781 106.558594 259.21875 103.515625 261.632812 C 102.042969 262.792969 100.324219 263.636719 98.488281 263.992188 C 96.65625 264.347656 94.714844 264.210938 92.984375 263.511719 C 90.789062 262.632812 88.96875 260.839844 88.058594 258.660156 C 87.144531 256.472656 87.132812 253.929688 88.046875 251.742188 " fill-opacity="1" fill-rule="nonzero"/><path fill="#daea48" d="M 88.914062 275.308594 C 90.023438 274.691406 91.300781 274.375 92.566406 274.402344 C 93.839844 274.425781 95.101562 274.792969 96.183594 275.453125 C 97.316406 276.136719 98.242188 277.128906 98.921875 278.265625 C 99.597656 279.394531 100.027344 280.664062 100.253906 281.96875 C 100.710938 284.566406 100.371094 287.238281 99.867188 289.832031 C 99.597656 291.222656 99.285156 292.609375 98.738281 293.914062 C 98.195312 295.222656 97.40625 296.453125 96.316406 297.355469 C 95.222656 298.265625 93.839844 298.820312 92.425781 298.957031 C 91.003906 299.097656 89.558594 298.824219 88.265625 298.21875 C 86.359375 297.328125 84.828125 295.714844 83.871094 293.84375 C 82.917969 291.972656 82.519531 289.835938 82.550781 287.734375 C 82.628906 282.914062 85.050781 278.1875 88.914062 275.308594 " fill-opacity="1" fill-rule="nonzero"/><path fill="#9fb820" d="M 220.472656 123.023438 C 221.421875 124.398438 222.34375 125.796875 223.230469 127.203125 C 234.027344 144.449219 239.914062 164.199219 247.152344 183.203125 C 258.710938 213.519531 273.902344 242.296875 288.722656 271.160156 C 301.605469 296.261719 314.285156 321.609375 323.023438 348.4375 C 331.761719 375.257812 336.472656 403.78125 333.035156 431.78125 C 327.804688 474.308594 303.398438 513.554688 269.3125 539.558594 C 235.226562 565.566406 192.109375 578.671875 149.222656 579.195312 C 110.320312 579.671875 70.867188 569.644531 38.160156 548.867188 C 44.132812 555.917969 50.695312 562.476562 57.75 568.449219 C 93.429688 598.628906 140.960938 613.195312 187.699219 612.625 C 230.578125 612.109375 273.699219 599.003906 307.789062 572.992188 C 341.875 546.984375 366.28125 507.742188 371.511719 465.210938 C 374.949219 437.210938 370.230469 408.6875 361.492188 381.867188 C 352.757812 355.039062 340.082031 329.695312 327.199219 304.597656 C 312.378906 275.730469 297.1875 246.957031 285.628906 216.640625 C 278.386719 197.636719 272.503906 177.878906 261.714844 160.640625 C 253.390625 147.355469 242.191406 135.789062 228.835938 127.578125 C 226.136719 125.914062 223.339844 124.398438 220.472656 123.023438 " fill-opacity="1" fill-rule="nonzero"/><path fill="#4fbe37" d="M 309.058594 12.332031 C 282.035156 -0.03125 249.113281 1.375 223.25 16.003906 C 199.203125 29.605469 181.714844 54.246094 176.824219 81.414062 C 192.066406 87.78125 208.953125 90.160156 225.367188 88.261719 C 241.78125 86.359375 257.675781 80.191406 271.058594 70.515625 C 290.269531 56.640625 304.082031 35.492188 309.058594 12.332031 " fill-opacity="1" fill-rule="nonzero"/><path fill="#44b23b" d="M 308.449219 14.894531 C 304.878906 22.972656 300.257812 30.59375 294.722656 37.488281 C 279.875 55.984375 258.804688 68.835938 236.390625 76.640625 C 225.808594 80.328125 214.488281 82.984375 203.441406 81.09375 C 198.917969 80.320312 194.53125 78.789062 190.507812 76.582031 C 191.960938 67.496094 194.363281 58.546875 197.652344 49.945312 C 201.03125 41.097656 205.378906 32.625 210.550781 24.691406 C 193.136719 38.859375 180.804688 59.296875 176.820312 81.414062 C 192.066406 87.777344 208.953125 90.160156 225.363281 88.257812 C 241.773438 86.359375 257.667969 80.191406 271.058594 70.515625 C 289.554688 57.152344 303.023438 37.042969 308.449219 14.894531 " fill-opacity="1" fill-rule="nonzero"/><path fill="#44b23b" d="M 178.675781 79.132812 C 194.28125 64.707031 211.667969 52.207031 230.316406 42.003906 C 252.964844 29.617188 277.472656 20.636719 302.761719 15.445312 C 278.554688 24.964844 255.058594 36.269531 232.523438 49.238281 C 216.160156 58.660156 200.304688 68.960938 185.046875 80.078125 L 178.675781 79.132812 " fill-opacity="1" fill-rule="nonzero"/><path fill="#1d1d21" d="M 120.527344 27.128906 C 118.183594 27.167969 116.226562 28.929688 115.945312 31.257812 C 115.667969 33.589844 117.160156 35.765625 119.425781 36.347656 C 142.792969 42.75 163.179688 59.9375 173.421875 81.875 C 183.15625 102.695312 183.804688 127.757812 175.160156 149.054688 C 174.679688 150.207031 174.679688 151.503906 175.160156 152.65625 C 175.640625 153.808594 176.5625 154.71875 177.722656 155.1875 C 178.878906 155.664062 180.179688 155.652344 181.328125 155.160156 C 182.476562 154.671875 183.386719 153.738281 183.84375 152.578125 C 193.507812 128.785156 192.792969 101.179688 181.925781 77.910156 C 170.464844 53.382812 148.035156 34.480469 121.914062 27.316406 C 121.460938 27.1875 120.996094 27.121094 120.527344 27.128906 " fill-opacity="1" fill-rule="nonzero"/><path fill="#1d1d21" d="M 203.578125 142.820312 C 203.058594 142.832031 202.554688 142.980469 202.125 143.265625 C 195.425781 147.570312 187.496094 150.011719 179.539062 150.230469 C 171.6875 150.453125 163.746094 148.507812 156.878906 144.679688 C 155.570312 143.902344 153.871094 144.351562 153.125 145.691406 C 152.382812 147.023438 152.894531 148.703125 154.246094 149.40625 C 161.976562 153.714844 170.847656 155.882812 179.691406 155.640625 C 188.65625 155.390625 197.503906 152.664062 205.050781 147.820312 C 207.367188 146.367188 206.3125 142.789062 203.578125 142.820312 " fill-opacity="1" fill-rule="nonzero"/><path fill="#8ea525" d="M 293.59375 460.863281 C 293.59375 462.933594 292.765625 464.914062 291.304688 466.378906 C 289.839844 467.835938 287.851562 468.664062 285.78125 468.664062 C 283.710938 468.664062 281.726562 467.835938 280.261719 466.378906 C 278.800781 464.914062 277.976562 462.933594 277.976562 460.863281 C 277.976562 458.789062 278.800781 456.8125 280.261719 455.347656 C 281.726562 453.886719 283.710938 453.058594 285.78125 453.058594 C 287.851562 453.058594 289.839844 453.886719 291.304688 455.347656 C 292.765625 456.8125 293.59375 458.789062 293.59375 460.863281 " fill-opacity="1" fill-rule="nonzero"/><path fill="#8ea525" d="M 310.84375 408.117188 C 310.84375 409.546875 310.273438 410.914062 309.261719 411.925781 C 308.25 412.9375 306.878906 413.507812 305.449219 413.507812 C 304.023438 413.507812 302.648438 412.9375 301.636719 411.925781 C 300.625 410.914062 300.058594 409.546875 300.058594 408.117188 C 300.058594 406.6875 300.625 405.316406 301.636719 404.304688 C 302.648438 403.292969 304.023438 402.730469 305.449219 402.730469 C 306.878906 402.730469 308.25 403.292969 309.261719 404.304688 C 310.273438 405.316406 310.84375 406.6875 310.84375 408.117188 " fill-opacity="1" fill-rule="nonzero"/><path fill="#8ea525" d="M 252.191406 424.664062 C 252.191406 426.089844 251.625 427.464844 250.613281 428.472656 C 249.601562 429.484375 248.230469 430.050781 246.800781 430.050781 C 245.367188 430.050781 244 429.484375 242.988281 428.472656 C 241.976562 427.464844 241.410156 426.089844 241.410156 424.664062 C 241.410156 423.238281 241.976562 421.863281 242.988281 420.855469 C 244 419.84375 245.367188 419.277344 246.800781 419.277344 C 248.230469 419.277344 249.601562 419.84375 250.613281 420.855469 C 251.625 421.863281 252.191406 423.238281 252.191406 424.664062 " fill-opacity="1" fill-rule="nonzero"/><path fill="#8ea525" d="M 237.699219 481.199219 C 237.699219 482.632812 237.132812 484 236.121094 485.011719 C 235.113281 486.019531 233.738281 486.589844 232.308594 486.589844 C 229.328125 486.589844 226.921875 484.179688 226.921875 481.199219 C 226.921875 478.226562 229.328125 475.8125 232.308594 475.8125 C 233.738281 475.8125 235.113281 476.378906 236.121094 477.390625 C 237.132812 478.40625 237.699219 479.773438 237.699219 481.199219 " fill-opacity="1" fill-rule="nonzero"/><path fill="#8ea525" d="M 309.457031 335.722656 C 309.457031 337.148438 308.894531 338.519531 307.882812 339.53125 C 306.871094 340.542969 305.503906 341.105469 304.070312 341.105469 C 302.640625 341.105469 301.265625 340.542969 300.257812 339.53125 C 299.246094 338.519531 298.679688 337.148438 298.679688 335.722656 C 298.679688 334.292969 299.246094 332.921875 300.257812 331.910156 C 301.265625 330.898438 302.640625 330.335938 304.070312 330.335938 C 305.503906 330.335938 306.871094 330.898438 307.882812 331.910156 C 308.894531 332.921875 309.457031 334.292969 309.457031 335.722656 " fill-opacity="1" fill-rule="nonzero"/><path fill="#8ea525" d="M 277.03125 368.128906 C 277.03125 369.554688 276.460938 370.921875 275.449219 371.933594 C 274.4375 372.945312 273.070312 373.515625 271.636719 373.515625 C 270.210938 373.515625 268.839844 372.945312 267.828125 371.933594 C 266.816406 370.921875 266.246094 369.554688 266.246094 368.128906 C 266.246094 366.695312 266.816406 365.328125 267.828125 364.320312 C 268.839844 363.308594 270.210938 362.738281 271.636719 362.738281 C 273.070312 362.738281 274.4375 363.308594 275.449219 364.320312 C 276.460938 365.328125 277.03125 366.695312 277.03125 368.128906 " fill-opacity="1" fill-rule="nonzero"/><path fill="#8ea525" d="M 220.449219 529.121094 C 220.449219 531.523438 218.503906 533.472656 216.09375 533.472656 C 213.691406 533.472656 211.738281 531.523438 211.738281 529.121094 C 211.738281 526.714844 213.691406 524.769531 216.09375 524.769531 C 218.503906 524.769531 220.449219 526.714844 220.449219 529.121094 " fill-opacity="1" fill-rule="nonzero"/><path fill="#8ea525" d="M 264.613281 511.539062 C 264.613281 512.964844 264.039062 514.339844 263.035156 515.347656 C 262.023438 516.359375 260.648438 516.925781 259.222656 516.925781 C 257.789062 516.925781 256.421875 516.359375 255.410156 515.347656 C 254.398438 514.339844 253.828125 512.964844 253.828125 511.539062 C 253.828125 510.105469 254.398438 508.738281 255.410156 507.730469 C 256.421875 506.71875 257.789062 506.152344 259.222656 506.152344 C 260.648438 506.152344 262.023438 506.71875 263.035156 507.730469 C 264.039062 508.738281 264.613281 510.105469 264.613281 511.539062 " fill-opacity="1" fill-rule="nonzero"/><path fill="#8ea525" d="M 283.242188 290.210938 C 283.242188 291.644531 282.671875 293.019531 281.660156 294.023438 C 280.648438 295.03125 279.28125 295.601562 277.847656 295.601562 C 276.417969 295.601562 275.050781 295.03125 274.039062 294.023438 C 273.023438 293.019531 272.457031 291.644531 272.457031 290.210938 C 272.457031 288.785156 273.023438 287.417969 274.039062 286.40625 C 275.050781 285.398438 276.417969 284.828125 277.847656 284.828125 C 279.28125 284.828125 280.648438 285.398438 281.660156 286.40625 C 282.671875 287.417969 283.242188 288.785156 283.242188 290.210938 " fill-opacity="1" fill-rule="nonzero"/><path fill="#8ea525" d="M 187.675781 562.730469 C 187.675781 563.65625 187.308594 564.542969 186.652344 565.203125 C 185.992188 565.855469 185.105469 566.226562 184.183594 566.226562 C 182.25 566.226562 180.6875 564.664062 180.6875 562.730469 C 180.6875 560.804688 182.25 559.242188 184.183594 559.242188 C 185.105469 559.242188 185.992188 559.609375 186.652344 560.265625 C 187.308594 560.917969 187.675781 561.804688 187.675781 562.730469 " fill-opacity="1" fill-rule="nonzero"/></svg>