<svg xmlns="http://www.w3.org/2000/svg" xmlns:xlink="http://www.w3.org/1999/xlink" width="40" zoomAndPan="magnify" viewBox="0 0 30 48" height="64" preserveAspectRatio="xMidYMid meet" version="1.0"><defs><clipPath id="b3febce3a6"><path d="M 10.511719 23.511719 L 11.6875 23.511719 L 11.6875 24.6875 L 10.511719 24.6875 Z M 10.511719 23.511719 " clip-rule="nonzero"/></clipPath><clipPath id="3f5d1c8a21"><path d="M 11.101562 23.511719 C 10.777344 23.511719 10.511719 23.773438 10.511719 24.097656 C 10.511719 24.421875 10.777344 24.6875 11.101562 24.6875 C 11.425781 24.6875 11.6875 24.421875 11.6875 24.097656 C 11.6875 23.773438 11.425781 23.511719 11.101562 23.511719 Z M 11.101562 23.511719 " clip-rule="nonzero"/></clipPath><clipPath id="ee5cce04e0"><path d="M 0.511719 0.511719 L 1.6875 0.511719 L 1.6875 1.6875 L 0.511719 1.6875 Z M 0.511719 0.511719 " clip-rule="nonzero"/></clipPath><clipPath id="27c072162c"><path d="M 1.101562 0.511719 C 0.777344 0.511719 0.511719 0.773438 0.511719 1.097656 C 0.511719 1.421875 0.777344 1.6875 1.101562 1.6875 C 1.425781 1.6875 1.6875 1.421875 1.6875 1.097656 C 1.6875 0.773438 1.425781 0.511719 1.101562 0.511719 Z M 1.101562 0.511719 " clip-rule="nonzero"/></clipPath><clipPath id="73ed7f61f3"><rect x="0" width="2" y="0" height="2"/></clipPath><clipPath id="461754ec04"><path d="M 21.417969 22.640625 L 23.027344 22.640625 L 23.027344 24.257812 L 21.417969 24.257812 Z M 21.417969 22.640625 " clip-rule="nonzero"/></clipPath><clipPath id="832ed0472c"><path d="M 22.222656 22.640625 C 21.777344 22.640625 21.417969 23.003906 21.417969 23.449219 C 21.417969 23.894531 21.777344 24.257812 22.222656 24.257812 C 22.667969 24.257812 23.027344 23.894531 23.027344 23.449219 C 23.027344 23.003906 22.667969 22.640625 22.222656 22.640625 Z M 22.222656 22.640625 " clip-rule="nonzero"/></clipPath><clipPath id="ba386b8da2"><path d="M 22.222656 22.640625 C 21.777344 22.640625 21.417969 23.003906 21.417969 23.449219 C 21.417969 23.894531 21.777344 24.257812 22.222656 24.257812 C 22.667969 24.257812 23.027344 23.894531 23.027344 23.449219 C 23.027344 23.003906 22.667969 22.640625 22.222656 22.640625 Z M 22.222656 22.640625 " clip-rule="nonzero"/></clipPath><clipPath id="213b051a27"><path d="M 0.304688 8 L 28.960938 8 L 28.960938 47 L 0.304688 47 Z M 0.304688 8 " clip-rule="nonzero"/></clipPath><clipPath id="8796de8c09"><path d="M 3 9 L 28.960938 9 L 28.960938 47 L 3 47 Z M 3 9 " clip-rule="nonzero"/></clipPath></defs><g clip-path="url(#b3febce3a6)"><g clip-path="url(#3f5d1c8a21)"><g transform="matrix(1, 0, 0, 1, 10, 23)"><g clip-path="url(#73ed7f61f3)"><g clip-path="url(#ee5cce04e0)"><g clip-path="url(#27c072162c)"><path fill="#dc0b1b" d="M 0.511719 0.511719 L 1.6875 0.511719 L 1.6875 1.6875 L 0.511719 1.6875 Z M 0.511719 0.511719 " fill-opacity="1" fill-rule="nonzero"/></g></g></g></g></g></g><g clip-path="url(#461754ec04)"><g clip-path="url(#832ed0472c)"><g clip-path="url(#ba386b8da2)"><path fill="#ade027" d="M 21.417969 22.640625 L 23.027344 22.640625 L 23.027344 24.257812 L 21.417969 24.257812 Z M 21.417969 22.640625 " fill-opacity="1" fill-rule="nonzero"/></g></g></g><g clip-path="url(#213b051a27)"><path fill="#adc71c" d="M 8.214844 12.253906 C 7.214844 13.703125 6.621094 15.386719 6.15625 17.082031 C 5.6875 18.777344 5.332031 20.507812 4.753906 22.167969 C 4.054688 24.167969 3.042969 26.039062 2.171875 27.96875 C 1.300781 29.898438 0.558594 31.929688 0.453125 34.046875 C 0.363281 35.828125 0.734375 37.628906 1.484375 39.25 C 2.234375 40.867188 3.355469 42.308594 4.714844 43.460938 C 7.433594 45.769531 11.058594 46.882812 14.621094 46.839844 C 17.886719 46.800781 21.175781 45.796875 23.773438 43.808594 C 26.371094 41.820312 28.230469 38.820312 28.628906 35.566406 C 28.890625 33.425781 28.53125 31.246094 27.863281 29.195312 C 27.199219 27.144531 26.234375 25.207031 25.25 23.289062 C 24.121094 21.082031 22.964844 18.882812 22.082031 16.5625 C 21.53125 15.109375 21.082031 13.601562 20.261719 12.28125 C 19.625 11.265625 18.773438 10.382812 17.753906 9.753906 C 16.734375 9.125 15.550781 8.757812 14.355469 8.75 C 13.128906 8.738281 11.914062 9.105469 10.859375 9.734375 C 9.804688 10.359375 8.910156 11.242188 8.214844 12.253906 " fill-opacity="1" fill-rule="nonzero"/></g><path fill="#daea48" d="M 7.023438 19.246094 C 7.1875 18.132812 7.460938 17.050781 7.84375 15.992188 C 8 15.558594 8.179688 15.128906 8.414062 14.730469 C 8.648438 14.335938 8.945312 13.96875 9.316406 13.695312 C 9.511719 13.550781 9.726562 13.429688 9.964844 13.386719 C 10.085938 13.367188 10.207031 13.363281 10.328125 13.386719 C 10.445312 13.410156 10.558594 13.460938 10.65625 13.535156 C 10.8125 13.664062 10.910156 13.855469 10.941406 14.054688 C 10.972656 14.257812 10.941406 14.460938 10.878906 14.652344 C 10.742188 15.050781 10.472656 15.378906 10.21875 15.710938 C 9.601562 16.511719 9.046875 17.390625 8.832031 18.378906 C 8.769531 18.667969 8.738281 18.964844 8.65625 19.253906 C 8.574219 19.539062 8.433594 19.820312 8.203125 20.003906 C 8.089844 20.09375 7.960938 20.15625 7.820312 20.183594 C 7.679688 20.210938 7.53125 20.199219 7.402344 20.148438 C 7.226562 20.074219 7.101562 19.953125 7.027344 19.777344 C 6.957031 19.609375 6.953125 19.414062 7.023438 19.246094 M 7.089844 21.050781 C 7.277344 20.945312 7.460938 20.949219 7.644531 21.058594 C 7.730469 21.113281 7.800781 21.1875 7.851562 21.273438 C 7.90625 21.363281 7.9375 21.457031 7.953125 21.558594 C 7.988281 21.757812 7.964844 21.960938 7.925781 22.160156 C 7.90625 22.265625 7.882812 22.371094 7.839844 22.472656 C 7.796875 22.570312 7.738281 22.664062 7.65625 22.734375 C 7.566406 22.804688 7.46875 22.847656 7.359375 22.855469 C 7.25 22.867188 7.140625 22.847656 7.042969 22.800781 C 6.894531 22.734375 6.777344 22.609375 6.707031 22.464844 C 6.632812 22.324219 6.601562 22.160156 6.605469 22 C 6.613281 21.628906 6.796875 21.269531 7.089844 21.050781 " fill-opacity="1" fill-rule="nonzero"/><g clip-path="url(#8796de8c09)"><path fill="#9fb820" d="M 17.117188 9.40625 C 17.1875 9.511719 17.257812 9.617188 17.328125 9.726562 C 18.148438 11.042969 18.597656 12.554688 19.148438 14.007812 C 20.03125 16.324219 21.1875 18.523438 22.320312 20.730469 C 23.300781 22.652344 24.265625 24.589844 24.933594 26.640625 C 25.597656 28.691406 25.957031 30.871094 25.695312 33.011719 C 25.296875 36.265625 23.4375 39.265625 20.839844 41.253906 C 18.242188 43.242188 14.957031 44.242188 11.6875 44.28125 C 8.722656 44.320312 5.714844 43.554688 3.222656 41.964844 C 3.679688 42.503906 4.175781 43.003906 4.714844 43.460938 C 7.433594 45.769531 11.058594 46.882812 14.621094 46.839844 C 17.886719 46.800781 21.171875 45.796875 23.773438 43.808594 C 26.371094 41.820312 28.230469 38.820312 28.628906 35.566406 C 28.890625 33.425781 28.53125 31.246094 27.863281 29.195312 C 27.199219 27.144531 26.234375 25.207031 25.25 23.289062 C 24.121094 21.082031 22.964844 18.882812 22.082031 16.5625 C 21.53125 15.109375 21.082031 13.601562 20.261719 12.28125 C 19.625 11.265625 18.773438 10.382812 17.753906 9.753906 C 17.546875 9.625 17.335938 9.511719 17.117188 9.40625 " fill-opacity="1" fill-rule="nonzero"/></g><path fill="#4fbe37" d="M 23.867188 0.941406 C 21.808594 -0.00390625 19.300781 0.105469 17.328125 1.222656 C 15.496094 2.261719 14.164062 4.148438 13.789062 6.222656 C 14.953125 6.710938 16.238281 6.894531 17.488281 6.75 C 18.742188 6.601562 19.953125 6.132812 20.972656 5.390625 C 22.4375 4.332031 23.488281 2.714844 23.867188 0.941406 " fill-opacity="1" fill-rule="nonzero"/><path fill="#44b23b" d="M 23.820312 1.140625 C 23.546875 1.761719 23.199219 2.335938 22.777344 2.867188 C 21.644531 4.28125 20.039062 5.261719 18.332031 5.859375 C 17.523438 6.140625 16.660156 6.34375 15.820312 6.199219 C 15.472656 6.140625 15.144531 6.023438 14.832031 5.855469 C 14.945312 5.15625 15.125 4.480469 15.378906 3.820312 C 15.636719 3.140625 15.964844 2.496094 16.359375 1.886719 C 15.035156 2.972656 14.09375 4.535156 13.789062 6.222656 C 14.953125 6.710938 16.238281 6.894531 17.488281 6.746094 C 18.742188 6.601562 19.953125 6.132812 20.972656 5.390625 C 22.382812 4.371094 23.410156 2.832031 23.820312 1.140625 " fill-opacity="1" fill-rule="nonzero"/><path fill="#44b23b" d="M 13.929688 6.050781 C 15.128906 4.941406 16.4375 3.996094 17.867188 3.210938 C 19.605469 2.257812 21.445312 1.582031 23.386719 1.179688 C 21.539062 1.910156 19.757812 2.769531 18.035156 3.765625 C 16.789062 4.484375 15.582031 5.273438 14.417969 6.121094 L 13.929688 6.050781 " fill-opacity="1" fill-rule="nonzero"/><path fill="#1d1d21" d="M 9.5 2.074219 C 9.320312 2.078125 9.171875 2.210938 9.152344 2.390625 C 9.125 2.597656 9.214844 2.726562 9.414062 2.777344 C 11.195312 3.269531 12.75 4.582031 13.53125 6.261719 C 14.273438 7.851562 14.324219 9.769531 13.664062 11.394531 C 13.625 11.488281 13.625 11.578125 13.664062 11.671875 C 13.703125 11.761719 13.765625 11.828125 13.859375 11.863281 C 13.949219 11.902344 14.042969 11.902344 14.132812 11.863281 C 14.226562 11.824219 14.289062 11.757812 14.324219 11.664062 C 15.0625 9.847656 15.007812 7.734375 14.179688 5.957031 C 13.304688 4.082031 11.597656 2.636719 9.605469 2.089844 C 9.570312 2.078125 9.535156 2.074219 9.5 2.074219 " fill-opacity="1" fill-rule="nonzero"/><path fill="#1d1d21" d="M 15.828125 10.917969 C 15.789062 10.921875 15.753906 10.929688 15.71875 10.953125 C 15.207031 11.28125 14.605469 11.46875 13.996094 11.484375 C 13.398438 11.503906 12.792969 11.355469 12.269531 11.0625 C 12.148438 10.992188 12.054688 11.015625 11.984375 11.140625 C 11.917969 11.261719 11.945312 11.355469 12.070312 11.421875 C 12.671875 11.757812 13.320312 11.917969 14.007812 11.898438 C 14.707031 11.878906 15.351562 11.679688 15.941406 11.300781 C 16.117188 11.191406 16.039062 10.917969 15.828125 10.917969 " fill-opacity="1" fill-rule="nonzero"/><path fill="#8ea525" d="M 22.691406 35.234375 C 22.691406 35.394531 22.625 35.546875 22.515625 35.65625 C 22.398438 35.773438 22.257812 35.832031 22.09375 35.832031 C 21.929688 35.832031 21.789062 35.773438 21.671875 35.65625 C 21.558594 35.539062 21.5 35.398438 21.5 35.234375 C 21.5 35.078125 21.5625 34.925781 21.671875 34.8125 C 21.789062 34.699219 21.929688 34.640625 22.09375 34.640625 C 22.253906 34.640625 22.402344 34.703125 22.515625 34.8125 C 22.632812 34.929688 22.691406 35.070312 22.691406 35.234375 M 24.003906 31.203125 C 24.003906 31.3125 23.960938 31.417969 23.882812 31.496094 C 23.804688 31.574219 23.707031 31.613281 23.59375 31.613281 C 23.480469 31.613281 23.382812 31.574219 23.300781 31.496094 C 23.222656 31.414062 23.183594 31.316406 23.183594 31.203125 C 23.183594 31.089844 23.222656 30.992188 23.300781 30.910156 C 23.382812 30.832031 23.480469 30.792969 23.59375 30.792969 C 23.707031 30.789062 23.804688 30.832031 23.882812 30.910156 C 23.964844 30.992188 24.003906 31.089844 24.003906 31.203125 M 19.535156 32.46875 C 19.535156 32.582031 19.492188 32.679688 19.414062 32.757812 C 19.332031 32.839844 19.238281 32.878906 19.125 32.878906 C 19.015625 32.878906 18.910156 32.835938 18.832031 32.757812 C 18.753906 32.679688 18.710938 32.582031 18.710938 32.46875 C 18.710938 32.355469 18.753906 32.257812 18.832031 32.175781 C 18.914062 32.097656 19.011719 32.054688 19.125 32.054688 C 19.238281 32.054688 19.332031 32.097656 19.414062 32.175781 C 19.492188 32.257812 19.535156 32.355469 19.535156 32.46875 M 18.429688 36.789062 C 18.429688 36.898438 18.386719 37.003906 18.308594 37.082031 C 18.230469 37.164062 18.132812 37.203125 18.019531 37.203125 C 17.90625 37.203125 17.808594 37.164062 17.730469 37.082031 C 17.648438 37 17.609375 36.90625 17.609375 36.789062 C 17.609375 36.675781 17.648438 36.578125 17.730469 36.5 C 17.808594 36.417969 17.90625 36.378906 18.019531 36.378906 C 18.128906 36.378906 18.234375 36.421875 18.308594 36.5 C 18.390625 36.578125 18.429688 36.675781 18.429688 36.789062 M 23.898438 25.667969 C 23.898438 25.78125 23.859375 25.878906 23.777344 25.960938 C 23.699219 26.039062 23.601562 26.078125 23.488281 26.078125 C 23.375 26.078125 23.277344 26.039062 23.199219 25.960938 C 23.117188 25.878906 23.078125 25.78125 23.078125 25.667969 C 23.078125 25.554688 23.117188 25.457031 23.199219 25.375 C 23.277344 25.296875 23.375 25.257812 23.488281 25.257812 C 23.597656 25.257812 23.703125 25.300781 23.777344 25.375 C 23.859375 25.457031 23.898438 25.554688 23.898438 25.667969 M 21.425781 28.144531 C 21.425781 28.253906 21.382812 28.359375 21.308594 28.4375 C 21.226562 28.515625 21.128906 28.558594 21.015625 28.558594 C 20.902344 28.558594 20.804688 28.515625 20.726562 28.4375 C 20.644531 28.355469 20.605469 28.257812 20.605469 28.144531 C 20.605469 28.03125 20.644531 27.933594 20.726562 27.855469 C 20.804688 27.773438 20.902344 27.734375 21.015625 27.734375 C 21.125 27.734375 21.230469 27.777344 21.308594 27.855469 C 21.386719 27.933594 21.425781 28.03125 21.425781 28.144531 M 17.117188 40.453125 C 17.113281 40.546875 17.082031 40.621094 17.015625 40.683594 C 16.949219 40.75 16.875 40.78125 16.785156 40.78125 C 16.691406 40.78125 16.617188 40.75 16.550781 40.683594 C 16.488281 40.621094 16.453125 40.546875 16.453125 40.453125 C 16.453125 40.363281 16.484375 40.285156 16.546875 40.21875 C 16.613281 40.152344 16.691406 40.121094 16.785156 40.121094 C 16.875 40.121094 16.953125 40.152344 17.019531 40.21875 C 17.082031 40.285156 17.117188 40.363281 17.117188 40.453125 M 20.480469 39.109375 C 20.480469 39.21875 20.4375 39.324219 20.359375 39.402344 C 20.28125 39.480469 20.183594 39.523438 20.070312 39.523438 C 19.957031 39.523438 19.859375 39.480469 19.78125 39.402344 C 19.699219 39.320312 19.660156 39.222656 19.660156 39.109375 C 19.660156 39 19.703125 38.894531 19.78125 38.820312 C 19.859375 38.738281 19.957031 38.699219 20.070312 38.699219 C 20.183594 38.699219 20.28125 38.738281 20.359375 38.820312 C 20.441406 38.898438 20.480469 38.996094 20.480469 39.109375 M 21.902344 22.1875 C 21.902344 22.300781 21.859375 22.398438 21.78125 22.480469 C 21.699219 22.558594 21.601562 22.601562 21.488281 22.601562 C 21.378906 22.601562 21.277344 22.558594 21.199219 22.480469 C 21.117188 22.398438 21.078125 22.300781 21.078125 22.1875 C 21.078125 22.074219 21.121094 21.976562 21.199219 21.898438 C 21.28125 21.816406 21.375 21.777344 21.488281 21.777344 C 21.601562 21.777344 21.699219 21.816406 21.78125 21.898438 C 21.859375 21.976562 21.902344 22.074219 21.902344 22.1875 M 14.617188 43.023438 C 14.617188 43.09375 14.589844 43.164062 14.539062 43.214844 C 14.488281 43.265625 14.425781 43.292969 14.351562 43.292969 C 14.277344 43.292969 14.214844 43.265625 14.164062 43.214844 C 14.109375 43.160156 14.085938 43.097656 14.085938 43.023438 C 14.085938 42.949219 14.109375 42.886719 14.164062 42.835938 C 14.214844 42.785156 14.277344 42.757812 14.351562 42.757812 C 14.425781 42.757812 14.488281 42.785156 14.539062 42.835938 C 14.589844 42.886719 14.617188 42.949219 14.617188 43.023438 " fill-opacity="1" fill-rule="nonzero"/></svg>