<svg xmlns="http://www.w3.org/2000/svg" width="364" viewBox="0 0 273 321.75" height="429" version="1.0"><defs><clipPath id="a"><path d="M76.164 153.852h6.8v6.8h-6.8zm0 0"/></clipPath><clipPath id="b"><path d="M79.566 153.852a3.4 3.4 0 1 0 0 6.8 3.4 3.4 0 0 0 3.399-3.402 3.396 3.396 0 0 0-3.399-3.398zm0 0"/></clipPath></defs><g clip-path="url(#a)"><g clip-path="url(#b)"><path fill="#62b433" d="M76.164 153.852h6.8v6.8h-6.8zm0 0"/></g></g><path fill="#58b835" d="M137.055 62.965s8.96-28.188-11.207-53.992l22.547-8.977s6.582 40.348-4.618 63.371l-6.722-.402"/><path fill="#e62138" d="M133.46 59.766s-81.386-8-107.276 37.933c-25.891 45.93-1.586 108.074 29.03 151.672 30.626 43.598 56.747 64.203 85.622 68.172 28.875 3.965 57.367-22.547 86.687-80.543 29.325-57.996 44.395-108.375 24.043-141.941-20.343-33.567-67.601-38.235-118.105-35.293"/><path fill="#4fa036" d="M126.738 52.496S99.852 31.18 67.363 35.668l-10.082-.621s38.09 26.43 69.457 17.45"/><path fill="#4fa036" d="M146.234 58.75s-12.359-26.473-36.722-29.797l-6.934-2.941s18.684 33.93 43.656 32.738M162.46 51.375s27.013-14.469 58.38-6.672l19.043 6.672s-49.543 12.344-77.422 0"/><path fill="#4fa036" d="M141.176 56.008s15.656-21.356 42.484-23.133l16.973.738s-33.711 25.883-59.457 22.395"/><path fill="#58b835" d="M97.61 73.816s-20.16 7.852-26.883 29.172c-6.723 21.317 0 24.684 0 24.684s32.484-28.047 43.691-32.535c11.2-4.492 23.668-13.469 23.668-13.469s16.656 8.977 30.101 19.074c13.442 10.102 33.61 20.2 35.848 26.93 2.242 6.734 7.844-11.219 0-26.93-7.844-15.707-21.285-26.926-21.285-26.926s39.21 7.852 51.531 21.32c12.324 13.466 22.903 12.122 22.903 12.122s-8.336-38.336-29.625-48.23c-21.282-9.895-41.817-15.762-65.098-7.653 0 0-21.16 6.73-35.723 1.121-14.566-5.605-33.61-7.64-51.531-4.937-17.926 2.695-32.488 9.43-47.05 24.011 0 0 44.812-8.976 69.452 2.246"/><path fill="#dd2529" d="M227.523 237c18.68-36.941 31.528-70.766 33.168-99.152-1.714 1.48-1.386 5.011-3.507 10.09-11.7 27.98-20.664 43.128-36.344 70.054-15.684 26.93-48.242 36.516-74.606 36.465-40.515-.07-59.824-7.852-88.953-38.148-23.133-24.059-40.883-66.04-41.765-68.168 1.902 35.136 19.359 72.27 39.699 101.23 30.625 43.598 56.746 64.203 85.62 68.172 28.88 3.965 57.368-22.547 86.688-80.543"/><path fill="#dd2529" d="M180.508 178.55c0 5.485-2.149 9.927-4.801 9.927s-4.8-4.442-4.8-9.926c0-5.485 2.148-9.926 4.8-9.926 2.652 0 4.8 4.441 4.8 9.926"/><path fill="#f4d1b1" d="M178.508 176.09c0 3.508-1.254 6.347-2.801 6.347-1.547 0-2.8-2.84-2.8-6.347 0-3.504 1.253-6.34 2.8-6.34s2.8 2.836 2.8 6.34"/><path fill="#dd2529" d="M210.637 160.652c1.215 5.344.105 10.16-2.48 10.75-2.587.59-5.669-3.265-6.887-8.613-1.215-5.344-.106-10.156 2.484-10.746 2.582-.59 5.664 3.266 6.883 8.61"/><path fill="#f4d1b1" d="M208.14 158.7c.774 3.417.184 6.468-1.324 6.812-1.507.343-3.359-2.149-4.14-5.567-.778-3.414-.184-6.46 1.324-6.808 1.508-.34 3.36 2.148 4.14 5.562"/><path fill="#dd2529" d="M137.715 166.727c-.418 5.464-2.903 9.73-5.547 9.527-2.648-.207-4.453-4.8-4.031-10.27.422-5.464 2.906-9.73 5.554-9.527 2.641.207 4.446 4.805 4.024 10.27"/><path fill="#f4d1b1" d="M135.59 163.75c.187 3.5-.91 6.402-2.457 6.488-1.543.082-2.946-2.687-3.133-6.187-.191-3.5.91-6.403 2.457-6.485 1.543-.082 2.945 2.684 3.133 6.184"/><path fill="#dd2529" d="M103.379 162.938c-1.383 5.3-4.582 9.058-7.149 8.386-2.566-.668-3.527-5.512-2.144-10.816 1.379-5.305 4.578-9.059 7.14-8.39 2.57.671 3.536 5.51 2.153 10.82"/><path fill="#f4d1b1" d="M101.813 159.633c-.43 3.476-2.028 6.137-3.563 5.945-1.535-.195-2.43-3.168-1.992-6.644.433-3.477 2.027-6.137 3.566-5.946 1.531.192 2.426 3.164 1.989 6.645"/><path fill="#dd2529" d="M72.266 150.855c-1.38 5.305-4.579 9.063-7.145 8.391-2.566-.672-3.531-5.512-2.152-10.816 1.386-5.305 4.582-9.063 7.152-8.39 2.567.667 3.527 5.51 2.145 10.815"/><path fill="#f4d1b1" d="M70.703 147.55c-.437 3.477-2.031 6.141-3.562 5.95-1.54-.195-2.43-3.168-1.996-6.645.437-3.48 2.027-6.14 3.566-5.949 1.535.192 2.426 3.164 1.992 6.645"/><path fill="#dd2529" d="M48.84 119.254c-2.004 5.101-5.63 8.445-8.102 7.473-2.468-.977-2.84-5.903-.832-11 2.008-5.102 5.637-8.446 8.102-7.473 2.469.976 2.844 5.902.832 11"/><path fill="#f4d1b1" d="M47.688 115.785c-.848 3.399-2.754 5.852-4.254 5.477-1.5-.375-2.028-3.438-1.18-6.836.848-3.403 2.75-5.852 4.25-5.477s2.031 3.438 1.184 6.836"/><path fill="#dd2529" d="M31.45 158.82c-.75 5.43-3.485 9.535-6.114 9.172-2.629-.367-4.148-5.062-3.398-10.496.75-5.426 3.488-9.535 6.117-9.168 2.629.363 4.148 5.063 3.394 10.492"/><path fill="#f4d1b1" d="M29.512 155.723c-.024 3.504-1.297 6.336-2.848 6.324-1.543-.012-2.777-2.863-2.754-6.367.027-3.504 1.297-6.336 2.848-6.325 1.543.012 2.781 2.86 2.754 6.368"/><path fill="#dd2529" d="M52.777 180.266c-.75 5.425-3.484 9.535-6.113 9.168-2.629-.364-4.148-5.063-3.398-10.493.75-5.43 3.488-9.535 6.117-9.171 2.629.367 4.148 5.062 3.394 10.496"/><path fill="#f4d1b1" d="M50.84 177.16c-.024 3.504-1.297 6.336-2.844 6.328-1.547-.008-2.781-2.86-2.758-6.363.028-3.504 1.297-6.336 2.848-6.324 1.543.012 2.781 2.855 2.754 6.36"/><path fill="#dd2529" d="M84.145 202.422c-.747 5.43-3.489 9.535-6.118 9.172-2.62-.364-4.144-5.063-3.394-10.489.75-5.433 3.488-9.539 6.113-9.175 2.629.363 4.152 5.062 3.399 10.492"/><path fill="#f4d1b1" d="M82.207 199.324c-.023 3.504-1.297 6.336-2.844 6.324-1.547-.011-2.781-2.859-2.754-6.367.02-3.504 1.297-6.336 2.84-6.324 1.551.012 2.785 2.863 2.758 6.367"/><path fill="#dd2529" d="M124.773 123.844c-.75 5.43-3.488 9.535-6.117 9.172-2.629-.364-4.148-5.059-3.398-10.489.75-5.433 3.488-9.539 6.117-9.175 2.629.363 4.148 5.062 3.398 10.492"/><path fill="#f4d1b1" d="M122.836 120.746c-.027 3.504-1.3 6.336-2.848 6.324-1.547-.011-2.777-2.86-2.758-6.367.028-3.504 1.301-6.336 2.848-6.324 1.543.012 2.777 2.863 2.758 6.367"/><path fill="#dd2529" d="M170.758 129.215c-.102 5.48-2.328 9.883-4.98 9.836-2.653-.047-4.723-4.531-4.626-10.008.098-5.484 2.328-9.89 4.98-9.84 2.65.047 4.723 4.527 4.626 10.012"/><path fill="#f4d1b1" d="M168.46 126.367c.395 3.48-.53 6.45-2.07 6.621-1.538.172-3.1-2.508-3.495-5.988-.391-3.484.539-6.445 2.07-6.621 1.539-.176 3.105 2.508 3.496 5.988"/><path fill="#dd2529" d="M226.684 114.105c1.136 5.364-.047 10.16-2.641 10.707-2.598.551-5.617-3.347-6.754-8.707-1.137-5.363.047-10.16 2.645-10.707 2.593-.554 5.617 3.344 6.75 8.707"/><path fill="#f4d1b1" d="M223.809 111.852c1.168 3.304.93 6.402-.528 6.918-1.46.515-3.59-1.747-4.75-5.051-1.168-3.305-.93-6.399.528-6.914 1.457-.52 3.586 1.742 4.75 5.047"/><path fill="#dd2529" d="M244.473 165.707c-.47 5.461-2.993 9.703-5.633 9.477-2.64-.227-4.403-4.84-3.934-10.301.469-5.461 2.989-9.707 5.63-9.477 2.644.227 4.405 4.836 3.937 10.301"/><path fill="#f4d1b1" d="M242.375 162.71c.156 3.505-.969 6.395-2.512 6.466-1.547.07-2.925-2.711-3.082-6.211-.16-3.504.969-6.395 2.512-6.465 1.547-.07 2.922 2.71 3.082 6.21"/><path fill="#dd2529" d="M229.098 198.785c-.47 5.465-2.989 9.707-5.633 9.48-2.645-.23-4.406-4.84-3.938-10.3.47-5.461 2.993-9.707 5.633-9.48 2.645.23 4.406 4.84 3.938 10.3"/><path fill="#f4d1b1" d="M227 195.793c.156 3.5-.969 6.394-2.512 6.469-1.547.066-2.925-2.715-3.082-6.219-.156-3.5.969-6.395 2.512-6.461 1.547-.07 2.926 2.711 3.082 6.211"/><path fill="#dd2529" d="M155.613 204.117c-.468 5.461-2.988 9.707-5.633 9.477-2.64-.227-4.406-4.84-3.937-10.301.469-5.461 2.992-9.703 5.633-9.48 2.644.23 4.406 4.843 3.937 10.304"/><path fill="#f4d1b1" d="M153.52 201.121c.156 3.504-.97 6.399-2.516 6.469-1.547.066-2.922-2.715-3.082-6.215-.156-3.5.969-6.398 2.516-6.465 1.542-.07 2.921 2.711 3.082 6.211"/><path fill="#dd2529" d="M118.875 215.25c-.469 5.465-2.992 9.707-5.637 9.48-2.64-.23-4.402-4.84-3.937-10.3.469-5.461 2.992-9.707 5.636-9.477 2.645.227 4.407 4.836 3.938 10.297"/><path fill="#f4d1b1" d="M116.773 212.258c.16 3.5-.964 6.394-2.511 6.469-1.543.066-2.926-2.72-3.082-6.22-.157-3.5.968-6.394 2.511-6.46 1.551-.074 2.926 2.71 3.082 6.21"/><path fill="#dd2529" d="M96.02 241.547c.89 5.414-.512 10.144-3.13 10.574-2.617.434-5.46-3.601-6.35-9.012-.888-5.406.51-10.144 3.128-10.574 2.621-.43 5.465 3.606 6.352 9.012"/><path fill="#f4d1b1" d="M93.25 239.164c1.012 3.356.633 6.438-.848 6.887-1.476.445-3.504-1.91-4.515-5.262-1.012-3.355-.633-6.437.847-6.883 1.48-.453 3.504 1.903 4.516 5.258"/><path fill="#dd2529" d="M63.453 220.219c.89 5.414-.508 10.144-3.125 10.578-2.617.43-5.46-3.602-6.348-9.016-.89-5.406.508-10.144 3.125-10.57 2.618-.438 5.461 3.601 6.348 9.008"/><path fill="#f4d1b1" d="M60.688 217.84c1.011 3.351.632 6.433-.848 6.883-1.48.445-3.504-1.907-4.516-5.262-1.011-3.356-.633-6.438.848-6.887 1.48-.449 3.504 1.906 4.516 5.266"/><path fill="#dd2529" d="M144.23 247.617c.887 5.406-.515 10.145-3.132 10.574-2.618.434-5.457-3.605-6.348-9.011-.887-5.41.516-10.145 3.133-10.578 2.617-.43 5.457 3.605 6.347 9.015"/><path fill="#f4d1b1" d="M141.457 245.23c1.02 3.356.64 6.438-.844 6.891-1.48.445-3.5-1.91-4.511-5.262-1.012-3.355-.633-6.437.843-6.89 1.48-.446 3.5 1.91 4.512 5.261"/><path fill="#dd2529" d="M196.938 232.707c-.227 5.477-2.56 9.824-5.211 9.715-2.653-.113-4.614-4.64-4.383-10.121.23-5.477 2.566-9.824 5.215-9.715 2.652.113 4.613 4.644 4.379 10.121"/><path fill="#f4d1b1" d="M194.715 229.809c.312 3.488-.688 6.43-2.23 6.566-1.54.137-3.036-2.582-3.348-6.07-.309-3.493.687-6.434 2.23-6.57 1.543-.141 3.04 2.581 3.348 6.074"/><path fill="#dd2529" d="M175.7 278.223c-.227 5.476-2.563 9.824-5.212 9.718-2.652-.113-4.613-4.644-4.383-10.12.23-5.477 2.567-9.829 5.215-9.72 2.653.114 4.614 4.645 4.38 10.122"/><path fill="#f4d1b1" d="M173.477 275.324c.308 3.488-.688 6.43-2.23 6.57-1.54.133-3.04-2.585-3.349-6.074-.312-3.488.688-6.43 2.227-6.566 1.543-.137 3.043 2.578 3.352 6.07"/><path fill="#dd2529" d="M126.762 281.816c.472 5.461-1.293 10.075-3.934 10.305-2.644.223-5.168-4.016-5.637-9.48-.468-5.461 1.293-10.075 3.934-10.301 2.645-.23 5.168 4.015 5.637 9.476"/><path fill="#f4d1b1" d="M124.184 279.227c.75 3.421.14 6.464-1.371 6.796-1.512.336-3.344-2.168-4.098-5.59-.75-3.425-.137-6.468 1.375-6.8 1.512-.336 3.344 2.168 4.094 5.594"/><path fill="#4fa036" d="M165.68 92.89c-5.332-7.292-15.371-21.32-27.578-17.671 0 0-27.832 20.785-40.91 31.039-.028.023-.044.031-.07.055 6.831-5.133 13.37-9.606 17.296-11.176 11.2-4.492 23.668-13.469 23.668-13.469s16.656 8.977 30.101 19.074c5.446 4.09 11.981 8.176 17.989 12.043l.004.004s-15.164-12.605-20.5-19.898M182.75 73.816l15.68 17.63c-7.371-10.622-15.68-17.63-15.68-17.63M257.184 107.258s-.036-.14-.051-.215c-7.59-2.68-16.918-7.477-19.774-11.906-4.214-6.551-12.601-12.344-26.32-17.957-13.726-5.61-28.289-3.364-28.289-3.364s39.21 7.852 51.531 21.32c12.324 13.466 22.903 12.122 22.903 12.122M97.61 73.816S64.562 53.34 28.155 71.57c0 0 44.813-8.976 69.453 2.246"/></svg>