<svg xmlns="http://www.w3.org/2000/svg" xmlns:xlink="http://www.w3.org/1999/xlink" width="53" zoomAndPan="magnify" viewBox="0 0 39.75 47.25" height="63" preserveAspectRatio="xMidYMid meet" version="1.0"><defs><clipPath id="865dc8f8b9"><path d="M 15.457031 22.964844 L 16.640625 22.964844 L 16.640625 24.148438 L 15.457031 24.148438 Z M 15.457031 22.964844 " clip-rule="nonzero"/></clipPath><clipPath id="38cc2c8de2"><path d="M 16.050781 22.964844 C 15.722656 22.964844 15.457031 23.230469 15.457031 23.554688 C 15.457031 23.882812 15.722656 24.148438 16.050781 24.148438 C 16.375 24.148438 16.640625 23.882812 16.640625 23.554688 C 16.640625 23.230469 16.375 22.964844 16.050781 22.964844 Z M 16.050781 22.964844 " clip-rule="nonzero"/></clipPath><clipPath id="713f98b514"><path d="M 0.457031 0.964844 L 1.640625 0.964844 L 1.640625 2.148438 L 0.457031 2.148438 Z M 0.457031 0.964844 " clip-rule="nonzero"/></clipPath><clipPath id="fe37638b0a"><path d="M 1.050781 0.964844 C 0.722656 0.964844 0.457031 1.230469 0.457031 1.554688 C 0.457031 1.882812 0.722656 2.148438 1.050781 2.148438 C 1.375 2.148438 1.640625 1.882812 1.640625 1.554688 C 1.640625 1.230469 1.375 0.964844 1.050781 0.964844 Z M 1.050781 0.964844 " clip-rule="nonzero"/></clipPath><clipPath id="f0e8e6363a"><rect x="0" width="2" y="0" height="3"/></clipPath><clipPath id="2ca47a728f"><path d="M 11.105469 21.890625 L 12.078125 21.890625 L 12.078125 22.855469 L 11.105469 22.855469 Z M 11.105469 21.890625 " clip-rule="nonzero"/></clipPath><clipPath id="62dca6602d"><path d="M 11.589844 21.890625 C 11.265625 21.890625 11.105469 22.050781 11.105469 22.371094 C 11.105469 22.695312 11.265625 22.855469 11.589844 22.855469 C 11.917969 22.855469 12.078125 22.695312 12.078125 22.371094 C 12.078125 22.050781 11.917969 21.890625 11.589844 21.890625 Z M 11.589844 21.890625 " clip-rule="nonzero"/></clipPath><clipPath id="3031806e97"><path d="M 2 8 L 38 8 L 38 45.773438 L 2 45.773438 Z M 2 8 " clip-rule="nonzero"/></clipPath><clipPath id="822d299909"><path d="M 2 19 L 38 19 L 38 45.773438 L 2 45.773438 Z M 2 19 " clip-rule="nonzero"/></clipPath></defs><g clip-path="url(#865dc8f8b9)"><g clip-path="url(#38cc2c8de2)"><g transform="matrix(1, 0, 0, 1, 15, 22)"><g clip-path="url(#f0e8e6363a)"><g clip-path="url(#713f98b514)"><g clip-path="url(#fe37638b0a)"><path fill="#dc0b1b" d="M 0.457031 0.964844 L 1.640625 0.964844 L 1.640625 2.148438 L 0.457031 2.148438 Z M 0.457031 0.964844 " fill-opacity="1" fill-rule="nonzero"/></g></g></g></g></g></g><g clip-path="url(#2ca47a728f)"><g clip-path="url(#62dca6602d)"><path fill="#62b433" d="M 11.105469 21.890625 L 12.078125 21.890625 L 12.078125 22.855469 L 11.105469 22.855469 Z M 11.105469 21.890625 " fill-opacity="1" fill-rule="nonzero"/></g></g><path fill="#58b835" d="M 19.832031 8.976562 C 19.832031 8.976562 21.117188 4.972656 18.226562 1.308594 L 21.457031 0.03125 C 21.457031 0.03125 22.398438 5.765625 20.796875 9.035156 Z M 19.832031 8.976562 " fill-opacity="1" fill-rule="nonzero"/><g clip-path="url(#3031806e97)"><path fill="#e62138" d="M 19.316406 8.523438 C 19.316406 8.523438 7.652344 7.386719 3.941406 13.910156 C 0.230469 20.4375 3.714844 29.265625 8.101562 35.457031 C 12.492188 41.652344 16.234375 44.578125 20.375 45.144531 C 24.511719 45.707031 28.597656 41.941406 32.796875 33.699219 C 37 25.460938 39.160156 18.304688 36.246094 13.535156 C 33.328125 8.769531 26.554688 8.105469 19.316406 8.523438 " fill-opacity="1" fill-rule="nonzero"/></g><path fill="#4fa036" d="M 18.351562 7.492188 C 18.351562 7.492188 14.5 4.460938 9.84375 5.101562 L 8.398438 5.011719 C 8.398438 5.011719 13.855469 8.765625 18.351562 7.492188 " fill-opacity="1" fill-rule="nonzero"/><path fill="#4fa036" d="M 21.148438 8.378906 C 21.148438 8.378906 19.375 4.617188 15.882812 4.144531 L 14.890625 3.726562 C 14.890625 3.726562 17.566406 8.546875 21.148438 8.378906 M 23.472656 7.332031 C 23.472656 7.332031 27.34375 5.277344 31.839844 6.382812 L 34.570312 7.332031 C 34.570312 7.332031 27.46875 9.085938 23.472656 7.332031 " fill-opacity="1" fill-rule="nonzero"/><path fill="#4fa036" d="M 20.421875 7.988281 C 20.421875 7.988281 22.667969 4.957031 26.511719 4.703125 L 28.945312 4.808594 C 28.945312 4.808594 24.113281 8.484375 20.421875 7.988281 " fill-opacity="1" fill-rule="nonzero"/><path fill="#58b835" d="M 14.179688 10.519531 C 14.179688 10.519531 11.289062 11.632812 10.324219 14.664062 C 9.359375 17.691406 10.324219 18.167969 10.324219 18.167969 C 10.324219 18.167969 14.980469 14.183594 16.585938 13.546875 C 18.191406 12.910156 19.980469 11.632812 19.980469 11.632812 C 19.980469 11.632812 22.367188 12.910156 24.292969 14.34375 C 26.21875 15.777344 29.109375 17.214844 29.433594 18.167969 C 29.753906 19.125 30.554688 16.574219 29.433594 14.34375 C 28.308594 12.113281 26.382812 10.519531 26.382812 10.519531 C 26.382812 10.519531 32 11.632812 33.765625 13.546875 C 35.535156 15.460938 37.050781 15.269531 37.050781 15.269531 C 37.050781 15.269531 35.855469 9.824219 32.804688 8.417969 C 29.753906 7.011719 26.808594 6.179688 23.472656 7.332031 C 23.472656 7.332031 20.441406 8.285156 18.351562 7.492188 C 16.265625 6.695312 13.535156 6.40625 10.96875 6.789062 C 8.398438 7.171875 6.308594 8.128906 4.222656 10.199219 C 4.222656 10.199219 10.644531 8.925781 14.179688 10.519531 " fill-opacity="1" fill-rule="nonzero"/><g clip-path="url(#822d299909)"><path fill="#dd2529" d="M 32.796875 33.699219 C 35.476562 28.453125 37.316406 23.648438 37.550781 19.617188 C 37.304688 19.824219 37.351562 20.328125 37.050781 21.050781 C 35.371094 25.023438 34.085938 27.175781 31.839844 31 C 29.59375 34.828125 24.925781 36.1875 21.148438 36.179688 C 15.339844 36.171875 12.574219 35.066406 8.398438 30.761719 C 5.082031 27.34375 2.539062 21.378906 2.410156 21.078125 C 2.683594 26.070312 5.1875 31.34375 8.101562 35.457031 C 12.492188 41.652344 16.234375 44.578125 20.375 45.144531 C 24.511719 45.707031 28.597656 41.941406 32.796875 33.699219 " fill-opacity="1" fill-rule="nonzero"/></g><path fill="#dd2529" d="M 26.058594 25.398438 C 26.058594 26.175781 25.75 26.808594 25.371094 26.808594 C 24.992188 26.808594 24.683594 26.175781 24.683594 25.398438 C 24.683594 24.617188 24.992188 23.988281 25.371094 23.988281 C 25.75 23.988281 26.058594 24.617188 26.058594 25.398438 " fill-opacity="1" fill-rule="nonzero"/><path fill="#f4d1b1" d="M 25.773438 25.046875 C 25.773438 25.546875 25.59375 25.949219 25.371094 25.949219 C 25.148438 25.949219 24.96875 25.546875 24.96875 25.046875 C 24.96875 24.550781 25.148438 24.148438 25.371094 24.148438 C 25.59375 24.148438 25.773438 24.550781 25.773438 25.046875 " fill-opacity="1" fill-rule="nonzero"/><path fill="#dd2529" d="M 30.378906 22.855469 C 30.550781 23.613281 30.394531 24.296875 30.023438 24.382812 C 29.652344 24.464844 29.210938 23.917969 29.035156 23.160156 C 28.859375 22.398438 29.019531 21.714844 29.390625 21.632812 C 29.761719 21.546875 30.203125 22.097656 30.378906 22.855469 " fill-opacity="1" fill-rule="nonzero"/><path fill="#f4d1b1" d="M 30.019531 22.578125 C 30.132812 23.0625 30.046875 23.496094 29.832031 23.546875 C 29.613281 23.59375 29.347656 23.238281 29.238281 22.753906 C 29.125 22.269531 29.210938 21.835938 29.425781 21.789062 C 29.644531 21.738281 29.910156 22.09375 30.019531 22.578125 " fill-opacity="1" fill-rule="nonzero"/><path fill="#dd2529" d="M 19.925781 23.71875 C 19.867188 24.496094 19.511719 25.101562 19.132812 25.070312 C 18.75 25.042969 18.492188 24.390625 18.554688 23.613281 C 18.613281 22.835938 18.96875 22.230469 19.347656 22.257812 C 19.726562 22.289062 19.988281 22.941406 19.925781 23.71875 " fill-opacity="1" fill-rule="nonzero"/><path fill="#f4d1b1" d="M 19.621094 23.296875 C 19.648438 23.792969 19.492188 24.203125 19.269531 24.21875 C 19.046875 24.226562 18.847656 23.835938 18.820312 23.339844 C 18.792969 22.839844 18.949219 22.429688 19.171875 22.417969 C 19.394531 22.40625 19.59375 22.796875 19.621094 23.296875 " fill-opacity="1" fill-rule="nonzero"/><path fill="#dd2529" d="M 15.003906 23.179688 C 14.804688 23.933594 14.347656 24.464844 13.980469 24.371094 C 13.613281 24.277344 13.472656 23.589844 13.671875 22.835938 C 13.871094 22.082031 14.328125 21.546875 14.695312 21.644531 C 15.066406 21.738281 15.203125 22.425781 15.003906 23.179688 " fill-opacity="1" fill-rule="nonzero"/><path fill="#f4d1b1" d="M 14.78125 22.710938 C 14.71875 23.203125 14.488281 23.582031 14.269531 23.554688 C 14.050781 23.527344 13.921875 23.105469 13.984375 22.609375 C 14.046875 22.117188 14.273438 21.738281 14.496094 21.765625 C 14.714844 21.792969 14.84375 22.214844 14.78125 22.710938 " fill-opacity="1" fill-rule="nonzero"/><path fill="#dd2529" d="M 10.546875 21.464844 C 10.347656 22.21875 9.890625 22.75 9.519531 22.65625 C 9.152344 22.558594 9.015625 21.871094 9.210938 21.117188 C 9.410156 20.363281 9.871094 19.832031 10.238281 19.925781 C 10.605469 20.023438 10.742188 20.710938 10.546875 21.464844 " fill-opacity="1" fill-rule="nonzero"/><path fill="#f4d1b1" d="M 10.320312 20.992188 C 10.257812 21.488281 10.03125 21.867188 9.8125 21.839844 C 9.589844 21.8125 9.460938 21.390625 9.523438 20.894531 C 9.585938 20.402344 9.816406 20.023438 10.035156 20.050781 C 10.253906 20.078125 10.382812 20.5 10.320312 20.992188 " fill-opacity="1" fill-rule="nonzero"/><path fill="#dd2529" d="M 7.1875 16.972656 C 6.902344 17.699219 6.378906 18.171875 6.027344 18.035156 C 5.671875 17.898438 5.621094 17.195312 5.90625 16.472656 C 6.195312 15.75 6.714844 15.273438 7.070312 15.410156 C 7.421875 15.550781 7.476562 16.25 7.1875 16.972656 " fill-opacity="1" fill-rule="nonzero"/><path fill="#f4d1b1" d="M 7.023438 16.480469 C 6.902344 16.964844 6.628906 17.3125 6.414062 17.257812 C 6.199219 17.207031 6.121094 16.769531 6.242188 16.289062 C 6.367188 15.804688 6.636719 15.457031 6.851562 15.511719 C 7.066406 15.5625 7.144531 16 7.023438 16.480469 " fill-opacity="1" fill-rule="nonzero"/><path fill="#dd2529" d="M 4.695312 22.59375 C 4.585938 23.367188 4.195312 23.949219 3.820312 23.898438 C 3.441406 23.84375 3.222656 23.179688 3.332031 22.40625 C 3.4375 21.636719 3.832031 21.050781 4.207031 21.105469 C 4.585938 21.15625 4.804688 21.824219 4.695312 22.59375 " fill-opacity="1" fill-rule="nonzero"/><path fill="#f4d1b1" d="M 4.417969 22.15625 C 4.414062 22.652344 4.230469 23.054688 4.007812 23.054688 C 3.789062 23.050781 3.609375 22.648438 3.613281 22.148438 C 3.617188 21.652344 3.800781 21.25 4.023438 21.25 C 4.242188 21.25 4.421875 21.65625 4.417969 22.15625 " fill-opacity="1" fill-rule="nonzero"/><path fill="#dd2529" d="M 7.753906 25.640625 C 7.644531 26.410156 7.253906 26.996094 6.875 26.945312 C 6.5 26.890625 6.28125 26.222656 6.390625 25.453125 C 6.496094 24.683594 6.890625 24.097656 7.265625 24.148438 C 7.640625 24.203125 7.859375 24.871094 7.753906 25.640625 " fill-opacity="1" fill-rule="nonzero"/><path fill="#f4d1b1" d="M 7.472656 25.199219 C 7.472656 25.699219 7.289062 26.101562 7.066406 26.097656 C 6.84375 26.097656 6.667969 25.691406 6.671875 25.195312 C 6.675781 24.699219 6.855469 24.296875 7.078125 24.296875 C 7.300781 24.296875 7.476562 24.703125 7.472656 25.199219 " fill-opacity="1" fill-rule="nonzero"/><path fill="#dd2529" d="M 12.246094 28.789062 C 12.140625 29.558594 11.746094 30.144531 11.371094 30.09375 C 10.996094 30.039062 10.777344 29.371094 10.882812 28.601562 C 10.992188 27.828125 11.382812 27.246094 11.761719 27.296875 C 12.136719 27.351562 12.355469 28.015625 12.246094 28.789062 " fill-opacity="1" fill-rule="nonzero"/><path fill="#f4d1b1" d="M 11.96875 28.347656 C 11.96875 28.847656 11.785156 29.25 11.5625 29.246094 C 11.339844 29.246094 11.164062 28.839844 11.167969 28.34375 C 11.171875 27.84375 11.355469 27.441406 11.574219 27.445312 C 11.796875 27.445312 11.972656 27.851562 11.96875 28.347656 " fill-opacity="1" fill-rule="nonzero"/><path fill="#dd2529" d="M 18.070312 17.625 C 17.964844 18.398438 17.570312 18.980469 17.195312 18.929688 C 16.816406 18.878906 16.601562 18.210938 16.707031 17.4375 C 16.816406 16.667969 17.207031 16.082031 17.585938 16.136719 C 17.960938 16.1875 18.179688 16.855469 18.070312 17.625 " fill-opacity="1" fill-rule="nonzero"/><path fill="#f4d1b1" d="M 17.792969 17.1875 C 17.789062 17.683594 17.605469 18.085938 17.386719 18.085938 C 17.164062 18.082031 16.988281 17.679688 16.988281 17.179688 C 16.992188 16.683594 17.175781 16.28125 17.398438 16.28125 C 17.621094 16.28125 17.796875 16.6875 17.792969 17.1875 " fill-opacity="1" fill-rule="nonzero"/><path fill="#dd2529" d="M 24.664062 18.390625 C 24.648438 19.167969 24.328125 19.792969 23.949219 19.785156 C 23.566406 19.78125 23.269531 19.144531 23.285156 18.363281 C 23.300781 17.585938 23.617188 16.960938 24 16.964844 C 24.378906 16.972656 24.675781 17.609375 24.664062 18.390625 " fill-opacity="1" fill-rule="nonzero"/><path fill="#f4d1b1" d="M 24.332031 17.984375 C 24.390625 18.480469 24.257812 18.902344 24.035156 18.925781 C 23.816406 18.949219 23.589844 18.570312 23.535156 18.074219 C 23.480469 17.578125 23.613281 17.160156 23.832031 17.132812 C 24.050781 17.109375 24.277344 17.488281 24.332031 17.984375 " fill-opacity="1" fill-rule="nonzero"/><path fill="#dd2529" d="M 32.679688 16.242188 C 32.839844 17.003906 32.671875 17.6875 32.300781 17.761719 C 31.925781 17.84375 31.496094 17.289062 31.332031 16.527344 C 31.167969 15.765625 31.339844 15.082031 31.710938 15.003906 C 32.082031 14.925781 32.515625 15.480469 32.679688 16.242188 " fill-opacity="1" fill-rule="nonzero"/><path fill="#f4d1b1" d="M 32.265625 15.921875 C 32.433594 16.390625 32.398438 16.832031 32.191406 16.90625 C 31.980469 16.976562 31.675781 16.65625 31.507812 16.1875 C 31.34375 15.71875 31.375 15.277344 31.585938 15.207031 C 31.792969 15.132812 32.097656 15.453125 32.265625 15.921875 " fill-opacity="1" fill-rule="nonzero"/><path fill="#dd2529" d="M 35.226562 23.574219 C 35.160156 24.347656 34.796875 24.953125 34.421875 24.917969 C 34.042969 24.886719 33.789062 24.230469 33.855469 23.457031 C 33.921875 22.679688 34.285156 22.078125 34.664062 22.109375 C 35.042969 22.140625 35.292969 22.796875 35.226562 23.574219 " fill-opacity="1" fill-rule="nonzero"/><path fill="#f4d1b1" d="M 34.925781 23.148438 C 34.949219 23.644531 34.789062 24.054688 34.566406 24.066406 C 34.34375 24.074219 34.148438 23.679688 34.125 23.183594 C 34.101562 22.6875 34.265625 22.273438 34.484375 22.265625 C 34.707031 22.253906 34.902344 22.648438 34.925781 23.148438 " fill-opacity="1" fill-rule="nonzero"/><path fill="#dd2529" d="M 33.023438 28.273438 C 32.957031 29.046875 32.59375 29.652344 32.214844 29.617188 C 31.835938 29.585938 31.585938 28.929688 31.652344 28.15625 C 31.71875 27.378906 32.082031 26.777344 32.460938 26.808594 C 32.839844 26.839844 33.089844 27.496094 33.023438 28.273438 " fill-opacity="1" fill-rule="nonzero"/><path fill="#f4d1b1" d="M 32.722656 27.847656 C 32.746094 28.34375 32.585938 28.753906 32.363281 28.765625 C 32.140625 28.777344 31.945312 28.378906 31.921875 27.882812 C 31.898438 27.386719 32.058594 26.972656 32.28125 26.964844 C 32.503906 26.953125 32.699219 27.351562 32.722656 27.847656 " fill-opacity="1" fill-rule="nonzero"/><path fill="#dd2529" d="M 22.492188 29.03125 C 22.425781 29.804688 22.0625 30.410156 21.683594 30.375 C 21.304688 30.34375 21.050781 29.6875 21.121094 28.914062 C 21.1875 28.136719 21.546875 27.535156 21.925781 27.566406 C 22.304688 27.597656 22.558594 28.253906 22.492188 29.03125 " fill-opacity="1" fill-rule="nonzero"/><path fill="#f4d1b1" d="M 22.191406 28.605469 C 22.214844 29.101562 22.050781 29.511719 21.832031 29.523438 C 21.609375 29.53125 21.410156 29.136719 21.390625 28.640625 C 21.367188 28.144531 21.527344 27.730469 21.75 27.722656 C 21.96875 27.710938 22.167969 28.105469 22.191406 28.605469 " fill-opacity="1" fill-rule="nonzero"/><path fill="#dd2529" d="M 17.226562 30.609375 C 17.160156 31.386719 16.796875 31.992188 16.417969 31.957031 C 16.039062 31.925781 15.785156 31.269531 15.855469 30.496094 C 15.921875 29.71875 16.28125 29.117188 16.660156 29.148438 C 17.039062 29.179688 17.292969 29.835938 17.226562 30.609375 " fill-opacity="1" fill-rule="nonzero"/><path fill="#f4d1b1" d="M 16.925781 30.1875 C 16.949219 30.683594 16.785156 31.09375 16.566406 31.105469 C 16.34375 31.113281 16.144531 30.71875 16.121094 30.222656 C 16.101562 29.722656 16.261719 29.3125 16.484375 29.304688 C 16.703125 29.292969 16.902344 29.6875 16.925781 30.1875 " fill-opacity="1" fill-rule="nonzero"/><path fill="#dd2529" d="M 13.949219 34.347656 C 14.078125 35.117188 13.875 35.789062 13.5 35.847656 C 13.125 35.910156 12.71875 35.335938 12.589844 34.570312 C 12.464844 33.800781 12.664062 33.128906 13.039062 33.066406 C 13.414062 33.003906 13.824219 33.578125 13.949219 34.347656 " fill-opacity="1" fill-rule="nonzero"/><path fill="#f4d1b1" d="M 13.554688 34.007812 C 13.699219 34.484375 13.644531 34.921875 13.429688 34.988281 C 13.21875 35.050781 12.929688 34.714844 12.785156 34.238281 C 12.640625 33.761719 12.695312 33.324219 12.90625 33.261719 C 13.117188 33.195312 13.40625 33.53125 13.554688 34.007812 " fill-opacity="1" fill-rule="nonzero"/><path fill="#dd2529" d="M 9.28125 31.316406 C 9.410156 32.085938 9.210938 32.757812 8.835938 32.820312 C 8.460938 32.882812 8.050781 32.308594 7.925781 31.539062 C 7.796875 30.769531 7.996094 30.097656 8.371094 30.039062 C 8.746094 29.976562 9.15625 30.550781 9.28125 31.316406 " fill-opacity="1" fill-rule="nonzero"/><path fill="#f4d1b1" d="M 8.886719 30.980469 C 9.03125 31.457031 8.976562 31.894531 8.765625 31.957031 C 8.550781 32.019531 8.261719 31.6875 8.117188 31.210938 C 7.972656 30.734375 8.027344 30.292969 8.238281 30.230469 C 8.449219 30.167969 8.742188 30.5 8.886719 30.980469 " fill-opacity="1" fill-rule="nonzero"/><path fill="#dd2529" d="M 20.859375 35.210938 C 20.988281 35.976562 20.785156 36.652344 20.410156 36.710938 C 20.035156 36.773438 19.628906 36.199219 19.5 35.429688 C 19.375 34.664062 19.574219 33.988281 19.949219 33.929688 C 20.324219 33.867188 20.730469 34.441406 20.859375 35.210938 " fill-opacity="1" fill-rule="nonzero"/><path fill="#f4d1b1" d="M 20.460938 34.871094 C 20.609375 35.347656 20.554688 35.785156 20.339844 35.847656 C 20.128906 35.914062 19.839844 35.578125 19.695312 35.101562 C 19.550781 34.625 19.605469 34.1875 19.816406 34.121094 C 20.027344 34.058594 20.316406 34.394531 20.460938 34.871094 " fill-opacity="1" fill-rule="nonzero"/><path fill="#dd2529" d="M 28.414062 33.089844 C 28.382812 33.871094 28.046875 34.488281 27.667969 34.472656 C 27.289062 34.457031 27.007812 33.8125 27.039062 33.035156 C 27.074219 32.253906 27.40625 31.636719 27.785156 31.652344 C 28.167969 31.667969 28.449219 32.3125 28.414062 33.089844 " fill-opacity="1" fill-rule="nonzero"/><path fill="#f4d1b1" d="M 28.097656 32.679688 C 28.140625 33.175781 27.996094 33.59375 27.777344 33.613281 C 27.554688 33.632812 27.339844 33.246094 27.296875 32.75 C 27.253906 32.253906 27.394531 31.835938 27.617188 31.816406 C 27.835938 31.796875 28.050781 32.183594 28.097656 32.679688 " fill-opacity="1" fill-rule="nonzero"/><path fill="#dd2529" d="M 25.371094 39.558594 C 25.339844 40.335938 25.003906 40.953125 24.625 40.9375 C 24.242188 40.921875 23.960938 40.277344 23.996094 39.5 C 24.027344 38.722656 24.363281 38.105469 24.742188 38.121094 C 25.121094 38.136719 25.402344 38.777344 25.371094 39.558594 " fill-opacity="1" fill-rule="nonzero"/><path fill="#f4d1b1" d="M 25.050781 39.144531 C 25.097656 39.640625 24.953125 40.058594 24.730469 40.078125 C 24.511719 40.097656 24.296875 39.710938 24.253906 39.214844 C 24.207031 38.71875 24.351562 38.300781 24.570312 38.28125 C 24.792969 38.265625 25.007812 38.648438 25.050781 39.144531 " fill-opacity="1" fill-rule="nonzero"/><path fill="#dd2529" d="M 18.355469 40.066406 C 18.425781 40.84375 18.171875 41.5 17.792969 41.53125 C 17.414062 41.5625 17.050781 40.960938 16.984375 40.183594 C 16.917969 39.410156 17.167969 38.753906 17.546875 38.722656 C 17.925781 38.6875 18.289062 39.292969 18.355469 40.066406 " fill-opacity="1" fill-rule="nonzero"/><path fill="#f4d1b1" d="M 17.988281 39.699219 C 18.09375 40.1875 18.007812 40.617188 17.789062 40.664062 C 17.574219 40.714844 17.3125 40.355469 17.203125 39.871094 C 17.09375 39.382812 17.183594 38.953125 17.398438 38.90625 C 17.617188 38.859375 17.878906 39.214844 17.988281 39.699219 " fill-opacity="1" fill-rule="nonzero"/><path fill="#4fa036" d="M 23.933594 13.230469 C 23.171875 12.191406 21.730469 10.199219 19.980469 10.71875 C 19.980469 10.71875 15.992188 13.671875 14.117188 15.128906 C 14.113281 15.132812 14.113281 15.132812 14.109375 15.136719 C 15.085938 14.40625 16.023438 13.769531 16.585938 13.546875 C 18.191406 12.910156 19.980469 11.632812 19.980469 11.632812 C 19.980469 11.632812 22.367188 12.910156 24.292969 14.34375 C 25.074219 14.925781 26.011719 15.503906 26.871094 16.054688 C 26.871094 16.054688 24.699219 14.265625 23.933594 13.230469 M 26.382812 10.519531 L 28.628906 13.023438 C 27.570312 11.515625 26.382812 10.519531 26.382812 10.519531 M 37.050781 15.269531 C 37.050781 15.269531 37.042969 15.25 37.042969 15.238281 C 35.953125 14.859375 34.617188 14.175781 34.207031 13.546875 C 33.605469 12.617188 32.402344 11.792969 30.4375 10.996094 C 28.46875 10.199219 26.382812 10.519531 26.382812 10.519531 C 26.382812 10.519531 32 11.632812 33.765625 13.546875 C 35.535156 15.460938 37.050781 15.269531 37.050781 15.269531 M 14.179688 10.519531 C 14.179688 10.519531 9.441406 7.609375 4.222656 10.199219 C 4.222656 10.199219 10.644531 8.925781 14.175781 10.519531 " fill-opacity="1" fill-rule="nonzero"/></svg>